<?xml version="1.0" encoding="UTF-8" standalone="no"?>
<!DOCTYPE svg PUBLIC "-//W3C//DTD SVG 1.1//EN"
 "http://www.w3.org/Graphics/SVG/1.1/DTD/svg11.dtd">
<!-- Generated by graphviz version 2.49.0 (20210828.1703)
 -->
<!-- Pages: 1 -->
<svg width="1742pt" height="548pt"
 viewBox="0.00 0.00 1742.00 548.00" xmlns="http://www.w3.org/2000/svg" xmlns:xlink="http://www.w3.org/1999/xlink">
<g id="graph0" class="graph" transform="scale(1 1) rotate(0) translate(4 544)">
<polygon fill="white" stroke="transparent" points="-4,4 -4,-544 1738,-544 1738,4 -4,4"/>
<!-- epsilon&#45;runtime (1) -->
<g id="node1" class="node">
<title>epsilon&#45;runtime (1)</title>
<polygon fill="none" stroke="black" points="1348.5,-36 1226.5,-36 1226.5,0 1348.5,0 1348.5,-36"/>
<text text-anchor="middle" x="1287.5" y="-14.3" font-family="Times,serif" font-size="14.00">epsilon&#45;runtime (1)</text>
</g>
<!-- epsilon&#45;runtime&#45;eclipse (1) -->
<g id="node2" class="node">
<title>epsilon&#45;runtime&#45;eclipse (1)</title>
<polygon fill="none" stroke="black" points="1208.5,-36 1044.5,-36 1044.5,0 1208.5,0 1208.5,-36"/>
<text text-anchor="middle" x="1126.5" y="-14.3" font-family="Times,serif" font-size="14.00">epsilon&#45;runtime&#45;eclipse (1)</text>
</g>
<!-- emf&#45;genmodel&#45;generator (1) -->
<g id="node3" class="node">
<title>emf&#45;genmodel&#45;generator (1)</title>
<polygon fill="none" stroke="black" points="1026.5,-36 854.5,-36 854.5,0 1026.5,0 1026.5,-36"/>
<text text-anchor="middle" x="940.5" y="-14.3" font-family="Times,serif" font-size="14.00">emf&#45;genmodel&#45;generator (1)</text>
</g>
<!-- judo&#45;genmodel&#45;generator (1) -->
<g id="node4" class="node">
<title>judo&#45;genmodel&#45;generator (1)</title>
<polygon fill="none" stroke="black" points="576.5,-36 402.5,-36 402.5,0 576.5,0 576.5,-36"/>
<text text-anchor="middle" x="489.5" y="-14.3" font-family="Times,serif" font-size="14.00">judo&#45;genmodel&#45;generator (1)</text>
</g>
<!-- judo&#45;epp&#45;common (1) -->
<g id="node5" class="node">
<title>judo&#45;epp&#45;common (1)</title>
<polygon fill="none" stroke="black" points="732,-36 595,-36 595,0 732,0 732,-36"/>
<text text-anchor="middle" x="663.5" y="-14.3" font-family="Times,serif" font-size="14.00">judo&#45;epp&#45;common (1)</text>
</g>
<!-- osgi&#45;utils (1) -->
<g id="node6" class="node">
<title>osgi&#45;utils (1)</title>
<polygon fill="none" stroke="black" points="836.5,-36 750.5,-36 750.5,0 836.5,0 836.5,-36"/>
<text text-anchor="middle" x="793.5" y="-14.3" font-family="Times,serif" font-size="14.00">osgi&#45;utils (1)</text>
</g>
<!-- java&#45;embedded&#45;compiler (1) -->
<g id="node7" class="node">
<title>java&#45;embedded&#45;compiler (1)</title>
<polygon fill="none" stroke="black" points="1309,-252 1136,-252 1136,-216 1309,-216 1309,-252"/>
<text text-anchor="middle" x="1222.5" y="-230.3" font-family="Times,serif" font-size="14.00">java&#45;embedded&#45;compiler (1)</text>
</g>
<!-- structured&#45;map&#45;proxy (1) -->
<g id="node8" class="node">
<title>structured&#45;map&#45;proxy (1)</title>
<polygon fill="none" stroke="black" points="713,-108 558,-108 558,-72 713,-72 713,-108"/>
<text text-anchor="middle" x="635.5" y="-86.3" font-family="Times,serif" font-size="14.00">structured&#45;map&#45;proxy (1)</text>
</g>
<!-- karaf&#45;features (1) -->
<g id="node9" class="node">
<title>karaf&#45;features (1)</title>
<polygon fill="none" stroke="black" points="384,-36 273,-36 273,0 384,0 384,-36"/>
<text text-anchor="middle" x="328.5" y="-14.3" font-family="Times,serif" font-size="14.00">karaf&#45;features (1)</text>
</g>
<!-- mapper (1) -->
<g id="node10" class="node">
<title>mapper (1)</title>
<polygon fill="none" stroke="black" points="1194,-324 1117,-324 1117,-288 1194,-288 1194,-324"/>
<text text-anchor="middle" x="1155.5" y="-302.3" font-family="Times,serif" font-size="14.00">mapper (1)</text>
</g>
<!-- osgi&#45;liquibase (1) -->
<g id="node11" class="node">
<title>osgi&#45;liquibase (1)</title>
<polygon fill="none" stroke="black" points="1384.5,-540 1272.5,-540 1272.5,-504 1384.5,-504 1384.5,-540"/>
<text text-anchor="middle" x="1328.5" y="-518.3" font-family="Times,serif" font-size="14.00">osgi&#45;liquibase (1)</text>
</g>
<!-- osgi&#45;filestore (1) -->
<g id="node12" class="node">
<title>osgi&#45;filestore (1)</title>
<polygon fill="none" stroke="black" points="1319,-324 1212,-324 1212,-288 1319,-288 1319,-324"/>
<text text-anchor="middle" x="1265.5" y="-302.3" font-family="Times,serif" font-size="14.00">osgi&#45;filestore (1)</text>
</g>
<!-- judo&#45;misc&#45;p2 (1) -->
<g id="node13" class="node">
<title>judo&#45;misc&#45;p2 (1)</title>
<polygon fill="none" stroke="black" points="114,-36 5,-36 5,0 114,0 114,-36"/>
<text text-anchor="middle" x="59.5" y="-14.3" font-family="Times,serif" font-size="14.00">judo&#45;misc&#45;p2 (1)</text>
</g>
<!-- judo&#45;dao&#45;api (1) -->
<g id="node14" class="node">
<title>judo&#45;dao&#45;api (1)</title>
<polygon fill="none" stroke="black" points="973,-108 868,-108 868,-72 973,-72 973,-108"/>
<text text-anchor="middle" x="920.5" y="-86.3" font-family="Times,serif" font-size="14.00">judo&#45;dao&#45;api (1)</text>
</g>
<!-- judo&#45;dispatcher&#45;api (1) -->
<g id="node15" class="node">
<title>judo&#45;dispatcher&#45;api (1)</title>
<polygon fill="none" stroke="black" points="1132,-108 991,-108 991,-72 1132,-72 1132,-108"/>
<text text-anchor="middle" x="1061.5" y="-86.3" font-family="Times,serif" font-size="14.00">judo&#45;dispatcher&#45;api (1)</text>
</g>
<!-- judo&#45;jsl&#45;vscode (3) -->
<g id="node16" class="node">
<title>judo&#45;jsl&#45;vscode (3)</title>
<polygon fill="none" stroke="black" points="119,-180 0,-180 0,-144 119,-144 119,-180"/>
<text text-anchor="middle" x="59.5" y="-158.3" font-family="Times,serif" font-size="14.00">judo&#45;jsl&#45;vscode (3)</text>
</g>
<!-- judo&#45;meta&#45;jsl (2) -->
<g id="node22" class="node">
<title>judo&#45;meta&#45;jsl (2)</title>
<polygon fill="none" stroke="black" points="114,-108 5,-108 5,-72 114,-72 114,-108"/>
<text text-anchor="middle" x="59.5" y="-86.3" font-family="Times,serif" font-size="14.00">judo&#45;meta&#45;jsl (2)</text>
</g>
<!-- judo&#45;jsl&#45;vscode (3)&#45;&gt;judo&#45;meta&#45;jsl (2) -->
<g id="edge1" class="edge">
<title>judo&#45;jsl&#45;vscode (3)&#45;&gt;judo&#45;meta&#45;jsl (2)</title>
<path fill="none" stroke="black" d="M59.5,-143.7C59.5,-135.98 59.5,-126.71 59.5,-118.11"/>
<polygon fill="black" stroke="black" points="63,-118.1 59.5,-108.1 56,-118.1 63,-118.1"/>
</g>
<!-- judo&#45;meta&#45;asm (2) -->
<g id="node17" class="node">
<title>judo&#45;meta&#45;asm (2)</title>
<polygon fill="none" stroke="black" points="850,-108 731,-108 731,-72 850,-72 850,-108"/>
<text text-anchor="middle" x="790.5" y="-86.3" font-family="Times,serif" font-size="14.00">judo&#45;meta&#45;asm (2)</text>
</g>
<!-- judo&#45;meta&#45;asm (2)&#45;&gt;epsilon&#45;runtime (1) -->
<g id="edge3" class="edge">
<title>judo&#45;meta&#45;asm (2)&#45;&gt;epsilon&#45;runtime (1)</title>
<path fill="none" stroke="black" d="M850.23,-73.74C853.36,-73.11 856.46,-72.52 859.5,-72 1013.85,-45.36 1058.07,-62.21 1216.06,-36.11"/>
<polygon fill="black" stroke="black" points="1216.86,-39.52 1226.14,-34.41 1215.7,-32.62 1216.86,-39.52"/>
</g>
<!-- judo&#45;meta&#45;asm (2)&#45;&gt;epsilon&#45;runtime&#45;eclipse (1) -->
<g id="edge4" class="edge">
<title>judo&#45;meta&#45;asm (2)&#45;&gt;epsilon&#45;runtime&#45;eclipse (1)</title>
<path fill="none" stroke="black" d="M850.3,-74.09C853.41,-73.37 856.49,-72.67 859.5,-72 917.45,-59.12 982.82,-46.11 1034.38,-36.21"/>
<polygon fill="black" stroke="black" points="1035.33,-39.59 1044.5,-34.27 1034.02,-32.72 1035.33,-39.59"/>
</g>
<!-- judo&#45;meta&#45;asm (2)&#45;&gt;emf&#45;genmodel&#45;generator (1) -->
<g id="edge6" class="edge">
<title>judo&#45;meta&#45;asm (2)&#45;&gt;emf&#45;genmodel&#45;generator (1)</title>
<path fill="none" stroke="black" d="M827.19,-71.88C847.52,-62.39 872.97,-50.51 894.6,-40.42"/>
<polygon fill="black" stroke="black" points="896.34,-43.47 903.93,-36.07 893.38,-37.13 896.34,-43.47"/>
</g>
<!-- judo&#45;meta&#45;asm (2)&#45;&gt;judo&#45;genmodel&#45;generator (1) -->
<g id="edge5" class="edge">
<title>judo&#45;meta&#45;asm (2)&#45;&gt;judo&#45;genmodel&#45;generator (1)</title>
<path fill="none" stroke="black" d="M730.81,-74C728,-73.32 725.22,-72.65 722.5,-72 674.11,-60.45 619.92,-48.09 575.99,-38.21"/>
<polygon fill="black" stroke="black" points="576.73,-34.79 566.2,-36.02 575.19,-41.62 576.73,-34.79"/>
</g>
<!-- judo&#45;meta&#45;asm (2)&#45;&gt;judo&#45;epp&#45;common (1) -->
<g id="edge7" class="edge">
<title>judo&#45;meta&#45;asm (2)&#45;&gt;judo&#45;epp&#45;common (1)</title>
<path fill="none" stroke="black" d="M759.43,-71.88C742.67,-62.64 721.79,-51.13 703.8,-41.21"/>
<polygon fill="black" stroke="black" points="705.13,-37.95 694.69,-36.19 701.76,-44.08 705.13,-37.95"/>
</g>
<!-- judo&#45;meta&#45;asm (2)&#45;&gt;osgi&#45;utils (1) -->
<g id="edge8" class="edge">
<title>judo&#45;meta&#45;asm (2)&#45;&gt;osgi&#45;utils (1)</title>
<path fill="none" stroke="black" d="M791.24,-71.7C791.57,-63.98 791.97,-54.71 792.34,-46.11"/>
<polygon fill="black" stroke="black" points="795.84,-46.25 792.77,-36.1 788.84,-45.95 795.84,-46.25"/>
</g>
<!-- judo&#45;meta&#45;asm (2)&#45;&gt;karaf&#45;features (1) -->
<g id="edge2" class="edge">
<title>judo&#45;meta&#45;asm (2)&#45;&gt;karaf&#45;features (1)</title>
<path fill="none" stroke="black" d="M730.89,-73.61C728.06,-73.03 725.26,-72.49 722.5,-72 580.96,-46.68 539.98,-61.96 394.26,-35.96"/>
<polygon fill="black" stroke="black" points="394.51,-32.45 384.05,-34.1 393.26,-39.34 394.51,-32.45"/>
</g>
<!-- judo&#45;meta&#45;expression (3) -->
<g id="node18" class="node">
<title>judo&#45;meta&#45;expression (3)</title>
<polygon fill="none" stroke="black" points="430.5,-180 276.5,-180 276.5,-144 430.5,-144 430.5,-180"/>
<text text-anchor="middle" x="353.5" y="-158.3" font-family="Times,serif" font-size="14.00">judo&#45;meta&#45;expression (3)</text>
</g>
<!-- judo&#45;meta&#45;jql (2) -->
<g id="node21" class="node">
<title>judo&#45;meta&#45;jql (2)</title>
<polygon fill="none" stroke="black" points="242.5,-108 132.5,-108 132.5,-72 242.5,-72 242.5,-108"/>
<text text-anchor="middle" x="187.5" y="-86.3" font-family="Times,serif" font-size="14.00">judo&#45;meta&#45;jql (2)</text>
</g>
<!-- judo&#45;meta&#45;expression (3)&#45;&gt;judo&#45;meta&#45;jql (2) -->
<g id="edge9" class="edge">
<title>judo&#45;meta&#45;expression (3)&#45;&gt;judo&#45;meta&#45;jql (2)</title>
<path fill="none" stroke="black" d="M312.89,-143.88C290.1,-134.26 261.47,-122.19 237.33,-112.01"/>
<polygon fill="black" stroke="black" points="238.55,-108.73 227.98,-108.07 235.83,-115.18 238.55,-108.73"/>
</g>
<!-- judo&#45;meta&#45;measure (2) -->
<g id="node24" class="node">
<title>judo&#45;meta&#45;measure (2)</title>
<polygon fill="none" stroke="black" points="402.5,-108 260.5,-108 260.5,-72 402.5,-72 402.5,-108"/>
<text text-anchor="middle" x="331.5" y="-86.3" font-family="Times,serif" font-size="14.00">judo&#45;meta&#45;measure (2)</text>
</g>
<!-- judo&#45;meta&#45;expression (3)&#45;&gt;judo&#45;meta&#45;measure (2) -->
<g id="edge10" class="edge">
<title>judo&#45;meta&#45;expression (3)&#45;&gt;judo&#45;meta&#45;measure (2)</title>
<path fill="none" stroke="black" d="M348.06,-143.7C345.61,-135.9 342.66,-126.51 339.93,-117.83"/>
<polygon fill="black" stroke="black" points="343.21,-116.59 336.88,-108.1 336.54,-118.69 343.21,-116.59"/>
</g>
<!-- judo&#45;meta&#45;expression&#45;asm (4) -->
<g id="node19" class="node">
<title>judo&#45;meta&#45;expression&#45;asm (4)</title>
<polygon fill="none" stroke="black" points="805,-252 624,-252 624,-216 805,-216 805,-252"/>
<text text-anchor="middle" x="714.5" y="-230.3" font-family="Times,serif" font-size="14.00">judo&#45;meta&#45;expression&#45;asm (4)</text>
</g>
<!-- judo&#45;meta&#45;expression&#45;asm (4)&#45;&gt;judo&#45;meta&#45;asm (2) -->
<g id="edge12" class="edge">
<title>judo&#45;meta&#45;expression&#45;asm (4)&#45;&gt;judo&#45;meta&#45;asm (2)</title>
<path fill="none" stroke="black" d="M715.39,-215.87C717.01,-197.12 721.58,-166.72 734.5,-144 740.7,-133.09 749.87,-123.06 759,-114.74"/>
<polygon fill="black" stroke="black" points="761.33,-117.35 766.6,-108.16 756.75,-112.06 761.33,-117.35"/>
</g>
<!-- judo&#45;meta&#45;expression&#45;asm (4)&#45;&gt;judo&#45;meta&#45;expression (3) -->
<g id="edge11" class="edge">
<title>judo&#45;meta&#45;expression&#45;asm (4)&#45;&gt;judo&#45;meta&#45;expression (3)</title>
<path fill="none" stroke="black" d="M626.65,-215.97C570.15,-205.01 497.02,-190.83 440.65,-179.9"/>
<polygon fill="black" stroke="black" points="441.17,-176.43 430.69,-177.97 439.84,-183.31 441.17,-176.43"/>
</g>
<!-- judo&#45;meta&#45;expression&#45;psm (4) -->
<g id="node20" class="node">
<title>judo&#45;meta&#45;expression&#45;psm (4)</title>
<polygon fill="none" stroke="black" points="571.5,-252 389.5,-252 389.5,-216 571.5,-216 571.5,-252"/>
<text text-anchor="middle" x="480.5" y="-230.3" font-family="Times,serif" font-size="14.00">judo&#45;meta&#45;expression&#45;psm (4)</text>
</g>
<!-- judo&#45;meta&#45;expression&#45;psm (4)&#45;&gt;judo&#45;meta&#45;expression (3) -->
<g id="edge13" class="edge">
<title>judo&#45;meta&#45;expression&#45;psm (4)&#45;&gt;judo&#45;meta&#45;expression (3)</title>
<path fill="none" stroke="black" d="M449.43,-215.88C432.67,-206.64 411.79,-195.13 393.8,-185.21"/>
<polygon fill="black" stroke="black" points="395.13,-181.95 384.69,-180.19 391.76,-188.08 395.13,-181.95"/>
</g>
<!-- judo&#45;meta&#45;psm (2) -->
<g id="node25" class="node">
<title>judo&#45;meta&#45;psm (2)</title>
<polygon fill="none" stroke="black" points="540,-108 421,-108 421,-72 540,-72 540,-108"/>
<text text-anchor="middle" x="480.5" y="-86.3" font-family="Times,serif" font-size="14.00">judo&#45;meta&#45;psm (2)</text>
</g>
<!-- judo&#45;meta&#45;expression&#45;psm (4)&#45;&gt;judo&#45;meta&#45;psm (2) -->
<g id="edge14" class="edge">
<title>judo&#45;meta&#45;expression&#45;psm (4)&#45;&gt;judo&#45;meta&#45;psm (2)</title>
<path fill="none" stroke="black" d="M480.5,-215.87C480.5,-191.67 480.5,-147.21 480.5,-118.39"/>
<polygon fill="black" stroke="black" points="484,-118.19 480.5,-108.19 477,-118.19 484,-118.19"/>
</g>
<!-- judo&#45;meta&#45;jql (2)&#45;&gt;emf&#45;genmodel&#45;generator (1) -->
<g id="edge17" class="edge">
<title>judo&#45;meta&#45;jql (2)&#45;&gt;emf&#45;genmodel&#45;generator (1)</title>
<path fill="none" stroke="black" d="M242.51,-73.64C245.54,-73.03 248.55,-72.48 251.5,-72 509.29,-30.38 581.06,-66.41 844.11,-36.07"/>
<polygon fill="black" stroke="black" points="844.83,-39.51 854.35,-34.87 844.01,-32.56 844.83,-39.51"/>
</g>
<!-- judo&#45;meta&#45;jql (2)&#45;&gt;judo&#45;genmodel&#45;generator (1) -->
<g id="edge16" class="edge">
<title>judo&#45;meta&#45;jql (2)&#45;&gt;judo&#45;genmodel&#45;generator (1)</title>
<path fill="none" stroke="black" d="M242.62,-74.21C245.62,-73.45 248.6,-72.71 251.5,-72 300.15,-60.13 354.66,-47.91 399.23,-38.2"/>
<polygon fill="black" stroke="black" points="400.13,-41.59 409.16,-36.04 398.65,-34.74 400.13,-41.59"/>
</g>
<!-- judo&#45;meta&#45;jql (2)&#45;&gt;judo&#45;epp&#45;common (1) -->
<g id="edge18" class="edge">
<title>judo&#45;meta&#45;jql (2)&#45;&gt;judo&#45;epp&#45;common (1)</title>
<path fill="none" stroke="black" d="M242.54,-73.81C245.56,-73.16 248.56,-72.55 251.5,-72 395.14,-45.34 436.37,-59.3 584.74,-36.01"/>
<polygon fill="black" stroke="black" points="585.35,-39.46 594.67,-34.42 584.25,-32.54 585.35,-39.46"/>
</g>
<!-- judo&#45;meta&#45;jql (2)&#45;&gt;osgi&#45;utils (1) -->
<g id="edge19" class="edge">
<title>judo&#45;meta&#45;jql (2)&#45;&gt;osgi&#45;utils (1)</title>
<path fill="none" stroke="black" d="M242.52,-73.69C245.54,-73.07 248.55,-72.5 251.5,-72 463.59,-36.36 525.39,-76.97 740.28,-35.94"/>
<polygon fill="black" stroke="black" points="741.15,-39.34 750.3,-33.99 739.81,-32.47 741.15,-39.34"/>
</g>
<!-- judo&#45;meta&#45;jql (2)&#45;&gt;karaf&#45;features (1) -->
<g id="edge15" class="edge">
<title>judo&#45;meta&#45;jql (2)&#45;&gt;karaf&#45;features (1)</title>
<path fill="none" stroke="black" d="M221.99,-71.88C240.94,-62.47 264.63,-50.71 284.86,-40.67"/>
<polygon fill="black" stroke="black" points="286.47,-43.77 293.87,-36.19 283.36,-37.5 286.47,-43.77"/>
</g>
<!-- judo&#45;meta&#45;jsl (2)&#45;&gt;emf&#45;genmodel&#45;generator (1) -->
<g id="edge23" class="edge">
<title>judo&#45;meta&#45;jsl (2)&#45;&gt;emf&#45;genmodel&#45;generator (1)</title>
<path fill="none" stroke="black" d="M114.15,-73.68C117.3,-73.04 120.43,-72.48 123.5,-72 437.69,-22.99 524.5,-71.36 844.34,-36.03"/>
<polygon fill="black" stroke="black" points="844.81,-39.5 854.36,-34.91 844.03,-32.55 844.81,-39.5"/>
</g>
<!-- judo&#45;meta&#45;jsl (2)&#45;&gt;judo&#45;genmodel&#45;generator (1) -->
<g id="edge21" class="edge">
<title>judo&#45;meta&#45;jsl (2)&#45;&gt;judo&#45;genmodel&#45;generator (1)</title>
<path fill="none" stroke="black" d="M114.21,-73.98C117.34,-73.27 120.46,-72.6 123.5,-72 239.11,-49.03 272.14,-54.26 392.44,-36.12"/>
<polygon fill="black" stroke="black" points="393.05,-39.56 402.41,-34.59 391.99,-32.64 393.05,-39.56"/>
</g>
<!-- judo&#45;meta&#45;jsl (2)&#45;&gt;judo&#45;epp&#45;common (1) -->
<g id="edge24" class="edge">
<title>judo&#45;meta&#45;jsl (2)&#45;&gt;judo&#45;epp&#45;common (1)</title>
<path fill="none" stroke="black" d="M114.17,-73.78C117.31,-73.12 120.44,-72.52 123.5,-72 323.26,-37.98 379.92,-65.09 584.52,-36.01"/>
<polygon fill="black" stroke="black" points="585.3,-39.43 594.69,-34.53 584.29,-32.5 585.3,-39.43"/>
</g>
<!-- judo&#45;meta&#45;jsl (2)&#45;&gt;osgi&#45;utils (1) -->
<g id="edge25" class="edge">
<title>judo&#45;meta&#45;jsl (2)&#45;&gt;osgi&#45;utils (1)</title>
<path fill="none" stroke="black" d="M114.16,-73.71C117.3,-73.07 120.44,-72.49 123.5,-72 391.85,-28.99 469.28,-85.75 740.17,-35.94"/>
<polygon fill="black" stroke="black" points="741.12,-39.32 750.31,-34.04 739.83,-32.44 741.12,-39.32"/>
</g>
<!-- judo&#45;meta&#45;jsl (2)&#45;&gt;karaf&#45;features (1) -->
<g id="edge20" class="edge">
<title>judo&#45;meta&#45;jsl (2)&#45;&gt;karaf&#45;features (1)</title>
<path fill="none" stroke="black" d="M114.31,-74.42C117.42,-73.6 120.5,-72.79 123.5,-72 170.15,-59.77 222.82,-46.16 263.09,-35.79"/>
<polygon fill="black" stroke="black" points="263.98,-39.18 272.79,-33.3 262.23,-32.4 263.98,-39.18"/>
</g>
<!-- judo&#45;meta&#45;jsl (2)&#45;&gt;judo&#45;misc&#45;p2 (1) -->
<g id="edge22" class="edge">
<title>judo&#45;meta&#45;jsl (2)&#45;&gt;judo&#45;misc&#45;p2 (1)</title>
<path fill="none" stroke="black" d="M59.5,-71.7C59.5,-63.98 59.5,-54.71 59.5,-46.11"/>
<polygon fill="black" stroke="black" points="63,-46.1 59.5,-36.1 56,-46.1 63,-46.1"/>
</g>
<!-- judo&#45;meta&#45;liquibase (2) -->
<g id="node23" class="node">
<title>judo&#45;meta&#45;liquibase (2)</title>
<polygon fill="none" stroke="black" points="1295,-108 1150,-108 1150,-72 1295,-72 1295,-108"/>
<text text-anchor="middle" x="1222.5" y="-86.3" font-family="Times,serif" font-size="14.00">judo&#45;meta&#45;liquibase (2)</text>
</g>
<!-- judo&#45;meta&#45;liquibase (2)&#45;&gt;epsilon&#45;runtime (1) -->
<g id="edge27" class="edge">
<title>judo&#45;meta&#45;liquibase (2)&#45;&gt;epsilon&#45;runtime (1)</title>
<path fill="none" stroke="black" d="M1238.57,-71.7C1246.44,-63.22 1256.06,-52.86 1264.67,-43.58"/>
<polygon fill="black" stroke="black" points="1267.38,-45.81 1271.62,-36.1 1262.25,-41.05 1267.38,-45.81"/>
</g>
<!-- judo&#45;meta&#45;liquibase (2)&#45;&gt;epsilon&#45;runtime&#45;eclipse (1) -->
<g id="edge28" class="edge">
<title>judo&#45;meta&#45;liquibase (2)&#45;&gt;epsilon&#45;runtime&#45;eclipse (1)</title>
<path fill="none" stroke="black" d="M1198.77,-71.7C1186.56,-62.8 1171.51,-51.82 1158.32,-42.2"/>
<polygon fill="black" stroke="black" points="1160.1,-39.17 1149.96,-36.1 1155.98,-44.82 1160.1,-39.17"/>
</g>
<!-- judo&#45;meta&#45;liquibase (2)&#45;&gt;emf&#45;genmodel&#45;generator (1) -->
<g id="edge30" class="edge">
<title>judo&#45;meta&#45;liquibase (2)&#45;&gt;emf&#45;genmodel&#45;generator (1)</title>
<path fill="none" stroke="black" d="M1153.88,-71.97C1113.19,-61.87 1061.47,-49.03 1019.14,-38.52"/>
<polygon fill="black" stroke="black" points="1019.98,-35.12 1009.43,-36.11 1018.29,-41.92 1019.98,-35.12"/>
</g>
<!-- judo&#45;meta&#45;liquibase (2)&#45;&gt;judo&#45;genmodel&#45;generator (1) -->
<g id="edge29" class="edge">
<title>judo&#45;meta&#45;liquibase (2)&#45;&gt;judo&#45;genmodel&#45;generator (1)</title>
<path fill="none" stroke="black" d="M1149.73,-73.22C1146.95,-72.78 1144.2,-72.37 1141.5,-72 899.82,-38.97 833.67,-64.68 586.68,-35.92"/>
<polygon fill="black" stroke="black" points="587.03,-32.44 576.68,-34.74 586.2,-39.39 587.03,-32.44"/>
</g>
<!-- judo&#45;meta&#45;liquibase (2)&#45;&gt;judo&#45;epp&#45;common (1) -->
<g id="edge31" class="edge">
<title>judo&#45;meta&#45;liquibase (2)&#45;&gt;judo&#45;epp&#45;common (1)</title>
<path fill="none" stroke="black" d="M1149.71,-73.3C1146.95,-72.84 1144.2,-72.4 1141.5,-72 968.15,-46.1 919.68,-62.44 742.24,-35.99"/>
<polygon fill="black" stroke="black" points="742.73,-32.52 732.32,-34.49 741.68,-39.45 742.73,-32.52"/>
</g>
<!-- judo&#45;meta&#45;liquibase (2)&#45;&gt;osgi&#45;utils (1) -->
<g id="edge32" class="edge">
<title>judo&#45;meta&#45;liquibase (2)&#45;&gt;osgi&#45;utils (1)</title>
<path fill="none" stroke="black" d="M1149.7,-73.41C1146.93,-72.92 1144.19,-72.45 1141.5,-72 1013.94,-50.9 976.68,-64.05 846.67,-36.02"/>
<polygon fill="black" stroke="black" points="847.25,-32.56 836.74,-33.83 845.75,-39.4 847.25,-32.56"/>
</g>
<!-- judo&#45;meta&#45;liquibase (2)&#45;&gt;karaf&#45;features (1) -->
<g id="edge26" class="edge">
<title>judo&#45;meta&#45;liquibase (2)&#45;&gt;karaf&#45;features (1)</title>
<path fill="none" stroke="black" d="M1149.73,-73.16C1146.96,-72.74 1144.21,-72.35 1141.5,-72 814.76,-30.12 724.34,-85.23 394.34,-35.9"/>
<polygon fill="black" stroke="black" points="394.42,-32.37 384.01,-34.33 393.37,-39.29 394.42,-32.37"/>
</g>
<!-- judo&#45;meta&#45;measure (2)&#45;&gt;epsilon&#45;runtime (1) -->
<g id="edge34" class="edge">
<title>judo&#45;meta&#45;measure (2)&#45;&gt;epsilon&#45;runtime (1)</title>
<path fill="none" stroke="black" d="M402.51,-73.42C405.88,-72.89 409.22,-72.41 412.5,-72 764.51,-27.49 861.15,-85.4 1216.13,-36.02"/>
<polygon fill="black" stroke="black" points="1216.76,-39.47 1226.17,-34.61 1215.78,-32.54 1216.76,-39.47"/>
</g>
<!-- judo&#45;meta&#45;measure (2)&#45;&gt;epsilon&#45;runtime&#45;eclipse (1) -->
<g id="edge35" class="edge">
<title>judo&#45;meta&#45;measure (2)&#45;&gt;epsilon&#45;runtime&#45;eclipse (1)</title>
<path fill="none" stroke="black" d="M402.51,-73.47C405.88,-72.93 409.22,-72.44 412.5,-72 684.07,-35.86 758.38,-68.71 1033.92,-36.09"/>
<polygon fill="black" stroke="black" points="1034.72,-39.52 1044.23,-34.85 1033.89,-32.57 1034.72,-39.52"/>
</g>
<!-- judo&#45;meta&#45;measure (2)&#45;&gt;emf&#45;genmodel&#45;generator (1) -->
<g id="edge37" class="edge">
<title>judo&#45;meta&#45;measure (2)&#45;&gt;emf&#45;genmodel&#45;generator (1)</title>
<path fill="none" stroke="black" d="M402.53,-73.57C405.89,-73.01 409.23,-72.48 412.5,-72 600.32,-44.59 652.26,-60.47 844.2,-36.09"/>
<polygon fill="black" stroke="black" points="844.87,-39.53 854.34,-34.78 843.98,-32.59 844.87,-39.53"/>
</g>
<!-- judo&#45;meta&#45;measure (2)&#45;&gt;judo&#45;genmodel&#45;generator (1) -->
<g id="edge36" class="edge">
<title>judo&#45;meta&#45;measure (2)&#45;&gt;judo&#45;genmodel&#45;generator (1)</title>
<path fill="none" stroke="black" d="M370.15,-71.88C391.75,-62.31 418.85,-50.3 441.77,-40.15"/>
<polygon fill="black" stroke="black" points="443.25,-43.32 450.97,-36.07 440.41,-36.92 443.25,-43.32"/>
</g>
<!-- judo&#45;meta&#45;measure (2)&#45;&gt;judo&#45;epp&#45;common (1) -->
<g id="edge38" class="edge">
<title>judo&#45;meta&#45;measure (2)&#45;&gt;judo&#45;epp&#45;common (1)</title>
<path fill="none" stroke="black" d="M402.62,-74.07C405.96,-73.37 409.27,-72.68 412.5,-72 486.22,-56.59 507.01,-52.68 584.36,-36.23"/>
<polygon fill="black" stroke="black" points="585.55,-39.56 594.6,-34.05 584.09,-32.71 585.55,-39.56"/>
</g>
<!-- judo&#45;meta&#45;measure (2)&#45;&gt;osgi&#45;utils (1) -->
<g id="edge39" class="edge">
<title>judo&#45;meta&#45;measure (2)&#45;&gt;osgi&#45;utils (1)</title>
<path fill="none" stroke="black" d="M402.55,-73.68C405.91,-73.08 409.24,-72.52 412.5,-72 554.5,-49.39 595.87,-66.23 740.16,-36.03"/>
<polygon fill="black" stroke="black" points="741.22,-39.38 750.27,-33.87 739.76,-32.54 741.22,-39.38"/>
</g>
<!-- judo&#45;meta&#45;measure (2)&#45;&gt;karaf&#45;features (1) -->
<g id="edge33" class="edge">
<title>judo&#45;meta&#45;measure (2)&#45;&gt;karaf&#45;features (1)</title>
<path fill="none" stroke="black" d="M330.76,-71.7C330.43,-63.98 330.03,-54.71 329.66,-46.11"/>
<polygon fill="black" stroke="black" points="333.16,-45.95 329.23,-36.1 326.16,-46.25 333.16,-45.95"/>
</g>
<!-- judo&#45;meta&#45;psm (2)&#45;&gt;epsilon&#45;runtime (1) -->
<g id="edge41" class="edge">
<title>judo&#45;meta&#45;psm (2)&#45;&gt;epsilon&#45;runtime (1)</title>
<path fill="none" stroke="black" d="M540.2,-73.56C543.34,-72.98 546.45,-72.45 549.5,-72 840.28,-28.74 921.53,-78.13 1216.05,-36.04"/>
<polygon fill="black" stroke="black" points="1216.77,-39.47 1226.17,-34.57 1215.77,-32.55 1216.77,-39.47"/>
</g>
<!-- judo&#45;meta&#45;psm (2)&#45;&gt;epsilon&#45;runtime&#45;eclipse (1) -->
<g id="edge42" class="edge">
<title>judo&#45;meta&#45;psm (2)&#45;&gt;epsilon&#45;runtime&#45;eclipse (1)</title>
<path fill="none" stroke="black" d="M540.21,-73.64C543.34,-73.04 546.45,-72.48 549.5,-72 760.16,-38.49 818.95,-63.16 1034.19,-36.08"/>
<polygon fill="black" stroke="black" points="1034.75,-39.53 1044.23,-34.79 1033.86,-32.59 1034.75,-39.53"/>
</g>
<!-- judo&#45;meta&#45;psm (2)&#45;&gt;emf&#45;genmodel&#45;generator (1) -->
<g id="edge44" class="edge">
<title>judo&#45;meta&#45;psm (2)&#45;&gt;emf&#45;genmodel&#45;generator (1)</title>
<path fill="none" stroke="black" d="M540.24,-73.81C543.37,-73.17 546.47,-72.56 549.5,-72 676.67,-48.69 712.7,-55.33 844.26,-36.13"/>
<polygon fill="black" stroke="black" points="844.94,-39.57 854.32,-34.64 843.92,-32.64 844.94,-39.57"/>
</g>
<!-- judo&#45;meta&#45;psm (2)&#45;&gt;judo&#45;genmodel&#45;generator (1) -->
<g id="edge43" class="edge">
<title>judo&#45;meta&#45;psm (2)&#45;&gt;judo&#45;genmodel&#45;generator (1)</title>
<path fill="none" stroke="black" d="M482.72,-71.7C483.72,-63.98 484.91,-54.71 486.01,-46.11"/>
<polygon fill="black" stroke="black" points="489.5,-46.47 487.3,-36.1 482.55,-45.58 489.5,-46.47"/>
</g>
<!-- judo&#45;meta&#45;psm (2)&#45;&gt;judo&#45;epp&#45;common (1) -->
<g id="edge45" class="edge">
<title>judo&#45;meta&#45;psm (2)&#45;&gt;judo&#45;epp&#45;common (1)</title>
<path fill="none" stroke="black" d="M525.27,-71.88C550.62,-62.18 582.51,-49.98 609.27,-39.74"/>
<polygon fill="black" stroke="black" points="610.79,-42.91 618.88,-36.07 608.29,-36.37 610.79,-42.91"/>
</g>
<!-- judo&#45;meta&#45;psm (2)&#45;&gt;osgi&#45;utils (1) -->
<g id="edge46" class="edge">
<title>judo&#45;meta&#45;psm (2)&#45;&gt;osgi&#45;utils (1)</title>
<path fill="none" stroke="black" d="M540.29,-74.05C543.4,-73.34 546.49,-72.65 549.5,-72 631.28,-54.27 655.65,-57.28 740.67,-36.03"/>
<polygon fill="black" stroke="black" points="741.67,-39.39 750.5,-33.54 739.94,-32.61 741.67,-39.39"/>
</g>
<!-- judo&#45;meta&#45;psm (2)&#45;&gt;karaf&#45;features (1) -->
<g id="edge40" class="edge">
<title>judo&#45;meta&#45;psm (2)&#45;&gt;karaf&#45;features (1)</title>
<path fill="none" stroke="black" d="M443.32,-71.88C422.63,-62.35 396.7,-50.41 374.72,-40.28"/>
<polygon fill="black" stroke="black" points="376.11,-37.07 365.56,-36.07 373.18,-43.43 376.11,-37.07"/>
</g>
<!-- judo&#45;meta&#45;query (2) -->
<g id="node26" class="node">
<title>judo&#45;meta&#45;query (2)</title>
<polygon fill="none" stroke="black" points="1589,-108 1462,-108 1462,-72 1589,-72 1589,-108"/>
<text text-anchor="middle" x="1525.5" y="-86.3" font-family="Times,serif" font-size="14.00">judo&#45;meta&#45;query (2)</text>
</g>
<!-- judo&#45;meta&#45;query (2)&#45;&gt;epsilon&#45;runtime (1) -->
<g id="edge48" class="edge">
<title>judo&#45;meta&#45;query (2)&#45;&gt;epsilon&#45;runtime (1)</title>
<path fill="none" stroke="black" d="M1467.58,-71.97C1433.75,-62.01 1390.88,-49.41 1355.46,-38.99"/>
<polygon fill="black" stroke="black" points="1356.26,-35.57 1345.68,-36.11 1354.28,-42.29 1356.26,-35.57"/>
</g>
<!-- judo&#45;meta&#45;query (2)&#45;&gt;epsilon&#45;runtime&#45;eclipse (1) -->
<g id="edge49" class="edge">
<title>judo&#45;meta&#45;query (2)&#45;&gt;epsilon&#45;runtime&#45;eclipse (1)</title>
<path fill="none" stroke="black" d="M1461.96,-73.7C1459.1,-73.11 1456.27,-72.54 1453.5,-72 1352.49,-52.4 1323.83,-53.65 1218.87,-36.2"/>
<polygon fill="black" stroke="black" points="1219.26,-32.71 1208.82,-34.51 1218.1,-39.61 1219.26,-32.71"/>
</g>
<!-- judo&#45;meta&#45;query (2)&#45;&gt;emf&#45;genmodel&#45;generator (1) -->
<g id="edge51" class="edge">
<title>judo&#45;meta&#45;query (2)&#45;&gt;emf&#45;genmodel&#45;generator (1)</title>
<path fill="none" stroke="black" d="M1462,-73.48C1459.13,-72.94 1456.29,-72.45 1453.5,-72 1272.62,-43.02 1222.12,-59.83 1036.74,-36.09"/>
<polygon fill="black" stroke="black" points="1037.03,-32.59 1026.66,-34.77 1036.12,-39.53 1037.03,-32.59"/>
</g>
<!-- judo&#45;meta&#45;query (2)&#45;&gt;judo&#45;genmodel&#45;generator (1) -->
<g id="edge50" class="edge">
<title>judo&#45;meta&#45;query (2)&#45;&gt;judo&#45;genmodel&#45;generator (1)</title>
<path fill="none" stroke="black" d="M1461.63,-73.25C1458.89,-72.79 1456.17,-72.37 1453.5,-72 1074.7,-19.9 971.69,-76.4 586.69,-35.91"/>
<polygon fill="black" stroke="black" points="586.99,-32.42 576.67,-34.84 586.24,-39.38 586.99,-32.42"/>
</g>
<!-- judo&#45;meta&#45;query (2)&#45;&gt;judo&#45;epp&#45;common (1) -->
<g id="edge52" class="edge">
<title>judo&#45;meta&#45;query (2)&#45;&gt;judo&#45;epp&#45;common (1)</title>
<path fill="none" stroke="black" d="M1461.62,-73.28C1458.89,-72.81 1456.17,-72.38 1453.5,-72 1143.17,-27.89 1057.41,-76.8 742.63,-36"/>
<polygon fill="black" stroke="black" points="742.67,-32.47 732.3,-34.63 741.75,-39.41 742.67,-32.47"/>
</g>
<!-- judo&#45;meta&#45;query (2)&#45;&gt;osgi&#45;utils (1) -->
<g id="edge53" class="edge">
<title>judo&#45;meta&#45;query (2)&#45;&gt;osgi&#45;utils (1)</title>
<path fill="none" stroke="black" d="M1461.62,-73.31C1458.88,-72.83 1456.17,-72.39 1453.5,-72 1188.93,-33.23 1113.29,-85.18 846.67,-35.91"/>
<polygon fill="black" stroke="black" points="847.17,-32.45 836.69,-34.04 845.88,-39.33 847.17,-32.45"/>
</g>
<!-- judo&#45;meta&#45;query (2)&#45;&gt;karaf&#45;features (1) -->
<g id="edge47" class="edge">
<title>judo&#45;meta&#45;query (2)&#45;&gt;karaf&#45;features (1)</title>
<path fill="none" stroke="black" d="M1461.63,-73.23C1458.89,-72.77 1456.17,-72.36 1453.5,-72 989.58,-9.98 861.75,-102.72 394.06,-35.84"/>
<polygon fill="black" stroke="black" points="394.4,-32.35 384,-34.38 393.4,-39.28 394.4,-32.35"/>
</g>
<!-- judo&#45;meta&#45;rdbms (2) -->
<g id="node27" class="node">
<title>judo&#45;meta&#45;rdbms (2)</title>
<polygon fill="none" stroke="black" points="1444,-108 1313,-108 1313,-72 1444,-72 1444,-108"/>
<text text-anchor="middle" x="1378.5" y="-86.3" font-family="Times,serif" font-size="14.00">judo&#45;meta&#45;rdbms (2)</text>
</g>
<!-- judo&#45;meta&#45;rdbms (2)&#45;&gt;epsilon&#45;runtime (1) -->
<g id="edge55" class="edge">
<title>judo&#45;meta&#45;rdbms (2)&#45;&gt;epsilon&#45;runtime (1)</title>
<path fill="none" stroke="black" d="M1356.01,-71.7C1344.54,-62.88 1330.44,-52.03 1318.02,-42.47"/>
<polygon fill="black" stroke="black" points="1319.8,-39.43 1309.74,-36.1 1315.53,-44.98 1319.8,-39.43"/>
</g>
<!-- judo&#45;meta&#45;rdbms (2)&#45;&gt;epsilon&#45;runtime&#45;eclipse (1) -->
<g id="edge56" class="edge">
<title>judo&#45;meta&#45;rdbms (2)&#45;&gt;epsilon&#45;runtime&#45;eclipse (1)</title>
<path fill="none" stroke="black" d="M1317.18,-71.97C1281.2,-61.97 1235.57,-49.3 1197.97,-38.85"/>
<polygon fill="black" stroke="black" points="1198.67,-35.42 1188.1,-36.11 1196.8,-42.16 1198.67,-35.42"/>
</g>
<!-- judo&#45;meta&#45;rdbms (2)&#45;&gt;emf&#45;genmodel&#45;generator (1) -->
<g id="edge58" class="edge">
<title>judo&#45;meta&#45;rdbms (2)&#45;&gt;emf&#45;genmodel&#45;generator (1)</title>
<path fill="none" stroke="black" d="M1312.8,-73.57C1310,-73.02 1307.22,-72.49 1304.5,-72 1188.94,-51.04 1156.38,-54.43 1036.61,-36.13"/>
<polygon fill="black" stroke="black" points="1037.1,-32.66 1026.69,-34.59 1036.03,-39.58 1037.1,-32.66"/>
</g>
<!-- judo&#45;meta&#45;rdbms (2)&#45;&gt;judo&#45;genmodel&#45;generator (1) -->
<g id="edge57" class="edge">
<title>judo&#45;meta&#45;rdbms (2)&#45;&gt;judo&#45;genmodel&#45;generator (1)</title>
<path fill="none" stroke="black" d="M1312.84,-73.29C1310.03,-72.81 1307.24,-72.38 1304.5,-72 991.27,-28.51 905.76,-70.76 586.67,-35.91"/>
<polygon fill="black" stroke="black" points="587,-32.42 576.68,-34.8 586.23,-39.38 587,-32.42"/>
</g>
<!-- judo&#45;meta&#45;rdbms (2)&#45;&gt;judo&#45;epp&#45;common (1) -->
<g id="edge59" class="edge">
<title>judo&#45;meta&#45;rdbms (2)&#45;&gt;judo&#45;epp&#45;common (1)</title>
<path fill="none" stroke="black" d="M1312.84,-73.33C1310.03,-72.85 1307.24,-72.4 1304.5,-72 1059.66,-36.29 991.59,-69.89 742.39,-35.98"/>
<polygon fill="black" stroke="black" points="742.69,-32.49 732.3,-34.58 741.73,-39.42 742.69,-32.49"/>
</g>
<!-- judo&#45;meta&#45;rdbms (2)&#45;&gt;osgi&#45;utils (1) -->
<g id="edge60" class="edge">
<title>judo&#45;meta&#45;rdbms (2)&#45;&gt;osgi&#45;utils (1)</title>
<path fill="none" stroke="black" d="M1312.83,-73.38C1310.02,-72.88 1307.24,-72.42 1304.5,-72 1105.49,-41.51 1048.01,-74.96 846.71,-35.95"/>
<polygon fill="black" stroke="black" points="847.19,-32.48 836.71,-33.98 845.84,-39.35 847.19,-32.48"/>
</g>
<!-- judo&#45;meta&#45;rdbms (2)&#45;&gt;karaf&#45;features (1) -->
<g id="edge54" class="edge">
<title>judo&#45;meta&#45;rdbms (2)&#45;&gt;karaf&#45;features (1)</title>
<path fill="none" stroke="black" d="M1312.85,-73.25C1310.04,-72.79 1307.24,-72.37 1304.5,-72 906.19,-18.85 796.12,-94.34 394.16,-35.86"/>
<polygon fill="black" stroke="black" points="394.41,-32.36 384.01,-34.36 393.39,-39.28 394.41,-32.36"/>
</g>
<!-- judo&#45;operation&#45;utils (3) -->
<g id="node28" class="node">
<title>judo&#45;operation&#45;utils (3)</title>
<polygon fill="none" stroke="black" points="1041,-180 898,-180 898,-144 1041,-144 1041,-180"/>
<text text-anchor="middle" x="969.5" y="-158.3" font-family="Times,serif" font-size="14.00">judo&#45;operation&#45;utils (3)</text>
</g>
<!-- judo&#45;operation&#45;utils (3)&#45;&gt;judo&#45;dao&#45;api (1) -->
<g id="edge63" class="edge">
<title>judo&#45;operation&#45;utils (3)&#45;&gt;judo&#45;dao&#45;api (1)</title>
<path fill="none" stroke="black" d="M957.39,-143.7C951.63,-135.47 944.64,-125.48 938.29,-116.42"/>
<polygon fill="black" stroke="black" points="941.08,-114.29 932.47,-108.1 935.34,-118.3 941.08,-114.29"/>
</g>
<!-- judo&#45;operation&#45;utils (3)&#45;&gt;judo&#45;dispatcher&#45;api (1) -->
<g id="edge62" class="edge">
<title>judo&#45;operation&#45;utils (3)&#45;&gt;judo&#45;dispatcher&#45;api (1)</title>
<path fill="none" stroke="black" d="M992.24,-143.7C1003.94,-134.8 1018.36,-123.82 1031.01,-114.2"/>
<polygon fill="black" stroke="black" points="1033.18,-116.94 1039.02,-108.1 1028.94,-111.37 1033.18,-116.94"/>
</g>
<!-- judo&#45;operation&#45;utils (3)&#45;&gt;judo&#45;meta&#45;asm (2) -->
<g id="edge61" class="edge">
<title>judo&#45;operation&#45;utils (3)&#45;&gt;judo&#45;meta&#45;asm (2)</title>
<path fill="none" stroke="black" d="M925.71,-143.88C900.92,-134.18 869.72,-121.98 843.54,-111.74"/>
<polygon fill="black" stroke="black" points="844.73,-108.45 834.15,-108.07 842.18,-114.97 844.73,-108.45"/>
</g>
<!-- judo&#45;runtime&#45;core (6) -->
<g id="node29" class="node">
<title>judo&#45;runtime&#45;core (6)</title>
<polygon fill="none" stroke="black" points="1223,-396 1088,-396 1088,-360 1223,-360 1223,-396"/>
<text text-anchor="middle" x="1155.5" y="-374.3" font-family="Times,serif" font-size="14.00">judo&#45;runtime&#45;core (6)</text>
</g>
<!-- judo&#45;runtime&#45;core (6)&#45;&gt;mapper (1) -->
<g id="edge65" class="edge">
<title>judo&#45;runtime&#45;core (6)&#45;&gt;mapper (1)</title>
<path fill="none" stroke="black" d="M1155.5,-359.7C1155.5,-351.98 1155.5,-342.71 1155.5,-334.11"/>
<polygon fill="black" stroke="black" points="1159,-334.1 1155.5,-324.1 1152,-334.1 1159,-334.1"/>
</g>
<!-- judo&#45;runtime&#45;core (6)&#45;&gt;osgi&#45;filestore (1) -->
<g id="edge66" class="edge">
<title>judo&#45;runtime&#45;core (6)&#45;&gt;osgi&#45;filestore (1)</title>
<path fill="none" stroke="black" d="M1182.41,-359.88C1196.66,-350.81 1214.35,-339.55 1229.74,-329.76"/>
<polygon fill="black" stroke="black" points="1231.93,-332.51 1238.49,-324.19 1228.17,-326.61 1231.93,-332.51"/>
</g>
<!-- judo&#45;runtime&#45;core (6)&#45;&gt;judo&#45;meta&#45;query (2) -->
<g id="edge67" class="edge">
<title>judo&#45;runtime&#45;core (6)&#45;&gt;judo&#45;meta&#45;query (2)</title>
<path fill="none" stroke="black" d="M1223.04,-365.69C1256.72,-357.81 1296.9,-344.84 1328.5,-324 1413.28,-268.08 1481.56,-165.24 1510.51,-117.12"/>
<polygon fill="black" stroke="black" points="1513.68,-118.64 1515.77,-108.25 1507.66,-115.07 1513.68,-118.64"/>
</g>
<!-- judo&#45;tatami&#45;base (5) -->
<g id="node32" class="node">
<title>judo&#45;tatami&#45;base (5)</title>
<polygon fill="none" stroke="black" points="1098.5,-324 970.5,-324 970.5,-288 1098.5,-288 1098.5,-324"/>
<text text-anchor="middle" x="1034.5" y="-302.3" font-family="Times,serif" font-size="14.00">judo&#45;tatami&#45;base (5)</text>
</g>
<!-- judo&#45;runtime&#45;core (6)&#45;&gt;judo&#45;tatami&#45;base (5) -->
<g id="edge64" class="edge">
<title>judo&#45;runtime&#45;core (6)&#45;&gt;judo&#45;tatami&#45;base (5)</title>
<path fill="none" stroke="black" d="M1125.9,-359.88C1109.93,-350.64 1090.04,-339.13 1072.89,-329.21"/>
<polygon fill="black" stroke="black" points="1074.62,-326.17 1064.21,-324.19 1071.12,-332.23 1074.62,-326.17"/>
</g>
<!-- judo&#45;runtime&#45;core&#45;jsl (8) -->
<g id="node30" class="node">
<title>judo&#45;runtime&#45;core&#45;jsl (8)</title>
<polygon fill="none" stroke="black" points="706.5,-540 554.5,-540 554.5,-504 706.5,-504 706.5,-540"/>
<text text-anchor="middle" x="630.5" y="-518.3" font-family="Times,serif" font-size="14.00">judo&#45;runtime&#45;core&#45;jsl (8)</text>
</g>
<!-- judo&#45;tatami&#45;jsl (7) -->
<g id="node34" class="node">
<title>judo&#45;tatami&#45;jsl (7)</title>
<polygon fill="none" stroke="black" points="596.5,-468 480.5,-468 480.5,-432 596.5,-432 596.5,-468"/>
<text text-anchor="middle" x="538.5" y="-446.3" font-family="Times,serif" font-size="14.00">judo&#45;tatami&#45;jsl (7)</text>
</g>
<!-- judo&#45;runtime&#45;core&#45;jsl (8)&#45;&gt;judo&#45;tatami&#45;jsl (7) -->
<g id="edge68" class="edge">
<title>judo&#45;runtime&#45;core&#45;jsl (8)&#45;&gt;judo&#45;tatami&#45;jsl (7)</title>
<path fill="none" stroke="black" d="M607.76,-503.7C596.06,-494.8 581.64,-483.82 568.99,-474.2"/>
<polygon fill="black" stroke="black" points="571.06,-471.37 560.98,-468.1 566.82,-476.94 571.06,-471.37"/>
</g>
<!-- judo&#45;sdk&#45;common (3) -->
<g id="node31" class="node">
<title>judo&#45;sdk&#45;common (3)</title>
<polygon fill="none" stroke="black" points="880,-180 743,-180 743,-144 880,-144 880,-180"/>
<text text-anchor="middle" x="811.5" y="-158.3" font-family="Times,serif" font-size="14.00">judo&#45;sdk&#45;common (3)</text>
</g>
<!-- judo&#45;sdk&#45;common (3)&#45;&gt;structured&#45;map&#45;proxy (1) -->
<g id="edge71" class="edge">
<title>judo&#45;sdk&#45;common (3)&#45;&gt;structured&#45;map&#45;proxy (1)</title>
<path fill="none" stroke="black" d="M768.45,-143.88C744.17,-134.22 713.66,-122.09 687.99,-111.88"/>
<polygon fill="black" stroke="black" points="689,-108.51 678.41,-108.07 686.41,-115.02 689,-108.51"/>
</g>
<!-- judo&#45;sdk&#45;common (3)&#45;&gt;judo&#45;dao&#45;api (1) -->
<g id="edge70" class="edge">
<title>judo&#45;sdk&#45;common (3)&#45;&gt;judo&#45;dao&#45;api (1)</title>
<path fill="none" stroke="black" d="M838.16,-143.88C852.28,-134.81 869.81,-123.55 885.06,-113.76"/>
<polygon fill="black" stroke="black" points="887.21,-116.54 893.73,-108.19 883.43,-110.65 887.21,-116.54"/>
</g>
<!-- judo&#45;sdk&#45;common (3)&#45;&gt;judo&#45;meta&#45;asm (2) -->
<g id="edge69" class="edge">
<title>judo&#45;sdk&#45;common (3)&#45;&gt;judo&#45;meta&#45;asm (2)</title>
<path fill="none" stroke="black" d="M806.31,-143.7C803.97,-135.9 801.15,-126.51 798.55,-117.83"/>
<polygon fill="black" stroke="black" points="801.86,-116.68 795.63,-108.1 795.15,-118.69 801.86,-116.68"/>
</g>
<!-- judo&#45;tatami&#45;base (5)&#45;&gt;java&#45;embedded&#45;compiler (1) -->
<g id="edge73" class="edge">
<title>judo&#45;tatami&#45;base (5)&#45;&gt;java&#45;embedded&#45;compiler (1)</title>
<path fill="none" stroke="black" d="M1080.49,-287.88C1106.65,-278.14 1139.59,-265.87 1167.15,-255.61"/>
<polygon fill="black" stroke="black" points="1168.51,-258.84 1176.66,-252.07 1166.07,-252.28 1168.51,-258.84"/>
</g>
<!-- judo&#45;tatami&#45;base (5)&#45;&gt;judo&#45;meta&#45;expression&#45;asm (4) -->
<g id="edge74" class="edge">
<title>judo&#45;tatami&#45;base (5)&#45;&gt;judo&#45;meta&#45;expression&#45;asm (4)</title>
<path fill="none" stroke="black" d="M970.13,-290.92C921.95,-280.38 855.49,-265.84 802.42,-254.23"/>
<polygon fill="black" stroke="black" points="802.85,-250.74 792.33,-252.03 801.35,-257.58 802.85,-250.74"/>
</g>
<!-- judo&#45;tatami&#45;base (5)&#45;&gt;judo&#45;meta&#45;expression&#45;psm (4) -->
<g id="edge78" class="edge">
<title>judo&#45;tatami&#45;base (5)&#45;&gt;judo&#45;meta&#45;expression&#45;psm (4)</title>
<path fill="none" stroke="black" d="M970.41,-296.9C875.16,-284.87 695.34,-262.15 582.06,-247.83"/>
<polygon fill="black" stroke="black" points="582.35,-244.34 571.99,-246.56 581.47,-251.29 582.35,-244.34"/>
</g>
<!-- judo&#45;tatami&#45;base (5)&#45;&gt;judo&#45;meta&#45;liquibase (2) -->
<g id="edge76" class="edge">
<title>judo&#45;tatami&#45;base (5)&#45;&gt;judo&#45;meta&#45;liquibase (2)</title>
<path fill="none" stroke="black" d="M1036.29,-287.57C1040.5,-255.16 1053.87,-185.19 1093.5,-144 1106.94,-130.03 1124.58,-119.62 1142.49,-111.9"/>
<polygon fill="black" stroke="black" points="1143.91,-115.11 1151.86,-108.11 1141.28,-108.62 1143.91,-115.11"/>
</g>
<!-- judo&#45;tatami&#45;base (5)&#45;&gt;judo&#45;meta&#45;rdbms (2) -->
<g id="edge77" class="edge">
<title>judo&#45;tatami&#45;base (5)&#45;&gt;judo&#45;meta&#45;rdbms (2)</title>
<path fill="none" stroke="black" d="M1049.34,-287.99C1066.69,-268.8 1096.97,-237.46 1127.5,-216 1190.86,-171.46 1272.41,-134 1325.07,-112.03"/>
<polygon fill="black" stroke="black" points="1326.65,-115.16 1334.56,-108.1 1323.98,-108.69 1326.65,-115.16"/>
</g>
<!-- judo&#45;tatami&#45;base (5)&#45;&gt;judo&#45;operation&#45;utils (3) -->
<g id="edge72" class="edge">
<title>judo&#45;tatami&#45;base (5)&#45;&gt;judo&#45;operation&#45;utils (3)</title>
<path fill="none" stroke="black" d="M1026.66,-287.87C1015.48,-263.46 994.87,-218.43 981.69,-189.64"/>
<polygon fill="black" stroke="black" points="984.71,-187.83 977.37,-180.19 978.35,-190.74 984.71,-187.83"/>
</g>
<!-- judo&#45;tatami&#45;base (5)&#45;&gt;judo&#45;sdk&#45;common (3) -->
<g id="edge79" class="edge">
<title>judo&#45;tatami&#45;base (5)&#45;&gt;judo&#45;sdk&#45;common (3)</title>
<path fill="none" stroke="black" d="M1007.6,-287.87C967.42,-262.28 891.67,-214.05 847,-185.6"/>
<polygon fill="black" stroke="black" points="848.81,-182.61 838.49,-180.19 845.05,-188.51 848.81,-182.61"/>
</g>
<!-- judo&#45;tatami&#45;core (2) -->
<g id="node33" class="node">
<title>judo&#45;tatami&#45;core (2)</title>
<polygon fill="none" stroke="black" points="1734,-108 1607,-108 1607,-72 1734,-72 1734,-108"/>
<text text-anchor="middle" x="1670.5" y="-86.3" font-family="Times,serif" font-size="14.00">judo&#45;tatami&#45;core (2)</text>
</g>
<!-- judo&#45;tatami&#45;base (5)&#45;&gt;judo&#45;tatami&#45;core (2) -->
<g id="edge75" class="edge">
<title>judo&#45;tatami&#45;base (5)&#45;&gt;judo&#45;tatami&#45;core (2)</title>
<path fill="none" stroke="black" d="M1098.63,-290.04C1101.96,-289.33 1105.27,-288.65 1108.5,-288 1201.35,-269.39 1228.02,-279.93 1318.5,-252 1436.92,-215.45 1567.41,-148 1631.11,-113.14"/>
<polygon fill="black" stroke="black" points="1632.94,-116.13 1640.02,-108.25 1629.57,-110 1632.94,-116.13"/>
</g>
<!-- judo&#45;tatami&#45;core (2)&#45;&gt;epsilon&#45;runtime (1) -->
<g id="edge81" class="edge">
<title>judo&#45;tatami&#45;core (2)&#45;&gt;epsilon&#45;runtime (1)</title>
<path fill="none" stroke="black" d="M1606.94,-73.76C1604.09,-73.15 1601.27,-72.56 1598.5,-72 1516.77,-55.4 1422.23,-39.8 1359.04,-29.88"/>
<polygon fill="black" stroke="black" points="1359.21,-26.36 1348.79,-28.28 1358.13,-33.28 1359.21,-26.36"/>
</g>
<!-- judo&#45;tatami&#45;core (2)&#45;&gt;emf&#45;genmodel&#45;generator (1) -->
<g id="edge80" class="edge">
<title>judo&#45;tatami&#45;core (2)&#45;&gt;emf&#45;genmodel&#45;generator (1)</title>
<path fill="none" stroke="black" d="M1606.62,-73.33C1603.88,-72.84 1601.17,-72.4 1598.5,-72 1353.77,-35.55 1286.19,-65.32 1036.75,-36.06"/>
<polygon fill="black" stroke="black" points="1036.99,-32.56 1026.65,-34.86 1036.16,-39.52 1036.99,-32.56"/>
</g>
<!-- judo&#45;tatami&#45;jsl (7)&#45;&gt;judo&#45;meta&#45;jsl (2) -->
<g id="edge83" class="edge">
<title>judo&#45;tatami&#45;jsl (7)&#45;&gt;judo&#45;meta&#45;jsl (2)</title>
<path fill="none" stroke="black" d="M480.44,-448.99C385.99,-445.6 209.5,-423.65 209.5,-307 209.5,-307 209.5,-307 209.5,-233 209.5,-176.42 152.52,-135.65 108.8,-112.68"/>
<polygon fill="black" stroke="black" points="110.2,-109.47 99.7,-108.06 107.02,-115.71 110.2,-109.47"/>
</g>
<!-- judo&#45;tatami&#45;jsl (7)&#45;&gt;judo&#45;runtime&#45;core (6) -->
<g id="edge82" class="edge">
<title>judo&#45;tatami&#45;jsl (7)&#45;&gt;judo&#45;runtime&#45;core (6)</title>
<path fill="none" stroke="black" d="M596.55,-442.41C708.01,-429.77 952.06,-402.08 1077.56,-387.84"/>
<polygon fill="black" stroke="black" points="1078.32,-391.28 1087.86,-386.67 1077.53,-384.32 1078.32,-391.28"/>
</g>
<!-- judo&#45;jsl&#45;springboot&#45;parent (8) -->
<g id="node35" class="node">
<title>judo&#45;jsl&#45;springboot&#45;parent (8)</title>
<polygon fill="none" stroke="black" points="536.5,-540 358.5,-540 358.5,-504 536.5,-504 536.5,-540"/>
<text text-anchor="middle" x="447.5" y="-518.3" font-family="Times,serif" font-size="14.00">judo&#45;jsl&#45;springboot&#45;parent (8)</text>
</g>
<!-- judo&#45;jsl&#45;springboot&#45;parent (8)&#45;&gt;judo&#45;tatami&#45;jsl (7) -->
<g id="edge84" class="edge">
<title>judo&#45;jsl&#45;springboot&#45;parent (8)&#45;&gt;judo&#45;tatami&#45;jsl (7)</title>
<path fill="none" stroke="black" d="M469.99,-503.7C481.46,-494.88 495.56,-484.03 507.98,-474.47"/>
<polygon fill="black" stroke="black" points="510.47,-476.98 516.26,-468.1 506.2,-471.43 510.47,-476.98"/>
</g>
<!-- judo&#45;jsl&#45;springboot&#45;starter (7) -->
<g id="node36" class="node">
<title>judo&#45;jsl&#45;springboot&#45;starter (7)</title>
<polygon fill="none" stroke="black" points="1244.5,-468 1066.5,-468 1066.5,-432 1244.5,-432 1244.5,-468"/>
<text text-anchor="middle" x="1155.5" y="-446.3" font-family="Times,serif" font-size="14.00">judo&#45;jsl&#45;springboot&#45;starter (7)</text>
</g>
<!-- judo&#45;jsl&#45;springboot&#45;starter (7)&#45;&gt;judo&#45;runtime&#45;core (6) -->
<g id="edge85" class="edge">
<title>judo&#45;jsl&#45;springboot&#45;starter (7)&#45;&gt;judo&#45;runtime&#45;core (6)</title>
<path fill="none" stroke="black" d="M1155.5,-431.7C1155.5,-423.98 1155.5,-414.71 1155.5,-406.11"/>
<polygon fill="black" stroke="black" points="1159,-406.1 1155.5,-396.1 1152,-406.1 1159,-406.1"/>
</g>
<!-- judo&#45;jsl&#45;springboot&#45;archetype (8) -->
<g id="node37" class="node">
<title>judo&#45;jsl&#45;springboot&#45;archetype (8)</title>
<polygon fill="none" stroke="black" points="1254,-540 1057,-540 1057,-504 1254,-504 1254,-540"/>
<text text-anchor="middle" x="1155.5" y="-518.3" font-family="Times,serif" font-size="14.00">judo&#45;jsl&#45;springboot&#45;archetype (8)</text>
</g>
<!-- judo&#45;jsl&#45;springboot&#45;archetype (8)&#45;&gt;judo&#45;jsl&#45;springboot&#45;starter (7) -->
<g id="edge86" class="edge">
<title>judo&#45;jsl&#45;springboot&#45;archetype (8)&#45;&gt;judo&#45;jsl&#45;springboot&#45;starter (7)</title>
<path fill="none" stroke="black" d="M1155.5,-503.7C1155.5,-495.98 1155.5,-486.71 1155.5,-478.11"/>
<polygon fill="black" stroke="black" points="1159,-478.1 1155.5,-468.1 1152,-478.1 1159,-478.1"/>
</g>
</g>
</svg>
