<?xml version="1.0" encoding="UTF-8" standalone="no"?>
<!DOCTYPE svg PUBLIC "-//W3C//DTD SVG 1.1//EN"
 "http://www.w3.org/Graphics/SVG/1.1/DTD/svg11.dtd">
<!-- Generated by graphviz version 2.49.0 (20210828.1703)
 -->
<!-- Pages: 1 -->
<svg width="1743pt" height="548pt"
 viewBox="0.00 0.00 1743.00 548.00" xmlns="http://www.w3.org/2000/svg" xmlns:xlink="http://www.w3.org/1999/xlink">
<g id="graph0" class="graph" transform="scale(1 1) rotate(0) translate(4 544)">
<polygon fill="white" stroke="transparent" points="-4,4 -4,-544 1739,-544 1739,4 -4,4"/>
<!-- epsilon&#45;runtime (1) -->
<g id="node1" class="node">
<title>epsilon&#45;runtime (1)</title>
<polygon fill="none" stroke="black" points="1293.5,-36 1171.5,-36 1171.5,0 1293.5,0 1293.5,-36"/>
<text text-anchor="middle" x="1232.5" y="-14.3" font-family="Times,serif" font-size="14.00">epsilon&#45;runtime (1)</text>
</g>
<!-- epsilon&#45;runtime&#45;eclipse (1) -->
<g id="node2" class="node">
<title>epsilon&#45;runtime&#45;eclipse (1)</title>
<polygon fill="none" stroke="black" points="1153.5,-36 989.5,-36 989.5,0 1153.5,0 1153.5,-36"/>
<text text-anchor="middle" x="1071.5" y="-14.3" font-family="Times,serif" font-size="14.00">epsilon&#45;runtime&#45;eclipse (1)</text>
</g>
<!-- emf&#45;genmodel&#45;generator (1) -->
<g id="node3" class="node">
<title>emf&#45;genmodel&#45;generator (1)</title>
<polygon fill="none" stroke="black" points="971.5,-36 799.5,-36 799.5,0 971.5,0 971.5,-36"/>
<text text-anchor="middle" x="885.5" y="-14.3" font-family="Times,serif" font-size="14.00">emf&#45;genmodel&#45;generator (1)</text>
</g>
<!-- judo&#45;genmodel&#45;generator (1) -->
<g id="node4" class="node">
<title>judo&#45;genmodel&#45;generator (1)</title>
<polygon fill="none" stroke="black" points="391.5,-36 217.5,-36 217.5,0 391.5,0 391.5,-36"/>
<text text-anchor="middle" x="304.5" y="-14.3" font-family="Times,serif" font-size="14.00">judo&#45;genmodel&#45;generator (1)</text>
</g>
<!-- judo&#45;epp&#45;common (1) -->
<g id="node5" class="node">
<title>judo&#45;epp&#45;common (1)</title>
<polygon fill="none" stroke="black" points="547,-36 410,-36 410,0 547,0 547,-36"/>
<text text-anchor="middle" x="478.5" y="-14.3" font-family="Times,serif" font-size="14.00">judo&#45;epp&#45;common (1)</text>
</g>
<!-- osgi&#45;utils (1) -->
<g id="node6" class="node">
<title>osgi&#45;utils (1)</title>
<polygon fill="none" stroke="black" points="651.5,-36 565.5,-36 565.5,0 651.5,0 651.5,-36"/>
<text text-anchor="middle" x="608.5" y="-14.3" font-family="Times,serif" font-size="14.00">osgi&#45;utils (1)</text>
</g>
<!-- java&#45;embedded&#45;compiler (1) -->
<g id="node7" class="node">
<title>java&#45;embedded&#45;compiler (1)</title>
<polygon fill="none" stroke="black" points="1233,-252 1060,-252 1060,-216 1233,-216 1233,-252"/>
<text text-anchor="middle" x="1146.5" y="-230.3" font-family="Times,serif" font-size="14.00">java&#45;embedded&#45;compiler (1)</text>
</g>
<!-- structured&#45;map&#45;proxy (1) -->
<g id="node8" class="node">
<title>structured&#45;map&#45;proxy (1)</title>
<polygon fill="none" stroke="black" points="851,-108 696,-108 696,-72 851,-72 851,-108"/>
<text text-anchor="middle" x="773.5" y="-86.3" font-family="Times,serif" font-size="14.00">structured&#45;map&#45;proxy (1)</text>
</g>
<!-- karaf&#45;features (1) -->
<g id="node9" class="node">
<title>karaf&#45;features (1)</title>
<polygon fill="none" stroke="black" points="781,-36 670,-36 670,0 781,0 781,-36"/>
<text text-anchor="middle" x="725.5" y="-14.3" font-family="Times,serif" font-size="14.00">karaf&#45;features (1)</text>
</g>
<!-- mapper (1) -->
<g id="node10" class="node">
<title>mapper (1)</title>
<polygon fill="none" stroke="black" points="1568,-324 1491,-324 1491,-288 1568,-288 1568,-324"/>
<text text-anchor="middle" x="1529.5" y="-302.3" font-family="Times,serif" font-size="14.00">mapper (1)</text>
</g>
<!-- osgi&#45;liquibase (1) -->
<g id="node11" class="node">
<title>osgi&#45;liquibase (1)</title>
<polygon fill="none" stroke="black" points="1329.5,-540 1217.5,-540 1217.5,-504 1329.5,-504 1329.5,-540"/>
<text text-anchor="middle" x="1273.5" y="-518.3" font-family="Times,serif" font-size="14.00">osgi&#45;liquibase (1)</text>
</g>
<!-- osgi&#45;filestore (1) -->
<g id="node12" class="node">
<title>osgi&#45;filestore (1)</title>
<polygon fill="none" stroke="black" points="1473,-324 1366,-324 1366,-288 1473,-288 1473,-324"/>
<text text-anchor="middle" x="1419.5" y="-302.3" font-family="Times,serif" font-size="14.00">osgi&#45;filestore (1)</text>
</g>
<!-- judo&#45;misc&#45;p2 (1) -->
<g id="node13" class="node">
<title>judo&#45;misc&#45;p2 (1)</title>
<polygon fill="none" stroke="black" points="114,-36 5,-36 5,0 114,0 114,-36"/>
<text text-anchor="middle" x="59.5" y="-14.3" font-family="Times,serif" font-size="14.00">judo&#45;misc&#45;p2 (1)</text>
</g>
<!-- judo&#45;dao&#45;api (1) -->
<g id="node14" class="node">
<title>judo&#45;dao&#45;api (1)</title>
<polygon fill="none" stroke="black" points="974,-108 869,-108 869,-72 974,-72 974,-108"/>
<text text-anchor="middle" x="921.5" y="-86.3" font-family="Times,serif" font-size="14.00">judo&#45;dao&#45;api (1)</text>
</g>
<!-- judo&#45;dispatcher&#45;api (1) -->
<g id="node15" class="node">
<title>judo&#45;dispatcher&#45;api (1)</title>
<polygon fill="none" stroke="black" points="1133,-108 992,-108 992,-72 1133,-72 1133,-108"/>
<text text-anchor="middle" x="1062.5" y="-86.3" font-family="Times,serif" font-size="14.00">judo&#45;dispatcher&#45;api (1)</text>
</g>
<!-- judo&#45;jsl&#45;vscode (3) -->
<g id="node16" class="node">
<title>judo&#45;jsl&#45;vscode (3)</title>
<polygon fill="none" stroke="black" points="119,-180 0,-180 0,-144 119,-144 119,-180"/>
<text text-anchor="middle" x="59.5" y="-158.3" font-family="Times,serif" font-size="14.00">judo&#45;jsl&#45;vscode (3)</text>
</g>
<!-- judo&#45;meta&#45;jsl (2) -->
<g id="node22" class="node">
<title>judo&#45;meta&#45;jsl (2)</title>
<polygon fill="none" stroke="black" points="114,-108 5,-108 5,-72 114,-72 114,-108"/>
<text text-anchor="middle" x="59.5" y="-86.3" font-family="Times,serif" font-size="14.00">judo&#45;meta&#45;jsl (2)</text>
</g>
<!-- judo&#45;jsl&#45;vscode (3)&#45;&gt;judo&#45;meta&#45;jsl (2) -->
<g id="edge1" class="edge">
<title>judo&#45;jsl&#45;vscode (3)&#45;&gt;judo&#45;meta&#45;jsl (2)</title>
<path fill="none" stroke="black" d="M59.5,-143.7C59.5,-135.98 59.5,-126.71 59.5,-118.11"/>
<polygon fill="black" stroke="black" points="63,-118.1 59.5,-108.1 56,-118.1 63,-118.1"/>
</g>
<!-- judo&#45;meta&#45;asm (2) -->
<g id="node17" class="node">
<title>judo&#45;meta&#45;asm (2)</title>
<polygon fill="none" stroke="black" points="678,-108 559,-108 559,-72 678,-72 678,-108"/>
<text text-anchor="middle" x="618.5" y="-86.3" font-family="Times,serif" font-size="14.00">judo&#45;meta&#45;asm (2)</text>
</g>
<!-- judo&#45;meta&#45;asm (2)&#45;&gt;epsilon&#45;runtime (1) -->
<g id="edge6" class="edge">
<title>judo&#45;meta&#45;asm (2)&#45;&gt;epsilon&#45;runtime (1)</title>
<path fill="none" stroke="black" d="M678.21,-73.64C681.35,-73.04 684.45,-72.49 687.5,-72 893.29,-39.08 951.57,-68.15 1161.06,-36.07"/>
<polygon fill="black" stroke="black" points="1161.81,-39.5 1171.15,-34.5 1160.73,-32.58 1161.81,-39.5"/>
</g>
<!-- judo&#45;meta&#45;asm (2)&#45;&gt;epsilon&#45;runtime&#45;eclipse (1) -->
<g id="edge7" class="edge">
<title>judo&#45;meta&#45;asm (2)&#45;&gt;epsilon&#45;runtime&#45;eclipse (1)</title>
<path fill="none" stroke="black" d="M678.24,-73.82C681.37,-73.17 684.47,-72.56 687.5,-72 813.39,-48.84 849.11,-55.69 979.25,-36.13"/>
<polygon fill="black" stroke="black" points="979.84,-39.58 989.2,-34.61 978.79,-32.66 979.84,-39.58"/>
</g>
<!-- judo&#45;meta&#45;asm (2)&#45;&gt;emf&#45;genmodel&#45;generator (1) -->
<g id="edge3" class="edge">
<title>judo&#45;meta&#45;asm (2)&#45;&gt;emf&#45;genmodel&#45;generator (1)</title>
<path fill="none" stroke="black" d="M678.09,-73.38C717.22,-63.12 768.72,-49.62 810.61,-38.63"/>
<polygon fill="black" stroke="black" points="811.7,-41.97 820.49,-36.04 809.93,-35.2 811.7,-41.97"/>
</g>
<!-- judo&#45;meta&#45;asm (2)&#45;&gt;judo&#45;genmodel&#45;generator (1) -->
<g id="edge4" class="edge">
<title>judo&#45;meta&#45;asm (2)&#45;&gt;judo&#45;genmodel&#45;generator (1)</title>
<path fill="none" stroke="black" d="M558.69,-74.15C555.58,-73.42 552.51,-72.7 549.5,-72 498.84,-60.28 442.1,-47.96 395.99,-38.14"/>
<polygon fill="black" stroke="black" points="396.53,-34.68 386.02,-36.03 395.07,-41.53 396.53,-34.68"/>
</g>
<!-- judo&#45;meta&#45;asm (2)&#45;&gt;judo&#45;epp&#45;common (1) -->
<g id="edge2" class="edge">
<title>judo&#45;meta&#45;asm (2)&#45;&gt;judo&#45;epp&#45;common (1)</title>
<path fill="none" stroke="black" d="M584.25,-71.88C565.44,-62.47 541.92,-50.71 521.83,-40.67"/>
<polygon fill="black" stroke="black" points="523.39,-37.53 512.88,-36.19 520.26,-43.79 523.39,-37.53"/>
</g>
<!-- judo&#45;meta&#45;asm (2)&#45;&gt;osgi&#45;utils (1) -->
<g id="edge5" class="edge">
<title>judo&#45;meta&#45;asm (2)&#45;&gt;osgi&#45;utils (1)</title>
<path fill="none" stroke="black" d="M616.03,-71.7C614.93,-63.98 613.6,-54.71 612.37,-46.11"/>
<polygon fill="black" stroke="black" points="615.82,-45.51 610.94,-36.1 608.89,-46.5 615.82,-45.51"/>
</g>
<!-- judo&#45;meta&#45;asm (2)&#45;&gt;karaf&#45;features (1) -->
<g id="edge8" class="edge">
<title>judo&#45;meta&#45;asm (2)&#45;&gt;karaf&#45;features (1)</title>
<path fill="none" stroke="black" d="M644.68,-71.88C658.54,-62.81 675.74,-51.55 690.71,-41.76"/>
<polygon fill="black" stroke="black" points="692.77,-44.59 699.22,-36.19 688.94,-38.74 692.77,-44.59"/>
</g>
<!-- judo&#45;meta&#45;expression (3) -->
<g id="node18" class="node">
<title>judo&#45;meta&#45;expression (3)</title>
<polygon fill="none" stroke="black" points="524.5,-180 370.5,-180 370.5,-144 524.5,-144 524.5,-180"/>
<text text-anchor="middle" x="447.5" y="-158.3" font-family="Times,serif" font-size="14.00">judo&#45;meta&#45;expression (3)</text>
</g>
<!-- judo&#45;meta&#45;jql (2) -->
<g id="node21" class="node">
<title>judo&#45;meta&#45;jql (2)</title>
<polygon fill="none" stroke="black" points="242.5,-108 132.5,-108 132.5,-72 242.5,-72 242.5,-108"/>
<text text-anchor="middle" x="187.5" y="-86.3" font-family="Times,serif" font-size="14.00">judo&#45;meta&#45;jql (2)</text>
</g>
<!-- judo&#45;meta&#45;expression (3)&#45;&gt;judo&#45;meta&#45;jql (2) -->
<g id="edge9" class="edge">
<title>judo&#45;meta&#45;expression (3)&#45;&gt;judo&#45;meta&#45;jql (2)</title>
<path fill="none" stroke="black" d="M384.23,-143.97C344.24,-133.2 292.68,-119.32 252.39,-108.47"/>
<polygon fill="black" stroke="black" points="253.23,-105.07 242.66,-105.85 251.41,-111.83 253.23,-105.07"/>
</g>
<!-- judo&#45;meta&#45;measure (2) -->
<g id="node24" class="node">
<title>judo&#45;meta&#45;measure (2)</title>
<polygon fill="none" stroke="black" points="540.5,-108 398.5,-108 398.5,-72 540.5,-72 540.5,-108"/>
<text text-anchor="middle" x="469.5" y="-86.3" font-family="Times,serif" font-size="14.00">judo&#45;meta&#45;measure (2)</text>
</g>
<!-- judo&#45;meta&#45;expression (3)&#45;&gt;judo&#45;meta&#45;measure (2) -->
<g id="edge10" class="edge">
<title>judo&#45;meta&#45;expression (3)&#45;&gt;judo&#45;meta&#45;measure (2)</title>
<path fill="none" stroke="black" d="M452.94,-143.7C455.39,-135.9 458.34,-126.51 461.07,-117.83"/>
<polygon fill="black" stroke="black" points="464.46,-118.69 464.12,-108.1 457.79,-116.59 464.46,-118.69"/>
</g>
<!-- judo&#45;meta&#45;expression&#45;asm (4) -->
<g id="node19" class="node">
<title>judo&#45;meta&#45;expression&#45;asm (4)</title>
<polygon fill="none" stroke="black" points="730,-252 549,-252 549,-216 730,-216 730,-252"/>
<text text-anchor="middle" x="639.5" y="-230.3" font-family="Times,serif" font-size="14.00">judo&#45;meta&#45;expression&#45;asm (4)</text>
</g>
<!-- judo&#45;meta&#45;expression&#45;asm (4)&#45;&gt;judo&#45;meta&#45;asm (2) -->
<g id="edge11" class="edge">
<title>judo&#45;meta&#45;expression&#45;asm (4)&#45;&gt;judo&#45;meta&#45;asm (2)</title>
<path fill="none" stroke="black" d="M636.97,-215.87C633.39,-191.67 626.81,-147.21 622.55,-118.39"/>
<polygon fill="black" stroke="black" points="625.97,-117.57 621.04,-108.19 619.04,-118.59 625.97,-117.57"/>
</g>
<!-- judo&#45;meta&#45;expression&#45;asm (4)&#45;&gt;judo&#45;meta&#45;expression (3) -->
<g id="edge12" class="edge">
<title>judo&#45;meta&#45;expression&#45;asm (4)&#45;&gt;judo&#45;meta&#45;expression (3)</title>
<path fill="none" stroke="black" d="M592.53,-215.88C565.82,-206.14 532.18,-193.87 504.03,-183.61"/>
<polygon fill="black" stroke="black" points="504.91,-180.21 494.32,-180.07 502.51,-186.78 504.91,-180.21"/>
</g>
<!-- judo&#45;meta&#45;expression&#45;psm (4) -->
<g id="node20" class="node">
<title>judo&#45;meta&#45;expression&#45;psm (4)</title>
<polygon fill="none" stroke="black" points="530.5,-252 348.5,-252 348.5,-216 530.5,-216 530.5,-252"/>
<text text-anchor="middle" x="439.5" y="-230.3" font-family="Times,serif" font-size="14.00">judo&#45;meta&#45;expression&#45;psm (4)</text>
</g>
<!-- judo&#45;meta&#45;expression&#45;psm (4)&#45;&gt;judo&#45;meta&#45;expression (3) -->
<g id="edge14" class="edge">
<title>judo&#45;meta&#45;expression&#45;psm (4)&#45;&gt;judo&#45;meta&#45;expression (3)</title>
<path fill="none" stroke="black" d="M441.48,-215.7C442.36,-207.98 443.42,-198.71 444.4,-190.11"/>
<polygon fill="black" stroke="black" points="447.89,-190.44 445.55,-180.1 440.93,-189.64 447.89,-190.44"/>
</g>
<!-- judo&#45;meta&#45;psm (2) -->
<g id="node25" class="node">
<title>judo&#45;meta&#45;psm (2)</title>
<polygon fill="none" stroke="black" points="380,-108 261,-108 261,-72 380,-72 380,-108"/>
<text text-anchor="middle" x="320.5" y="-86.3" font-family="Times,serif" font-size="14.00">judo&#45;meta&#45;psm (2)</text>
</g>
<!-- judo&#45;meta&#45;expression&#45;psm (4)&#45;&gt;judo&#45;meta&#45;psm (2) -->
<g id="edge13" class="edge">
<title>judo&#45;meta&#45;expression&#45;psm (4)&#45;&gt;judo&#45;meta&#45;psm (2)</title>
<path fill="none" stroke="black" d="M406.05,-215.79C390.94,-206.73 373.78,-194.49 361.5,-180 346.03,-161.74 335.18,-136.66 328.54,-117.78"/>
<polygon fill="black" stroke="black" points="331.86,-116.65 325.37,-108.28 325.22,-118.87 331.86,-116.65"/>
</g>
<!-- judo&#45;meta&#45;jql (2)&#45;&gt;emf&#45;genmodel&#45;generator (1) -->
<g id="edge16" class="edge">
<title>judo&#45;meta&#45;jql (2)&#45;&gt;emf&#45;genmodel&#45;generator (1)</title>
<path fill="none" stroke="black" d="M242.67,-73.81C245.98,-73.14 249.28,-72.52 252.5,-72 485.8,-34.04 550.86,-64.3 789.33,-36.05"/>
<polygon fill="black" stroke="black" points="789.84,-39.52 799.35,-34.84 789,-32.57 789.84,-39.52"/>
</g>
<!-- judo&#45;meta&#45;jql (2)&#45;&gt;judo&#45;genmodel&#45;generator (1) -->
<g id="edge17" class="edge">
<title>judo&#45;meta&#45;jql (2)&#45;&gt;judo&#45;genmodel&#45;generator (1)</title>
<path fill="none" stroke="black" d="M216.12,-71.88C231.42,-62.72 250.44,-51.34 266.92,-41.48"/>
<polygon fill="black" stroke="black" points="268.98,-44.33 275.77,-36.19 265.39,-38.32 268.98,-44.33"/>
</g>
<!-- judo&#45;meta&#45;jql (2)&#45;&gt;judo&#45;epp&#45;common (1) -->
<g id="edge15" class="edge">
<title>judo&#45;meta&#45;jql (2)&#45;&gt;judo&#45;epp&#45;common (1)</title>
<path fill="none" stroke="black" d="M242.79,-74.44C246.08,-73.6 249.33,-72.79 252.5,-72 301.31,-59.9 356.23,-47 399.71,-36.96"/>
<polygon fill="black" stroke="black" points="400.69,-40.32 409.65,-34.67 399.12,-33.5 400.69,-40.32"/>
</g>
<!-- judo&#45;meta&#45;jql (2)&#45;&gt;osgi&#45;utils (1) -->
<g id="edge18" class="edge">
<title>judo&#45;meta&#45;jql (2)&#45;&gt;osgi&#45;utils (1)</title>
<path fill="none" stroke="black" d="M242.7,-74.01C246.01,-73.28 249.29,-72.61 252.5,-72 383.05,-47.32 421.83,-64.44 555.48,-35.97"/>
<polygon fill="black" stroke="black" points="556.24,-39.39 565.27,-33.84 554.75,-32.55 556.24,-39.39"/>
</g>
<!-- judo&#45;meta&#45;jql (2)&#45;&gt;karaf&#45;features (1) -->
<g id="edge19" class="edge">
<title>judo&#45;meta&#45;jql (2)&#45;&gt;karaf&#45;features (1)</title>
<path fill="none" stroke="black" d="M242.68,-73.9C245.99,-73.2 249.28,-72.56 252.5,-72 428.61,-41.42 479.32,-66.21 659.87,-35.91"/>
<polygon fill="black" stroke="black" points="660.7,-39.32 669.97,-34.18 659.52,-32.42 660.7,-39.32"/>
</g>
<!-- judo&#45;meta&#45;jsl (2)&#45;&gt;emf&#45;genmodel&#45;generator (1) -->
<g id="edge22" class="edge">
<title>judo&#45;meta&#45;jsl (2)&#45;&gt;emf&#45;genmodel&#45;generator (1)</title>
<path fill="none" stroke="black" d="M114.15,-73.69C117.3,-73.06 120.43,-72.48 123.5,-72 413.44,-26.17 493.8,-69.22 789.21,-36.05"/>
<polygon fill="black" stroke="black" points="789.82,-39.51 799.36,-34.89 789.02,-32.55 789.82,-39.51"/>
</g>
<!-- judo&#45;meta&#45;jsl (2)&#45;&gt;judo&#45;genmodel&#45;generator (1) -->
<g id="edge23" class="edge">
<title>judo&#45;meta&#45;jsl (2)&#45;&gt;judo&#45;genmodel&#45;generator (1)</title>
<path fill="none" stroke="black" d="M114.18,-73.38C149.78,-63.21 196.54,-49.85 234.8,-38.91"/>
<polygon fill="black" stroke="black" points="236.19,-42.16 244.84,-36.04 234.27,-35.43 236.19,-42.16"/>
</g>
<!-- judo&#45;meta&#45;jsl (2)&#45;&gt;judo&#45;epp&#45;common (1) -->
<g id="edge20" class="edge">
<title>judo&#45;meta&#45;jsl (2)&#45;&gt;judo&#45;epp&#45;common (1)</title>
<path fill="none" stroke="black" d="M114.2,-73.97C117.34,-73.26 120.45,-72.6 123.5,-72 242.1,-48.65 276.39,-56.77 399.46,-36.08"/>
<polygon fill="black" stroke="black" points="400.39,-39.47 409.66,-34.34 399.21,-32.58 400.39,-39.47"/>
</g>
<!-- judo&#45;meta&#45;jsl (2)&#45;&gt;osgi&#45;utils (1) -->
<g id="edge24" class="edge">
<title>judo&#45;meta&#45;jsl (2)&#45;&gt;osgi&#45;utils (1)</title>
<path fill="none" stroke="black" d="M114.17,-73.8C117.32,-73.14 120.44,-72.53 123.5,-72 310.53,-39.65 365.35,-73.08 555.26,-35.96"/>
<polygon fill="black" stroke="black" points="556.17,-39.35 565.29,-33.96 554.8,-32.48 556.17,-39.35"/>
</g>
<!-- judo&#45;meta&#45;jsl (2)&#45;&gt;karaf&#45;features (1) -->
<g id="edge25" class="edge">
<title>judo&#45;meta&#45;jsl (2)&#45;&gt;karaf&#45;features (1)</title>
<path fill="none" stroke="black" d="M114.16,-73.74C117.31,-73.09 120.44,-72.5 123.5,-72 356.29,-33.65 422.6,-73.32 660.01,-35.86"/>
<polygon fill="black" stroke="black" points="660.66,-39.3 669.98,-34.26 659.55,-32.39 660.66,-39.3"/>
</g>
<!-- judo&#45;meta&#45;jsl (2)&#45;&gt;judo&#45;misc&#45;p2 (1) -->
<g id="edge21" class="edge">
<title>judo&#45;meta&#45;jsl (2)&#45;&gt;judo&#45;misc&#45;p2 (1)</title>
<path fill="none" stroke="black" d="M59.5,-71.7C59.5,-63.98 59.5,-54.71 59.5,-46.11"/>
<polygon fill="black" stroke="black" points="63,-46.1 59.5,-36.1 56,-46.1 63,-46.1"/>
</g>
<!-- judo&#45;meta&#45;liquibase (2) -->
<g id="node23" class="node">
<title>judo&#45;meta&#45;liquibase (2)</title>
<polygon fill="none" stroke="black" points="1445,-108 1300,-108 1300,-72 1445,-72 1445,-108"/>
<text text-anchor="middle" x="1372.5" y="-86.3" font-family="Times,serif" font-size="14.00">judo&#45;meta&#45;liquibase (2)</text>
</g>
<!-- judo&#45;meta&#45;liquibase (2)&#45;&gt;epsilon&#45;runtime (1) -->
<g id="edge30" class="edge">
<title>judo&#45;meta&#45;liquibase (2)&#45;&gt;epsilon&#45;runtime (1)</title>
<path fill="none" stroke="black" d="M1338.25,-71.88C1319.44,-62.47 1295.92,-50.71 1275.83,-40.67"/>
<polygon fill="black" stroke="black" points="1277.39,-37.53 1266.88,-36.19 1274.26,-43.79 1277.39,-37.53"/>
</g>
<!-- judo&#45;meta&#45;liquibase (2)&#45;&gt;epsilon&#45;runtime&#45;eclipse (1) -->
<g id="edge31" class="edge">
<title>judo&#45;meta&#45;liquibase (2)&#45;&gt;epsilon&#45;runtime&#45;eclipse (1)</title>
<path fill="none" stroke="black" d="M1299.64,-72.05C1255.87,-61.88 1200.04,-48.89 1154.57,-38.32"/>
<polygon fill="black" stroke="black" points="1155.27,-34.89 1144.74,-36.03 1153.68,-41.71 1155.27,-34.89"/>
</g>
<!-- judo&#45;meta&#45;liquibase (2)&#45;&gt;emf&#45;genmodel&#45;generator (1) -->
<g id="edge27" class="edge">
<title>judo&#45;meta&#45;liquibase (2)&#45;&gt;emf&#45;genmodel&#45;generator (1)</title>
<path fill="none" stroke="black" d="M1299.7,-73.39C1296.94,-72.9 1294.19,-72.44 1291.5,-72 1157.37,-50.21 1119.9,-55.97 981.8,-36.13"/>
<polygon fill="black" stroke="black" points="982.08,-32.64 971.68,-34.66 981.07,-39.56 982.08,-32.64"/>
</g>
<!-- judo&#45;meta&#45;liquibase (2)&#45;&gt;judo&#45;genmodel&#45;generator (1) -->
<g id="edge28" class="edge">
<title>judo&#45;meta&#45;liquibase (2)&#45;&gt;judo&#45;genmodel&#45;generator (1)</title>
<path fill="none" stroke="black" d="M1299.74,-73.13C1296.96,-72.72 1294.21,-72.34 1291.5,-72 901.9,-23.58 796.86,-77.36 401.66,-35.9"/>
<polygon fill="black" stroke="black" points="401.99,-32.42 391.67,-34.84 401.25,-39.38 401.99,-32.42"/>
</g>
<!-- judo&#45;meta&#45;liquibase (2)&#45;&gt;judo&#45;epp&#45;common (1) -->
<g id="edge26" class="edge">
<title>judo&#45;meta&#45;liquibase (2)&#45;&gt;judo&#45;epp&#45;common (1)</title>
<path fill="none" stroke="black" d="M1299.73,-73.16C1296.96,-72.74 1294.21,-72.35 1291.5,-72 970.44,-30.71 882.52,-77.98 557.47,-35.98"/>
<polygon fill="black" stroke="black" points="557.66,-32.47 547.29,-34.64 556.75,-39.41 557.66,-32.47"/>
</g>
<!-- judo&#45;meta&#45;liquibase (2)&#45;&gt;osgi&#45;utils (1) -->
<g id="edge29" class="edge">
<title>judo&#45;meta&#45;liquibase (2)&#45;&gt;osgi&#45;utils (1)</title>
<path fill="none" stroke="black" d="M1299.73,-73.19C1296.96,-72.76 1294.21,-72.36 1291.5,-72 1013.48,-35.09 937.24,-87.24 661.5,-36 661.4,-35.98 661.3,-35.96 661.2,-35.94"/>
<polygon fill="black" stroke="black" points="662.18,-32.58 651.66,-33.83 660.66,-39.41 662.18,-32.58"/>
</g>
<!-- judo&#45;meta&#45;liquibase (2)&#45;&gt;karaf&#45;features (1) -->
<g id="edge32" class="edge">
<title>judo&#45;meta&#45;liquibase (2)&#45;&gt;karaf&#45;features (1)</title>
<path fill="none" stroke="black" d="M1299.72,-73.24C1296.95,-72.8 1294.2,-72.38 1291.5,-72 1073.66,-41.46 1012.54,-71.49 791.01,-35.87"/>
<polygon fill="black" stroke="black" points="791.46,-32.4 781.02,-34.24 790.33,-39.31 791.46,-32.4"/>
</g>
<!-- judo&#45;meta&#45;measure (2)&#45;&gt;epsilon&#45;runtime (1) -->
<g id="edge37" class="edge">
<title>judo&#45;meta&#45;measure (2)&#45;&gt;epsilon&#45;runtime (1)</title>
<path fill="none" stroke="black" d="M540.52,-73.47C543.88,-72.93 547.22,-72.44 550.5,-72 817.27,-36.36 891.23,-75.34 1161.07,-36.05"/>
<polygon fill="black" stroke="black" points="1161.78,-39.48 1171.16,-34.56 1160.76,-32.56 1161.78,-39.48"/>
</g>
<!-- judo&#45;meta&#45;measure (2)&#45;&gt;epsilon&#45;runtime&#45;eclipse (1) -->
<g id="edge38" class="edge">
<title>judo&#45;meta&#45;measure (2)&#45;&gt;epsilon&#45;runtime&#45;eclipse (1)</title>
<path fill="none" stroke="black" d="M540.53,-73.58C543.89,-73.01 547.23,-72.48 550.5,-72 737.02,-44.73 788.69,-61.06 979.16,-36.1"/>
<polygon fill="black" stroke="black" points="979.77,-39.55 989.22,-34.76 978.85,-32.61 979.77,-39.55"/>
</g>
<!-- judo&#45;meta&#45;measure (2)&#45;&gt;emf&#45;genmodel&#45;generator (1) -->
<g id="edge34" class="edge">
<title>judo&#45;meta&#45;measure (2)&#45;&gt;emf&#45;genmodel&#45;generator (1)</title>
<path fill="none" stroke="black" d="M540.57,-73.84C543.93,-73.2 547.25,-72.58 550.5,-72 653.55,-53.47 682.4,-53.48 789.4,-36.15"/>
<polygon fill="black" stroke="black" points="790,-39.6 799.3,-34.53 788.87,-32.69 790,-39.6"/>
</g>
<!-- judo&#45;meta&#45;measure (2)&#45;&gt;judo&#45;genmodel&#45;generator (1) -->
<g id="edge35" class="edge">
<title>judo&#45;meta&#45;measure (2)&#45;&gt;judo&#45;genmodel&#45;generator (1)</title>
<path fill="none" stroke="black" d="M429.14,-71.88C406.48,-62.26 378.03,-50.19 354.03,-40.01"/>
<polygon fill="black" stroke="black" points="355.31,-36.75 344.73,-36.07 352.57,-43.2 355.31,-36.75"/>
</g>
<!-- judo&#45;meta&#45;measure (2)&#45;&gt;judo&#45;epp&#45;common (1) -->
<g id="edge33" class="edge">
<title>judo&#45;meta&#45;measure (2)&#45;&gt;judo&#45;epp&#45;common (1)</title>
<path fill="none" stroke="black" d="M471.72,-71.7C472.72,-63.98 473.91,-54.71 475.01,-46.11"/>
<polygon fill="black" stroke="black" points="478.5,-46.47 476.3,-36.1 471.55,-45.58 478.5,-46.47"/>
</g>
<!-- judo&#45;meta&#45;measure (2)&#45;&gt;osgi&#45;utils (1) -->
<g id="edge36" class="edge">
<title>judo&#45;meta&#45;measure (2)&#45;&gt;osgi&#45;utils (1)</title>
<path fill="none" stroke="black" d="M503.5,-71.88C522.1,-62.51 545.33,-50.81 565.21,-40.8"/>
<polygon fill="black" stroke="black" points="567.01,-43.81 574.37,-36.19 563.86,-37.56 567.01,-43.81"/>
</g>
<!-- judo&#45;meta&#45;measure (2)&#45;&gt;karaf&#45;features (1) -->
<g id="edge39" class="edge">
<title>judo&#45;meta&#45;measure (2)&#45;&gt;karaf&#45;features (1)</title>
<path fill="none" stroke="black" d="M531.8,-71.97C570.68,-61.33 620.67,-47.67 660.12,-36.88"/>
<polygon fill="black" stroke="black" points="661.19,-40.21 669.91,-34.2 659.34,-33.46 661.19,-40.21"/>
</g>
<!-- judo&#45;meta&#45;psm (2)&#45;&gt;epsilon&#45;runtime (1) -->
<g id="edge44" class="edge">
<title>judo&#45;meta&#45;psm (2)&#45;&gt;epsilon&#45;runtime (1)</title>
<path fill="none" stroke="black" d="M380.2,-73.54C383.33,-72.96 386.45,-72.44 389.5,-72 726.62,-23.1 820.27,-83.63 1161.27,-36"/>
<polygon fill="black" stroke="black" points="1161.76,-39.47 1171.17,-34.6 1160.78,-32.54 1161.76,-39.47"/>
</g>
<!-- judo&#45;meta&#45;psm (2)&#45;&gt;epsilon&#45;runtime&#45;eclipse (1) -->
<g id="edge45" class="edge">
<title>judo&#45;meta&#45;psm (2)&#45;&gt;epsilon&#45;runtime&#45;eclipse (1)</title>
<path fill="none" stroke="black" d="M380.21,-73.59C383.34,-73 386.45,-72.46 389.5,-72 646.35,-32.87 717.53,-67.33 979.05,-36.08"/>
<polygon fill="black" stroke="black" points="979.73,-39.52 989.23,-34.84 978.88,-32.57 979.73,-39.52"/>
</g>
<!-- judo&#45;meta&#45;psm (2)&#45;&gt;emf&#45;genmodel&#45;generator (1) -->
<g id="edge41" class="edge">
<title>judo&#45;meta&#45;psm (2)&#45;&gt;emf&#45;genmodel&#45;generator (1)</title>
<path fill="none" stroke="black" d="M380.22,-73.7C383.35,-73.08 386.46,-72.51 389.5,-72 562.8,-43.04 611.4,-59.17 789.38,-36.07"/>
<polygon fill="black" stroke="black" points="789.88,-39.54 799.34,-34.76 788.97,-32.6 789.88,-39.54"/>
</g>
<!-- judo&#45;meta&#45;psm (2)&#45;&gt;judo&#45;genmodel&#45;generator (1) -->
<g id="edge42" class="edge">
<title>judo&#45;meta&#45;psm (2)&#45;&gt;judo&#45;genmodel&#45;generator (1)</title>
<path fill="none" stroke="black" d="M316.54,-71.7C314.78,-63.98 312.66,-54.71 310.7,-46.11"/>
<polygon fill="black" stroke="black" points="314.05,-45.07 308.41,-36.1 307.23,-46.63 314.05,-45.07"/>
</g>
<!-- judo&#45;meta&#45;psm (2)&#45;&gt;judo&#45;epp&#45;common (1) -->
<g id="edge40" class="edge">
<title>judo&#45;meta&#45;psm (2)&#45;&gt;judo&#45;epp&#45;common (1)</title>
<path fill="none" stroke="black" d="M359.15,-71.88C380.75,-62.31 407.85,-50.3 430.77,-40.15"/>
<polygon fill="black" stroke="black" points="432.25,-43.32 439.97,-36.07 429.41,-36.92 432.25,-43.32"/>
</g>
<!-- judo&#45;meta&#45;psm (2)&#45;&gt;osgi&#45;utils (1) -->
<g id="edge43" class="edge">
<title>judo&#45;meta&#45;psm (2)&#45;&gt;osgi&#45;utils (1)</title>
<path fill="none" stroke="black" d="M380.31,-74.15C383.42,-73.41 386.49,-72.69 389.5,-72 460.45,-55.62 481.5,-55.78 555.66,-36.09"/>
<polygon fill="black" stroke="black" points="556.72,-39.42 565.47,-33.45 554.91,-32.66 556.72,-39.42"/>
</g>
<!-- judo&#45;meta&#45;psm (2)&#45;&gt;karaf&#45;features (1) -->
<g id="edge46" class="edge">
<title>judo&#45;meta&#45;psm (2)&#45;&gt;karaf&#45;features (1)</title>
<path fill="none" stroke="black" d="M380.25,-73.85C383.37,-73.2 386.47,-72.57 389.5,-72 505.74,-50.03 539.51,-58.91 659.96,-35.95"/>
<polygon fill="black" stroke="black" points="660.79,-39.36 669.94,-34.02 659.45,-32.48 660.79,-39.36"/>
</g>
<!-- judo&#45;meta&#45;query (2) -->
<g id="node26" class="node">
<title>judo&#45;meta&#45;query (2)</title>
<polygon fill="none" stroke="black" points="1590,-108 1463,-108 1463,-72 1590,-72 1590,-108"/>
<text text-anchor="middle" x="1526.5" y="-86.3" font-family="Times,serif" font-size="14.00">judo&#45;meta&#45;query (2)</text>
</g>
<!-- judo&#45;meta&#45;query (2)&#45;&gt;epsilon&#45;runtime (1) -->
<g id="edge51" class="edge">
<title>judo&#45;meta&#45;query (2)&#45;&gt;epsilon&#45;runtime (1)</title>
<path fill="none" stroke="black" d="M1462.71,-73.81C1415.78,-62.64 1351.99,-47.45 1303.46,-35.89"/>
<polygon fill="black" stroke="black" points="1304.19,-32.47 1293.65,-33.56 1302.57,-39.28 1304.19,-32.47"/>
</g>
<!-- judo&#45;meta&#45;query (2)&#45;&gt;epsilon&#45;runtime&#45;eclipse (1) -->
<g id="edge52" class="edge">
<title>judo&#45;meta&#45;query (2)&#45;&gt;epsilon&#45;runtime&#45;eclipse (1)</title>
<path fill="none" stroke="black" d="M1462.98,-73.6C1460.12,-73.04 1457.28,-72.5 1454.5,-72 1328.93,-49.5 1293.44,-55.69 1163.72,-36.13"/>
<polygon fill="black" stroke="black" points="1164.22,-32.66 1153.8,-34.61 1163.16,-39.58 1164.22,-32.66"/>
</g>
<!-- judo&#45;meta&#45;query (2)&#45;&gt;emf&#45;genmodel&#45;generator (1) -->
<g id="edge48" class="edge">
<title>judo&#45;meta&#45;query (2)&#45;&gt;emf&#45;genmodel&#45;generator (1)</title>
<path fill="none" stroke="black" d="M1462.61,-73.37C1459.88,-72.87 1457.17,-72.41 1454.5,-72 1248.98,-40.13 1191.86,-61.94 981.78,-36.08"/>
<polygon fill="black" stroke="black" points="982.01,-32.58 971.65,-34.81 981.14,-39.53 982.01,-32.58"/>
</g>
<!-- judo&#45;meta&#45;query (2)&#45;&gt;judo&#45;genmodel&#45;generator (1) -->
<g id="edge49" class="edge">
<title>judo&#45;meta&#45;query (2)&#45;&gt;judo&#45;genmodel&#45;generator (1)</title>
<path fill="none" stroke="black" d="M1462.63,-73.23C1459.89,-72.77 1457.17,-72.36 1454.5,-72 993.65,-10.33 869.01,-83.49 401.72,-35.9"/>
<polygon fill="black" stroke="black" points="401.98,-32.41 391.67,-34.87 401.26,-39.37 401.98,-32.41"/>
</g>
<!-- judo&#45;meta&#45;query (2)&#45;&gt;judo&#45;epp&#45;common (1) -->
<g id="edge47" class="edge">
<title>judo&#45;meta&#45;query (2)&#45;&gt;judo&#45;epp&#45;common (1)</title>
<path fill="none" stroke="black" d="M1462.63,-73.25C1459.89,-72.79 1457.17,-72.37 1454.5,-72 1062.04,-18.31 954.48,-85.59 557.32,-35.95"/>
<polygon fill="black" stroke="black" points="557.65,-32.46 547.29,-34.67 556.77,-39.4 557.65,-32.46"/>
</g>
<!-- judo&#45;meta&#45;query (2)&#45;&gt;osgi&#45;utils (1) -->
<g id="edge50" class="edge">
<title>judo&#45;meta&#45;query (2)&#45;&gt;osgi&#45;utils (1)</title>
<path fill="none" stroke="black" d="M1462.63,-73.27C1459.89,-72.8 1457.17,-72.37 1454.5,-72 1105.08,-23.25 1008.74,-98.43 661.5,-36 661.4,-35.98 661.3,-35.96 661.2,-35.95"/>
<polygon fill="black" stroke="black" points="662.16,-32.57 651.65,-33.87 660.68,-39.41 662.16,-32.57"/>
</g>
<!-- judo&#45;meta&#45;query (2)&#45;&gt;karaf&#45;features (1) -->
<g id="edge53" class="edge">
<title>judo&#45;meta&#45;query (2)&#45;&gt;karaf&#45;features (1)</title>
<path fill="none" stroke="black" d="M1462.62,-73.3C1459.89,-72.82 1457.17,-72.38 1454.5,-72 1165.26,-30.35 1084.31,-80.47 791.09,-35.86"/>
<polygon fill="black" stroke="black" points="791.43,-32.37 781.01,-34.31 790.36,-39.29 791.43,-32.37"/>
</g>
<!-- judo&#45;meta&#45;rdbms (2) -->
<g id="node27" class="node">
<title>judo&#45;meta&#45;rdbms (2)</title>
<polygon fill="none" stroke="black" points="1282,-108 1151,-108 1151,-72 1282,-72 1282,-108"/>
<text text-anchor="middle" x="1216.5" y="-86.3" font-family="Times,serif" font-size="14.00">judo&#45;meta&#45;rdbms (2)</text>
</g>
<!-- judo&#45;meta&#45;rdbms (2)&#45;&gt;epsilon&#45;runtime (1) -->
<g id="edge58" class="edge">
<title>judo&#45;meta&#45;rdbms (2)&#45;&gt;epsilon&#45;runtime (1)</title>
<path fill="none" stroke="black" d="M1220.46,-71.7C1222.22,-63.98 1224.34,-54.71 1226.3,-46.11"/>
<polygon fill="black" stroke="black" points="1229.77,-46.63 1228.59,-36.1 1222.95,-45.07 1229.77,-46.63"/>
</g>
<!-- judo&#45;meta&#45;rdbms (2)&#45;&gt;epsilon&#45;runtime&#45;eclipse (1) -->
<g id="edge59" class="edge">
<title>judo&#45;meta&#45;rdbms (2)&#45;&gt;epsilon&#45;runtime&#45;eclipse (1)</title>
<path fill="none" stroke="black" d="M1181.03,-71.88C1161.38,-62.39 1136.78,-50.51 1115.87,-40.42"/>
<polygon fill="black" stroke="black" points="1117.38,-37.26 1106.86,-36.07 1114.34,-43.57 1117.38,-37.26"/>
</g>
<!-- judo&#45;meta&#45;rdbms (2)&#45;&gt;emf&#45;genmodel&#45;generator (1) -->
<g id="edge55" class="edge">
<title>judo&#45;meta&#45;rdbms (2)&#45;&gt;emf&#45;genmodel&#45;generator (1)</title>
<path fill="none" stroke="black" d="M1150.75,-73.81C1147.96,-73.2 1145.2,-72.59 1142.5,-72 1088.88,-60.31 1028.83,-47.89 980.26,-38.01"/>
<polygon fill="black" stroke="black" points="980.89,-34.57 970.39,-36.01 979.49,-41.43 980.89,-34.57"/>
</g>
<!-- judo&#45;meta&#45;rdbms (2)&#45;&gt;judo&#45;genmodel&#45;generator (1) -->
<g id="edge56" class="edge">
<title>judo&#45;meta&#45;rdbms (2)&#45;&gt;judo&#45;genmodel&#45;generator (1)</title>
<path fill="none" stroke="black" d="M1150.84,-73.28C1148.03,-72.81 1145.24,-72.38 1142.5,-72 819.22,-27.37 730.99,-71.6 401.98,-35.94"/>
<polygon fill="black" stroke="black" points="402,-32.42 391.68,-34.81 401.23,-39.38 402,-32.42"/>
</g>
<!-- judo&#45;meta&#45;rdbms (2)&#45;&gt;judo&#45;epp&#45;common (1) -->
<g id="edge54" class="edge">
<title>judo&#45;meta&#45;rdbms (2)&#45;&gt;judo&#45;epp&#45;common (1)</title>
<path fill="none" stroke="black" d="M1150.84,-73.33C1148.03,-72.84 1145.24,-72.4 1142.5,-72 887.53,-35.14 816.75,-70.96 557.4,-35.98"/>
<polygon fill="black" stroke="black" points="557.68,-32.48 547.3,-34.59 556.73,-39.42 557.68,-32.48"/>
</g>
<!-- judo&#45;meta&#45;rdbms (2)&#45;&gt;osgi&#45;utils (1) -->
<g id="edge57" class="edge">
<title>judo&#45;meta&#45;rdbms (2)&#45;&gt;osgi&#45;utils (1)</title>
<path fill="none" stroke="black" d="M1150.83,-73.37C1148.02,-72.88 1145.24,-72.41 1142.5,-72 930.54,-39.91 871.91,-77.02 661.5,-36 661.4,-35.98 661.3,-35.96 661.2,-35.94"/>
<polygon fill="black" stroke="black" points="662.2,-32.58 651.67,-33.76 660.64,-39.4 662.2,-32.58"/>
</g>
<!-- judo&#45;meta&#45;rdbms (2)&#45;&gt;karaf&#45;features (1) -->
<g id="edge60" class="edge">
<title>judo&#45;meta&#45;rdbms (2)&#45;&gt;karaf&#45;features (1)</title>
<path fill="none" stroke="black" d="M1150.82,-73.47C1148.01,-72.94 1145.23,-72.45 1142.5,-72 990.53,-46.87 947.03,-63.27 790.99,-35.9"/>
<polygon fill="black" stroke="black" points="791.5,-32.44 781.04,-34.13 790.27,-39.33 791.5,-32.44"/>
</g>
<!-- judo&#45;operation&#45;utils (3) -->
<g id="node28" class="node">
<title>judo&#45;operation&#45;utils (3)</title>
<polygon fill="none" stroke="black" points="1003,-180 860,-180 860,-144 1003,-144 1003,-180"/>
<text text-anchor="middle" x="931.5" y="-158.3" font-family="Times,serif" font-size="14.00">judo&#45;operation&#45;utils (3)</text>
</g>
<!-- judo&#45;operation&#45;utils (3)&#45;&gt;judo&#45;dao&#45;api (1) -->
<g id="edge63" class="edge">
<title>judo&#45;operation&#45;utils (3)&#45;&gt;judo&#45;dao&#45;api (1)</title>
<path fill="none" stroke="black" d="M929.03,-143.7C927.93,-135.98 926.6,-126.71 925.37,-118.11"/>
<polygon fill="black" stroke="black" points="928.82,-117.51 923.94,-108.1 921.89,-118.5 928.82,-117.51"/>
</g>
<!-- judo&#45;operation&#45;utils (3)&#45;&gt;judo&#45;dispatcher&#45;api (1) -->
<g id="edge61" class="edge">
<title>judo&#45;operation&#45;utils (3)&#45;&gt;judo&#45;dispatcher&#45;api (1)</title>
<path fill="none" stroke="black" d="M963.55,-143.88C980.99,-134.55 1002.77,-122.92 1021.44,-112.94"/>
<polygon fill="black" stroke="black" points="1023.16,-115.99 1030.33,-108.19 1019.86,-109.82 1023.16,-115.99"/>
</g>
<!-- judo&#45;operation&#45;utils (3)&#45;&gt;judo&#45;meta&#45;asm (2) -->
<g id="edge62" class="edge">
<title>judo&#45;operation&#45;utils (3)&#45;&gt;judo&#45;meta&#45;asm (2)</title>
<path fill="none" stroke="black" d="M859.89,-145.67C804.56,-133.79 731.52,-118.02 688.15,-108.11"/>
<polygon fill="black" stroke="black" points="688.85,-104.68 678.31,-105.84 687.27,-111.5 688.85,-104.68"/>
</g>
<!-- judo&#45;runtime&#45;core (6) -->
<g id="node29" class="node">
<title>judo&#45;runtime&#45;core (6)</title>
<polygon fill="none" stroke="black" points="1397,-396 1262,-396 1262,-360 1397,-360 1397,-396"/>
<text text-anchor="middle" x="1329.5" y="-374.3" font-family="Times,serif" font-size="14.00">judo&#45;runtime&#45;core (6)</text>
</g>
<!-- judo&#45;runtime&#45;core (6)&#45;&gt;mapper (1) -->
<g id="edge64" class="edge">
<title>judo&#45;runtime&#45;core (6)&#45;&gt;mapper (1)</title>
<path fill="none" stroke="black" d="M1379.17,-359.98C1406.91,-350.44 1442.32,-338.18 1481.34,-324.39"/>
<polygon fill="black" stroke="black" points="1482.53,-327.69 1490.79,-321.05 1480.19,-321.09 1482.53,-327.69"/>
</g>
<!-- judo&#45;runtime&#45;core (6)&#45;&gt;osgi&#45;filestore (1) -->
<g id="edge67" class="edge">
<title>judo&#45;runtime&#45;core (6)&#45;&gt;osgi&#45;filestore (1)</title>
<path fill="none" stroke="black" d="M1351.75,-359.7C1363.08,-350.88 1377.03,-340.03 1389.32,-330.47"/>
<polygon fill="black" stroke="black" points="1391.76,-333.01 1397.51,-324.1 1387.47,-327.48 1391.76,-333.01"/>
</g>
<!-- judo&#45;runtime&#45;core (6)&#45;&gt;judo&#45;meta&#45;query (2) -->
<g id="edge66" class="edge">
<title>judo&#45;runtime&#45;core (6)&#45;&gt;judo&#45;meta&#45;query (2)</title>
<path fill="none" stroke="black" d="M1332.75,-359.78C1336.74,-341.22 1344.6,-311.22 1357.5,-288 1396.51,-217.75 1463.17,-149.79 1500.04,-115.01"/>
<polygon fill="black" stroke="black" points="1502.51,-117.48 1507.43,-108.1 1497.73,-112.37 1502.51,-117.48"/>
</g>
<!-- judo&#45;tatami&#45;base (5) -->
<g id="node32" class="node">
<title>judo&#45;tatami&#45;base (5)</title>
<polygon fill="none" stroke="black" points="1099.5,-324 971.5,-324 971.5,-288 1099.5,-288 1099.5,-324"/>
<text text-anchor="middle" x="1035.5" y="-302.3" font-family="Times,serif" font-size="14.00">judo&#45;tatami&#45;base (5)</text>
</g>
<!-- judo&#45;runtime&#45;core (6)&#45;&gt;judo&#45;tatami&#45;base (5) -->
<g id="edge65" class="edge">
<title>judo&#45;runtime&#45;core (6)&#45;&gt;judo&#45;tatami&#45;base (5)</title>
<path fill="none" stroke="black" d="M1261.68,-360.85C1216.16,-350.02 1156.21,-335.74 1109.47,-324.61"/>
<polygon fill="black" stroke="black" points="1110.24,-321.2 1099.7,-322.29 1108.62,-328.01 1110.24,-321.2"/>
</g>
<!-- judo&#45;runtime&#45;core&#45;jsl (7) -->
<g id="node30" class="node">
<title>judo&#45;runtime&#45;core&#45;jsl (7)</title>
<polygon fill="none" stroke="black" points="1390.5,-468 1238.5,-468 1238.5,-432 1390.5,-432 1390.5,-468"/>
<text text-anchor="middle" x="1314.5" y="-446.3" font-family="Times,serif" font-size="14.00">judo&#45;runtime&#45;core&#45;jsl (7)</text>
</g>
<!-- judo&#45;runtime&#45;core&#45;jsl (7)&#45;&gt;judo&#45;runtime&#45;core (6) -->
<g id="edge68" class="edge">
<title>judo&#45;runtime&#45;core&#45;jsl (7)&#45;&gt;judo&#45;runtime&#45;core (6)</title>
<path fill="none" stroke="black" d="M1318.21,-431.7C1319.86,-423.98 1321.85,-414.71 1323.69,-406.11"/>
<polygon fill="black" stroke="black" points="1327.16,-406.62 1325.83,-396.1 1320.32,-405.15 1327.16,-406.62"/>
</g>
<!-- judo&#45;tatami&#45;jsl (6) -->
<g id="node34" class="node">
<title>judo&#45;tatami&#45;jsl (6)</title>
<polygon fill="none" stroke="black" points="1154.5,-396 1038.5,-396 1038.5,-360 1154.5,-360 1154.5,-396"/>
<text text-anchor="middle" x="1096.5" y="-374.3" font-family="Times,serif" font-size="14.00">judo&#45;tatami&#45;jsl (6)</text>
</g>
<!-- judo&#45;runtime&#45;core&#45;jsl (7)&#45;&gt;judo&#45;tatami&#45;jsl (6) -->
<g id="edge69" class="edge">
<title>judo&#45;runtime&#45;core&#45;jsl (7)&#45;&gt;judo&#45;tatami&#45;jsl (6)</title>
<path fill="none" stroke="black" d="M1261.45,-431.97C1230.73,-422.1 1191.86,-409.62 1159.58,-399.25"/>
<polygon fill="black" stroke="black" points="1160.38,-395.84 1149.79,-396.11 1158.24,-402.5 1160.38,-395.84"/>
</g>
<!-- judo&#45;sdk&#45;common (3) -->
<g id="node31" class="node">
<title>judo&#45;sdk&#45;common (3)</title>
<polygon fill="none" stroke="black" points="842,-180 705,-180 705,-144 842,-144 842,-180"/>
<text text-anchor="middle" x="773.5" y="-158.3" font-family="Times,serif" font-size="14.00">judo&#45;sdk&#45;common (3)</text>
</g>
<!-- judo&#45;sdk&#45;common (3)&#45;&gt;structured&#45;map&#45;proxy (1) -->
<g id="edge71" class="edge">
<title>judo&#45;sdk&#45;common (3)&#45;&gt;structured&#45;map&#45;proxy (1)</title>
<path fill="none" stroke="black" d="M773.5,-143.7C773.5,-135.98 773.5,-126.71 773.5,-118.11"/>
<polygon fill="black" stroke="black" points="777,-118.1 773.5,-108.1 770,-118.1 777,-118.1"/>
</g>
<!-- judo&#45;sdk&#45;common (3)&#45;&gt;judo&#45;dao&#45;api (1) -->
<g id="edge72" class="edge">
<title>judo&#45;sdk&#45;common (3)&#45;&gt;judo&#45;dao&#45;api (1)</title>
<path fill="none" stroke="black" d="M809.7,-143.88C829.76,-134.39 854.87,-122.51 876.21,-112.42"/>
<polygon fill="black" stroke="black" points="877.87,-115.51 885.41,-108.07 874.88,-109.18 877.87,-115.51"/>
</g>
<!-- judo&#45;sdk&#45;common (3)&#45;&gt;judo&#45;meta&#45;asm (2) -->
<g id="edge70" class="edge">
<title>judo&#45;sdk&#45;common (3)&#45;&gt;judo&#45;meta&#45;asm (2)</title>
<path fill="none" stroke="black" d="M735.58,-143.88C714.49,-134.35 688.04,-122.41 665.63,-112.28"/>
<polygon fill="black" stroke="black" points="666.85,-108.99 656.29,-108.07 663.97,-115.37 666.85,-108.99"/>
</g>
<!-- judo&#45;tatami&#45;base (5)&#45;&gt;java&#45;embedded&#45;compiler (1) -->
<g id="edge79" class="edge">
<title>judo&#45;tatami&#45;base (5)&#45;&gt;java&#45;embedded&#45;compiler (1)</title>
<path fill="none" stroke="black" d="M1062.65,-287.88C1077.03,-278.81 1094.88,-267.55 1110.41,-257.76"/>
<polygon fill="black" stroke="black" points="1112.65,-260.48 1119.24,-252.19 1108.92,-254.56 1112.65,-260.48"/>
</g>
<!-- judo&#45;tatami&#45;base (5)&#45;&gt;judo&#45;meta&#45;expression&#45;asm (4) -->
<g id="edge78" class="edge">
<title>judo&#45;tatami&#45;base (5)&#45;&gt;judo&#45;meta&#45;expression&#45;asm (4)</title>
<path fill="none" stroke="black" d="M971.44,-293.68C908.92,-282.63 812.88,-265.65 740.16,-252.79"/>
<polygon fill="black" stroke="black" points="740.52,-249.3 730.06,-251.01 739.3,-256.2 740.52,-249.3"/>
</g>
<!-- judo&#45;tatami&#45;base (5)&#45;&gt;judo&#45;meta&#45;expression&#45;psm (4) -->
<g id="edge76" class="edge">
<title>judo&#45;tatami&#45;base (5)&#45;&gt;judo&#45;meta&#45;expression&#45;psm (4)</title>
<path fill="none" stroke="black" d="M971.27,-299.37C876.73,-290.79 694.62,-273.2 540.5,-252 540.4,-251.99 540.3,-251.97 540.19,-251.96"/>
<polygon fill="black" stroke="black" points="540.97,-248.53 530.58,-250.59 539.99,-255.46 540.97,-248.53"/>
</g>
<!-- judo&#45;tatami&#45;base (5)&#45;&gt;judo&#45;meta&#45;liquibase (2) -->
<g id="edge74" class="edge">
<title>judo&#45;tatami&#45;base (5)&#45;&gt;judo&#45;meta&#45;liquibase (2)</title>
<path fill="none" stroke="black" d="M1099.51,-303.43C1144.41,-299.11 1203.22,-286.54 1242.5,-252 1281.3,-217.88 1252.17,-183.47 1285.5,-144 1295.98,-131.59 1310.15,-121.26 1324,-113.11"/>
<polygon fill="black" stroke="black" points="1325.99,-116.01 1333.02,-108.08 1322.58,-109.9 1325.99,-116.01"/>
</g>
<!-- judo&#45;tatami&#45;base (5)&#45;&gt;judo&#45;meta&#45;rdbms (2) -->
<g id="edge80" class="edge">
<title>judo&#45;tatami&#45;base (5)&#45;&gt;judo&#45;meta&#45;rdbms (2)</title>
<path fill="none" stroke="black" d="M1034.99,-287.97C1035.19,-269.04 1037.87,-238.21 1051.5,-216 1080.11,-169.35 1133.08,-133.96 1171.29,-112.95"/>
<polygon fill="black" stroke="black" points="1173.02,-115.99 1180.18,-108.18 1169.71,-109.83 1173.02,-115.99"/>
</g>
<!-- judo&#45;tatami&#45;base (5)&#45;&gt;judo&#45;operation&#45;utils (3) -->
<g id="edge77" class="edge">
<title>judo&#45;tatami&#45;base (5)&#45;&gt;judo&#45;operation&#45;utils (3)</title>
<path fill="none" stroke="black" d="M1022.96,-287.87C1004.84,-263.14 971.23,-217.24 950.18,-188.51"/>
<polygon fill="black" stroke="black" points="952.82,-186.19 944.09,-180.19 947.17,-190.33 952.82,-186.19"/>
</g>
<!-- judo&#45;tatami&#45;base (5)&#45;&gt;judo&#45;sdk&#45;common (3) -->
<g id="edge73" class="edge">
<title>judo&#45;tatami&#45;base (5)&#45;&gt;judo&#45;sdk&#45;common (3)</title>
<path fill="none" stroke="black" d="M1003.9,-287.87C956.39,-262.12 866.58,-213.45 814.22,-185.07"/>
<polygon fill="black" stroke="black" points="815.67,-181.88 805.22,-180.19 812.34,-188.03 815.67,-181.88"/>
</g>
<!-- judo&#45;tatami&#45;core (2) -->
<g id="node33" class="node">
<title>judo&#45;tatami&#45;core (2)</title>
<polygon fill="none" stroke="black" points="1735,-108 1608,-108 1608,-72 1735,-72 1735,-108"/>
<text text-anchor="middle" x="1671.5" y="-86.3" font-family="Times,serif" font-size="14.00">judo&#45;tatami&#45;core (2)</text>
</g>
<!-- judo&#45;tatami&#45;base (5)&#45;&gt;judo&#45;tatami&#45;core (2) -->
<g id="edge75" class="edge">
<title>judo&#45;tatami&#45;base (5)&#45;&gt;judo&#45;tatami&#45;core (2)</title>
<path fill="none" stroke="black" d="M1099.93,-292.97C1146.66,-283.58 1211.11,-269.25 1266.5,-252 1399.24,-210.65 1550.08,-145.71 1624.65,-112.35"/>
<polygon fill="black" stroke="black" points="1626.54,-115.34 1634.23,-108.06 1623.67,-108.96 1626.54,-115.34"/>
</g>
<!-- judo&#45;tatami&#45;core (2)&#45;&gt;epsilon&#45;runtime (1) -->
<g id="edge82" class="edge">
<title>judo&#45;tatami&#45;core (2)&#45;&gt;epsilon&#45;runtime (1)</title>
<path fill="none" stroke="black" d="M1607.96,-73.68C1605.11,-73.09 1602.28,-72.53 1599.5,-72 1497.42,-52.62 1378.17,-36.61 1303.98,-27.42"/>
<polygon fill="black" stroke="black" points="1304.17,-23.92 1293.82,-26.17 1303.31,-30.87 1304.17,-23.92"/>
</g>
<!-- judo&#45;tatami&#45;core (2)&#45;&gt;emf&#45;genmodel&#45;generator (1) -->
<g id="edge81" class="edge">
<title>judo&#45;tatami&#45;core (2)&#45;&gt;emf&#45;genmodel&#45;generator (1)</title>
<path fill="none" stroke="black" d="M1607.62,-73.31C1604.88,-72.83 1602.17,-72.39 1599.5,-72 1330.14,-32.67 1255.98,-67.46 981.9,-36.07"/>
<polygon fill="black" stroke="black" points="981.98,-32.56 971.65,-34.88 981.17,-39.51 981.98,-32.56"/>
</g>
<!-- judo&#45;tatami&#45;jsl (6)&#45;&gt;judo&#45;meta&#45;jsl (2) -->
<g id="edge83" class="edge">
<title>judo&#45;tatami&#45;jsl (6)&#45;&gt;judo&#45;meta&#45;jsl (2)</title>
<path fill="none" stroke="black" d="M1038.24,-374.44C908.9,-367.27 589.47,-341.2 339.5,-252 242.6,-217.42 140.76,-149.7 90.85,-114.11"/>
<polygon fill="black" stroke="black" points="92.59,-111.06 82.43,-108.06 88.51,-116.74 92.59,-111.06"/>
</g>
<!-- judo&#45;tatami&#45;jsl (6)&#45;&gt;judo&#45;tatami&#45;base (5) -->
<g id="edge84" class="edge">
<title>judo&#45;tatami&#45;jsl (6)&#45;&gt;judo&#45;tatami&#45;base (5)</title>
<path fill="none" stroke="black" d="M1081.42,-359.7C1074.11,-351.3 1065.19,-341.07 1057.16,-331.86"/>
<polygon fill="black" stroke="black" points="1059.61,-329.34 1050.41,-324.1 1054.34,-333.94 1059.61,-329.34"/>
</g>
<!-- judo&#45;jsl&#45;springboot&#45;parent (7) -->
<g id="node35" class="node">
<title>judo&#45;jsl&#45;springboot&#45;parent (7)</title>
<polygon fill="none" stroke="black" points="1189.5,-468 1011.5,-468 1011.5,-432 1189.5,-432 1189.5,-468"/>
<text text-anchor="middle" x="1100.5" y="-446.3" font-family="Times,serif" font-size="14.00">judo&#45;jsl&#45;springboot&#45;parent (7)</text>
</g>
<!-- judo&#45;jsl&#45;springboot&#45;parent (7)&#45;&gt;judo&#45;runtime&#45;core (6) -->
<g id="edge85" class="edge">
<title>judo&#45;jsl&#45;springboot&#45;parent (7)&#45;&gt;judo&#45;runtime&#45;core (6)</title>
<path fill="none" stroke="black" d="M1156.23,-431.97C1188.64,-422.06 1229.68,-409.51 1263.68,-399.12"/>
<polygon fill="black" stroke="black" points="1264.98,-402.38 1273.52,-396.11 1262.94,-395.69 1264.98,-402.38"/>
</g>
<!-- judo&#45;jsl&#45;springboot&#45;parent (7)&#45;&gt;judo&#45;tatami&#45;jsl (6) -->
<g id="edge86" class="edge">
<title>judo&#45;jsl&#45;springboot&#45;parent (7)&#45;&gt;judo&#45;tatami&#45;jsl (6)</title>
<path fill="none" stroke="black" d="M1099.51,-431.7C1099.07,-423.98 1098.54,-414.71 1098.05,-406.11"/>
<polygon fill="black" stroke="black" points="1101.54,-405.89 1097.48,-396.1 1094.55,-406.29 1101.54,-405.89"/>
</g>
<!-- judo&#45;jsl&#45;springboot&#45;archetype (8) -->
<g id="node36" class="node">
<title>judo&#45;jsl&#45;springboot&#45;archetype (8)</title>
<polygon fill="none" stroke="black" points="1199,-540 1002,-540 1002,-504 1199,-504 1199,-540"/>
<text text-anchor="middle" x="1100.5" y="-518.3" font-family="Times,serif" font-size="14.00">judo&#45;jsl&#45;springboot&#45;archetype (8)</text>
</g>
<!-- judo&#45;jsl&#45;springboot&#45;archetype (8)&#45;&gt;judo&#45;jsl&#45;springboot&#45;parent (7) -->
<g id="edge87" class="edge">
<title>judo&#45;jsl&#45;springboot&#45;archetype (8)&#45;&gt;judo&#45;jsl&#45;springboot&#45;parent (7)</title>
<path fill="none" stroke="black" d="M1100.5,-503.7C1100.5,-495.98 1100.5,-486.71 1100.5,-478.11"/>
<polygon fill="black" stroke="black" points="1104,-478.1 1100.5,-468.1 1097,-478.1 1104,-478.1"/>
</g>
</g>
</svg>
