<?xml version="1.0" encoding="UTF-8" standalone="no"?>
<!DOCTYPE svg PUBLIC "-//W3C//DTD SVG 1.1//EN"
 "http://www.w3.org/Graphics/SVG/1.1/DTD/svg11.dtd">
<!-- Generated by graphviz version 2.49.0 (20210828.1703)
 -->
<!-- Pages: 1 -->
<svg width="1603pt" height="548pt"
 viewBox="0.00 0.00 1603.00 548.00" xmlns="http://www.w3.org/2000/svg" xmlns:xlink="http://www.w3.org/1999/xlink">
<g id="graph0" class="graph" transform="scale(1 1) rotate(0) translate(4 544)">
<polygon fill="white" stroke="transparent" points="-4,4 -4,-544 1599,-544 1599,4 -4,4"/>
<!-- epsilon&#45;runtime (1) -->
<g id="node1" class="node">
<title>epsilon&#45;runtime (1)</title>
<polygon fill="none" stroke="black" points="696.5,-36 574.5,-36 574.5,0 696.5,0 696.5,-36"/>
<text text-anchor="middle" x="635.5" y="-14.3" font-family="Times,serif" font-size="14.00">epsilon&#45;runtime (1)</text>
</g>
<!-- epsilon&#45;runtime&#45;eclipse (1) -->
<g id="node2" class="node">
<title>epsilon&#45;runtime&#45;eclipse (1)</title>
<polygon fill="none" stroke="black" points="556.5,-36 392.5,-36 392.5,0 556.5,0 556.5,-36"/>
<text text-anchor="middle" x="474.5" y="-14.3" font-family="Times,serif" font-size="14.00">epsilon&#45;runtime&#45;eclipse (1)</text>
</g>
<!-- emf&#45;genmodel&#45;generator (1) -->
<g id="node3" class="node">
<title>emf&#45;genmodel&#45;generator (1)</title>
<polygon fill="none" stroke="black" points="1120.5,-36 948.5,-36 948.5,0 1120.5,0 1120.5,-36"/>
<text text-anchor="middle" x="1034.5" y="-14.3" font-family="Times,serif" font-size="14.00">emf&#45;genmodel&#45;generator (1)</text>
</g>
<!-- judo&#45;genmodel&#45;generator (1) -->
<g id="node4" class="node">
<title>judo&#45;genmodel&#45;generator (1)</title>
<polygon fill="none" stroke="black" points="1312.5,-36 1138.5,-36 1138.5,0 1312.5,0 1312.5,-36"/>
<text text-anchor="middle" x="1225.5" y="-14.3" font-family="Times,serif" font-size="14.00">judo&#45;genmodel&#45;generator (1)</text>
</g>
<!-- judo&#45;epp&#45;common (1) -->
<g id="node5" class="node">
<title>judo&#45;epp&#45;common (1)</title>
<polygon fill="none" stroke="black" points="1468,-36 1331,-36 1331,0 1468,0 1468,-36"/>
<text text-anchor="middle" x="1399.5" y="-14.3" font-family="Times,serif" font-size="14.00">judo&#45;epp&#45;common (1)</text>
</g>
<!-- osgi&#45;utils (1) -->
<g id="node6" class="node">
<title>osgi&#45;utils (1)</title>
<polygon fill="none" stroke="black" points="800.5,-36 714.5,-36 714.5,0 800.5,0 800.5,-36"/>
<text text-anchor="middle" x="757.5" y="-14.3" font-family="Times,serif" font-size="14.00">osgi&#45;utils (1)</text>
</g>
<!-- java&#45;embedded&#45;compiler (1) -->
<g id="node7" class="node">
<title>java&#45;embedded&#45;compiler (1)</title>
<polygon fill="none" stroke="black" points="747,-252 574,-252 574,-216 747,-216 747,-252"/>
<text text-anchor="middle" x="660.5" y="-230.3" font-family="Times,serif" font-size="14.00">java&#45;embedded&#45;compiler (1)</text>
</g>
<!-- structured&#45;map&#45;proxy (1) -->
<g id="node8" class="node">
<title>structured&#45;map&#45;proxy (1)</title>
<polygon fill="none" stroke="black" points="868,-108 713,-108 713,-72 868,-72 868,-108"/>
<text text-anchor="middle" x="790.5" y="-86.3" font-family="Times,serif" font-size="14.00">structured&#45;map&#45;proxy (1)</text>
</g>
<!-- karaf&#45;features (1) -->
<g id="node9" class="node">
<title>karaf&#45;features (1)</title>
<polygon fill="none" stroke="black" points="930,-36 819,-36 819,0 930,0 930,-36"/>
<text text-anchor="middle" x="874.5" y="-14.3" font-family="Times,serif" font-size="14.00">karaf&#45;features (1)</text>
</g>
<!-- mapper (1) -->
<g id="node10" class="node">
<title>mapper (1)</title>
<polygon fill="none" stroke="black" points="198,-324 121,-324 121,-288 198,-288 198,-324"/>
<text text-anchor="middle" x="159.5" y="-302.3" font-family="Times,serif" font-size="14.00">mapper (1)</text>
</g>
<!-- osgi&#45;liquibase (1) -->
<g id="node11" class="node">
<title>osgi&#45;liquibase (1)</title>
<polygon fill="none" stroke="black" points="591.5,-540 479.5,-540 479.5,-504 591.5,-504 591.5,-540"/>
<text text-anchor="middle" x="535.5" y="-518.3" font-family="Times,serif" font-size="14.00">osgi&#45;liquibase (1)</text>
</g>
<!-- osgi&#45;filestore (1) -->
<g id="node12" class="node">
<title>osgi&#45;filestore (1)</title>
<polygon fill="none" stroke="black" points="416,-324 309,-324 309,-288 416,-288 416,-324"/>
<text text-anchor="middle" x="362.5" y="-302.3" font-family="Times,serif" font-size="14.00">osgi&#45;filestore (1)</text>
</g>
<!-- judo&#45;misc&#45;p2 (1) -->
<g id="node13" class="node">
<title>judo&#45;misc&#45;p2 (1)</title>
<polygon fill="none" stroke="black" points="1595,-36 1486,-36 1486,0 1595,0 1595,-36"/>
<text text-anchor="middle" x="1540.5" y="-14.3" font-family="Times,serif" font-size="14.00">judo&#45;misc&#45;p2 (1)</text>
</g>
<!-- judo&#45;dao&#45;api (1) -->
<g id="node14" class="node">
<title>judo&#45;dao&#45;api (1)</title>
<polygon fill="none" stroke="black" points="558,-108 453,-108 453,-72 558,-72 558,-108"/>
<text text-anchor="middle" x="505.5" y="-86.3" font-family="Times,serif" font-size="14.00">judo&#45;dao&#45;api (1)</text>
</g>
<!-- judo&#45;dispatcher&#45;api (1) -->
<g id="node15" class="node">
<title>judo&#45;dispatcher&#45;api (1)</title>
<polygon fill="none" stroke="black" points="435,-108 294,-108 294,-72 435,-72 435,-108"/>
<text text-anchor="middle" x="364.5" y="-86.3" font-family="Times,serif" font-size="14.00">judo&#45;dispatcher&#45;api (1)</text>
</g>
<!-- judo&#45;jsl&#45;vscode (3) -->
<g id="node16" class="node">
<title>judo&#45;jsl&#45;vscode (3)</title>
<polygon fill="none" stroke="black" points="1502,-180 1383,-180 1383,-144 1502,-144 1502,-180"/>
<text text-anchor="middle" x="1442.5" y="-158.3" font-family="Times,serif" font-size="14.00">judo&#45;jsl&#45;vscode (3)</text>
</g>
<!-- judo&#45;meta&#45;jsl (2) -->
<g id="node22" class="node">
<title>judo&#45;meta&#45;jsl (2)</title>
<polygon fill="none" stroke="black" points="1585,-108 1476,-108 1476,-72 1585,-72 1585,-108"/>
<text text-anchor="middle" x="1530.5" y="-86.3" font-family="Times,serif" font-size="14.00">judo&#45;meta&#45;jsl (2)</text>
</g>
<!-- judo&#45;jsl&#45;vscode (3)&#45;&gt;judo&#45;meta&#45;jsl (2) -->
<g id="edge1" class="edge">
<title>judo&#45;jsl&#45;vscode (3)&#45;&gt;judo&#45;meta&#45;jsl (2)</title>
<path fill="none" stroke="black" d="M1464.25,-143.7C1475.34,-134.88 1488.97,-124.03 1500.99,-114.47"/>
<polygon fill="black" stroke="black" points="1503.35,-117.07 1509,-108.1 1498.99,-111.59 1503.35,-117.07"/>
</g>
<!-- judo&#45;meta&#45;asm (2) -->
<g id="node17" class="node">
<title>judo&#45;meta&#45;asm (2)</title>
<polygon fill="none" stroke="black" points="695,-108 576,-108 576,-72 695,-72 695,-108"/>
<text text-anchor="middle" x="635.5" y="-86.3" font-family="Times,serif" font-size="14.00">judo&#45;meta&#45;asm (2)</text>
</g>
<!-- judo&#45;meta&#45;asm (2)&#45;&gt;epsilon&#45;runtime (1) -->
<g id="edge6" class="edge">
<title>judo&#45;meta&#45;asm (2)&#45;&gt;epsilon&#45;runtime (1)</title>
<path fill="none" stroke="black" d="M635.5,-71.7C635.5,-63.98 635.5,-54.71 635.5,-46.11"/>
<polygon fill="black" stroke="black" points="639,-46.1 635.5,-36.1 632,-46.1 639,-46.1"/>
</g>
<!-- judo&#45;meta&#45;asm (2)&#45;&gt;epsilon&#45;runtime&#45;eclipse (1) -->
<g id="edge8" class="edge">
<title>judo&#45;meta&#45;asm (2)&#45;&gt;epsilon&#45;runtime&#45;eclipse (1)</title>
<path fill="none" stroke="black" d="M596.11,-71.88C574.11,-62.31 546.49,-50.3 523.14,-40.15"/>
<polygon fill="black" stroke="black" points="524.32,-36.85 513.76,-36.07 521.53,-43.27 524.32,-36.85"/>
</g>
<!-- judo&#45;meta&#45;asm (2)&#45;&gt;emf&#45;genmodel&#45;generator (1) -->
<g id="edge2" class="edge">
<title>judo&#45;meta&#45;asm (2)&#45;&gt;emf&#45;genmodel&#45;generator (1)</title>
<path fill="none" stroke="black" d="M695.27,-73.93C698.38,-73.25 701.48,-72.6 704.5,-72 804.99,-51.97 833.55,-53.21 938.27,-36.17"/>
<polygon fill="black" stroke="black" points="939,-39.6 948.3,-34.52 937.87,-32.69 939,-39.6"/>
</g>
<!-- judo&#45;meta&#45;asm (2)&#45;&gt;judo&#45;genmodel&#45;generator (1) -->
<g id="edge5" class="edge">
<title>judo&#45;meta&#45;asm (2)&#45;&gt;judo&#45;genmodel&#45;generator (1)</title>
<path fill="none" stroke="black" d="M695.22,-73.68C698.35,-73.07 701.46,-72.5 704.5,-72 888.35,-41.76 939.78,-59.91 1128.46,-36.06"/>
<polygon fill="black" stroke="black" points="1128.96,-39.52 1138.43,-34.77 1128.07,-32.58 1128.96,-39.52"/>
</g>
<!-- judo&#45;meta&#45;asm (2)&#45;&gt;judo&#45;epp&#45;common (1) -->
<g id="edge7" class="edge">
<title>judo&#45;meta&#45;asm (2)&#45;&gt;judo&#45;epp&#45;common (1)</title>
<path fill="none" stroke="black" d="M695.2,-73.58C698.34,-72.99 701.45,-72.46 704.5,-72 972.79,-31.47 1047.55,-72.34 1320.49,-35.99"/>
<polygon fill="black" stroke="black" points="1321.26,-39.42 1330.7,-34.61 1320.32,-32.48 1321.26,-39.42"/>
</g>
<!-- judo&#45;meta&#45;asm (2)&#45;&gt;osgi&#45;utils (1) -->
<g id="edge4" class="edge">
<title>judo&#45;meta&#45;asm (2)&#45;&gt;osgi&#45;utils (1)</title>
<path fill="none" stroke="black" d="M665.34,-71.88C681.44,-62.64 701.5,-51.13 718.79,-41.21"/>
<polygon fill="black" stroke="black" points="720.61,-44.2 727.54,-36.19 717.13,-38.13 720.61,-44.2"/>
</g>
<!-- judo&#45;meta&#45;asm (2)&#45;&gt;karaf&#45;features (1) -->
<g id="edge3" class="edge">
<title>judo&#45;meta&#45;asm (2)&#45;&gt;karaf&#45;features (1)</title>
<path fill="none" stroke="black" d="M693.66,-71.97C728.52,-61.76 772.93,-48.75 809.02,-38.18"/>
<polygon fill="black" stroke="black" points="810.35,-41.44 818.96,-35.27 808.38,-34.72 810.35,-41.44"/>
</g>
<!-- judo&#45;meta&#45;expression (3) -->
<g id="node18" class="node">
<title>judo&#45;meta&#45;expression (3)</title>
<polygon fill="none" stroke="black" points="1043.5,-180 889.5,-180 889.5,-144 1043.5,-144 1043.5,-180"/>
<text text-anchor="middle" x="966.5" y="-158.3" font-family="Times,serif" font-size="14.00">judo&#45;meta&#45;expression (3)</text>
</g>
<!-- judo&#45;meta&#45;jql (2) -->
<g id="node21" class="node">
<title>judo&#45;meta&#45;jql (2)</title>
<polygon fill="none" stroke="black" points="1457.5,-108 1347.5,-108 1347.5,-72 1457.5,-72 1457.5,-108"/>
<text text-anchor="middle" x="1402.5" y="-86.3" font-family="Times,serif" font-size="14.00">judo&#45;meta&#45;jql (2)</text>
</g>
<!-- judo&#45;meta&#45;expression (3)&#45;&gt;judo&#45;meta&#45;jql (2) -->
<g id="edge10" class="edge">
<title>judo&#45;meta&#45;expression (3)&#45;&gt;judo&#45;meta&#45;jql (2)</title>
<path fill="none" stroke="black" d="M1043.54,-152.72C1116.8,-144.22 1230.21,-129.49 1337.42,-108.09"/>
<polygon fill="black" stroke="black" points="1338.33,-111.48 1347.44,-106.07 1336.94,-104.62 1338.33,-111.48"/>
</g>
<!-- judo&#45;meta&#45;measure (2) -->
<g id="node24" class="node">
<title>judo&#45;meta&#45;measure (2)</title>
<polygon fill="none" stroke="black" points="1028.5,-108 886.5,-108 886.5,-72 1028.5,-72 1028.5,-108"/>
<text text-anchor="middle" x="957.5" y="-86.3" font-family="Times,serif" font-size="14.00">judo&#45;meta&#45;measure (2)</text>
</g>
<!-- judo&#45;meta&#45;expression (3)&#45;&gt;judo&#45;meta&#45;measure (2) -->
<g id="edge9" class="edge">
<title>judo&#45;meta&#45;expression (3)&#45;&gt;judo&#45;meta&#45;measure (2)</title>
<path fill="none" stroke="black" d="M964.28,-143.7C963.28,-135.98 962.09,-126.71 960.99,-118.11"/>
<polygon fill="black" stroke="black" points="964.45,-117.58 959.7,-108.1 957.5,-118.47 964.45,-117.58"/>
</g>
<!-- judo&#45;meta&#45;expression&#45;asm (4) -->
<g id="node19" class="node">
<title>judo&#45;meta&#45;expression&#45;asm (4)</title>
<polygon fill="none" stroke="black" points="946,-252 765,-252 765,-216 946,-216 946,-252"/>
<text text-anchor="middle" x="855.5" y="-230.3" font-family="Times,serif" font-size="14.00">judo&#45;meta&#45;expression&#45;asm (4)</text>
</g>
<!-- judo&#45;meta&#45;expression&#45;asm (4)&#45;&gt;judo&#45;meta&#45;asm (2) -->
<g id="edge12" class="edge">
<title>judo&#45;meta&#45;expression&#45;asm (4)&#45;&gt;judo&#45;meta&#45;asm (2)</title>
<path fill="none" stroke="black" d="M837.05,-215.83C815.97,-196.76 779.95,-165.82 745.5,-144 726.8,-132.16 705.06,-121.16 685.86,-112.28"/>
<polygon fill="black" stroke="black" points="687.22,-109.06 676.67,-108.1 684.32,-115.43 687.22,-109.06"/>
</g>
<!-- judo&#45;meta&#45;expression&#45;asm (4)&#45;&gt;judo&#45;meta&#45;expression (3) -->
<g id="edge11" class="edge">
<title>judo&#45;meta&#45;expression&#45;asm (4)&#45;&gt;judo&#45;meta&#45;expression (3)</title>
<path fill="none" stroke="black" d="M882.65,-215.88C897.03,-206.81 914.88,-195.55 930.41,-185.76"/>
<polygon fill="black" stroke="black" points="932.65,-188.48 939.24,-180.19 928.92,-182.56 932.65,-188.48"/>
</g>
<!-- judo&#45;meta&#45;expression&#45;psm (4) -->
<g id="node20" class="node">
<title>judo&#45;meta&#45;expression&#45;psm (4)</title>
<polygon fill="none" stroke="black" points="1146.5,-252 964.5,-252 964.5,-216 1146.5,-216 1146.5,-252"/>
<text text-anchor="middle" x="1055.5" y="-230.3" font-family="Times,serif" font-size="14.00">judo&#45;meta&#45;expression&#45;psm (4)</text>
</g>
<!-- judo&#45;meta&#45;expression&#45;psm (4)&#45;&gt;judo&#45;meta&#45;expression (3) -->
<g id="edge14" class="edge">
<title>judo&#45;meta&#45;expression&#45;psm (4)&#45;&gt;judo&#45;meta&#45;expression (3)</title>
<path fill="none" stroke="black" d="M1033.5,-215.7C1022.29,-206.88 1008.5,-196.03 996.35,-186.47"/>
<polygon fill="black" stroke="black" points="998.27,-183.54 988.25,-180.1 993.94,-189.04 998.27,-183.54"/>
</g>
<!-- judo&#45;meta&#45;psm (2) -->
<g id="node25" class="node">
<title>judo&#45;meta&#45;psm (2)</title>
<polygon fill="none" stroke="black" points="1166,-108 1047,-108 1047,-72 1166,-72 1166,-108"/>
<text text-anchor="middle" x="1106.5" y="-86.3" font-family="Times,serif" font-size="14.00">judo&#45;meta&#45;psm (2)</text>
</g>
<!-- judo&#45;meta&#45;expression&#45;psm (4)&#45;&gt;judo&#45;meta&#45;psm (2) -->
<g id="edge13" class="edge">
<title>judo&#45;meta&#45;expression&#45;psm (4)&#45;&gt;judo&#45;meta&#45;psm (2)</title>
<path fill="none" stroke="black" d="M1061.65,-215.87C1070.42,-191.46 1086.59,-146.43 1096.93,-117.64"/>
<polygon fill="black" stroke="black" points="1100.24,-118.78 1100.33,-108.19 1093.65,-116.42 1100.24,-118.78"/>
</g>
<!-- judo&#45;meta&#45;jql (2)&#45;&gt;emf&#45;genmodel&#45;generator (1) -->
<g id="edge15" class="edge">
<title>judo&#45;meta&#45;jql (2)&#45;&gt;emf&#45;genmodel&#45;generator (1)</title>
<path fill="none" stroke="black" d="M1347.42,-74.04C1344.41,-73.32 1341.42,-72.64 1338.5,-72 1249.47,-52.55 1224.01,-52.3 1130.58,-36.17"/>
<polygon fill="black" stroke="black" points="1131.16,-32.72 1120.71,-34.45 1129.96,-39.62 1131.16,-32.72"/>
</g>
<!-- judo&#45;meta&#45;jql (2)&#45;&gt;judo&#45;genmodel&#45;generator (1) -->
<g id="edge17" class="edge">
<title>judo&#45;meta&#45;jql (2)&#45;&gt;judo&#45;genmodel&#45;generator (1)</title>
<path fill="none" stroke="black" d="M1359.2,-71.88C1334.79,-62.22 1304.1,-50.09 1278.29,-39.88"/>
<polygon fill="black" stroke="black" points="1279.24,-36.49 1268.66,-36.07 1276.67,-43 1279.24,-36.49"/>
</g>
<!-- judo&#45;meta&#45;jql (2)&#45;&gt;judo&#45;epp&#45;common (1) -->
<g id="edge18" class="edge">
<title>judo&#45;meta&#45;jql (2)&#45;&gt;judo&#45;epp&#45;common (1)</title>
<path fill="none" stroke="black" d="M1401.76,-71.7C1401.43,-63.98 1401.03,-54.71 1400.66,-46.11"/>
<polygon fill="black" stroke="black" points="1404.16,-45.95 1400.23,-36.1 1397.16,-46.25 1404.16,-45.95"/>
</g>
<!-- judo&#45;meta&#45;jql (2)&#45;&gt;osgi&#45;utils (1) -->
<g id="edge19" class="edge">
<title>judo&#45;meta&#45;jql (2)&#45;&gt;osgi&#45;utils (1)</title>
<path fill="none" stroke="black" d="M1347.49,-73.67C1344.46,-73.05 1341.45,-72.49 1338.5,-72 1106.44,-33.63 1041.51,-80.24 810.5,-36 810.4,-35.98 810.3,-35.96 810.2,-35.94"/>
<polygon fill="black" stroke="black" points="811.19,-32.58 800.66,-33.79 809.65,-39.41 811.19,-32.58"/>
</g>
<!-- judo&#45;meta&#45;jql (2)&#45;&gt;karaf&#45;features (1) -->
<g id="edge16" class="edge">
<title>judo&#45;meta&#45;jql (2)&#45;&gt;karaf&#45;features (1)</title>
<path fill="none" stroke="black" d="M1347.47,-73.75C1344.45,-73.11 1341.44,-72.52 1338.5,-72 1166.33,-41.59 1116.68,-65.73 939.92,-35.88"/>
<polygon fill="black" stroke="black" points="940.48,-32.42 930.04,-34.17 939.3,-39.32 940.48,-32.42"/>
</g>
<!-- judo&#45;meta&#45;jsl (2)&#45;&gt;emf&#45;genmodel&#45;generator (1) -->
<g id="edge20" class="edge">
<title>judo&#45;meta&#45;jsl (2)&#45;&gt;emf&#45;genmodel&#45;generator (1)</title>
<path fill="none" stroke="black" d="M1475.81,-73.88C1472.67,-73.2 1469.55,-72.56 1466.5,-72 1321.57,-45.17 1280.38,-56.75 1130.69,-36.1"/>
<polygon fill="black" stroke="black" points="1131.06,-32.62 1120.67,-34.69 1130.09,-39.55 1131.06,-32.62"/>
</g>
<!-- judo&#45;meta&#45;jsl (2)&#45;&gt;judo&#45;genmodel&#45;generator (1) -->
<g id="edge23" class="edge">
<title>judo&#45;meta&#45;jsl (2)&#45;&gt;judo&#45;genmodel&#45;generator (1)</title>
<path fill="none" stroke="black" d="M1475.73,-74.28C1472.61,-73.5 1469.52,-72.73 1466.5,-72 1417.34,-60.07 1362.27,-47.87 1317.19,-38.19"/>
<polygon fill="black" stroke="black" points="1317.65,-34.71 1307.14,-36.04 1316.18,-41.55 1317.65,-34.71"/>
</g>
<!-- judo&#45;meta&#45;jsl (2)&#45;&gt;judo&#45;epp&#45;common (1) -->
<g id="edge24" class="edge">
<title>judo&#45;meta&#45;jsl (2)&#45;&gt;judo&#45;epp&#45;common (1)</title>
<path fill="none" stroke="black" d="M1498.45,-71.88C1481.01,-62.55 1459.23,-50.92 1440.56,-40.94"/>
<polygon fill="black" stroke="black" points="1442.14,-37.82 1431.67,-36.19 1438.84,-43.99 1442.14,-37.82"/>
</g>
<!-- judo&#45;meta&#45;jsl (2)&#45;&gt;osgi&#45;utils (1) -->
<g id="edge25" class="edge">
<title>judo&#45;meta&#45;jsl (2)&#45;&gt;osgi&#45;utils (1)</title>
<path fill="none" stroke="black" d="M1475.85,-73.69C1472.7,-73.06 1469.57,-72.49 1466.5,-72 1178.11,-26.28 1097.64,-89.02 810.5,-36 810.4,-35.98 810.3,-35.96 810.2,-35.94"/>
<polygon fill="black" stroke="black" points="811.17,-32.58 800.65,-33.83 809.66,-39.41 811.17,-32.58"/>
</g>
<!-- judo&#45;meta&#45;jsl (2)&#45;&gt;karaf&#45;features (1) -->
<g id="edge21" class="edge">
<title>judo&#45;meta&#45;jsl (2)&#45;&gt;karaf&#45;features (1)</title>
<path fill="none" stroke="black" d="M1475.84,-73.74C1472.69,-73.1 1469.56,-72.51 1466.5,-72 1238.16,-34.23 1173.03,-72.75 940.16,-35.89"/>
<polygon fill="black" stroke="black" points="940.45,-32.39 930.02,-34.25 939.34,-39.3 940.45,-32.39"/>
</g>
<!-- judo&#45;meta&#45;jsl (2)&#45;&gt;judo&#45;misc&#45;p2 (1) -->
<g id="edge22" class="edge">
<title>judo&#45;meta&#45;jsl (2)&#45;&gt;judo&#45;misc&#45;p2 (1)</title>
<path fill="none" stroke="black" d="M1532.97,-71.7C1534.07,-63.98 1535.4,-54.71 1536.63,-46.11"/>
<polygon fill="black" stroke="black" points="1540.11,-46.5 1538.06,-36.1 1533.18,-45.51 1540.11,-46.5"/>
</g>
<!-- judo&#45;meta&#45;liquibase (2) -->
<g id="node23" class="node">
<title>judo&#45;meta&#45;liquibase (2)</title>
<polygon fill="none" stroke="black" points="1329,-108 1184,-108 1184,-72 1329,-72 1329,-108"/>
<text text-anchor="middle" x="1256.5" y="-86.3" font-family="Times,serif" font-size="14.00">judo&#45;meta&#45;liquibase (2)</text>
</g>
<!-- judo&#45;meta&#45;liquibase (2)&#45;&gt;epsilon&#45;runtime (1) -->
<g id="edge30" class="edge">
<title>judo&#45;meta&#45;liquibase (2)&#45;&gt;epsilon&#45;runtime (1)</title>
<path fill="none" stroke="black" d="M1183.72,-73.26C1180.95,-72.81 1178.2,-72.39 1175.5,-72 971.34,-42.88 914.19,-68.02 706.84,-36.06"/>
<polygon fill="black" stroke="black" points="707.27,-32.58 696.85,-34.49 706.18,-39.5 707.27,-32.58"/>
</g>
<!-- judo&#45;meta&#45;liquibase (2)&#45;&gt;epsilon&#45;runtime&#45;eclipse (1) -->
<g id="edge32" class="edge">
<title>judo&#45;meta&#45;liquibase (2)&#45;&gt;epsilon&#45;runtime&#45;eclipse (1)</title>
<path fill="none" stroke="black" d="M1183.73,-73.2C1180.96,-72.76 1178.21,-72.36 1175.5,-72 909.6,-36.45 836.84,-68.21 566.87,-36.07"/>
<polygon fill="black" stroke="black" points="567.12,-32.57 556.77,-34.85 566.28,-39.52 567.12,-32.57"/>
</g>
<!-- judo&#45;meta&#45;liquibase (2)&#45;&gt;emf&#45;genmodel&#45;generator (1) -->
<g id="edge26" class="edge">
<title>judo&#45;meta&#45;liquibase (2)&#45;&gt;emf&#45;genmodel&#45;generator (1)</title>
<path fill="none" stroke="black" d="M1202.48,-71.97C1171.05,-62.06 1131.27,-49.51 1098.31,-39.12"/>
<polygon fill="black" stroke="black" points="1099.36,-35.78 1088.77,-36.11 1097.25,-42.46 1099.36,-35.78"/>
</g>
<!-- judo&#45;meta&#45;liquibase (2)&#45;&gt;judo&#45;genmodel&#45;generator (1) -->
<g id="edge29" class="edge">
<title>judo&#45;meta&#45;liquibase (2)&#45;&gt;judo&#45;genmodel&#45;generator (1)</title>
<path fill="none" stroke="black" d="M1248.84,-71.7C1245.31,-63.73 1241.04,-54.1 1237.13,-45.26"/>
<polygon fill="black" stroke="black" points="1240.32,-43.83 1233.07,-36.1 1233.92,-46.67 1240.32,-43.83"/>
</g>
<!-- judo&#45;meta&#45;liquibase (2)&#45;&gt;judo&#45;epp&#45;common (1) -->
<g id="edge31" class="edge">
<title>judo&#45;meta&#45;liquibase (2)&#45;&gt;judo&#45;epp&#45;common (1)</title>
<path fill="none" stroke="black" d="M1291.48,-71.88C1310.7,-62.47 1334.73,-50.71 1355.24,-40.67"/>
<polygon fill="black" stroke="black" points="1356.94,-43.73 1364.38,-36.19 1353.86,-37.44 1356.94,-43.73"/>
</g>
<!-- judo&#45;meta&#45;liquibase (2)&#45;&gt;osgi&#45;utils (1) -->
<g id="edge28" class="edge">
<title>judo&#45;meta&#45;liquibase (2)&#45;&gt;osgi&#45;utils (1)</title>
<path fill="none" stroke="black" d="M1183.71,-73.33C1180.94,-72.86 1178.2,-72.41 1175.5,-72 1014.38,-47.22 970.12,-69.08 810.5,-36 810.4,-35.98 810.3,-35.96 810.2,-35.94"/>
<polygon fill="black" stroke="black" points="811.22,-32.58 800.69,-33.68 809.61,-39.39 811.22,-32.58"/>
</g>
<!-- judo&#45;meta&#45;liquibase (2)&#45;&gt;karaf&#45;features (1) -->
<g id="edge27" class="edge">
<title>judo&#45;meta&#45;liquibase (2)&#45;&gt;karaf&#45;features (1)</title>
<path fill="none" stroke="black" d="M1183.68,-73.52C1180.92,-72.99 1178.19,-72.49 1175.5,-72 1074.26,-53.67 1045.16,-57.21 940.14,-36"/>
<polygon fill="black" stroke="black" points="940.58,-32.52 930.08,-33.94 939.17,-39.38 940.58,-32.52"/>
</g>
<!-- judo&#45;meta&#45;measure (2)&#45;&gt;epsilon&#45;runtime (1) -->
<g id="edge37" class="edge">
<title>judo&#45;meta&#45;measure (2)&#45;&gt;epsilon&#45;runtime (1)</title>
<path fill="none" stroke="black" d="M886.4,-73.88C883.39,-73.24 880.42,-72.62 877.5,-72 804.21,-56.54 783.37,-53.46 706.71,-36.24"/>
<polygon fill="black" stroke="black" points="707.08,-32.74 696.56,-33.95 705.54,-39.56 707.08,-32.74"/>
</g>
<!-- judo&#45;meta&#45;measure (2)&#45;&gt;epsilon&#45;runtime&#45;eclipse (1) -->
<g id="edge39" class="edge">
<title>judo&#45;meta&#45;measure (2)&#45;&gt;epsilon&#45;runtime&#45;eclipse (1)</title>
<path fill="none" stroke="black" d="M886.47,-73.54C883.44,-73 880.44,-72.48 877.5,-72 742.97,-50 705.28,-56.5 566.93,-36.15"/>
<polygon fill="black" stroke="black" points="567.2,-32.65 556.8,-34.64 566.17,-39.58 567.2,-32.65"/>
</g>
<!-- judo&#45;meta&#45;measure (2)&#45;&gt;emf&#45;genmodel&#45;generator (1) -->
<g id="edge33" class="edge">
<title>judo&#45;meta&#45;measure (2)&#45;&gt;emf&#45;genmodel&#45;generator (1)</title>
<path fill="none" stroke="black" d="M976.53,-71.7C986.04,-63.05 997.71,-52.45 1008.07,-43.03"/>
<polygon fill="black" stroke="black" points="1010.64,-45.42 1015.69,-36.1 1005.93,-40.24 1010.64,-45.42"/>
</g>
<!-- judo&#45;meta&#45;measure (2)&#45;&gt;judo&#45;genmodel&#45;generator (1) -->
<g id="edge36" class="edge">
<title>judo&#45;meta&#45;measure (2)&#45;&gt;judo&#45;genmodel&#45;generator (1)</title>
<path fill="none" stroke="black" d="M1022.72,-71.97C1061.22,-61.91 1110.12,-49.14 1150.25,-38.65"/>
<polygon fill="black" stroke="black" points="1151.2,-42.02 1159.99,-36.11 1149.43,-35.25 1151.2,-42.02"/>
</g>
<!-- judo&#45;meta&#45;measure (2)&#45;&gt;judo&#45;epp&#45;common (1) -->
<g id="edge38" class="edge">
<title>judo&#45;meta&#45;measure (2)&#45;&gt;judo&#45;epp&#45;common (1)</title>
<path fill="none" stroke="black" d="M1028.56,-73.75C1031.91,-73.14 1035.24,-72.55 1038.5,-72 1160.36,-51.5 1194.81,-57.21 1320.64,-36.06"/>
<polygon fill="black" stroke="black" points="1321.39,-39.48 1330.66,-34.35 1320.21,-32.58 1321.39,-39.48"/>
</g>
<!-- judo&#45;meta&#45;measure (2)&#45;&gt;osgi&#45;utils (1) -->
<g id="edge35" class="edge">
<title>judo&#45;meta&#45;measure (2)&#45;&gt;osgi&#45;utils (1)</title>
<path fill="none" stroke="black" d="M908.83,-71.97C878.99,-61.52 840.78,-48.15 810.23,-37.45"/>
<polygon fill="black" stroke="black" points="811.19,-34.08 800.6,-34.08 808.88,-40.69 811.19,-34.08"/>
</g>
<!-- judo&#45;meta&#45;measure (2)&#45;&gt;karaf&#45;features (1) -->
<g id="edge34" class="edge">
<title>judo&#45;meta&#45;measure (2)&#45;&gt;karaf&#45;features (1)</title>
<path fill="none" stroke="black" d="M936.98,-71.7C926.63,-62.97 913.91,-52.24 902.66,-42.75"/>
<polygon fill="black" stroke="black" points="904.68,-39.88 894.78,-36.1 900.17,-45.23 904.68,-39.88"/>
</g>
<!-- judo&#45;meta&#45;psm (2)&#45;&gt;epsilon&#45;runtime (1) -->
<g id="edge44" class="edge">
<title>judo&#45;meta&#45;psm (2)&#45;&gt;epsilon&#45;runtime (1)</title>
<path fill="none" stroke="black" d="M1046.76,-73.76C1043.64,-73.13 1040.54,-72.54 1037.5,-72 894.62,-46.77 853.54,-60.9 707.13,-36.15"/>
<polygon fill="black" stroke="black" points="707.31,-32.63 696.87,-34.38 706.13,-39.53 707.31,-32.63"/>
</g>
<!-- judo&#45;meta&#45;psm (2)&#45;&gt;epsilon&#45;runtime&#45;eclipse (1) -->
<g id="edge46" class="edge">
<title>judo&#45;meta&#45;psm (2)&#45;&gt;epsilon&#45;runtime&#45;eclipse (1)</title>
<path fill="none" stroke="black" d="M1046.78,-73.65C1043.65,-73.04 1040.55,-72.49 1037.5,-72 833.01,-39.24 775.88,-62.6 566.85,-36.09"/>
<polygon fill="black" stroke="black" points="567.14,-32.59 556.78,-34.78 566.25,-39.54 567.14,-32.59"/>
</g>
<!-- judo&#45;meta&#45;psm (2)&#45;&gt;emf&#45;genmodel&#45;generator (1) -->
<g id="edge40" class="edge">
<title>judo&#45;meta&#45;psm (2)&#45;&gt;emf&#45;genmodel&#45;generator (1)</title>
<path fill="none" stroke="black" d="M1088.7,-71.7C1079.9,-63.14 1069.12,-52.66 1059.5,-43.3"/>
<polygon fill="black" stroke="black" points="1061.7,-40.57 1052.09,-36.1 1056.82,-45.58 1061.7,-40.57"/>
</g>
<!-- judo&#45;meta&#45;psm (2)&#45;&gt;judo&#45;genmodel&#45;generator (1) -->
<g id="edge43" class="edge">
<title>judo&#45;meta&#45;psm (2)&#45;&gt;judo&#45;genmodel&#45;generator (1)</title>
<path fill="none" stroke="black" d="M1135.61,-71.88C1151.17,-62.72 1170.52,-51.34 1187.28,-41.48"/>
<polygon fill="black" stroke="black" points="1189.43,-44.28 1196.28,-36.19 1185.88,-38.24 1189.43,-44.28"/>
</g>
<!-- judo&#45;meta&#45;psm (2)&#45;&gt;judo&#45;epp&#45;common (1) -->
<g id="edge45" class="edge">
<title>judo&#45;meta&#45;psm (2)&#45;&gt;judo&#45;epp&#45;common (1)</title>
<path fill="none" stroke="black" d="M1166.33,-74.22C1169.43,-73.47 1172.5,-72.72 1175.5,-72 1223.79,-60.34 1278,-47.5 1321,-37.39"/>
<polygon fill="black" stroke="black" points="1321.9,-40.77 1330.84,-35.07 1320.3,-33.96 1321.9,-40.77"/>
</g>
<!-- judo&#45;meta&#45;psm (2)&#45;&gt;osgi&#45;utils (1) -->
<g id="edge42" class="edge">
<title>judo&#45;meta&#45;psm (2)&#45;&gt;osgi&#45;utils (1)</title>
<path fill="none" stroke="black" d="M1046.73,-73.95C1043.61,-73.26 1040.52,-72.61 1037.5,-72 937.37,-51.76 909.87,-59.67 810.5,-36 810.4,-35.98 810.3,-35.95 810.2,-35.93"/>
<polygon fill="black" stroke="black" points="811.29,-32.6 800.73,-33.46 809.53,-39.37 811.29,-32.6"/>
</g>
<!-- judo&#45;meta&#45;psm (2)&#45;&gt;karaf&#45;features (1) -->
<g id="edge41" class="edge">
<title>judo&#45;meta&#45;psm (2)&#45;&gt;karaf&#45;features (1)</title>
<path fill="none" stroke="black" d="M1050.04,-71.97C1016.7,-61.9 974.34,-49.12 939.59,-38.64"/>
<polygon fill="black" stroke="black" points="940.59,-35.29 930.01,-35.75 938.57,-41.99 940.59,-35.29"/>
</g>
<!-- judo&#45;meta&#45;query (2) -->
<g id="node26" class="node">
<title>judo&#45;meta&#45;query (2)</title>
<polygon fill="none" stroke="black" points="127,-108 0,-108 0,-72 127,-72 127,-108"/>
<text text-anchor="middle" x="63.5" y="-86.3" font-family="Times,serif" font-size="14.00">judo&#45;meta&#45;query (2)</text>
</g>
<!-- judo&#45;meta&#45;query (2)&#45;&gt;epsilon&#45;runtime (1) -->
<g id="edge51" class="edge">
<title>judo&#45;meta&#45;query (2)&#45;&gt;epsilon&#45;runtime (1)</title>
<path fill="none" stroke="black" d="M127,-73.47C129.87,-72.94 132.71,-72.44 135.5,-72 321.66,-42.4 374.4,-65.89 564.13,-36.07"/>
<polygon fill="black" stroke="black" points="564.83,-39.5 574.15,-34.47 563.72,-32.59 564.83,-39.5"/>
</g>
<!-- judo&#45;meta&#45;query (2)&#45;&gt;epsilon&#45;runtime&#45;eclipse (1) -->
<g id="edge53" class="edge">
<title>judo&#45;meta&#45;query (2)&#45;&gt;epsilon&#45;runtime&#45;eclipse (1)</title>
<path fill="none" stroke="black" d="M127.05,-73.72C129.9,-73.12 132.73,-72.54 135.5,-72 218.49,-55.74 313.68,-41.22 382.03,-31.5"/>
<polygon fill="black" stroke="black" points="382.92,-34.91 392.33,-30.04 381.94,-27.98 382.92,-34.91"/>
</g>
<!-- judo&#45;meta&#45;query (2)&#45;&gt;emf&#45;genmodel&#45;generator (1) -->
<g id="edge47" class="edge">
<title>judo&#45;meta&#45;query (2)&#45;&gt;emf&#45;genmodel&#45;generator (1)</title>
<path fill="none" stroke="black" d="M127.37,-73.26C130.11,-72.8 132.83,-72.37 135.5,-72 486.49,-23.14 582.24,-74.62 938.29,-36.04"/>
<polygon fill="black" stroke="black" points="938.8,-39.5 948.36,-34.93 938.04,-32.54 938.8,-39.5"/>
</g>
<!-- judo&#45;meta&#45;query (2)&#45;&gt;judo&#45;genmodel&#45;generator (1) -->
<g id="edge50" class="edge">
<title>judo&#45;meta&#45;query (2)&#45;&gt;judo&#45;genmodel&#45;generator (1)</title>
<path fill="none" stroke="black" d="M127.37,-73.24C130.11,-72.78 132.83,-72.36 135.5,-72 570.29,-13.37 688.12,-81.61 1128.33,-36.02"/>
<polygon fill="black" stroke="black" points="1128.87,-39.48 1138.45,-34.96 1128.14,-32.52 1128.87,-39.48"/>
</g>
<!-- judo&#45;meta&#45;query (2)&#45;&gt;judo&#45;epp&#45;common (1) -->
<g id="edge52" class="edge">
<title>judo&#45;meta&#45;query (2)&#45;&gt;judo&#45;epp&#45;common (1)</title>
<path fill="none" stroke="black" d="M127.37,-73.22C130.11,-72.76 132.83,-72.35 135.5,-72 655.01,-3.5 796.31,-99.19 1320.62,-35.94"/>
<polygon fill="black" stroke="black" points="1321.21,-39.4 1330.71,-34.71 1320.36,-32.45 1321.21,-39.4"/>
</g>
<!-- judo&#45;meta&#45;query (2)&#45;&gt;osgi&#45;utils (1) -->
<g id="edge49" class="edge">
<title>judo&#45;meta&#45;query (2)&#45;&gt;osgi&#45;utils (1)</title>
<path fill="none" stroke="black" d="M127.38,-73.33C130.12,-72.84 132.83,-72.4 135.5,-72 383.27,-35.19 454.34,-82.54 704.19,-35.95"/>
<polygon fill="black" stroke="black" points="705.13,-39.33 714.3,-34.03 703.83,-32.45 705.13,-39.33"/>
</g>
<!-- judo&#45;meta&#45;query (2)&#45;&gt;karaf&#45;features (1) -->
<g id="edge48" class="edge">
<title>judo&#45;meta&#45;query (2)&#45;&gt;karaf&#45;features (1)</title>
<path fill="none" stroke="black" d="M127.38,-73.29C130.11,-72.82 132.83,-72.38 135.5,-72 429.1,-29.84 511.26,-81.01 808.77,-35.88"/>
<polygon fill="black" stroke="black" points="809.64,-39.29 818.99,-34.31 808.57,-32.37 809.64,-39.29"/>
</g>
<!-- judo&#45;meta&#45;rdbms (2) -->
<g id="node27" class="node">
<title>judo&#45;meta&#45;rdbms (2)</title>
<polygon fill="none" stroke="black" points="276,-108 145,-108 145,-72 276,-72 276,-108"/>
<text text-anchor="middle" x="210.5" y="-86.3" font-family="Times,serif" font-size="14.00">judo&#45;meta&#45;rdbms (2)</text>
</g>
<!-- judo&#45;meta&#45;rdbms (2)&#45;&gt;epsilon&#45;runtime (1) -->
<g id="edge58" class="edge">
<title>judo&#45;meta&#45;rdbms (2)&#45;&gt;epsilon&#45;runtime (1)</title>
<path fill="none" stroke="black" d="M276.2,-73.55C279,-73.01 281.77,-72.49 284.5,-72 405.3,-50.44 439.94,-58.45 564.22,-36.12"/>
<polygon fill="black" stroke="black" points="564.91,-39.55 574.12,-34.31 563.66,-32.67 564.91,-39.55"/>
</g>
<!-- judo&#45;meta&#45;rdbms (2)&#45;&gt;epsilon&#45;runtime&#45;eclipse (1) -->
<g id="edge60" class="edge">
<title>judo&#45;meta&#45;rdbms (2)&#45;&gt;epsilon&#45;runtime&#45;eclipse (1)</title>
<path fill="none" stroke="black" d="M274.74,-71.97C312.59,-61.93 360.64,-49.19 400.12,-38.72"/>
<polygon fill="black" stroke="black" points="401.2,-42.06 409.97,-36.11 399.4,-35.29 401.2,-42.06"/>
</g>
<!-- judo&#45;meta&#45;rdbms (2)&#45;&gt;emf&#45;genmodel&#45;generator (1) -->
<g id="edge54" class="edge">
<title>judo&#45;meta&#45;rdbms (2)&#45;&gt;emf&#45;genmodel&#45;generator (1)</title>
<path fill="none" stroke="black" d="M276.16,-73.3C278.97,-72.83 281.76,-72.39 284.5,-72 569.94,-31.67 648.16,-68.89 938.38,-36.04"/>
<polygon fill="black" stroke="black" points="938.82,-39.51 948.35,-34.89 938.02,-32.55 938.82,-39.51"/>
</g>
<!-- judo&#45;meta&#45;rdbms (2)&#45;&gt;judo&#45;genmodel&#45;generator (1) -->
<g id="edge57" class="edge">
<title>judo&#45;meta&#45;rdbms (2)&#45;&gt;judo&#45;genmodel&#45;generator (1)</title>
<path fill="none" stroke="black" d="M276.15,-73.26C278.97,-72.79 281.76,-72.37 284.5,-72 653.74,-22.15 754.07,-75.9 1128.43,-36.02"/>
<polygon fill="black" stroke="black" points="1128.89,-39.49 1138.45,-34.93 1128.13,-32.53 1128.89,-39.49"/>
</g>
<!-- judo&#45;meta&#45;rdbms (2)&#45;&gt;judo&#45;epp&#45;common (1) -->
<g id="edge59" class="edge">
<title>judo&#45;meta&#45;rdbms (2)&#45;&gt;judo&#45;epp&#45;common (1)</title>
<path fill="none" stroke="black" d="M276.15,-73.23C278.96,-72.77 281.76,-72.36 284.5,-72 738.41,-12.54 862.1,-92.15 1320.51,-35.96"/>
<polygon fill="black" stroke="black" points="1321.22,-39.4 1330.71,-34.69 1320.36,-32.45 1321.22,-39.4"/>
</g>
<!-- judo&#45;meta&#45;rdbms (2)&#45;&gt;osgi&#45;utils (1) -->
<g id="edge56" class="edge">
<title>judo&#45;meta&#45;rdbms (2)&#45;&gt;osgi&#45;utils (1)</title>
<path fill="none" stroke="black" d="M276.17,-73.41C278.98,-72.9 281.77,-72.43 284.5,-72 466.77,-43.42 519.62,-72.37 704.25,-35.97"/>
<polygon fill="black" stroke="black" points="705.18,-39.35 714.29,-33.95 703.8,-32.49 705.18,-39.35"/>
</g>
<!-- judo&#45;meta&#45;rdbms (2)&#45;&gt;karaf&#45;features (1) -->
<g id="edge55" class="edge">
<title>judo&#45;meta&#45;rdbms (2)&#45;&gt;karaf&#45;features (1)</title>
<path fill="none" stroke="black" d="M276.17,-73.35C278.97,-72.86 281.76,-72.41 284.5,-72 512.58,-38.2 576.87,-72.75 808.88,-35.89"/>
<polygon fill="black" stroke="black" points="809.66,-39.3 818.98,-34.25 808.55,-32.39 809.66,-39.3"/>
</g>
<!-- judo&#45;operation&#45;utils (3) -->
<g id="node28" class="node">
<title>judo&#45;operation&#45;utils (3)</title>
<polygon fill="none" stroke="black" points="436,-180 293,-180 293,-144 436,-144 436,-180"/>
<text text-anchor="middle" x="364.5" y="-158.3" font-family="Times,serif" font-size="14.00">judo&#45;operation&#45;utils (3)</text>
</g>
<!-- judo&#45;operation&#45;utils (3)&#45;&gt;judo&#45;dao&#45;api (1) -->
<g id="edge63" class="edge">
<title>judo&#45;operation&#45;utils (3)&#45;&gt;judo&#45;dao&#45;api (1)</title>
<path fill="none" stroke="black" d="M398.99,-143.88C417.94,-134.47 441.63,-122.71 461.86,-112.67"/>
<polygon fill="black" stroke="black" points="463.47,-115.77 470.87,-108.19 460.36,-109.5 463.47,-115.77"/>
</g>
<!-- judo&#45;operation&#45;utils (3)&#45;&gt;judo&#45;dispatcher&#45;api (1) -->
<g id="edge61" class="edge">
<title>judo&#45;operation&#45;utils (3)&#45;&gt;judo&#45;dispatcher&#45;api (1)</title>
<path fill="none" stroke="black" d="M364.5,-143.7C364.5,-135.98 364.5,-126.71 364.5,-118.11"/>
<polygon fill="black" stroke="black" points="368,-118.1 364.5,-108.1 361,-118.1 368,-118.1"/>
</g>
<!-- judo&#45;operation&#45;utils (3)&#45;&gt;judo&#45;meta&#45;asm (2) -->
<g id="edge62" class="edge">
<title>judo&#45;operation&#45;utils (3)&#45;&gt;judo&#45;meta&#45;asm (2)</title>
<path fill="none" stroke="black" d="M430.45,-143.97C471.5,-133.36 524.23,-119.74 565.94,-108.97"/>
<polygon fill="black" stroke="black" points="566.94,-112.33 575.74,-106.44 565.19,-105.55 566.94,-112.33"/>
</g>
<!-- judo&#45;runtime&#45;core (6) -->
<g id="node29" class="node">
<title>judo&#45;runtime&#45;core (6)</title>
<polygon fill="none" stroke="black" points="430,-396 295,-396 295,-360 430,-360 430,-396"/>
<text text-anchor="middle" x="362.5" y="-374.3" font-family="Times,serif" font-size="14.00">judo&#45;runtime&#45;core (6)</text>
</g>
<!-- judo&#45;runtime&#45;core (6)&#45;&gt;mapper (1) -->
<g id="edge65" class="edge">
<title>judo&#45;runtime&#45;core (6)&#45;&gt;mapper (1)</title>
<path fill="none" stroke="black" d="M313.1,-359.97C281.09,-348.93 239.59,-334.62 207.79,-323.65"/>
<polygon fill="black" stroke="black" points="208.85,-320.32 198.26,-320.37 206.57,-326.93 208.85,-320.32"/>
</g>
<!-- judo&#45;runtime&#45;core (6)&#45;&gt;osgi&#45;filestore (1) -->
<g id="edge67" class="edge">
<title>judo&#45;runtime&#45;core (6)&#45;&gt;osgi&#45;filestore (1)</title>
<path fill="none" stroke="black" d="M362.5,-359.7C362.5,-351.98 362.5,-342.71 362.5,-334.11"/>
<polygon fill="black" stroke="black" points="366,-334.1 362.5,-324.1 359,-334.1 366,-334.1"/>
</g>
<!-- judo&#45;runtime&#45;core (6)&#45;&gt;judo&#45;meta&#45;query (2) -->
<g id="edge66" class="edge">
<title>judo&#45;runtime&#45;core (6)&#45;&gt;judo&#45;meta&#45;query (2)</title>
<path fill="none" stroke="black" d="M341.43,-359.98C329.02,-349.78 313.13,-336.42 299.5,-324 219.02,-250.63 128.63,-158.49 86.91,-115.36"/>
<polygon fill="black" stroke="black" points="89.4,-112.9 79.94,-108.14 84.37,-117.76 89.4,-112.9"/>
</g>
<!-- judo&#45;tatami&#45;base (5) -->
<g id="node32" class="node">
<title>judo&#45;tatami&#45;base (5)</title>
<polygon fill="none" stroke="black" points="609.5,-324 481.5,-324 481.5,-288 609.5,-288 609.5,-324"/>
<text text-anchor="middle" x="545.5" y="-302.3" font-family="Times,serif" font-size="14.00">judo&#45;tatami&#45;base (5)</text>
</g>
<!-- judo&#45;runtime&#45;core (6)&#45;&gt;judo&#45;tatami&#45;base (5) -->
<g id="edge64" class="edge">
<title>judo&#45;runtime&#45;core (6)&#45;&gt;judo&#45;tatami&#45;base (5)</title>
<path fill="none" stroke="black" d="M407.27,-359.88C432.62,-350.18 464.51,-337.98 491.27,-327.74"/>
<polygon fill="black" stroke="black" points="492.79,-330.91 500.88,-324.07 490.29,-324.37 492.79,-330.91"/>
</g>
<!-- judo&#45;runtime&#45;core&#45;jsl (7) -->
<g id="node30" class="node">
<title>judo&#45;runtime&#45;core&#45;jsl (7)</title>
<polygon fill="none" stroke="black" points="621.5,-468 469.5,-468 469.5,-432 621.5,-432 621.5,-468"/>
<text text-anchor="middle" x="545.5" y="-446.3" font-family="Times,serif" font-size="14.00">judo&#45;runtime&#45;core&#45;jsl (7)</text>
</g>
<!-- judo&#45;runtime&#45;core&#45;jsl (7)&#45;&gt;judo&#45;runtime&#45;core (6) -->
<g id="edge69" class="edge">
<title>judo&#45;runtime&#45;core&#45;jsl (7)&#45;&gt;judo&#45;runtime&#45;core (6)</title>
<path fill="none" stroke="black" d="M500.73,-431.88C475.38,-422.18 443.49,-409.98 416.73,-399.74"/>
<polygon fill="black" stroke="black" points="417.71,-396.37 407.12,-396.07 415.21,-402.91 417.71,-396.37"/>
</g>
<!-- judo&#45;tatami&#45;jsl (6) -->
<g id="node34" class="node">
<title>judo&#45;tatami&#45;jsl (6)</title>
<polygon fill="none" stroke="black" points="603.5,-396 487.5,-396 487.5,-360 603.5,-360 603.5,-396"/>
<text text-anchor="middle" x="545.5" y="-374.3" font-family="Times,serif" font-size="14.00">judo&#45;tatami&#45;jsl (6)</text>
</g>
<!-- judo&#45;runtime&#45;core&#45;jsl (7)&#45;&gt;judo&#45;tatami&#45;jsl (6) -->
<g id="edge68" class="edge">
<title>judo&#45;runtime&#45;core&#45;jsl (7)&#45;&gt;judo&#45;tatami&#45;jsl (6)</title>
<path fill="none" stroke="black" d="M545.5,-431.7C545.5,-423.98 545.5,-414.71 545.5,-406.11"/>
<polygon fill="black" stroke="black" points="549,-406.1 545.5,-396.1 542,-406.1 549,-406.1"/>
</g>
<!-- judo&#45;sdk&#45;common (3) -->
<g id="node31" class="node">
<title>judo&#45;sdk&#45;common (3)</title>
<polygon fill="none" stroke="black" points="736,-180 599,-180 599,-144 736,-144 736,-180"/>
<text text-anchor="middle" x="667.5" y="-158.3" font-family="Times,serif" font-size="14.00">judo&#45;sdk&#45;common (3)</text>
</g>
<!-- judo&#45;sdk&#45;common (3)&#45;&gt;structured&#45;map&#45;proxy (1) -->
<g id="edge72" class="edge">
<title>judo&#45;sdk&#45;common (3)&#45;&gt;structured&#45;map&#45;proxy (1)</title>
<path fill="none" stroke="black" d="M697.59,-143.88C713.82,-134.64 734.04,-123.13 751.47,-113.21"/>
<polygon fill="black" stroke="black" points="753.34,-116.18 760.3,-108.19 749.87,-110.09 753.34,-116.18"/>
</g>
<!-- judo&#45;sdk&#45;common (3)&#45;&gt;judo&#45;dao&#45;api (1) -->
<g id="edge71" class="edge">
<title>judo&#45;sdk&#45;common (3)&#45;&gt;judo&#45;dao&#45;api (1)</title>
<path fill="none" stroke="black" d="M627.87,-143.88C605.72,-134.31 577.94,-122.3 554.44,-112.15"/>
<polygon fill="black" stroke="black" points="555.57,-108.82 545,-108.07 552.79,-115.25 555.57,-108.82"/>
</g>
<!-- judo&#45;sdk&#45;common (3)&#45;&gt;judo&#45;meta&#45;asm (2) -->
<g id="edge70" class="edge">
<title>judo&#45;sdk&#45;common (3)&#45;&gt;judo&#45;meta&#45;asm (2)</title>
<path fill="none" stroke="black" d="M659.59,-143.7C655.95,-135.73 651.55,-126.1 647.51,-117.26"/>
<polygon fill="black" stroke="black" points="650.66,-115.74 643.32,-108.1 644.29,-118.65 650.66,-115.74"/>
</g>
<!-- judo&#45;tatami&#45;base (5)&#45;&gt;java&#45;embedded&#45;compiler (1) -->
<g id="edge77" class="edge">
<title>judo&#45;tatami&#45;base (5)&#45;&gt;java&#45;embedded&#45;compiler (1)</title>
<path fill="none" stroke="black" d="M573.63,-287.88C588.67,-278.72 607.37,-267.34 623.56,-257.48"/>
<polygon fill="black" stroke="black" points="625.54,-260.38 632.26,-252.19 621.9,-254.4 625.54,-260.38"/>
</g>
<!-- judo&#45;tatami&#45;base (5)&#45;&gt;judo&#45;meta&#45;expression&#45;asm (4) -->
<g id="edge79" class="edge">
<title>judo&#45;tatami&#45;base (5)&#45;&gt;judo&#45;meta&#45;expression&#45;asm (4)</title>
<path fill="none" stroke="black" d="M609.73,-290.5C656.2,-280 719.48,-265.71 770.19,-254.26"/>
<polygon fill="black" stroke="black" points="771.17,-257.63 780.15,-252.01 769.63,-250.8 771.17,-257.63"/>
</g>
<!-- judo&#45;tatami&#45;base (5)&#45;&gt;judo&#45;meta&#45;expression&#45;psm (4) -->
<g id="edge78" class="edge">
<title>judo&#45;tatami&#45;base (5)&#45;&gt;judo&#45;meta&#45;expression&#45;psm (4)</title>
<path fill="none" stroke="black" d="M609.53,-297.52C688.25,-288.15 826.18,-271.15 954.25,-252.16"/>
<polygon fill="black" stroke="black" points="954.86,-255.6 964.24,-250.67 953.83,-248.68 954.86,-255.6"/>
</g>
<!-- judo&#45;tatami&#45;base (5)&#45;&gt;judo&#45;meta&#45;liquibase (2) -->
<g id="edge73" class="edge">
<title>judo&#45;tatami&#45;base (5)&#45;&gt;judo&#45;meta&#45;liquibase (2)</title>
<path fill="none" stroke="black" d="M609.63,-302.65C756.82,-296.79 1109.72,-279.98 1155.5,-252 1205.81,-221.25 1235.1,-154.98 1248.2,-117.76"/>
<polygon fill="black" stroke="black" points="1251.58,-118.68 1251.47,-108.09 1244.95,-116.44 1251.58,-118.68"/>
</g>
<!-- judo&#45;tatami&#45;base (5)&#45;&gt;judo&#45;meta&#45;rdbms (2) -->
<g id="edge75" class="edge">
<title>judo&#45;tatami&#45;base (5)&#45;&gt;judo&#45;meta&#45;rdbms (2)</title>
<path fill="none" stroke="black" d="M493.13,-287.99C437.28,-268.12 348.13,-231.31 283.5,-180 260.83,-162.01 240.45,-135.89 227.02,-116.6"/>
<polygon fill="black" stroke="black" points="229.87,-114.57 221.36,-108.27 224.09,-118.5 229.87,-114.57"/>
</g>
<!-- judo&#45;tatami&#45;base (5)&#45;&gt;judo&#45;operation&#45;utils (3) -->
<g id="edge80" class="edge">
<title>judo&#45;tatami&#45;base (5)&#45;&gt;judo&#45;operation&#45;utils (3)</title>
<path fill="none" stroke="black" d="M523.67,-287.87C491.46,-262.6 431.11,-215.25 394.68,-186.68"/>
<polygon fill="black" stroke="black" points="396.44,-183.61 386.41,-180.19 392.12,-189.12 396.44,-183.61"/>
</g>
<!-- judo&#45;tatami&#45;base (5)&#45;&gt;judo&#45;sdk&#45;common (3) -->
<g id="edge76" class="edge">
<title>judo&#45;tatami&#45;base (5)&#45;&gt;judo&#45;sdk&#45;common (3)</title>
<path fill="none" stroke="black" d="M545.22,-287.81C545.77,-268.44 549.36,-236.95 565.5,-216 575.74,-202.71 590.25,-192.43 605.12,-184.63"/>
<polygon fill="black" stroke="black" points="606.96,-187.62 614.39,-180.08 603.87,-181.34 606.96,-187.62"/>
</g>
<!-- judo&#45;tatami&#45;core (3) -->
<g id="node33" class="node">
<title>judo&#45;tatami&#45;core (3)</title>
<polygon fill="none" stroke="black" points="581,-180 454,-180 454,-144 581,-144 581,-180"/>
<text text-anchor="middle" x="517.5" y="-158.3" font-family="Times,serif" font-size="14.00">judo&#45;tatami&#45;core (3)</text>
</g>
<!-- judo&#45;tatami&#45;base (5)&#45;&gt;judo&#45;tatami&#45;core (3) -->
<g id="edge74" class="edge">
<title>judo&#45;tatami&#45;base (5)&#45;&gt;judo&#45;tatami&#45;core (3)</title>
<path fill="none" stroke="black" d="M540.51,-287.92C537.61,-277.59 534.04,-264.11 531.5,-252 527.18,-231.46 523.55,-208.01 521.06,-190.34"/>
<polygon fill="black" stroke="black" points="524.49,-189.59 519.67,-180.16 517.56,-190.54 524.49,-189.59"/>
</g>
<!-- judo&#45;tatami&#45;core (3)&#45;&gt;judo&#45;dao&#45;api (1) -->
<g id="edge81" class="edge">
<title>judo&#45;tatami&#45;core (3)&#45;&gt;judo&#45;dao&#45;api (1)</title>
<path fill="none" stroke="black" d="M514.53,-143.7C513.21,-135.98 511.62,-126.71 510.15,-118.11"/>
<polygon fill="black" stroke="black" points="513.57,-117.37 508.43,-108.1 506.67,-118.55 513.57,-117.37"/>
</g>
<!-- judo&#45;tatami&#45;core (3)&#45;&gt;judo&#45;dispatcher&#45;api (1) -->
<g id="edge82" class="edge">
<title>judo&#45;tatami&#45;core (3)&#45;&gt;judo&#45;dispatcher&#45;api (1)</title>
<path fill="none" stroke="black" d="M480.07,-143.88C459.25,-134.35 433.15,-122.41 411.02,-112.28"/>
<polygon fill="black" stroke="black" points="412.36,-109.05 401.81,-108.07 409.44,-115.41 412.36,-109.05"/>
</g>
<!-- judo&#45;tatami&#45;core (3)&#45;&gt;judo&#45;meta&#45;asm (2) -->
<g id="edge83" class="edge">
<title>judo&#45;tatami&#45;core (3)&#45;&gt;judo&#45;meta&#45;asm (2)</title>
<path fill="none" stroke="black" d="M546.37,-143.88C561.79,-134.72 580.98,-123.34 597.6,-113.48"/>
<polygon fill="black" stroke="black" points="599.71,-116.3 606.52,-108.19 596.14,-110.28 599.71,-116.3"/>
</g>
<!-- judo&#45;tatami&#45;jsl (6)&#45;&gt;judo&#45;meta&#45;jsl (2) -->
<g id="edge85" class="edge">
<title>judo&#45;tatami&#45;jsl (6)&#45;&gt;judo&#45;meta&#45;jsl (2)</title>
<path fill="none" stroke="black" d="M603.57,-373.4C792.1,-360.52 1382.36,-310.31 1511.5,-180 1527.36,-164 1531.45,-138.21 1531.95,-118.5"/>
<polygon fill="black" stroke="black" points="1535.45,-118.27 1531.92,-108.28 1528.45,-118.29 1535.45,-118.27"/>
</g>
<!-- judo&#45;tatami&#45;jsl (6)&#45;&gt;judo&#45;tatami&#45;base (5) -->
<g id="edge84" class="edge">
<title>judo&#45;tatami&#45;jsl (6)&#45;&gt;judo&#45;tatami&#45;base (5)</title>
<path fill="none" stroke="black" d="M545.5,-359.7C545.5,-351.98 545.5,-342.71 545.5,-334.11"/>
<polygon fill="black" stroke="black" points="549,-334.1 545.5,-324.1 542,-334.1 549,-334.1"/>
</g>
<!-- judo&#45;jsl&#45;springboot&#45;parent (7) -->
<g id="node35" class="node">
<title>judo&#45;jsl&#45;springboot&#45;parent (7)</title>
<polygon fill="none" stroke="black" points="451.5,-468 273.5,-468 273.5,-432 451.5,-432 451.5,-468"/>
<text text-anchor="middle" x="362.5" y="-446.3" font-family="Times,serif" font-size="14.00">judo&#45;jsl&#45;springboot&#45;parent (7)</text>
</g>
<!-- judo&#45;jsl&#45;springboot&#45;parent (7)&#45;&gt;judo&#45;runtime&#45;core (6) -->
<g id="edge87" class="edge">
<title>judo&#45;jsl&#45;springboot&#45;parent (7)&#45;&gt;judo&#45;runtime&#45;core (6)</title>
<path fill="none" stroke="black" d="M362.5,-431.7C362.5,-423.98 362.5,-414.71 362.5,-406.11"/>
<polygon fill="black" stroke="black" points="366,-406.1 362.5,-396.1 359,-406.1 366,-406.1"/>
</g>
<!-- judo&#45;jsl&#45;springboot&#45;parent (7)&#45;&gt;judo&#45;tatami&#45;jsl (6) -->
<g id="edge86" class="edge">
<title>judo&#45;jsl&#45;springboot&#45;parent (7)&#45;&gt;judo&#45;tatami&#45;jsl (6)</title>
<path fill="none" stroke="black" d="M407.27,-431.88C432.62,-422.18 464.51,-409.98 491.27,-399.74"/>
<polygon fill="black" stroke="black" points="492.79,-402.91 500.88,-396.07 490.29,-396.37 492.79,-402.91"/>
</g>
<!-- judo&#45;jsl&#45;springboot&#45;archetype (8) -->
<g id="node36" class="node">
<title>judo&#45;jsl&#45;springboot&#45;archetype (8)</title>
<polygon fill="none" stroke="black" points="461,-540 264,-540 264,-504 461,-504 461,-540"/>
<text text-anchor="middle" x="362.5" y="-518.3" font-family="Times,serif" font-size="14.00">judo&#45;jsl&#45;springboot&#45;archetype (8)</text>
</g>
<!-- judo&#45;jsl&#45;springboot&#45;archetype (8)&#45;&gt;judo&#45;jsl&#45;springboot&#45;parent (7) -->
<g id="edge88" class="edge">
<title>judo&#45;jsl&#45;springboot&#45;archetype (8)&#45;&gt;judo&#45;jsl&#45;springboot&#45;parent (7)</title>
<path fill="none" stroke="black" d="M362.5,-503.7C362.5,-495.98 362.5,-486.71 362.5,-478.11"/>
<polygon fill="black" stroke="black" points="366,-478.1 362.5,-468.1 359,-478.1 366,-478.1"/>
</g>
</g>
</svg>
