<?xml version="1.0" encoding="UTF-8" standalone="no"?>
<!DOCTYPE svg PUBLIC "-//W3C//DTD SVG 1.1//EN"
 "http://www.w3.org/Graphics/SVG/1.1/DTD/svg11.dtd">
<!-- Generated by graphviz version 3.0.0 (20220226.1711)
 -->
<!-- Pages: 1 -->
<svg width="1048pt" height="404pt"
 viewBox="0.00 0.00 1048.00 404.00" xmlns="http://www.w3.org/2000/svg" xmlns:xlink="http://www.w3.org/1999/xlink">
<g id="graph0" class="graph" transform="scale(1 1) rotate(0) translate(4 400)">
<polygon fill="white" stroke="transparent" points="-4,4 -4,-400 1044,-400 1044,4 -4,4"/>
<!-- judo&#45;dao&#45;api (1) -->
<g id="node1" class="node">
<title>judo&#45;dao&#45;api (1)</title>
<polygon fill="none" stroke="black" points="264,-36 159,-36 159,0 264,0 264,-36"/>
<text text-anchor="middle" x="211.5" y="-14.3" font-family="Times,serif" font-size="14.00">judo&#45;dao&#45;api (1)</text>
</g>
<!-- judo&#45;dispatcher&#45;api (1) -->
<g id="node2" class="node">
<title>judo&#45;dispatcher&#45;api (1)</title>
<polygon fill="none" stroke="black" points="141,-36 0,-36 0,0 141,0 141,-36"/>
<text text-anchor="middle" x="70.5" y="-14.3" font-family="Times,serif" font-size="14.00">judo&#45;dispatcher&#45;api (1)</text>
</g>
<!-- judo&#45;jsl&#45;vscode (2) -->
<g id="node3" class="node">
<title>judo&#45;jsl&#45;vscode (2)</title>
<polygon fill="none" stroke="black" points="512,-252 393,-252 393,-216 512,-216 512,-252"/>
<text text-anchor="middle" x="452.5" y="-230.3" font-family="Times,serif" font-size="14.00">judo&#45;jsl&#45;vscode (2)</text>
</g>
<!-- judo&#45;meta&#45;jsl (1) -->
<g id="node7" class="node">
<title>judo&#45;meta&#45;jsl (1)</title>
<polygon fill="none" stroke="black" points="507,-180 398,-180 398,-144 507,-144 507,-180"/>
<text text-anchor="middle" x="452.5" y="-158.3" font-family="Times,serif" font-size="14.00">judo&#45;meta&#45;jsl (1)</text>
</g>
<!-- judo&#45;jsl&#45;vscode (2)&#45;&gt;judo&#45;meta&#45;jsl (1) -->
<g id="edge1" class="edge">
<title>judo&#45;jsl&#45;vscode (2)&#45;&gt;judo&#45;meta&#45;jsl (1)</title>
<path fill="none" stroke="black" d="M452.5,-215.7C452.5,-207.98 452.5,-198.71 452.5,-190.11"/>
<polygon fill="black" stroke="black" points="456,-190.1 452.5,-180.1 449,-190.1 456,-190.1"/>
</g>
<!-- judo&#45;meta&#45;asm (1) -->
<g id="node4" class="node">
<title>judo&#45;meta&#45;asm (1)</title>
<polygon fill="none" stroke="black" points="401,-36 282,-36 282,0 401,0 401,-36"/>
<text text-anchor="middle" x="341.5" y="-14.3" font-family="Times,serif" font-size="14.00">judo&#45;meta&#45;asm (1)</text>
</g>
<!-- judo&#45;meta&#45;expression (2) -->
<g id="node5" class="node">
<title>judo&#45;meta&#45;expression (2)</title>
<polygon fill="none" stroke="black" points="582.5,-108 428.5,-108 428.5,-72 582.5,-72 582.5,-108"/>
<text text-anchor="middle" x="505.5" y="-86.3" font-family="Times,serif" font-size="14.00">judo&#45;meta&#45;expression (2)</text>
</g>
<!-- judo&#45;meta&#45;expression (2)&#45;&gt;judo&#45;meta&#45;asm (1) -->
<g id="edge5" class="edge">
<title>judo&#45;meta&#45;expression (2)&#45;&gt;judo&#45;meta&#45;asm (1)</title>
<path fill="none" stroke="black" d="M465.38,-71.88C442.86,-62.26 414.58,-50.19 390.73,-40.01"/>
<polygon fill="black" stroke="black" points="392.06,-36.77 381.49,-36.07 389.31,-43.21 392.06,-36.77"/>
</g>
<!-- judo&#45;meta&#45;jql (1) -->
<g id="node6" class="node">
<title>judo&#45;meta&#45;jql (1)</title>
<polygon fill="none" stroke="black" points="529.5,-36 419.5,-36 419.5,0 529.5,0 529.5,-36"/>
<text text-anchor="middle" x="474.5" y="-14.3" font-family="Times,serif" font-size="14.00">judo&#45;meta&#45;jql (1)</text>
</g>
<!-- judo&#45;meta&#45;expression (2)&#45;&gt;judo&#45;meta&#45;jql (1) -->
<g id="edge2" class="edge">
<title>judo&#45;meta&#45;expression (2)&#45;&gt;judo&#45;meta&#45;jql (1)</title>
<path fill="none" stroke="black" d="M497.84,-71.7C494.31,-63.73 490.04,-54.1 486.13,-45.26"/>
<polygon fill="black" stroke="black" points="489.32,-43.83 482.07,-36.1 482.92,-46.67 489.32,-43.83"/>
</g>
<!-- judo&#45;meta&#45;measure (1) -->
<g id="node9" class="node">
<title>judo&#45;meta&#45;measure (1)</title>
<polygon fill="none" stroke="black" points="689.5,-36 547.5,-36 547.5,0 689.5,0 689.5,-36"/>
<text text-anchor="middle" x="618.5" y="-14.3" font-family="Times,serif" font-size="14.00">judo&#45;meta&#45;measure (1)</text>
</g>
<!-- judo&#45;meta&#45;expression (2)&#45;&gt;judo&#45;meta&#45;measure (1) -->
<g id="edge3" class="edge">
<title>judo&#45;meta&#45;expression (2)&#45;&gt;judo&#45;meta&#45;measure (1)</title>
<path fill="none" stroke="black" d="M533.14,-71.88C547.92,-62.72 566.29,-51.34 582.2,-41.48"/>
<polygon fill="black" stroke="black" points="584.09,-44.43 590.75,-36.19 580.41,-38.48 584.09,-44.43"/>
</g>
<!-- judo&#45;meta&#45;psm (1) -->
<g id="node10" class="node">
<title>judo&#45;meta&#45;psm (1)</title>
<polygon fill="none" stroke="black" points="827,-36 708,-36 708,0 827,0 827,-36"/>
<text text-anchor="middle" x="767.5" y="-14.3" font-family="Times,serif" font-size="14.00">judo&#45;meta&#45;psm (1)</text>
</g>
<!-- judo&#45;meta&#45;expression (2)&#45;&gt;judo&#45;meta&#45;psm (1) -->
<g id="edge4" class="edge">
<title>judo&#45;meta&#45;expression (2)&#45;&gt;judo&#45;meta&#45;psm (1)</title>
<path fill="none" stroke="black" d="M569.26,-71.97C608.3,-61.53 658.27,-48.18 698.28,-37.49"/>
<polygon fill="black" stroke="black" points="699.2,-40.87 707.96,-34.91 697.39,-34.11 699.2,-40.87"/>
</g>
<!-- judo&#45;meta&#45;liquibase (1) -->
<g id="node8" class="node">
<title>judo&#45;meta&#45;liquibase (1)</title>
<polygon fill="none" stroke="black" points="746,-108 601,-108 601,-72 746,-72 746,-108"/>
<text text-anchor="middle" x="673.5" y="-86.3" font-family="Times,serif" font-size="14.00">judo&#45;meta&#45;liquibase (1)</text>
</g>
<!-- judo&#45;meta&#45;query (1) -->
<g id="node11" class="node">
<title>judo&#45;meta&#45;query (1)</title>
<polygon fill="none" stroke="black" points="799,-180 672,-180 672,-144 799,-144 799,-180"/>
<text text-anchor="middle" x="735.5" y="-158.3" font-family="Times,serif" font-size="14.00">judo&#45;meta&#45;query (1)</text>
</g>
<!-- judo&#45;meta&#45;rdbms (1) -->
<g id="node12" class="node">
<title>judo&#45;meta&#45;rdbms (1)</title>
<polygon fill="none" stroke="black" points="895,-108 764,-108 764,-72 895,-72 895,-108"/>
<text text-anchor="middle" x="829.5" y="-86.3" font-family="Times,serif" font-size="14.00">judo&#45;meta&#45;rdbms (1)</text>
</g>
<!-- judo&#45;operation&#45;utils (2) -->
<g id="node13" class="node">
<title>judo&#45;operation&#45;utils (2)</title>
<polygon fill="none" stroke="black" points="255,-108 112,-108 112,-72 255,-72 255,-108"/>
<text text-anchor="middle" x="183.5" y="-86.3" font-family="Times,serif" font-size="14.00">judo&#45;operation&#45;utils (2)</text>
</g>
<!-- judo&#45;operation&#45;utils (2)&#45;&gt;judo&#45;dao&#45;api (1) -->
<g id="edge6" class="edge">
<title>judo&#45;operation&#45;utils (2)&#45;&gt;judo&#45;dao&#45;api (1)</title>
<path fill="none" stroke="black" d="M190.42,-71.7C193.57,-63.81 197.38,-54.3 200.88,-45.55"/>
<polygon fill="black" stroke="black" points="204.19,-46.69 204.66,-36.1 197.69,-44.09 204.19,-46.69"/>
</g>
<!-- judo&#45;operation&#45;utils (2)&#45;&gt;judo&#45;dispatcher&#45;api (1) -->
<g id="edge8" class="edge">
<title>judo&#45;operation&#45;utils (2)&#45;&gt;judo&#45;dispatcher&#45;api (1)</title>
<path fill="none" stroke="black" d="M155.86,-71.88C141.08,-62.72 122.71,-51.34 106.8,-41.48"/>
<polygon fill="black" stroke="black" points="108.59,-38.48 98.25,-36.19 104.91,-44.43 108.59,-38.48"/>
</g>
<!-- judo&#45;operation&#45;utils (2)&#45;&gt;judo&#45;meta&#45;asm (1) -->
<g id="edge7" class="edge">
<title>judo&#45;operation&#45;utils (2)&#45;&gt;judo&#45;meta&#45;asm (1)</title>
<path fill="none" stroke="black" d="M222.15,-71.88C243.75,-62.31 270.85,-50.3 293.77,-40.15"/>
<polygon fill="black" stroke="black" points="295.25,-43.32 302.97,-36.07 292.41,-36.92 295.25,-43.32"/>
</g>
<!-- judo&#45;runtime&#45;core (4) -->
<g id="node14" class="node">
<title>judo&#45;runtime&#45;core (4)</title>
<polygon fill="none" stroke="black" points="801,-252 666,-252 666,-216 801,-216 801,-252"/>
<text text-anchor="middle" x="733.5" y="-230.3" font-family="Times,serif" font-size="14.00">judo&#45;runtime&#45;core (4)</text>
</g>
<!-- judo&#45;runtime&#45;core (4)&#45;&gt;judo&#45;meta&#45;query (1) -->
<g id="edge9" class="edge">
<title>judo&#45;runtime&#45;core (4)&#45;&gt;judo&#45;meta&#45;query (1)</title>
<path fill="none" stroke="black" d="M733.99,-215.7C734.21,-207.98 734.48,-198.71 734.73,-190.11"/>
<polygon fill="black" stroke="black" points="738.22,-190.2 735.01,-180.1 731.23,-190 738.22,-190.2"/>
</g>
<!-- judo&#45;tatami&#45;base (3) -->
<g id="node17" class="node">
<title>judo&#45;tatami&#45;base (3)</title>
<polygon fill="none" stroke="black" points="653.5,-180 525.5,-180 525.5,-144 653.5,-144 653.5,-180"/>
<text text-anchor="middle" x="589.5" y="-158.3" font-family="Times,serif" font-size="14.00">judo&#45;tatami&#45;base (3)</text>
</g>
<!-- judo&#45;runtime&#45;core (4)&#45;&gt;judo&#45;tatami&#45;base (3) -->
<g id="edge10" class="edge">
<title>judo&#45;runtime&#45;core (4)&#45;&gt;judo&#45;tatami&#45;base (3)</title>
<path fill="none" stroke="black" d="M698.27,-215.88C678.92,-206.47 654.73,-194.71 634.07,-184.67"/>
<polygon fill="black" stroke="black" points="635.39,-181.41 624.86,-180.19 632.33,-187.71 635.39,-181.41"/>
</g>
<!-- judo&#45;runtime&#45;core&#45;jsl (5) -->
<g id="node15" class="node">
<title>judo&#45;runtime&#45;core&#45;jsl (5)</title>
<polygon fill="none" stroke="black" points="645.5,-324 493.5,-324 493.5,-288 645.5,-288 645.5,-324"/>
<text text-anchor="middle" x="569.5" y="-302.3" font-family="Times,serif" font-size="14.00">judo&#45;runtime&#45;core&#45;jsl (5)</text>
</g>
<!-- judo&#45;runtime&#45;core&#45;jsl (5)&#45;&gt;judo&#45;runtime&#45;core (4) -->
<g id="edge11" class="edge">
<title>judo&#45;runtime&#45;core&#45;jsl (5)&#45;&gt;judo&#45;runtime&#45;core (4)</title>
<path fill="none" stroke="black" d="M609.62,-287.88C632.14,-278.26 660.42,-266.19 684.27,-256.01"/>
<polygon fill="black" stroke="black" points="685.69,-259.21 693.51,-252.07 682.94,-252.77 685.69,-259.21"/>
</g>
<!-- judo&#45;tatami&#45;jsl (4) -->
<g id="node19" class="node">
<title>judo&#45;tatami&#45;jsl (4)</title>
<polygon fill="none" stroke="black" points="646.5,-252 530.5,-252 530.5,-216 646.5,-216 646.5,-252"/>
<text text-anchor="middle" x="588.5" y="-230.3" font-family="Times,serif" font-size="14.00">judo&#45;tatami&#45;jsl (4)</text>
</g>
<!-- judo&#45;runtime&#45;core&#45;jsl (5)&#45;&gt;judo&#45;tatami&#45;jsl (4) -->
<g id="edge12" class="edge">
<title>judo&#45;runtime&#45;core&#45;jsl (5)&#45;&gt;judo&#45;tatami&#45;jsl (4)</title>
<path fill="none" stroke="black" d="M574.2,-287.7C576.31,-279.9 578.86,-270.51 581.22,-261.83"/>
<polygon fill="black" stroke="black" points="584.62,-262.67 583.86,-252.1 577.86,-260.84 584.62,-262.67"/>
</g>
<!-- judo&#45;sdk&#45;common (2) -->
<g id="node16" class="node">
<title>judo&#45;sdk&#45;common (2)</title>
<polygon fill="none" stroke="black" points="410,-108 273,-108 273,-72 410,-72 410,-108"/>
<text text-anchor="middle" x="341.5" y="-86.3" font-family="Times,serif" font-size="14.00">judo&#45;sdk&#45;common (2)</text>
</g>
<!-- judo&#45;sdk&#45;common (2)&#45;&gt;judo&#45;dao&#45;api (1) -->
<g id="edge13" class="edge">
<title>judo&#45;sdk&#45;common (2)&#45;&gt;judo&#45;dao&#45;api (1)</title>
<path fill="none" stroke="black" d="M309.7,-71.88C292.39,-62.55 270.78,-50.92 252.24,-40.94"/>
<polygon fill="black" stroke="black" points="253.89,-37.85 243.42,-36.19 250.57,-44.01 253.89,-37.85"/>
</g>
<!-- judo&#45;sdk&#45;common (2)&#45;&gt;judo&#45;meta&#45;asm (1) -->
<g id="edge14" class="edge">
<title>judo&#45;sdk&#45;common (2)&#45;&gt;judo&#45;meta&#45;asm (1)</title>
<path fill="none" stroke="black" d="M341.5,-71.7C341.5,-63.98 341.5,-54.71 341.5,-46.11"/>
<polygon fill="black" stroke="black" points="345,-46.1 341.5,-36.1 338,-46.1 345,-46.1"/>
</g>
<!-- judo&#45;tatami&#45;base (3)&#45;&gt;judo&#45;meta&#45;expression (2) -->
<g id="edge16" class="edge">
<title>judo&#45;tatami&#45;base (3)&#45;&gt;judo&#45;meta&#45;expression (2)</title>
<path fill="none" stroke="black" d="M568.74,-143.7C558.26,-134.97 545.39,-124.24 534,-114.75"/>
<polygon fill="black" stroke="black" points="535.95,-111.82 526.03,-108.1 531.47,-117.19 535.95,-111.82"/>
</g>
<!-- judo&#45;tatami&#45;base (3)&#45;&gt;judo&#45;meta&#45;liquibase (1) -->
<g id="edge18" class="edge">
<title>judo&#45;tatami&#45;base (3)&#45;&gt;judo&#45;meta&#45;liquibase (1)</title>
<path fill="none" stroke="black" d="M610.26,-143.7C620.74,-134.97 633.61,-124.24 645,-114.75"/>
<polygon fill="black" stroke="black" points="647.53,-117.19 652.97,-108.1 643.05,-111.82 647.53,-117.19"/>
</g>
<!-- judo&#45;tatami&#45;base (3)&#45;&gt;judo&#45;meta&#45;rdbms (1) -->
<g id="edge17" class="edge">
<title>judo&#45;tatami&#45;base (3)&#45;&gt;judo&#45;meta&#45;rdbms (1)</title>
<path fill="none" stroke="black" d="M647.9,-143.97C682.02,-134.01 725.25,-121.41 760.97,-110.99"/>
<polygon fill="black" stroke="black" points="762.21,-114.27 770.83,-108.11 760.25,-107.55 762.21,-114.27"/>
</g>
<!-- judo&#45;tatami&#45;base (3)&#45;&gt;judo&#45;operation&#45;utils (2) -->
<g id="edge19" class="edge">
<title>judo&#45;tatami&#45;base (3)&#45;&gt;judo&#45;operation&#45;utils (2)</title>
<path fill="none" stroke="black" d="M525.39,-145.93C522.05,-145.25 518.74,-144.6 515.5,-144 407.42,-123.9 376.63,-127.54 265.35,-108.27"/>
<polygon fill="black" stroke="black" points="265.87,-104.8 255.41,-106.52 264.66,-111.7 265.87,-104.8"/>
</g>
<!-- judo&#45;tatami&#45;base (3)&#45;&gt;judo&#45;sdk&#45;common (2) -->
<g id="edge15" class="edge">
<title>judo&#45;tatami&#45;base (3)&#45;&gt;judo&#45;sdk&#45;common (2)</title>
<path fill="none" stroke="black" d="M529.15,-143.97C493.75,-133.97 448.84,-121.3 411.84,-110.85"/>
<polygon fill="black" stroke="black" points="412.7,-107.46 402.12,-108.11 410.79,-114.2 412.7,-107.46"/>
</g>
<!-- judo&#45;tatami&#45;core (1) -->
<g id="node18" class="node">
<title>judo&#45;tatami&#45;core (1)</title>
<polygon fill="none" stroke="black" points="1040,-108 913,-108 913,-72 1040,-72 1040,-108"/>
<text text-anchor="middle" x="976.5" y="-86.3" font-family="Times,serif" font-size="14.00">judo&#45;tatami&#45;core (1)</text>
</g>
<!-- judo&#45;tatami&#45;base (3)&#45;&gt;judo&#45;tatami&#45;core (1) -->
<g id="edge20" class="edge">
<title>judo&#45;tatami&#45;base (3)&#45;&gt;judo&#45;tatami&#45;core (1)</title>
<path fill="none" stroke="black" d="M653.61,-145.95C656.95,-145.27 660.26,-144.61 663.5,-144 766.79,-124.45 796.43,-128.21 903.09,-108.19"/>
<polygon fill="black" stroke="black" points="903.79,-111.62 912.96,-106.31 902.48,-104.74 903.79,-111.62"/>
</g>
<!-- judo&#45;tatami&#45;jsl (4)&#45;&gt;judo&#45;meta&#45;jsl (1) -->
<g id="edge21" class="edge">
<title>judo&#45;tatami&#45;jsl (4)&#45;&gt;judo&#45;meta&#45;jsl (1)</title>
<path fill="none" stroke="black" d="M555.23,-215.88C537.04,-206.51 514.31,-194.81 494.86,-184.8"/>
<polygon fill="black" stroke="black" points="496.39,-181.65 485.9,-180.19 493.19,-187.88 496.39,-181.65"/>
</g>
<!-- judo&#45;tatami&#45;jsl (4)&#45;&gt;judo&#45;tatami&#45;base (3) -->
<g id="edge22" class="edge">
<title>judo&#45;tatami&#45;jsl (4)&#45;&gt;judo&#45;tatami&#45;base (3)</title>
<path fill="none" stroke="black" d="M588.75,-215.7C588.86,-207.98 588.99,-198.71 589.11,-190.11"/>
<polygon fill="black" stroke="black" points="592.61,-190.15 589.26,-180.1 585.61,-190.05 592.61,-190.15"/>
</g>
<!-- judo&#45;jsl&#45;springboot&#45;parent (5) -->
<g id="node20" class="node">
<title>judo&#45;jsl&#45;springboot&#45;parent (5)</title>
<polygon fill="none" stroke="black" points="841.5,-324 663.5,-324 663.5,-288 841.5,-288 841.5,-324"/>
<text text-anchor="middle" x="752.5" y="-302.3" font-family="Times,serif" font-size="14.00">judo&#45;jsl&#45;springboot&#45;parent (5)</text>
</g>
<!-- judo&#45;jsl&#45;springboot&#45;parent (5)&#45;&gt;judo&#45;runtime&#45;core (4) -->
<g id="edge23" class="edge">
<title>judo&#45;jsl&#45;springboot&#45;parent (5)&#45;&gt;judo&#45;runtime&#45;core (4)</title>
<path fill="none" stroke="black" d="M747.8,-287.7C745.69,-279.9 743.14,-270.51 740.78,-261.83"/>
<polygon fill="black" stroke="black" points="744.14,-260.84 738.14,-252.1 737.38,-262.67 744.14,-260.84"/>
</g>
<!-- judo&#45;jsl&#45;springboot&#45;parent (5)&#45;&gt;judo&#45;tatami&#45;jsl (4) -->
<g id="edge24" class="edge">
<title>judo&#45;jsl&#45;springboot&#45;parent (5)&#45;&gt;judo&#45;tatami&#45;jsl (4)</title>
<path fill="none" stroke="black" d="M712.38,-287.88C689.86,-278.26 661.58,-266.19 637.73,-256.01"/>
<polygon fill="black" stroke="black" points="639.06,-252.77 628.49,-252.07 636.31,-259.21 639.06,-252.77"/>
</g>
<!-- judo&#45;jsl&#45;springboot&#45;archetype (6) -->
<g id="node21" class="node">
<title>judo&#45;jsl&#45;springboot&#45;archetype (6)</title>
<polygon fill="none" stroke="black" points="851,-396 654,-396 654,-360 851,-360 851,-396"/>
<text text-anchor="middle" x="752.5" y="-374.3" font-family="Times,serif" font-size="14.00">judo&#45;jsl&#45;springboot&#45;archetype (6)</text>
</g>
<!-- judo&#45;jsl&#45;springboot&#45;archetype (6)&#45;&gt;judo&#45;jsl&#45;springboot&#45;parent (5) -->
<g id="edge25" class="edge">
<title>judo&#45;jsl&#45;springboot&#45;archetype (6)&#45;&gt;judo&#45;jsl&#45;springboot&#45;parent (5)</title>
<path fill="none" stroke="black" d="M752.5,-359.7C752.5,-351.98 752.5,-342.71 752.5,-334.11"/>
<polygon fill="black" stroke="black" points="756,-334.1 752.5,-324.1 749,-334.1 756,-334.1"/>
</g>
</g>
</svg>
