<?xml version="1.0" encoding="UTF-8" standalone="no"?>
<!DOCTYPE svg PUBLIC "-//W3C//DTD SVG 1.1//EN"
 "http://www.w3.org/Graphics/SVG/1.1/DTD/svg11.dtd">
<!-- Generated by graphviz version 7.0.0 (20221023.0053)
 -->
<!-- Pages: 1 -->
<svg width="1742pt" height="548pt"
 viewBox="0.00 0.00 1742.00 548.00" xmlns="http://www.w3.org/2000/svg" xmlns:xlink="http://www.w3.org/1999/xlink">
<g id="graph0" class="graph" transform="scale(1 1) rotate(0) translate(4 544)">
<polygon fill="white" stroke="none" points="-4,4 -4,-544 1738,-544 1738,4 -4,4"/>
<!-- epsilon&#45;runtime (1) -->
<g id="node1" class="node">
<title>epsilon&#45;runtime (1)</title>
<polygon fill="none" stroke="black" points="1348.5,-36 1226.5,-36 1226.5,0 1348.5,0 1348.5,-36"/>
<text text-anchor="middle" x="1287.5" y="-14.3" font-family="Times,serif" font-size="14.00">epsilon&#45;runtime (1)</text>
</g>
<!-- epsilon&#45;runtime&#45;eclipse (1) -->
<g id="node2" class="node">
<title>epsilon&#45;runtime&#45;eclipse (1)</title>
<polygon fill="none" stroke="black" points="1208.5,-36 1044.5,-36 1044.5,0 1208.5,0 1208.5,-36"/>
<text text-anchor="middle" x="1126.5" y="-14.3" font-family="Times,serif" font-size="14.00">epsilon&#45;runtime&#45;eclipse (1)</text>
</g>
<!-- emf&#45;genmodel&#45;generator (1) -->
<g id="node3" class="node">
<title>emf&#45;genmodel&#45;generator (1)</title>
<polygon fill="none" stroke="black" points="1026.5,-36 854.5,-36 854.5,0 1026.5,0 1026.5,-36"/>
<text text-anchor="middle" x="940.5" y="-14.3" font-family="Times,serif" font-size="14.00">emf&#45;genmodel&#45;generator (1)</text>
</g>
<!-- judo&#45;genmodel&#45;generator (1) -->
<g id="node4" class="node">
<title>judo&#45;genmodel&#45;generator (1)</title>
<polygon fill="none" stroke="black" points="576.5,-36 402.5,-36 402.5,0 576.5,0 576.5,-36"/>
<text text-anchor="middle" x="489.5" y="-14.3" font-family="Times,serif" font-size="14.00">judo&#45;genmodel&#45;generator (1)</text>
</g>
<!-- judo&#45;epp&#45;common (1) -->
<g id="node5" class="node">
<title>judo&#45;epp&#45;common (1)</title>
<polygon fill="none" stroke="black" points="732,-36 595,-36 595,0 732,0 732,-36"/>
<text text-anchor="middle" x="663.5" y="-14.3" font-family="Times,serif" font-size="14.00">judo&#45;epp&#45;common (1)</text>
</g>
<!-- osgi&#45;utils (1) -->
<g id="node6" class="node">
<title>osgi&#45;utils (1)</title>
<polygon fill="none" stroke="black" points="836.5,-36 750.5,-36 750.5,0 836.5,0 836.5,-36"/>
<text text-anchor="middle" x="793.5" y="-14.3" font-family="Times,serif" font-size="14.00">osgi&#45;utils (1)</text>
</g>
<!-- java&#45;embedded&#45;compiler (1) -->
<g id="node7" class="node">
<title>java&#45;embedded&#45;compiler (1)</title>
<polygon fill="none" stroke="black" points="1309,-252 1136,-252 1136,-216 1309,-216 1309,-252"/>
<text text-anchor="middle" x="1222.5" y="-230.3" font-family="Times,serif" font-size="14.00">java&#45;embedded&#45;compiler (1)</text>
</g>
<!-- structured&#45;map&#45;proxy (1) -->
<g id="node8" class="node">
<title>structured&#45;map&#45;proxy (1)</title>
<polygon fill="none" stroke="black" points="713,-108 558,-108 558,-72 713,-72 713,-108"/>
<text text-anchor="middle" x="635.5" y="-86.3" font-family="Times,serif" font-size="14.00">structured&#45;map&#45;proxy (1)</text>
</g>
<!-- karaf&#45;features (1) -->
<g id="node9" class="node">
<title>karaf&#45;features (1)</title>
<polygon fill="none" stroke="black" points="384,-36 273,-36 273,0 384,0 384,-36"/>
<text text-anchor="middle" x="328.5" y="-14.3" font-family="Times,serif" font-size="14.00">karaf&#45;features (1)</text>
</g>
<!-- mapper (1) -->
<g id="node10" class="node">
<title>mapper (1)</title>
<polygon fill="none" stroke="black" points="1194,-324 1117,-324 1117,-288 1194,-288 1194,-324"/>
<text text-anchor="middle" x="1155.5" y="-302.3" font-family="Times,serif" font-size="14.00">mapper (1)</text>
</g>
<!-- osgi&#45;liquibase (1) -->
<g id="node11" class="node">
<title>osgi&#45;liquibase (1)</title>
<polygon fill="none" stroke="black" points="1384.5,-540 1272.5,-540 1272.5,-504 1384.5,-504 1384.5,-540"/>
<text text-anchor="middle" x="1328.5" y="-518.3" font-family="Times,serif" font-size="14.00">osgi&#45;liquibase (1)</text>
</g>
<!-- osgi&#45;filestore (1) -->
<g id="node12" class="node">
<title>osgi&#45;filestore (1)</title>
<polygon fill="none" stroke="black" points="1319,-324 1212,-324 1212,-288 1319,-288 1319,-324"/>
<text text-anchor="middle" x="1265.5" y="-302.3" font-family="Times,serif" font-size="14.00">osgi&#45;filestore (1)</text>
</g>
<!-- judo&#45;misc&#45;p2 (1) -->
<g id="node13" class="node">
<title>judo&#45;misc&#45;p2 (1)</title>
<polygon fill="none" stroke="black" points="114,-36 5,-36 5,0 114,0 114,-36"/>
<text text-anchor="middle" x="59.5" y="-14.3" font-family="Times,serif" font-size="14.00">judo&#45;misc&#45;p2 (1)</text>
</g>
<!-- judo&#45;dao&#45;api (1) -->
<g id="node14" class="node">
<title>judo&#45;dao&#45;api (1)</title>
<polygon fill="none" stroke="black" points="973,-108 868,-108 868,-72 973,-72 973,-108"/>
<text text-anchor="middle" x="920.5" y="-86.3" font-family="Times,serif" font-size="14.00">judo&#45;dao&#45;api (1)</text>
</g>
<!-- judo&#45;dispatcher&#45;api (1) -->
<g id="node15" class="node">
<title>judo&#45;dispatcher&#45;api (1)</title>
<polygon fill="none" stroke="black" points="1132,-108 991,-108 991,-72 1132,-72 1132,-108"/>
<text text-anchor="middle" x="1061.5" y="-86.3" font-family="Times,serif" font-size="14.00">judo&#45;dispatcher&#45;api (1)</text>
</g>
<!-- judo&#45;jsl&#45;vscode (3) -->
<g id="node16" class="node">
<title>judo&#45;jsl&#45;vscode (3)</title>
<polygon fill="none" stroke="black" points="119,-180 0,-180 0,-144 119,-144 119,-180"/>
<text text-anchor="middle" x="59.5" y="-158.3" font-family="Times,serif" font-size="14.00">judo&#45;jsl&#45;vscode (3)</text>
</g>
<!-- judo&#45;meta&#45;jsl (2) -->
<g id="node22" class="node">
<title>judo&#45;meta&#45;jsl (2)</title>
<polygon fill="none" stroke="black" points="114,-108 5,-108 5,-72 114,-72 114,-108"/>
<text text-anchor="middle" x="59.5" y="-86.3" font-family="Times,serif" font-size="14.00">judo&#45;meta&#45;jsl (2)</text>
</g>
<!-- judo&#45;jsl&#45;vscode (3)&#45;&gt;judo&#45;meta&#45;jsl (2) -->
<g id="edge1" class="edge">
<title>judo&#45;jsl&#45;vscode (3)&#45;&gt;judo&#45;meta&#45;jsl (2)</title>
<path fill="none" stroke="black" d="M59.5,-143.7C59.5,-136.41 59.5,-127.73 59.5,-119.54"/>
<polygon fill="black" stroke="black" points="63,-119.62 59.5,-109.62 56,-119.62 63,-119.62"/>
</g>
<!-- judo&#45;meta&#45;asm (2) -->
<g id="node17" class="node">
<title>judo&#45;meta&#45;asm (2)</title>
<polygon fill="none" stroke="black" points="850,-108 731,-108 731,-72 850,-72 850,-108"/>
<text text-anchor="middle" x="790.5" y="-86.3" font-family="Times,serif" font-size="14.00">judo&#45;meta&#45;asm (2)</text>
</g>
<!-- judo&#45;meta&#45;asm (2)&#45;&gt;epsilon&#45;runtime (1) -->
<g id="edge4" class="edge">
<title>judo&#45;meta&#45;asm (2)&#45;&gt;epsilon&#45;runtime (1)</title>
<path fill="none" stroke="black" d="M850.23,-73.74C853.36,-73.11 856.46,-72.52 859.5,-72 1013.54,-45.42 1057.89,-62.14 1215.12,-36.26"/>
<polygon fill="black" stroke="black" points="1215.37,-39.77 1224.65,-34.66 1214.21,-32.87 1215.37,-39.77"/>
</g>
<!-- judo&#45;meta&#45;asm (2)&#45;&gt;epsilon&#45;runtime&#45;eclipse (1) -->
<g id="edge7" class="edge">
<title>judo&#45;meta&#45;asm (2)&#45;&gt;epsilon&#45;runtime&#45;eclipse (1)</title>
<path fill="none" stroke="black" d="M850.3,-74.09C853.41,-73.37 856.49,-72.67 859.5,-72 916.98,-59.22 981.77,-46.32 1033.12,-36.45"/>
<polygon fill="black" stroke="black" points="1033.55,-39.94 1042.72,-34.62 1032.24,-33.06 1033.55,-39.94"/>
</g>
<!-- judo&#45;meta&#45;asm (2)&#45;&gt;emf&#45;genmodel&#45;generator (1) -->
<g id="edge8" class="edge">
<title>judo&#45;meta&#45;asm (2)&#45;&gt;emf&#45;genmodel&#45;generator (1)</title>
<path fill="none" stroke="black" d="M827.96,-71.52C847.64,-62.34 871.95,-50.99 892.94,-41.2"/>
<polygon fill="black" stroke="black" points="894.3,-44.42 901.88,-37.02 891.34,-38.08 894.3,-44.42"/>
</g>
<!-- judo&#45;meta&#45;asm (2)&#45;&gt;judo&#45;genmodel&#45;generator (1) -->
<g id="edge5" class="edge">
<title>judo&#45;meta&#45;asm (2)&#45;&gt;judo&#45;genmodel&#45;generator (1)</title>
<path fill="none" stroke="black" d="M730.81,-74C728,-73.32 725.22,-72.65 722.5,-72 675.36,-60.75 622.72,-48.73 579.41,-38.98"/>
<polygon fill="black" stroke="black" points="580.33,-35.6 569.8,-36.82 578.79,-42.43 580.33,-35.6"/>
</g>
<!-- judo&#45;meta&#45;asm (2)&#45;&gt;judo&#45;epp&#45;common (1) -->
<g id="edge2" class="edge">
<title>judo&#45;meta&#45;asm (2)&#45;&gt;judo&#45;epp&#45;common (1)</title>
<path fill="none" stroke="black" d="M758.78,-71.52C742.44,-62.51 722.33,-51.42 704.79,-41.76"/>
<polygon fill="black" stroke="black" points="706.59,-38.75 696.14,-36.99 703.21,-44.88 706.59,-38.75"/>
</g>
<!-- judo&#45;meta&#45;asm (2)&#45;&gt;osgi&#45;utils (1) -->
<g id="edge3" class="edge">
<title>judo&#45;meta&#45;asm (2)&#45;&gt;osgi&#45;utils (1)</title>
<path fill="none" stroke="black" d="M791.24,-71.7C791.55,-64.41 791.93,-55.73 792.28,-47.54"/>
<polygon fill="black" stroke="black" points="795.77,-47.76 792.7,-37.62 788.78,-47.46 795.77,-47.76"/>
</g>
<!-- judo&#45;meta&#45;asm (2)&#45;&gt;karaf&#45;features (1) -->
<g id="edge6" class="edge">
<title>judo&#45;meta&#45;asm (2)&#45;&gt;karaf&#45;features (1)</title>
<path fill="none" stroke="black" d="M730.53,-73.54C727.82,-72.99 725.14,-72.47 722.5,-72 581.24,-46.73 540.15,-61.9 395.46,-36.19"/>
<polygon fill="black" stroke="black" points="396.36,-32.79 385.89,-34.45 395.11,-39.68 396.36,-32.79"/>
</g>
<!-- judo&#45;meta&#45;expression (3) -->
<g id="node18" class="node">
<title>judo&#45;meta&#45;expression (3)</title>
<polygon fill="none" stroke="black" points="430.5,-180 276.5,-180 276.5,-144 430.5,-144 430.5,-180"/>
<text text-anchor="middle" x="353.5" y="-158.3" font-family="Times,serif" font-size="14.00">judo&#45;meta&#45;expression (3)</text>
</g>
<!-- judo&#45;meta&#45;jql (2) -->
<g id="node21" class="node">
<title>judo&#45;meta&#45;jql (2)</title>
<polygon fill="none" stroke="black" points="242.5,-108 132.5,-108 132.5,-72 242.5,-72 242.5,-108"/>
<text text-anchor="middle" x="187.5" y="-86.3" font-family="Times,serif" font-size="14.00">judo&#45;meta&#45;jql (2)</text>
</g>
<!-- judo&#45;meta&#45;expression (3)&#45;&gt;judo&#45;meta&#45;jql (2) -->
<g id="edge10" class="edge">
<title>judo&#45;meta&#45;expression (3)&#45;&gt;judo&#45;meta&#45;jql (2)</title>
<path fill="none" stroke="black" d="M312.04,-143.52C289.97,-134.21 262.62,-122.68 239.18,-112.79"/>
<polygon fill="black" stroke="black" points="240.69,-109.63 230.11,-108.97 237.97,-116.08 240.69,-109.63"/>
</g>
<!-- judo&#45;meta&#45;measure (2) -->
<g id="node24" class="node">
<title>judo&#45;meta&#45;measure (2)</title>
<polygon fill="none" stroke="black" points="402.5,-108 260.5,-108 260.5,-72 402.5,-72 402.5,-108"/>
<text text-anchor="middle" x="331.5" y="-86.3" font-family="Times,serif" font-size="14.00">judo&#45;meta&#45;measure (2)</text>
</g>
<!-- judo&#45;meta&#45;expression (3)&#45;&gt;judo&#45;meta&#45;measure (2) -->
<g id="edge9" class="edge">
<title>judo&#45;meta&#45;expression (3)&#45;&gt;judo&#45;meta&#45;measure (2)</title>
<path fill="none" stroke="black" d="M348.06,-143.7C345.72,-136.24 342.92,-127.32 340.29,-118.97"/>
<polygon fill="black" stroke="black" points="343.67,-118.04 337.33,-109.55 336.99,-120.14 343.67,-118.04"/>
</g>
<!-- judo&#45;meta&#45;expression&#45;asm (4) -->
<g id="node19" class="node">
<title>judo&#45;meta&#45;expression&#45;asm (4)</title>
<polygon fill="none" stroke="black" points="805,-252 624,-252 624,-216 805,-216 805,-252"/>
<text text-anchor="middle" x="714.5" y="-230.3" font-family="Times,serif" font-size="14.00">judo&#45;meta&#45;expression&#45;asm (4)</text>
</g>
<!-- judo&#45;meta&#45;expression&#45;asm (4)&#45;&gt;judo&#45;meta&#45;asm (2) -->
<g id="edge11" class="edge">
<title>judo&#45;meta&#45;expression&#45;asm (4)&#45;&gt;judo&#45;meta&#45;asm (2)</title>
<path fill="none" stroke="black" d="M715.42,-215.53C717.07,-196.75 721.66,-166.58 734.5,-144 740.4,-133.61 749,-124.03 757.69,-115.95"/>
<polygon fill="black" stroke="black" points="759.96,-118.61 765.18,-109.39 755.35,-113.34 759.96,-118.61"/>
</g>
<!-- judo&#45;meta&#45;expression&#45;asm (4)&#45;&gt;judo&#45;meta&#45;expression (3) -->
<g id="edge12" class="edge">
<title>judo&#45;meta&#45;expression&#45;asm (4)&#45;&gt;judo&#45;meta&#45;expression (3)</title>
<path fill="none" stroke="black" d="M624.34,-215.52C568.65,-204.72 497.52,-190.93 442.12,-180.18"/>
<polygon fill="black" stroke="black" points="442.88,-176.77 432.39,-178.3 441.54,-183.64 442.88,-176.77"/>
</g>
<!-- judo&#45;meta&#45;expression&#45;psm (4) -->
<g id="node20" class="node">
<title>judo&#45;meta&#45;expression&#45;psm (4)</title>
<polygon fill="none" stroke="black" points="571.5,-252 389.5,-252 389.5,-216 571.5,-216 571.5,-252"/>
<text text-anchor="middle" x="480.5" y="-230.3" font-family="Times,serif" font-size="14.00">judo&#45;meta&#45;expression&#45;psm (4)</text>
</g>
<!-- judo&#45;meta&#45;expression&#45;psm (4)&#45;&gt;judo&#45;meta&#45;expression (3) -->
<g id="edge13" class="edge">
<title>judo&#45;meta&#45;expression&#45;psm (4)&#45;&gt;judo&#45;meta&#45;expression (3)</title>
<path fill="none" stroke="black" d="M448.78,-215.52C432.44,-206.51 412.33,-195.42 394.79,-185.76"/>
<polygon fill="black" stroke="black" points="396.59,-182.75 386.14,-180.99 393.21,-188.88 396.59,-182.75"/>
</g>
<!-- judo&#45;meta&#45;psm (2) -->
<g id="node25" class="node">
<title>judo&#45;meta&#45;psm (2)</title>
<polygon fill="none" stroke="black" points="540,-108 421,-108 421,-72 540,-72 540,-108"/>
<text text-anchor="middle" x="480.5" y="-86.3" font-family="Times,serif" font-size="14.00">judo&#45;meta&#45;psm (2)</text>
</g>
<!-- judo&#45;meta&#45;expression&#45;psm (4)&#45;&gt;judo&#45;meta&#45;psm (2) -->
<g id="edge14" class="edge">
<title>judo&#45;meta&#45;expression&#45;psm (4)&#45;&gt;judo&#45;meta&#45;psm (2)</title>
<path fill="none" stroke="black" d="M480.5,-215.59C480.5,-191.61 480.5,-148.14 480.5,-119.42"/>
<polygon fill="black" stroke="black" points="484,-119.62 480.5,-109.62 477,-119.62 484,-119.62"/>
</g>
<!-- judo&#45;meta&#45;jql (2)&#45;&gt;emf&#45;genmodel&#45;generator (1) -->
<g id="edge19" class="edge">
<title>judo&#45;meta&#45;jql (2)&#45;&gt;emf&#45;genmodel&#45;generator (1)</title>
<path fill="none" stroke="black" d="M242.86,-73.57C245.77,-72.99 248.66,-72.46 251.5,-72 508.91,-30.44 580.85,-66.3 842.69,-36.24"/>
<polygon fill="black" stroke="black" points="843.07,-39.72 852.59,-35.08 842.25,-32.77 843.07,-39.72"/>
</g>
<!-- judo&#45;meta&#45;jql (2)&#45;&gt;judo&#45;genmodel&#45;generator (1) -->
<g id="edge17" class="edge">
<title>judo&#45;meta&#45;jql (2)&#45;&gt;judo&#45;genmodel&#45;generator (1)</title>
<path fill="none" stroke="black" d="M242.97,-74.12C245.85,-73.39 248.71,-72.68 251.5,-72 299.08,-60.39 352.26,-48.45 396.27,-38.85"/>
<polygon fill="black" stroke="black" points="396.74,-42.32 405.77,-36.78 395.25,-35.48 396.74,-42.32"/>
</g>
<!-- judo&#45;meta&#45;jql (2)&#45;&gt;judo&#45;epp&#45;common (1) -->
<g id="edge15" class="edge">
<title>judo&#45;meta&#45;jql (2)&#45;&gt;judo&#45;epp&#45;common (1)</title>
<path fill="none" stroke="black" d="M242.89,-73.74C245.79,-73.11 248.67,-72.52 251.5,-72 394.71,-45.42 436.12,-59.22 583.41,-36.22"/>
<polygon fill="black" stroke="black" points="583.85,-39.69 593.18,-34.66 582.75,-32.78 583.85,-39.69"/>
</g>
<!-- judo&#45;meta&#45;jql (2)&#45;&gt;osgi&#45;utils (1) -->
<g id="edge16" class="edge">
<title>judo&#45;meta&#45;jql (2)&#45;&gt;osgi&#45;utils (1)</title>
<path fill="none" stroke="black" d="M242.86,-73.62C245.77,-73.02 248.67,-72.48 251.5,-72 463.17,-36.43 525.15,-76.81 738.73,-36.26"/>
<polygon fill="black" stroke="black" points="739.38,-39.7 748.53,-34.35 738.04,-32.82 739.38,-39.7"/>
</g>
<!-- judo&#45;meta&#45;jql (2)&#45;&gt;karaf&#45;features (1) -->
<g id="edge18" class="edge">
<title>judo&#45;meta&#45;jql (2)&#45;&gt;karaf&#45;features (1)</title>
<path fill="none" stroke="black" d="M222.72,-71.52C241.11,-62.39 263.82,-51.11 283.47,-41.35"/>
<polygon fill="black" stroke="black" points="284.98,-44.52 292.38,-36.93 281.86,-38.25 284.98,-44.52"/>
</g>
<!-- judo&#45;meta&#45;jsl (2)&#45;&gt;emf&#45;genmodel&#45;generator (1) -->
<g id="edge24" class="edge">
<title>judo&#45;meta&#45;jsl (2)&#45;&gt;emf&#45;genmodel&#45;generator (1)</title>
<path fill="none" stroke="black" d="M114.15,-73.68C117.3,-73.04 120.43,-72.48 123.5,-72 437.23,-23.07 524.25,-71.22 842.68,-36.22"/>
<polygon fill="black" stroke="black" points="843.05,-39.7 852.6,-35.11 842.27,-32.75 843.05,-39.7"/>
</g>
<!-- judo&#45;meta&#45;jsl (2)&#45;&gt;judo&#45;genmodel&#45;generator (1) -->
<g id="edge22" class="edge">
<title>judo&#45;meta&#45;jsl (2)&#45;&gt;judo&#45;genmodel&#45;generator (1)</title>
<path fill="none" stroke="black" d="M114.21,-73.98C117.34,-73.27 120.46,-72.6 123.5,-72 238.76,-49.1 271.94,-54.22 391.12,-36.32"/>
<polygon fill="black" stroke="black" points="391.3,-39.83 400.65,-34.86 390.24,-32.91 391.3,-39.83"/>
</g>
<!-- judo&#45;meta&#45;jsl (2)&#45;&gt;judo&#45;epp&#45;common (1) -->
<g id="edge20" class="edge">
<title>judo&#45;meta&#45;jsl (2)&#45;&gt;judo&#45;epp&#45;common (1)</title>
<path fill="none" stroke="black" d="M114.17,-73.78C117.31,-73.12 120.44,-72.52 123.5,-72 322.86,-38.05 379.7,-64.99 583.3,-36.18"/>
<polygon fill="black" stroke="black" points="583.8,-39.64 593.19,-34.75 582.79,-32.72 583.8,-39.64"/>
</g>
<!-- judo&#45;meta&#45;jsl (2)&#45;&gt;osgi&#45;utils (1) -->
<g id="edge21" class="edge">
<title>judo&#45;meta&#45;jsl (2)&#45;&gt;osgi&#45;utils (1)</title>
<path fill="none" stroke="black" d="M114.16,-73.71C117.3,-73.07 120.44,-72.49 123.5,-72 391.58,-29.04 469.13,-85.64 739.1,-36.16"/>
<polygon fill="black" stroke="black" points="739.35,-39.67 748.53,-34.39 738.06,-32.79 739.35,-39.67"/>
</g>
<!-- judo&#45;meta&#45;jsl (2)&#45;&gt;karaf&#45;features (1) -->
<g id="edge23" class="edge">
<title>judo&#45;meta&#45;jsl (2)&#45;&gt;karaf&#45;features (1)</title>
<path fill="none" stroke="black" d="M114.31,-74.42C117.42,-73.6 120.5,-72.79 123.5,-72 169.66,-59.9 221.71,-46.45 261.81,-36.12"/>
<polygon fill="black" stroke="black" points="262.51,-39.56 271.32,-33.67 260.77,-32.78 262.51,-39.56"/>
</g>
<!-- judo&#45;meta&#45;jsl (2)&#45;&gt;judo&#45;misc&#45;p2 (1) -->
<g id="edge25" class="edge">
<title>judo&#45;meta&#45;jsl (2)&#45;&gt;judo&#45;misc&#45;p2 (1)</title>
<path fill="none" stroke="black" d="M59.5,-71.7C59.5,-64.41 59.5,-55.73 59.5,-47.54"/>
<polygon fill="black" stroke="black" points="63,-47.62 59.5,-37.62 56,-47.62 63,-47.62"/>
</g>
<!-- judo&#45;meta&#45;liquibase (2) -->
<g id="node23" class="node">
<title>judo&#45;meta&#45;liquibase (2)</title>
<polygon fill="none" stroke="black" points="1295,-108 1150,-108 1150,-72 1295,-72 1295,-108"/>
<text text-anchor="middle" x="1222.5" y="-86.3" font-family="Times,serif" font-size="14.00">judo&#45;meta&#45;liquibase (2)</text>
</g>
<!-- judo&#45;meta&#45;liquibase (2)&#45;&gt;epsilon&#45;runtime (1) -->
<g id="edge28" class="edge">
<title>judo&#45;meta&#45;liquibase (2)&#45;&gt;epsilon&#45;runtime (1)</title>
<path fill="none" stroke="black" d="M1238.57,-71.7C1246.2,-63.47 1255.48,-53.48 1263.9,-44.42"/>
<polygon fill="black" stroke="black" points="1266.35,-46.92 1270.59,-37.21 1261.22,-42.16 1266.35,-46.92"/>
</g>
<!-- judo&#45;meta&#45;liquibase (2)&#45;&gt;epsilon&#45;runtime&#45;eclipse (1) -->
<g id="edge31" class="edge">
<title>judo&#45;meta&#45;liquibase (2)&#45;&gt;epsilon&#45;runtime&#45;eclipse (1)</title>
<path fill="none" stroke="black" d="M1198.77,-71.7C1186.88,-63.03 1172.31,-52.4 1159.36,-42.96"/>
<polygon fill="black" stroke="black" points="1161.66,-40.3 1151.51,-37.24 1157.53,-45.96 1161.66,-40.3"/>
</g>
<!-- judo&#45;meta&#45;liquibase (2)&#45;&gt;emf&#45;genmodel&#45;generator (1) -->
<g id="edge32" class="edge">
<title>judo&#45;meta&#45;liquibase (2)&#45;&gt;emf&#45;genmodel&#45;generator (1)</title>
<path fill="none" stroke="black" d="M1152.07,-71.52C1112.47,-61.69 1062.86,-49.37 1021.64,-39.14"/>
<polygon fill="black" stroke="black" points="1022.54,-35.76 1011.99,-36.75 1020.85,-42.55 1022.54,-35.76"/>
</g>
<!-- judo&#45;meta&#45;liquibase (2)&#45;&gt;judo&#45;genmodel&#45;generator (1) -->
<g id="edge29" class="edge">
<title>judo&#45;meta&#45;liquibase (2)&#45;&gt;judo&#45;genmodel&#45;generator (1)</title>
<path fill="none" stroke="black" d="M1149.73,-73.22C1146.95,-72.78 1144.2,-72.37 1141.5,-72 900.18,-39.02 833.87,-64.61 588.03,-36.08"/>
<polygon fill="black" stroke="black" points="588.79,-32.65 578.45,-34.95 587.97,-39.6 588.79,-32.65"/>
</g>
<!-- judo&#45;meta&#45;liquibase (2)&#45;&gt;judo&#45;epp&#45;common (1) -->
<g id="edge26" class="edge">
<title>judo&#45;meta&#45;liquibase (2)&#45;&gt;judo&#45;epp&#45;common (1)</title>
<path fill="none" stroke="black" d="M1149.71,-73.3C1146.95,-72.84 1144.2,-72.4 1141.5,-72 968.58,-46.16 919.92,-62.36 743.56,-36.19"/>
<polygon fill="black" stroke="black" points="744.22,-32.75 733.81,-34.71 743.18,-39.67 744.22,-32.75"/>
</g>
<!-- judo&#45;meta&#45;liquibase (2)&#45;&gt;osgi&#45;utils (1) -->
<g id="edge27" class="edge">
<title>judo&#45;meta&#45;liquibase (2)&#45;&gt;osgi&#45;utils (1)</title>
<path fill="none" stroke="black" d="M1149.7,-73.41C1146.93,-72.92 1144.19,-72.45 1141.5,-72 1014.33,-50.96 976.91,-63.97 847.84,-36.27"/>
<polygon fill="black" stroke="black" points="848.73,-32.88 838.21,-34.16 847.23,-39.72 848.73,-32.88"/>
</g>
<!-- judo&#45;meta&#45;liquibase (2)&#45;&gt;karaf&#45;features (1) -->
<g id="edge30" class="edge">
<title>judo&#45;meta&#45;liquibase (2)&#45;&gt;karaf&#45;features (1)</title>
<path fill="none" stroke="black" d="M1149.73,-73.16C1146.96,-72.74 1144.21,-72.35 1141.5,-72 815.08,-30.16 724.52,-85.12 395.66,-36.11"/>
<polygon fill="black" stroke="black" points="396.27,-32.66 385.86,-34.62 395.23,-39.58 396.27,-32.66"/>
</g>
<!-- judo&#45;meta&#45;measure (2)&#45;&gt;epsilon&#45;runtime (1) -->
<g id="edge35" class="edge">
<title>judo&#45;meta&#45;measure (2)&#45;&gt;epsilon&#45;runtime (1)</title>
<path fill="none" stroke="black" d="M402.95,-73.35C406.17,-72.85 409.36,-72.4 412.5,-72 764.08,-27.54 860.92,-85.26 1214.82,-36.2"/>
<polygon fill="black" stroke="black" points="1215.26,-39.68 1224.67,-34.82 1214.28,-32.74 1215.26,-39.68"/>
</g>
<!-- judo&#45;meta&#45;measure (2)&#45;&gt;epsilon&#45;runtime&#45;eclipse (1) -->
<g id="edge38" class="edge">
<title>judo&#45;meta&#45;measure (2)&#45;&gt;epsilon&#45;runtime&#45;eclipse (1)</title>
<path fill="none" stroke="black" d="M402.95,-73.4C406.17,-72.89 409.37,-72.42 412.5,-72 683.8,-35.9 758.23,-68.65 1033.11,-36.19"/>
<polygon fill="black" stroke="black" points="1033.22,-39.7 1042.73,-35.03 1032.38,-32.75 1033.22,-39.7"/>
</g>
<!-- judo&#45;meta&#45;measure (2)&#45;&gt;emf&#45;genmodel&#45;generator (1) -->
<g id="edge39" class="edge">
<title>judo&#45;meta&#45;measure (2)&#45;&gt;emf&#45;genmodel&#45;generator (1)</title>
<path fill="none" stroke="black" d="M402.97,-73.5C406.18,-72.96 409.37,-72.46 412.5,-72 599.95,-44.65 652.05,-60.41 842.82,-36.27"/>
<polygon fill="black" stroke="black" points="843.11,-39.76 852.59,-35.01 842.22,-32.82 843.11,-39.76"/>
</g>
<!-- judo&#45;meta&#45;measure (2)&#45;&gt;judo&#45;genmodel&#45;generator (1) -->
<g id="edge36" class="edge">
<title>judo&#45;meta&#45;measure (2)&#45;&gt;judo&#45;genmodel&#45;generator (1)</title>
<path fill="none" stroke="black" d="M370.96,-71.52C391.87,-62.25 417.76,-50.78 440.01,-40.93"/>
<polygon fill="black" stroke="black" points="441.16,-44.25 448.88,-36.99 438.32,-37.85 441.16,-44.25"/>
</g>
<!-- judo&#45;meta&#45;measure (2)&#45;&gt;judo&#45;epp&#45;common (1) -->
<g id="edge33" class="edge">
<title>judo&#45;meta&#45;measure (2)&#45;&gt;judo&#45;epp&#45;common (1)</title>
<path fill="none" stroke="black" d="M402.62,-74.07C405.96,-73.37 409.27,-72.68 412.5,-72 485.92,-56.66 506.84,-52.71 583.42,-36.43"/>
<polygon fill="black" stroke="black" points="584.07,-39.87 593.12,-34.37 582.61,-33.03 584.07,-39.87"/>
</g>
<!-- judo&#45;meta&#45;measure (2)&#45;&gt;osgi&#45;utils (1) -->
<g id="edge34" class="edge">
<title>judo&#45;meta&#45;measure (2)&#45;&gt;osgi&#45;utils (1)</title>
<path fill="none" stroke="black" d="M402.98,-73.6C406.19,-73.03 409.38,-72.5 412.5,-72 554.22,-49.43 595.7,-66.16 739.3,-36.21"/>
<polygon fill="black" stroke="black" points="739.74,-39.7 748.79,-34.19 738.28,-32.85 739.74,-39.7"/>
</g>
<!-- judo&#45;meta&#45;measure (2)&#45;&gt;karaf&#45;features (1) -->
<g id="edge37" class="edge">
<title>judo&#45;meta&#45;measure (2)&#45;&gt;karaf&#45;features (1)</title>
<path fill="none" stroke="black" d="M330.76,-71.7C330.45,-64.41 330.07,-55.73 329.72,-47.54"/>
<polygon fill="black" stroke="black" points="333.22,-47.46 329.3,-37.62 326.23,-47.76 333.22,-47.46"/>
</g>
<!-- judo&#45;meta&#45;psm (2)&#45;&gt;epsilon&#45;runtime (1) -->
<g id="edge42" class="edge">
<title>judo&#45;meta&#45;psm (2)&#45;&gt;epsilon&#45;runtime (1)</title>
<path fill="none" stroke="black" d="M540.2,-73.56C543.34,-72.98 546.45,-72.45 549.5,-72 839.99,-28.78 921.37,-78.04 1215.18,-36.17"/>
<polygon fill="black" stroke="black" points="1215.27,-39.69 1224.67,-34.79 1214.27,-32.76 1215.27,-39.69"/>
</g>
<!-- judo&#45;meta&#45;psm (2)&#45;&gt;epsilon&#45;runtime&#45;eclipse (1) -->
<g id="edge45" class="edge">
<title>judo&#45;meta&#45;psm (2)&#45;&gt;epsilon&#45;runtime&#45;eclipse (1)</title>
<path fill="none" stroke="black" d="M540.21,-73.64C543.34,-73.04 546.45,-72.48 549.5,-72 759.75,-38.56 818.71,-63.06 1032.91,-36.24"/>
<polygon fill="black" stroke="black" points="1033.25,-39.72 1042.72,-34.98 1032.36,-32.78 1033.25,-39.72"/>
</g>
<!-- judo&#45;meta&#45;psm (2)&#45;&gt;emf&#45;genmodel&#45;generator (1) -->
<g id="edge46" class="edge">
<title>judo&#45;meta&#45;psm (2)&#45;&gt;emf&#45;genmodel&#45;generator (1)</title>
<path fill="none" stroke="black" d="M540.24,-73.81C543.37,-73.17 546.47,-72.56 549.5,-72 676.29,-48.76 712.48,-55.29 842.84,-36.34"/>
<polygon fill="black" stroke="black" points="843.19,-39.83 852.57,-34.9 842.16,-32.9 843.19,-39.83"/>
</g>
<!-- judo&#45;meta&#45;psm (2)&#45;&gt;judo&#45;genmodel&#45;generator (1) -->
<g id="edge43" class="edge">
<title>judo&#45;meta&#45;psm (2)&#45;&gt;judo&#45;genmodel&#45;generator (1)</title>
<path fill="none" stroke="black" d="M482.72,-71.7C483.67,-64.32 484.8,-55.52 485.87,-47.25"/>
<polygon fill="black" stroke="black" points="489.3,-47.97 487.11,-37.61 482.36,-47.08 489.3,-47.97"/>
</g>
<!-- judo&#45;meta&#45;psm (2)&#45;&gt;judo&#45;epp&#45;common (1) -->
<g id="edge40" class="edge">
<title>judo&#45;meta&#45;psm (2)&#45;&gt;judo&#45;epp&#45;common (1)</title>
<path fill="none" stroke="black" d="M526.21,-71.52C550.86,-62.08 581.5,-50.37 607.57,-40.39"/>
<polygon fill="black" stroke="black" points="608.56,-43.76 616.65,-36.92 606.06,-37.23 608.56,-43.76"/>
</g>
<!-- judo&#45;meta&#45;psm (2)&#45;&gt;osgi&#45;utils (1) -->
<g id="edge41" class="edge">
<title>judo&#45;meta&#45;psm (2)&#45;&gt;osgi&#45;utils (1)</title>
<path fill="none" stroke="black" d="M540.29,-74.05C543.4,-73.34 546.49,-72.65 549.5,-72 630.87,-54.36 655.4,-57.25 739.13,-36.43"/>
<polygon fill="black" stroke="black" points="739.91,-39.84 748.75,-33.99 738.19,-33.05 739.91,-39.84"/>
</g>
<!-- judo&#45;meta&#45;psm (2)&#45;&gt;karaf&#45;features (1) -->
<g id="edge44" class="edge">
<title>judo&#45;meta&#45;psm (2)&#45;&gt;karaf&#45;features (1)</title>
<path fill="none" stroke="black" d="M442.54,-71.52C422.6,-62.34 397.96,-50.99 376.7,-41.2"/>
<polygon fill="black" stroke="black" points="378.17,-38.02 367.62,-37.01 375.24,-44.38 378.17,-38.02"/>
</g>
<!-- judo&#45;meta&#45;query (2) -->
<g id="node26" class="node">
<title>judo&#45;meta&#45;query (2)</title>
<polygon fill="none" stroke="black" points="1589,-108 1462,-108 1462,-72 1589,-72 1589,-108"/>
<text text-anchor="middle" x="1525.5" y="-86.3" font-family="Times,serif" font-size="14.00">judo&#45;meta&#45;query (2)</text>
</g>
<!-- judo&#45;meta&#45;query (2)&#45;&gt;epsilon&#45;runtime (1) -->
<g id="edge49" class="edge">
<title>judo&#45;meta&#45;query (2)&#45;&gt;epsilon&#45;runtime (1)</title>
<path fill="none" stroke="black" d="M1466.06,-71.52C1433.13,-61.83 1392.02,-49.74 1357.54,-39.6"/>
<polygon fill="black" stroke="black" points="1358.63,-36.27 1348.05,-36.81 1356.66,-42.99 1358.63,-36.27"/>
</g>
<!-- judo&#45;meta&#45;query (2)&#45;&gt;epsilon&#45;runtime&#45;eclipse (1) -->
<g id="edge52" class="edge">
<title>judo&#45;meta&#45;query (2)&#45;&gt;epsilon&#45;runtime&#45;eclipse (1)</title>
<path fill="none" stroke="black" d="M1461.57,-73.62C1458.85,-73.06 1456.15,-72.51 1453.5,-72 1352.9,-52.48 1324.06,-53.64 1220.14,-36.41"/>
<polygon fill="black" stroke="black" points="1220.75,-32.96 1210.31,-34.76 1219.59,-39.86 1220.75,-32.96"/>
</g>
<!-- judo&#45;meta&#45;query (2)&#45;&gt;emf&#45;genmodel&#45;generator (1) -->
<g id="edge53" class="edge">
<title>judo&#45;meta&#45;query (2)&#45;&gt;emf&#45;genmodel&#45;generator (1)</title>
<path fill="none" stroke="black" d="M1461.61,-73.4C1458.87,-72.9 1456.16,-72.43 1453.5,-72 1272.98,-43.07 1222.32,-59.77 1038.09,-36.26"/>
<polygon fill="black" stroke="black" points="1038.78,-32.82 1028.42,-35 1037.88,-39.76 1038.78,-32.82"/>
</g>
<!-- judo&#45;meta&#45;query (2)&#45;&gt;judo&#45;genmodel&#45;generator (1) -->
<g id="edge50" class="edge">
<title>judo&#45;meta&#45;query (2)&#45;&gt;judo&#45;genmodel&#45;generator (1)</title>
<path fill="none" stroke="black" d="M1461.63,-73.25C1458.89,-72.79 1456.17,-72.37 1453.5,-72 1075.16,-19.96 971.95,-76.26 588.36,-36.09"/>
<polygon fill="black" stroke="black" points="588.75,-32.61 578.44,-35.03 588.01,-39.57 588.75,-32.61"/>
</g>
<!-- judo&#45;meta&#45;query (2)&#45;&gt;judo&#45;epp&#45;common (1) -->
<g id="edge47" class="edge">
<title>judo&#45;meta&#45;query (2)&#45;&gt;judo&#45;epp&#45;common (1)</title>
<path fill="none" stroke="black" d="M1461.62,-73.28C1458.89,-72.81 1456.17,-72.38 1453.5,-72 1143.48,-27.93 1057.57,-76.71 743.56,-36.12"/>
<polygon fill="black" stroke="black" points="744.17,-32.67 733.8,-34.83 743.25,-39.61 744.17,-32.67"/>
</g>
<!-- judo&#45;meta&#45;query (2)&#45;&gt;osgi&#45;utils (1) -->
<g id="edge48" class="edge">
<title>judo&#45;meta&#45;query (2)&#45;&gt;osgi&#45;utils (1)</title>
<path fill="none" stroke="black" d="M1461.62,-73.31C1458.88,-72.83 1456.17,-72.39 1453.5,-72 1189.33,-33.29 1113.51,-85.02 848.13,-36.2"/>
<polygon fill="black" stroke="black" points="848.94,-32.79 838.47,-34.39 847.65,-39.67 848.94,-32.79"/>
</g>
<!-- judo&#45;meta&#45;query (2)&#45;&gt;karaf&#45;features (1) -->
<g id="edge51" class="edge">
<title>judo&#45;meta&#45;query (2)&#45;&gt;karaf&#45;features (1)</title>
<path fill="none" stroke="black" d="M1461.63,-73.23C1458.89,-72.77 1456.17,-72.36 1453.5,-72 989.92,-10.02 861.94,-102.59 395.44,-36.05"/>
<polygon fill="black" stroke="black" points="396.25,-32.63 385.86,-34.67 395.25,-39.56 396.25,-32.63"/>
</g>
<!-- judo&#45;meta&#45;rdbms (2) -->
<g id="node27" class="node">
<title>judo&#45;meta&#45;rdbms (2)</title>
<polygon fill="none" stroke="black" points="1444,-108 1313,-108 1313,-72 1444,-72 1444,-108"/>
<text text-anchor="middle" x="1378.5" y="-86.3" font-family="Times,serif" font-size="14.00">judo&#45;meta&#45;rdbms (2)</text>
</g>
<!-- judo&#45;meta&#45;rdbms (2)&#45;&gt;epsilon&#45;runtime (1) -->
<g id="edge56" class="edge">
<title>judo&#45;meta&#45;rdbms (2)&#45;&gt;epsilon&#45;runtime (1)</title>
<path fill="none" stroke="black" d="M1356.01,-71.7C1344.85,-63.11 1331.19,-52.61 1319.01,-43.24"/>
<polygon fill="black" stroke="black" points="1321.31,-40.59 1311.25,-37.27 1317.04,-46.14 1321.31,-40.59"/>
</g>
<!-- judo&#45;meta&#45;rdbms (2)&#45;&gt;epsilon&#45;runtime&#45;eclipse (1) -->
<g id="edge59" class="edge">
<title>judo&#45;meta&#45;rdbms (2)&#45;&gt;epsilon&#45;runtime&#45;eclipse (1)</title>
<path fill="none" stroke="black" d="M1315.56,-71.52C1280.4,-61.75 1236.41,-49.53 1199.71,-39.34"/>
<polygon fill="black" stroke="black" points="1201.1,-36.09 1190.53,-36.79 1199.23,-42.84 1201.1,-36.09"/>
</g>
<!-- judo&#45;meta&#45;rdbms (2)&#45;&gt;emf&#45;genmodel&#45;generator (1) -->
<g id="edge60" class="edge">
<title>judo&#45;meta&#45;rdbms (2)&#45;&gt;emf&#45;genmodel&#45;generator (1)</title>
<path fill="none" stroke="black" d="M1312.8,-73.57C1310,-73.02 1307.22,-72.49 1304.5,-72 1189.41,-51.13 1156.64,-54.4 1038.28,-36.39"/>
<polygon fill="black" stroke="black" points="1038.85,-32.93 1028.44,-34.87 1037.79,-39.85 1038.85,-32.93"/>
</g>
<!-- judo&#45;meta&#45;rdbms (2)&#45;&gt;judo&#45;genmodel&#45;generator (1) -->
<g id="edge57" class="edge">
<title>judo&#45;meta&#45;rdbms (2)&#45;&gt;judo&#45;genmodel&#45;generator (1)</title>
<path fill="none" stroke="black" d="M1312.84,-73.29C1310.03,-72.81 1307.24,-72.38 1304.5,-72 991.73,-28.58 906.02,-70.64 588.34,-36.1"/>
<polygon fill="black" stroke="black" points="588.77,-32.62 578.44,-35 588,-39.58 588.77,-32.62"/>
</g>
<!-- judo&#45;meta&#45;rdbms (2)&#45;&gt;judo&#45;epp&#45;common (1) -->
<g id="edge54" class="edge">
<title>judo&#45;meta&#45;rdbms (2)&#45;&gt;judo&#45;epp&#45;common (1)</title>
<path fill="none" stroke="black" d="M1312.84,-73.33C1310.03,-72.85 1307.24,-72.4 1304.5,-72 1060.03,-36.34 991.8,-69.79 743.5,-36.13"/>
<polygon fill="black" stroke="black" points="744.19,-32.69 733.8,-34.79 743.23,-39.63 744.19,-32.69"/>
</g>
<!-- judo&#45;meta&#45;rdbms (2)&#45;&gt;osgi&#45;utils (1) -->
<g id="edge55" class="edge">
<title>judo&#45;meta&#45;rdbms (2)&#45;&gt;osgi&#45;utils (1)</title>
<path fill="none" stroke="black" d="M1312.83,-73.38C1310.02,-72.88 1307.24,-72.42 1304.5,-72 1105.89,-41.57 1048.24,-74.83 848.18,-36.25"/>
<polygon fill="black" stroke="black" points="848.96,-32.84 838.48,-34.34 847.61,-39.71 848.96,-32.84"/>
</g>
<!-- judo&#45;meta&#45;rdbms (2)&#45;&gt;karaf&#45;features (1) -->
<g id="edge58" class="edge">
<title>judo&#45;meta&#45;rdbms (2)&#45;&gt;karaf&#45;features (1)</title>
<path fill="none" stroke="black" d="M1312.85,-73.25C1310.04,-72.79 1307.24,-72.37 1304.5,-72 906.58,-18.9 796.34,-94.19 395.69,-36.1"/>
<polygon fill="black" stroke="black" points="396.26,-32.64 385.86,-34.65 395.24,-39.57 396.26,-32.64"/>
</g>
<!-- judo&#45;operation&#45;utils (3) -->
<g id="node28" class="node">
<title>judo&#45;operation&#45;utils (3)</title>
<polygon fill="none" stroke="black" points="1041,-180 898,-180 898,-144 1041,-144 1041,-180"/>
<text text-anchor="middle" x="969.5" y="-158.3" font-family="Times,serif" font-size="14.00">judo&#45;operation&#45;utils (3)</text>
</g>
<!-- judo&#45;operation&#45;utils (3)&#45;&gt;judo&#45;dao&#45;api (1) -->
<g id="edge61" class="edge">
<title>judo&#45;operation&#45;utils (3)&#45;&gt;judo&#45;dao&#45;api (1)</title>
<path fill="none" stroke="black" d="M957.39,-143.7C951.81,-135.73 945.07,-126.1 938.88,-117.26"/>
<polygon fill="black" stroke="black" points="941.94,-115.53 933.34,-109.34 936.21,-119.54 941.94,-115.53"/>
</g>
<!-- judo&#45;operation&#45;utils (3)&#45;&gt;judo&#45;dispatcher&#45;api (1) -->
<g id="edge63" class="edge">
<title>judo&#45;operation&#45;utils (3)&#45;&gt;judo&#45;dispatcher&#45;api (1)</title>
<path fill="none" stroke="black" d="M992.24,-143.7C1003.52,-135.11 1017.33,-124.61 1029.64,-115.24"/>
<polygon fill="black" stroke="black" points="1031.66,-118.1 1037.5,-109.26 1027.42,-112.53 1031.66,-118.1"/>
</g>
<!-- judo&#45;operation&#45;utils (3)&#45;&gt;judo&#45;meta&#45;asm (2) -->
<g id="edge62" class="edge">
<title>judo&#45;operation&#45;utils (3)&#45;&gt;judo&#45;meta&#45;asm (2)</title>
<path fill="none" stroke="black" d="M924.79,-143.52C900.78,-134.13 870.98,-122.47 845.55,-112.53"/>
<polygon fill="black" stroke="black" points="846.95,-109.32 836.36,-108.93 844.4,-115.83 846.95,-109.32"/>
</g>
<!-- judo&#45;runtime&#45;core (6) -->
<g id="node29" class="node">
<title>judo&#45;runtime&#45;core (6)</title>
<polygon fill="none" stroke="black" points="1223,-396 1088,-396 1088,-360 1223,-360 1223,-396"/>
<text text-anchor="middle" x="1155.5" y="-374.3" font-family="Times,serif" font-size="14.00">judo&#45;runtime&#45;core (6)</text>
</g>
<!-- judo&#45;runtime&#45;core (6)&#45;&gt;mapper (1) -->
<g id="edge65" class="edge">
<title>judo&#45;runtime&#45;core (6)&#45;&gt;mapper (1)</title>
<path fill="none" stroke="black" d="M1155.5,-359.7C1155.5,-352.41 1155.5,-343.73 1155.5,-335.54"/>
<polygon fill="black" stroke="black" points="1159,-335.62 1155.5,-325.62 1152,-335.62 1159,-335.62"/>
</g>
<!-- judo&#45;runtime&#45;core (6)&#45;&gt;osgi&#45;filestore (1) -->
<g id="edge66" class="edge">
<title>judo&#45;runtime&#45;core (6)&#45;&gt;osgi&#45;filestore (1)</title>
<path fill="none" stroke="black" d="M1182.97,-359.52C1196.86,-350.68 1213.9,-339.84 1228.88,-330.3"/>
<polygon fill="black" stroke="black" points="1230.54,-333.39 1237.1,-325.07 1226.78,-327.49 1230.54,-333.39"/>
</g>
<!-- judo&#45;runtime&#45;core (6)&#45;&gt;judo&#45;meta&#45;query (2) -->
<g id="edge64" class="edge">
<title>judo&#45;runtime&#45;core (6)&#45;&gt;judo&#45;meta&#45;query (2)</title>
<path fill="none" stroke="black" d="M1223.46,-365.59C1257.05,-357.7 1297.03,-344.76 1328.5,-324 1412.75,-268.43 1480.71,-166.52 1509.96,-118.03"/>
<polygon fill="black" stroke="black" points="1512.9,-119.94 1515,-109.55 1506.88,-116.36 1512.9,-119.94"/>
</g>
<!-- judo&#45;tatami&#45;base (5) -->
<g id="node32" class="node">
<title>judo&#45;tatami&#45;base (5)</title>
<polygon fill="none" stroke="black" points="1098.5,-324 970.5,-324 970.5,-288 1098.5,-288 1098.5,-324"/>
<text text-anchor="middle" x="1034.5" y="-302.3" font-family="Times,serif" font-size="14.00">judo&#45;tatami&#45;base (5)</text>
</g>
<!-- judo&#45;runtime&#45;core (6)&#45;&gt;judo&#45;tatami&#45;base (5) -->
<g id="edge67" class="edge">
<title>judo&#45;runtime&#45;core (6)&#45;&gt;judo&#45;tatami&#45;base (5)</title>
<path fill="none" stroke="black" d="M1125.28,-359.52C1109.71,-350.51 1090.55,-339.42 1073.84,-329.76"/>
<polygon fill="black" stroke="black" points="1076.05,-327 1065.65,-325.02 1072.55,-333.06 1076.05,-327"/>
</g>
<!-- judo&#45;runtime&#45;core&#45;jsl (8) -->
<g id="node30" class="node">
<title>judo&#45;runtime&#45;core&#45;jsl (8)</title>
<polygon fill="none" stroke="black" points="706.5,-540 554.5,-540 554.5,-504 706.5,-504 706.5,-540"/>
<text text-anchor="middle" x="630.5" y="-518.3" font-family="Times,serif" font-size="14.00">judo&#45;runtime&#45;core&#45;jsl (8)</text>
</g>
<!-- judo&#45;tatami&#45;jsl (7) -->
<g id="node34" class="node">
<title>judo&#45;tatami&#45;jsl (7)</title>
<polygon fill="none" stroke="black" points="596.5,-468 480.5,-468 480.5,-432 596.5,-432 596.5,-468"/>
<text text-anchor="middle" x="538.5" y="-446.3" font-family="Times,serif" font-size="14.00">judo&#45;tatami&#45;jsl (7)</text>
</g>
<!-- judo&#45;runtime&#45;core&#45;jsl (8)&#45;&gt;judo&#45;tatami&#45;jsl (7) -->
<g id="edge68" class="edge">
<title>judo&#45;runtime&#45;core&#45;jsl (8)&#45;&gt;judo&#45;tatami&#45;jsl (7)</title>
<path fill="none" stroke="black" d="M607.76,-503.7C596.48,-495.11 582.67,-484.61 570.36,-475.24"/>
<polygon fill="black" stroke="black" points="572.58,-472.53 562.5,-469.26 568.34,-478.1 572.58,-472.53"/>
</g>
<!-- judo&#45;sdk&#45;common (3) -->
<g id="node31" class="node">
<title>judo&#45;sdk&#45;common (3)</title>
<polygon fill="none" stroke="black" points="880,-180 743,-180 743,-144 880,-144 880,-180"/>
<text text-anchor="middle" x="811.5" y="-158.3" font-family="Times,serif" font-size="14.00">judo&#45;sdk&#45;common (3)</text>
</g>
<!-- judo&#45;sdk&#45;common (3)&#45;&gt;structured&#45;map&#45;proxy (1) -->
<g id="edge69" class="edge">
<title>judo&#45;sdk&#45;common (3)&#45;&gt;structured&#45;map&#45;proxy (1)</title>
<path fill="none" stroke="black" d="M767.54,-143.52C743.93,-134.13 714.63,-122.47 689.62,-112.53"/>
<polygon fill="black" stroke="black" points="691.19,-109.38 680.61,-108.94 688.61,-115.89 691.19,-109.38"/>
</g>
<!-- judo&#45;sdk&#45;common (3)&#45;&gt;judo&#45;dao&#45;api (1) -->
<g id="edge70" class="edge">
<title>judo&#45;sdk&#45;common (3)&#45;&gt;judo&#45;dao&#45;api (1)</title>
<path fill="none" stroke="black" d="M838.72,-143.52C852.48,-134.68 869.37,-123.84 884.21,-114.3"/>
<polygon fill="black" stroke="black" points="885.83,-117.43 892.35,-109.08 882.04,-111.54 885.83,-117.43"/>
</g>
<!-- judo&#45;sdk&#45;common (3)&#45;&gt;judo&#45;meta&#45;asm (2) -->
<g id="edge71" class="edge">
<title>judo&#45;sdk&#45;common (3)&#45;&gt;judo&#45;meta&#45;asm (2)</title>
<path fill="none" stroke="black" d="M806.31,-143.7C804.07,-136.24 801.4,-127.32 798.89,-118.97"/>
<polygon fill="black" stroke="black" points="802.29,-118.13 796.07,-109.55 795.59,-120.14 802.29,-118.13"/>
</g>
<!-- judo&#45;tatami&#45;base (5)&#45;&gt;java&#45;embedded&#45;compiler (1) -->
<g id="edge73" class="edge">
<title>judo&#45;tatami&#45;base (5)&#45;&gt;java&#45;embedded&#45;compiler (1)</title>
<path fill="none" stroke="black" d="M1081.46,-287.52C1106.79,-278.08 1138.26,-266.37 1165.04,-256.39"/>
<polygon fill="black" stroke="black" points="1166.25,-259.68 1174.4,-252.91 1163.81,-253.12 1166.25,-259.68"/>
</g>
<!-- judo&#45;tatami&#45;base (5)&#45;&gt;judo&#45;meta&#45;expression&#45;asm (4) -->
<g id="edge78" class="edge">
<title>judo&#45;tatami&#45;base (5)&#45;&gt;judo&#45;meta&#45;expression&#45;asm (4)</title>
<path fill="none" stroke="black" d="M970.13,-290.92C922.84,-280.58 857.96,-266.38 805.4,-254.88"/>
<polygon fill="black" stroke="black" points="806.37,-251.51 795.86,-252.8 804.88,-258.35 806.37,-251.51"/>
</g>
<!-- judo&#45;tatami&#45;base (5)&#45;&gt;judo&#45;meta&#45;expression&#45;psm (4) -->
<g id="edge77" class="edge">
<title>judo&#45;tatami&#45;base (5)&#45;&gt;judo&#45;meta&#45;expression&#45;psm (4)</title>
<path fill="none" stroke="black" d="M970.14,-296.87C875.08,-284.86 696.2,-262.25 582.97,-247.95"/>
<polygon fill="black" stroke="black" points="583.75,-244.52 573.39,-246.74 582.87,-251.46 583.75,-244.52"/>
</g>
<!-- judo&#45;tatami&#45;base (5)&#45;&gt;judo&#45;meta&#45;liquibase (2) -->
<g id="edge76" class="edge">
<title>judo&#45;tatami&#45;base (5)&#45;&gt;judo&#45;meta&#45;liquibase (2)</title>
<path fill="none" stroke="black" d="M1036.29,-287.57C1040.5,-255.16 1053.87,-185.19 1093.5,-144 1106.48,-130.51 1123.39,-120.33 1140.67,-112.7"/>
<polygon fill="black" stroke="black" points="1141.55,-116.12 1149.46,-109.07 1138.88,-109.65 1141.55,-116.12"/>
</g>
<!-- judo&#45;tatami&#45;base (5)&#45;&gt;judo&#45;meta&#45;rdbms (2) -->
<g id="edge74" class="edge">
<title>judo&#45;tatami&#45;base (5)&#45;&gt;judo&#45;meta&#45;rdbms (2)</title>
<path fill="none" stroke="black" d="M1049.65,-287.65C1067.06,-268.42 1097.15,-237.34 1127.5,-216 1190.09,-172 1270.44,-134.91 1323.15,-112.83"/>
<polygon fill="black" stroke="black" points="1324.34,-116.13 1332.23,-109.06 1321.65,-109.66 1324.34,-116.13"/>
</g>
<!-- judo&#45;tatami&#45;base (5)&#45;&gt;judo&#45;operation&#45;utils (3) -->
<g id="edge72" class="edge">
<title>judo&#45;tatami&#45;base (5)&#45;&gt;judo&#45;operation&#45;utils (3)</title>
<path fill="none" stroke="black" d="M1026.53,-287.59C1015.41,-263.29 995.12,-218.97 981.98,-190.27"/>
<polygon fill="black" stroke="black" points="985.31,-189.12 977.96,-181.49 978.94,-192.04 985.31,-189.12"/>
</g>
<!-- judo&#45;tatami&#45;base (5)&#45;&gt;judo&#45;sdk&#45;common (3) -->
<g id="edge79" class="edge">
<title>judo&#45;tatami&#45;base (5)&#45;&gt;judo&#45;sdk&#45;common (3)</title>
<path fill="none" stroke="black" d="M1007.16,-287.59C967.26,-262.18 892.99,-214.89 848.32,-186.44"/>
<polygon fill="black" stroke="black" points="850.31,-183.56 840,-181.15 846.55,-189.47 850.31,-183.56"/>
</g>
<!-- judo&#45;tatami&#45;core (2) -->
<g id="node33" class="node">
<title>judo&#45;tatami&#45;core (2)</title>
<polygon fill="none" stroke="black" points="1734,-108 1607,-108 1607,-72 1734,-72 1734,-108"/>
<text text-anchor="middle" x="1670.5" y="-86.3" font-family="Times,serif" font-size="14.00">judo&#45;tatami&#45;core (2)</text>
</g>
<!-- judo&#45;tatami&#45;base (5)&#45;&gt;judo&#45;tatami&#45;core (2) -->
<g id="edge75" class="edge">
<title>judo&#45;tatami&#45;base (5)&#45;&gt;judo&#45;tatami&#45;core (2)</title>
<path fill="none" stroke="black" d="M1098.63,-290.04C1101.96,-289.33 1105.27,-288.65 1108.5,-288 1201.35,-269.39 1228.02,-279.93 1318.5,-252 1436.2,-215.67 1565.81,-148.83 1629.93,-113.79"/>
<polygon fill="black" stroke="black" points="1631.62,-116.86 1638.69,-108.97 1628.24,-110.73 1631.62,-116.86"/>
</g>
<!-- judo&#45;tatami&#45;core (2)&#45;&gt;epsilon&#45;runtime (1) -->
<g id="edge81" class="edge">
<title>judo&#45;tatami&#45;core (2)&#45;&gt;epsilon&#45;runtime (1)</title>
<path fill="none" stroke="black" d="M1606.56,-73.68C1603.84,-73.1 1601.14,-72.54 1598.5,-72 1517.1,-55.47 1423.01,-39.93 1359.83,-30"/>
<polygon fill="black" stroke="black" points="1360.7,-26.6 1350.28,-28.51 1359.62,-33.51 1360.7,-26.6"/>
</g>
<!-- judo&#45;tatami&#45;core (2)&#45;&gt;emf&#45;genmodel&#45;generator (1) -->
<g id="edge80" class="edge">
<title>judo&#45;tatami&#45;core (2)&#45;&gt;emf&#45;genmodel&#45;generator (1)</title>
<path fill="none" stroke="black" d="M1606.62,-73.33C1603.88,-72.84 1601.17,-72.4 1598.5,-72 1354.14,-35.6 1286.39,-65.24 1038.1,-36.22"/>
<polygon fill="black" stroke="black" points="1038.75,-32.78 1028.41,-35.07 1037.92,-39.73 1038.75,-32.78"/>
</g>
<!-- judo&#45;tatami&#45;jsl (7)&#45;&gt;judo&#45;meta&#45;jsl (2) -->
<g id="edge82" class="edge">
<title>judo&#45;tatami&#45;jsl (7)&#45;&gt;judo&#45;meta&#45;jsl (2)</title>
<path fill="none" stroke="black" d="M480.06,-448.98C385.52,-445.54 209.5,-423.49 209.5,-307 209.5,-307 209.5,-307 209.5,-233 209.5,-177.23 154.13,-136.81 110.68,-113.68"/>
<polygon fill="black" stroke="black" points="112.33,-110.59 101.83,-109.14 109.13,-116.82 112.33,-110.59"/>
</g>
<!-- judo&#45;tatami&#45;jsl (7)&#45;&gt;judo&#45;runtime&#45;core (6) -->
<g id="edge83" class="edge">
<title>judo&#45;tatami&#45;jsl (7)&#45;&gt;judo&#45;runtime&#45;core (6)</title>
<path fill="none" stroke="black" d="M596.82,-442.38C708.1,-429.76 950.81,-402.22 1076.51,-387.96"/>
<polygon fill="black" stroke="black" points="1076.89,-391.44 1086.43,-386.84 1076.1,-384.49 1076.89,-391.44"/>
</g>
<!-- judo&#45;jsl&#45;springboot&#45;parent (8) -->
<g id="node35" class="node">
<title>judo&#45;jsl&#45;springboot&#45;parent (8)</title>
<polygon fill="none" stroke="black" points="536.5,-540 358.5,-540 358.5,-504 536.5,-504 536.5,-540"/>
<text text-anchor="middle" x="447.5" y="-518.3" font-family="Times,serif" font-size="14.00">judo&#45;jsl&#45;springboot&#45;parent (8)</text>
</g>
<!-- judo&#45;jsl&#45;springboot&#45;parent (8)&#45;&gt;judo&#45;tatami&#45;jsl (7) -->
<g id="edge84" class="edge">
<title>judo&#45;jsl&#45;springboot&#45;parent (8)&#45;&gt;judo&#45;tatami&#45;jsl (7)</title>
<path fill="none" stroke="black" d="M469.99,-503.7C481.15,-495.11 494.81,-484.61 506.99,-475.24"/>
<polygon fill="black" stroke="black" points="508.96,-478.14 514.75,-469.27 504.69,-472.59 508.96,-478.14"/>
</g>
<!-- judo&#45;jsl&#45;springboot&#45;starter (7) -->
<g id="node36" class="node">
<title>judo&#45;jsl&#45;springboot&#45;starter (7)</title>
<polygon fill="none" stroke="black" points="1244.5,-468 1066.5,-468 1066.5,-432 1244.5,-432 1244.5,-468"/>
<text text-anchor="middle" x="1155.5" y="-446.3" font-family="Times,serif" font-size="14.00">judo&#45;jsl&#45;springboot&#45;starter (7)</text>
</g>
<!-- judo&#45;jsl&#45;springboot&#45;starter (7)&#45;&gt;judo&#45;runtime&#45;core (6) -->
<g id="edge85" class="edge">
<title>judo&#45;jsl&#45;springboot&#45;starter (7)&#45;&gt;judo&#45;runtime&#45;core (6)</title>
<path fill="none" stroke="black" d="M1155.5,-431.7C1155.5,-424.41 1155.5,-415.73 1155.5,-407.54"/>
<polygon fill="black" stroke="black" points="1159,-407.62 1155.5,-397.62 1152,-407.62 1159,-407.62"/>
</g>
<!-- judo&#45;jsl&#45;springboot&#45;archetype (8) -->
<g id="node37" class="node">
<title>judo&#45;jsl&#45;springboot&#45;archetype (8)</title>
<polygon fill="none" stroke="black" points="1254,-540 1057,-540 1057,-504 1254,-504 1254,-540"/>
<text text-anchor="middle" x="1155.5" y="-518.3" font-family="Times,serif" font-size="14.00">judo&#45;jsl&#45;springboot&#45;archetype (8)</text>
</g>
<!-- judo&#45;jsl&#45;springboot&#45;archetype (8)&#45;&gt;judo&#45;jsl&#45;springboot&#45;starter (7) -->
<g id="edge86" class="edge">
<title>judo&#45;jsl&#45;springboot&#45;archetype (8)&#45;&gt;judo&#45;jsl&#45;springboot&#45;starter (7)</title>
<path fill="none" stroke="black" d="M1155.5,-503.7C1155.5,-496.41 1155.5,-487.73 1155.5,-479.54"/>
<polygon fill="black" stroke="black" points="1159,-479.62 1155.5,-469.62 1152,-479.62 1159,-479.62"/>
</g>
</g>
</svg>
