<?xml version="1.0" encoding="UTF-8" standalone="no"?>
<!DOCTYPE svg PUBLIC "-//W3C//DTD SVG 1.1//EN"
 "http://www.w3.org/Graphics/SVG/1.1/DTD/svg11.dtd">
<!-- Generated by graphviz version 2.49.0 (20210828.1703)
 -->
<!-- Pages: 1 -->
<svg width="1598pt" height="548pt"
 viewBox="0.00 0.00 1598.00 548.00" xmlns="http://www.w3.org/2000/svg" xmlns:xlink="http://www.w3.org/1999/xlink">
<g id="graph0" class="graph" transform="scale(1 1) rotate(0) translate(4 544)">
<polygon fill="white" stroke="transparent" points="-4,4 -4,-544 1594,-544 1594,4 -4,4"/>
<!-- epsilon&#45;runtime (1) -->
<g id="node1" class="node">
<title>epsilon&#45;runtime (1)</title>
<polygon fill="none" stroke="black" points="1552.5,-36 1430.5,-36 1430.5,0 1552.5,0 1552.5,-36"/>
<text text-anchor="middle" x="1491.5" y="-14.3" font-family="Times,serif" font-size="14.00">epsilon&#45;runtime (1)</text>
</g>
<!-- epsilon&#45;runtime&#45;eclipse (1) -->
<g id="node2" class="node">
<title>epsilon&#45;runtime&#45;eclipse (1)</title>
<polygon fill="none" stroke="black" points="1412.5,-36 1248.5,-36 1248.5,0 1412.5,0 1412.5,-36"/>
<text text-anchor="middle" x="1330.5" y="-14.3" font-family="Times,serif" font-size="14.00">epsilon&#45;runtime&#45;eclipse (1)</text>
</g>
<!-- emf&#45;genmodel&#45;generator (1) -->
<g id="node3" class="node">
<title>emf&#45;genmodel&#45;generator (1)</title>
<polygon fill="none" stroke="black" points="882.5,-36 710.5,-36 710.5,0 882.5,0 882.5,-36"/>
<text text-anchor="middle" x="796.5" y="-14.3" font-family="Times,serif" font-size="14.00">emf&#45;genmodel&#45;generator (1)</text>
</g>
<!-- judo&#45;genmodel&#45;generator (1) -->
<g id="node4" class="node">
<title>judo&#45;genmodel&#45;generator (1)</title>
<polygon fill="none" stroke="black" points="1074.5,-36 900.5,-36 900.5,0 1074.5,0 1074.5,-36"/>
<text text-anchor="middle" x="987.5" y="-14.3" font-family="Times,serif" font-size="14.00">judo&#45;genmodel&#45;generator (1)</text>
</g>
<!-- judo&#45;epp&#45;common (1) -->
<g id="node5" class="node">
<title>judo&#45;epp&#45;common (1)</title>
<polygon fill="none" stroke="black" points="1230,-36 1093,-36 1093,0 1230,0 1230,-36"/>
<text text-anchor="middle" x="1161.5" y="-14.3" font-family="Times,serif" font-size="14.00">judo&#45;epp&#45;common (1)</text>
</g>
<!-- osgi&#45;utils (1) -->
<g id="node6" class="node">
<title>osgi&#45;utils (1)</title>
<polygon fill="none" stroke="black" points="562.5,-36 476.5,-36 476.5,0 562.5,0 562.5,-36"/>
<text text-anchor="middle" x="519.5" y="-14.3" font-family="Times,serif" font-size="14.00">osgi&#45;utils (1)</text>
</g>
<!-- java&#45;embedded&#45;compiler (1) -->
<g id="node7" class="node">
<title>java&#45;embedded&#45;compiler (1)</title>
<polygon fill="none" stroke="black" points="587,-252 414,-252 414,-216 587,-216 587,-252"/>
<text text-anchor="middle" x="500.5" y="-230.3" font-family="Times,serif" font-size="14.00">java&#45;embedded&#45;compiler (1)</text>
</g>
<!-- structured&#45;map&#45;proxy (1) -->
<g id="node8" class="node">
<title>structured&#45;map&#45;proxy (1)</title>
<polygon fill="none" stroke="black" points="835,-108 680,-108 680,-72 835,-72 835,-108"/>
<text text-anchor="middle" x="757.5" y="-86.3" font-family="Times,serif" font-size="14.00">structured&#45;map&#45;proxy (1)</text>
</g>
<!-- karaf&#45;features (1) -->
<g id="node9" class="node">
<title>karaf&#45;features (1)</title>
<polygon fill="none" stroke="black" points="692,-36 581,-36 581,0 692,0 692,-36"/>
<text text-anchor="middle" x="636.5" y="-14.3" font-family="Times,serif" font-size="14.00">karaf&#45;features (1)</text>
</g>
<!-- mapper (1) -->
<g id="node10" class="node">
<title>mapper (1)</title>
<polygon fill="none" stroke="black" points="1001,-324 924,-324 924,-288 1001,-288 1001,-324"/>
<text text-anchor="middle" x="962.5" y="-302.3" font-family="Times,serif" font-size="14.00">mapper (1)</text>
</g>
<!-- osgi&#45;liquibase (1) -->
<g id="node11" class="node">
<title>osgi&#45;liquibase (1)</title>
<polygon fill="none" stroke="black" points="1098.5,-540 986.5,-540 986.5,-504 1098.5,-504 1098.5,-540"/>
<text text-anchor="middle" x="1042.5" y="-518.3" font-family="Times,serif" font-size="14.00">osgi&#45;liquibase (1)</text>
</g>
<!-- osgi&#45;filestore (1) -->
<g id="node12" class="node">
<title>osgi&#45;filestore (1)</title>
<polygon fill="none" stroke="black" points="906,-324 799,-324 799,-288 906,-288 906,-324"/>
<text text-anchor="middle" x="852.5" y="-302.3" font-family="Times,serif" font-size="14.00">osgi&#45;filestore (1)</text>
</g>
<!-- judo&#45;misc&#45;p2 (1) -->
<g id="node13" class="node">
<title>judo&#45;misc&#45;p2 (1)</title>
<polygon fill="none" stroke="black" points="114,-36 5,-36 5,0 114,0 114,-36"/>
<text text-anchor="middle" x="59.5" y="-14.3" font-family="Times,serif" font-size="14.00">judo&#45;misc&#45;p2 (1)</text>
</g>
<!-- judo&#45;dao&#45;api (1) -->
<g id="node14" class="node">
<title>judo&#45;dao&#45;api (1)</title>
<polygon fill="none" stroke="black" points="396,-108 291,-108 291,-72 396,-72 396,-108"/>
<text text-anchor="middle" x="343.5" y="-86.3" font-family="Times,serif" font-size="14.00">judo&#45;dao&#45;api (1)</text>
</g>
<!-- judo&#45;dispatcher&#45;api (1) -->
<g id="node15" class="node">
<title>judo&#45;dispatcher&#45;api (1)</title>
<polygon fill="none" stroke="black" points="273,-108 132,-108 132,-72 273,-72 273,-108"/>
<text text-anchor="middle" x="202.5" y="-86.3" font-family="Times,serif" font-size="14.00">judo&#45;dispatcher&#45;api (1)</text>
</g>
<!-- judo&#45;jsl&#45;vscode (3) -->
<g id="node16" class="node">
<title>judo&#45;jsl&#45;vscode (3)</title>
<polygon fill="none" stroke="black" points="119,-180 0,-180 0,-144 119,-144 119,-180"/>
<text text-anchor="middle" x="59.5" y="-158.3" font-family="Times,serif" font-size="14.00">judo&#45;jsl&#45;vscode (3)</text>
</g>
<!-- judo&#45;meta&#45;jsl (2) -->
<g id="node22" class="node">
<title>judo&#45;meta&#45;jsl (2)</title>
<polygon fill="none" stroke="black" points="114,-108 5,-108 5,-72 114,-72 114,-108"/>
<text text-anchor="middle" x="59.5" y="-86.3" font-family="Times,serif" font-size="14.00">judo&#45;meta&#45;jsl (2)</text>
</g>
<!-- judo&#45;jsl&#45;vscode (3)&#45;&gt;judo&#45;meta&#45;jsl (2) -->
<g id="edge1" class="edge">
<title>judo&#45;jsl&#45;vscode (3)&#45;&gt;judo&#45;meta&#45;jsl (2)</title>
<path fill="none" stroke="black" d="M59.5,-143.7C59.5,-135.98 59.5,-126.71 59.5,-118.11"/>
<polygon fill="black" stroke="black" points="63,-118.1 59.5,-108.1 56,-118.1 63,-118.1"/>
</g>
<!-- judo&#45;meta&#45;asm (2) -->
<g id="node17" class="node">
<title>judo&#45;meta&#45;asm (2)</title>
<polygon fill="none" stroke="black" points="662,-108 543,-108 543,-72 662,-72 662,-108"/>
<text text-anchor="middle" x="602.5" y="-86.3" font-family="Times,serif" font-size="14.00">judo&#45;meta&#45;asm (2)</text>
</g>
<!-- judo&#45;meta&#45;asm (2)&#45;&gt;epsilon&#45;runtime (1) -->
<g id="edge4" class="edge">
<title>judo&#45;meta&#45;asm (2)&#45;&gt;epsilon&#45;runtime (1)</title>
<path fill="none" stroke="black" d="M662.07,-73.4C664.91,-72.88 667.73,-72.41 670.5,-72 997.69,-23.74 1088.89,-82.42 1419.81,-36.07"/>
<polygon fill="black" stroke="black" points="1420.76,-39.47 1430.17,-34.59 1419.78,-32.54 1420.76,-39.47"/>
</g>
<!-- judo&#45;meta&#45;asm (2)&#45;&gt;epsilon&#45;runtime&#45;eclipse (1) -->
<g id="edge5" class="edge">
<title>judo&#45;meta&#45;asm (2)&#45;&gt;epsilon&#45;runtime&#45;eclipse (1)</title>
<path fill="none" stroke="black" d="M662.08,-73.45C664.92,-72.92 667.73,-72.43 670.5,-72 917.59,-33.62 986.25,-66.43 1238.04,-36.08"/>
<polygon fill="black" stroke="black" points="1238.73,-39.52 1248.23,-34.83 1237.88,-32.58 1238.73,-39.52"/>
</g>
<!-- judo&#45;meta&#45;asm (2)&#45;&gt;emf&#45;genmodel&#45;generator (1) -->
<g id="edge7" class="edge">
<title>judo&#45;meta&#45;asm (2)&#45;&gt;emf&#45;genmodel&#45;generator (1)</title>
<path fill="none" stroke="black" d="M649.96,-71.88C677.07,-62.09 711.24,-49.77 739.76,-39.47"/>
<polygon fill="black" stroke="black" points="740.98,-42.75 749.2,-36.07 738.6,-36.17 740.98,-42.75"/>
</g>
<!-- judo&#45;meta&#45;asm (2)&#45;&gt;judo&#45;genmodel&#45;generator (1) -->
<g id="edge8" class="edge">
<title>judo&#45;meta&#45;asm (2)&#45;&gt;judo&#45;genmodel&#45;generator (1)</title>
<path fill="none" stroke="black" d="M662.14,-73.79C664.96,-73.17 667.76,-72.56 670.5,-72 764.83,-52.56 791.68,-52.65 890.29,-36.18"/>
<polygon fill="black" stroke="black" points="891.11,-39.59 900.39,-34.48 889.95,-32.69 891.11,-39.59"/>
</g>
<!-- judo&#45;meta&#45;asm (2)&#45;&gt;judo&#45;epp&#45;common (1) -->
<g id="edge2" class="edge">
<title>judo&#45;meta&#45;asm (2)&#45;&gt;judo&#45;epp&#45;common (1)</title>
<path fill="none" stroke="black" d="M662.09,-73.54C664.93,-72.98 667.74,-72.46 670.5,-72 849.03,-42.1 899.57,-62.91 1082.72,-35.99"/>
<polygon fill="black" stroke="black" points="1083.31,-39.44 1092.69,-34.5 1082.28,-32.52 1083.31,-39.44"/>
</g>
<!-- judo&#45;meta&#45;asm (2)&#45;&gt;osgi&#45;utils (1) -->
<g id="edge3" class="edge">
<title>judo&#45;meta&#45;asm (2)&#45;&gt;osgi&#45;utils (1)</title>
<path fill="none" stroke="black" d="M581.98,-71.7C571.63,-62.97 558.91,-52.24 547.66,-42.75"/>
<polygon fill="black" stroke="black" points="549.68,-39.88 539.78,-36.1 545.17,-45.23 549.68,-39.88"/>
</g>
<!-- judo&#45;meta&#45;asm (2)&#45;&gt;karaf&#45;features (1) -->
<g id="edge6" class="edge">
<title>judo&#45;meta&#45;asm (2)&#45;&gt;karaf&#45;features (1)</title>
<path fill="none" stroke="black" d="M610.9,-71.7C614.77,-63.73 619.45,-54.1 623.74,-45.26"/>
<polygon fill="black" stroke="black" points="626.97,-46.63 628.19,-36.1 620.67,-43.57 626.97,-46.63"/>
</g>
<!-- judo&#45;meta&#45;expression (3) -->
<g id="node18" class="node">
<title>judo&#45;meta&#45;expression (3)</title>
<polygon fill="none" stroke="black" points="941.5,-180 787.5,-180 787.5,-144 941.5,-144 941.5,-180"/>
<text text-anchor="middle" x="864.5" y="-158.3" font-family="Times,serif" font-size="14.00">judo&#45;meta&#45;expression (3)</text>
</g>
<!-- judo&#45;meta&#45;jql (2) -->
<g id="node21" class="node">
<title>judo&#45;meta&#45;jql (2)</title>
<polygon fill="none" stroke="black" points="524.5,-108 414.5,-108 414.5,-72 524.5,-72 524.5,-108"/>
<text text-anchor="middle" x="469.5" y="-86.3" font-family="Times,serif" font-size="14.00">judo&#45;meta&#45;jql (2)</text>
</g>
<!-- judo&#45;meta&#45;expression (3)&#45;&gt;judo&#45;meta&#45;jql (2) -->
<g id="edge9" class="edge">
<title>judo&#45;meta&#45;expression (3)&#45;&gt;judo&#45;meta&#45;jql (2)</title>
<path fill="none" stroke="black" d="M787.18,-150.87C722.2,-141.84 626.74,-127.37 534.63,-108.13"/>
<polygon fill="black" stroke="black" points="535.08,-104.65 524.57,-106.01 533.63,-111.5 535.08,-104.65"/>
</g>
<!-- judo&#45;meta&#45;measure (2) -->
<g id="node24" class="node">
<title>judo&#45;meta&#45;measure (2)</title>
<polygon fill="none" stroke="black" points="995.5,-108 853.5,-108 853.5,-72 995.5,-72 995.5,-108"/>
<text text-anchor="middle" x="924.5" y="-86.3" font-family="Times,serif" font-size="14.00">judo&#45;meta&#45;measure (2)</text>
</g>
<!-- judo&#45;meta&#45;expression (3)&#45;&gt;judo&#45;meta&#45;measure (2) -->
<g id="edge10" class="edge">
<title>judo&#45;meta&#45;expression (3)&#45;&gt;judo&#45;meta&#45;measure (2)</title>
<path fill="none" stroke="black" d="M879.33,-143.7C886.52,-135.3 895.3,-125.07 903.19,-115.86"/>
<polygon fill="black" stroke="black" points="905.99,-117.97 909.84,-108.1 900.67,-113.42 905.99,-117.97"/>
</g>
<!-- judo&#45;meta&#45;expression&#45;asm (4) -->
<g id="node19" class="node">
<title>judo&#45;meta&#45;expression&#45;asm (4)</title>
<polygon fill="none" stroke="black" points="863,-252 682,-252 682,-216 863,-216 863,-252"/>
<text text-anchor="middle" x="772.5" y="-230.3" font-family="Times,serif" font-size="14.00">judo&#45;meta&#45;expression&#45;asm (4)</text>
</g>
<!-- judo&#45;meta&#45;expression&#45;asm (4)&#45;&gt;judo&#45;meta&#45;asm (2) -->
<g id="edge12" class="edge">
<title>judo&#45;meta&#45;expression&#45;asm (4)&#45;&gt;judo&#45;meta&#45;asm (2)</title>
<path fill="none" stroke="black" d="M768.39,-215.7C762.88,-195.94 751.28,-163.8 730.5,-144 714.12,-128.39 692.48,-117.09 671.68,-109.05"/>
<polygon fill="black" stroke="black" points="672.79,-105.73 662.2,-105.58 670.38,-112.31 672.79,-105.73"/>
</g>
<!-- judo&#45;meta&#45;expression&#45;asm (4)&#45;&gt;judo&#45;meta&#45;expression (3) -->
<g id="edge11" class="edge">
<title>judo&#45;meta&#45;expression&#45;asm (4)&#45;&gt;judo&#45;meta&#45;expression (3)</title>
<path fill="none" stroke="black" d="M795.24,-215.7C806.94,-206.8 821.36,-195.82 834.01,-186.2"/>
<polygon fill="black" stroke="black" points="836.18,-188.94 842.02,-180.1 831.94,-183.37 836.18,-188.94"/>
</g>
<!-- judo&#45;meta&#45;expression&#45;psm (4) -->
<g id="node20" class="node">
<title>judo&#45;meta&#45;expression&#45;psm (4)</title>
<polygon fill="none" stroke="black" points="1063.5,-252 881.5,-252 881.5,-216 1063.5,-216 1063.5,-252"/>
<text text-anchor="middle" x="972.5" y="-230.3" font-family="Times,serif" font-size="14.00">judo&#45;meta&#45;expression&#45;psm (4)</text>
</g>
<!-- judo&#45;meta&#45;expression&#45;psm (4)&#45;&gt;judo&#45;meta&#45;expression (3) -->
<g id="edge13" class="edge">
<title>judo&#45;meta&#45;expression&#45;psm (4)&#45;&gt;judo&#45;meta&#45;expression (3)</title>
<path fill="none" stroke="black" d="M946.08,-215.88C932.09,-206.81 914.72,-195.55 899.61,-185.76"/>
<polygon fill="black" stroke="black" points="901.32,-182.69 891.02,-180.19 897.51,-188.57 901.32,-182.69"/>
</g>
<!-- judo&#45;meta&#45;psm (2) -->
<g id="node25" class="node">
<title>judo&#45;meta&#45;psm (2)</title>
<polygon fill="none" stroke="black" points="1133,-108 1014,-108 1014,-72 1133,-72 1133,-108"/>
<text text-anchor="middle" x="1073.5" y="-86.3" font-family="Times,serif" font-size="14.00">judo&#45;meta&#45;psm (2)</text>
</g>
<!-- judo&#45;meta&#45;expression&#45;psm (4)&#45;&gt;judo&#45;meta&#45;psm (2) -->
<g id="edge14" class="edge">
<title>judo&#45;meta&#45;expression&#45;psm (4)&#45;&gt;judo&#45;meta&#45;psm (2)</title>
<path fill="none" stroke="black" d="M972.62,-215.74C973.56,-196.61 977.52,-165.6 992.5,-144 1001.06,-131.66 1013.51,-121.47 1026.1,-113.44"/>
<polygon fill="black" stroke="black" points="1028.02,-116.38 1034.79,-108.23 1024.42,-110.37 1028.02,-116.38"/>
</g>
<!-- judo&#45;meta&#45;jql (2)&#45;&gt;emf&#45;genmodel&#45;generator (1) -->
<g id="edge18" class="edge">
<title>judo&#45;meta&#45;jql (2)&#45;&gt;emf&#45;genmodel&#45;generator (1)</title>
<path fill="none" stroke="black" d="M524.6,-74.14C527.61,-73.4 530.59,-72.68 533.5,-72 588.57,-59.15 650.56,-46.57 700.51,-36.89"/>
<polygon fill="black" stroke="black" points="701.18,-40.33 710.34,-34.99 699.86,-33.45 701.18,-40.33"/>
</g>
<!-- judo&#45;meta&#45;jql (2)&#45;&gt;judo&#45;genmodel&#45;generator (1) -->
<g id="edge19" class="edge">
<title>judo&#45;meta&#45;jql (2)&#45;&gt;judo&#45;genmodel&#45;generator (1)</title>
<path fill="none" stroke="black" d="M524.53,-73.79C527.56,-73.14 530.56,-72.53 533.5,-72 687.61,-43.97 731.32,-57.38 890.29,-36.1"/>
<polygon fill="black" stroke="black" points="890.99,-39.53 900.42,-34.71 890.04,-32.6 890.99,-39.53"/>
</g>
<!-- judo&#45;meta&#45;jql (2)&#45;&gt;judo&#45;epp&#45;common (1) -->
<g id="edge15" class="edge">
<title>judo&#45;meta&#45;jql (2)&#45;&gt;judo&#45;epp&#45;common (1)</title>
<path fill="none" stroke="black" d="M524.51,-73.66C527.54,-73.04 530.55,-72.48 533.5,-72 771.94,-32.91 839.1,-69.16 1082.47,-36"/>
<polygon fill="black" stroke="black" points="1083.27,-39.42 1092.7,-34.58 1082.31,-32.49 1083.27,-39.42"/>
</g>
<!-- judo&#45;meta&#45;jql (2)&#45;&gt;osgi&#45;utils (1) -->
<g id="edge16" class="edge">
<title>judo&#45;meta&#45;jql (2)&#45;&gt;osgi&#45;utils (1)</title>
<path fill="none" stroke="black" d="M481.86,-71.7C487.73,-63.47 494.87,-53.48 501.34,-44.42"/>
<polygon fill="black" stroke="black" points="504.32,-46.28 507.28,-36.1 498.62,-42.21 504.32,-46.28"/>
</g>
<!-- judo&#45;meta&#45;jql (2)&#45;&gt;karaf&#45;features (1) -->
<g id="edge17" class="edge">
<title>judo&#45;meta&#45;jql (2)&#45;&gt;karaf&#45;features (1)</title>
<path fill="none" stroke="black" d="M510.35,-71.88C533.28,-62.26 562.08,-50.19 586.37,-40.01"/>
<polygon fill="black" stroke="black" points="587.91,-43.16 595.78,-36.07 585.2,-36.71 587.91,-43.16"/>
</g>
<!-- judo&#45;meta&#45;jsl (2)&#45;&gt;emf&#45;genmodel&#45;generator (1) -->
<g id="edge24" class="edge">
<title>judo&#45;meta&#45;jsl (2)&#45;&gt;emf&#45;genmodel&#45;generator (1)</title>
<path fill="none" stroke="black" d="M114.33,-73.51C117.08,-72.95 119.82,-72.44 122.5,-72 376.48,-30.26 444.93,-66.49 700.5,-36 700.6,-35.99 700.7,-35.98 700.81,-35.96"/>
<polygon fill="black" stroke="black" points="701.01,-39.47 710.48,-34.72 700.11,-32.52 701.01,-39.47"/>
</g>
<!-- judo&#45;meta&#45;jsl (2)&#45;&gt;judo&#45;genmodel&#45;generator (1) -->
<g id="edge25" class="edge">
<title>judo&#45;meta&#45;jsl (2)&#45;&gt;judo&#45;genmodel&#45;generator (1)</title>
<path fill="none" stroke="black" d="M114.32,-73.46C117.08,-72.91 119.81,-72.42 122.5,-72 457.24,-19.64 549.66,-72.85 890.3,-36.03"/>
<polygon fill="black" stroke="black" points="890.89,-39.49 900.45,-34.92 890.13,-32.53 890.89,-39.49"/>
</g>
<!-- judo&#45;meta&#45;jsl (2)&#45;&gt;judo&#45;epp&#45;common (1) -->
<g id="edge20" class="edge">
<title>judo&#45;meta&#45;jsl (2)&#45;&gt;judo&#45;epp&#45;common (1)</title>
<path fill="none" stroke="black" d="M114.32,-73.42C117.07,-72.89 119.81,-72.41 122.5,-72 541.78,-8.42 657.67,-88.45 1082.62,-35.95"/>
<polygon fill="black" stroke="black" points="1083.22,-39.4 1092.71,-34.68 1082.35,-32.45 1083.22,-39.4"/>
</g>
<!-- judo&#45;meta&#45;jsl (2)&#45;&gt;osgi&#45;utils (1) -->
<g id="edge22" class="edge">
<title>judo&#45;meta&#45;jsl (2)&#45;&gt;osgi&#45;utils (1)</title>
<path fill="none" stroke="black" d="M114.03,-73.82C116.89,-73.17 119.72,-72.56 122.5,-72 244.26,-47.55 389.36,-31.42 465.96,-23.9"/>
<polygon fill="black" stroke="black" points="466.69,-27.35 476.31,-22.9 466.02,-20.38 466.69,-27.35"/>
</g>
<!-- judo&#45;meta&#45;jsl (2)&#45;&gt;karaf&#45;features (1) -->
<g id="edge23" class="edge">
<title>judo&#45;meta&#45;jsl (2)&#45;&gt;karaf&#45;features (1)</title>
<path fill="none" stroke="black" d="M114.34,-73.57C117.09,-72.99 119.82,-72.46 122.5,-72 316.57,-38.33 372.33,-68.45 571.09,-35.86"/>
<polygon fill="black" stroke="black" points="571.68,-39.31 580.97,-34.21 570.53,-32.41 571.68,-39.31"/>
</g>
<!-- judo&#45;meta&#45;jsl (2)&#45;&gt;judo&#45;misc&#45;p2 (1) -->
<g id="edge21" class="edge">
<title>judo&#45;meta&#45;jsl (2)&#45;&gt;judo&#45;misc&#45;p2 (1)</title>
<path fill="none" stroke="black" d="M59.5,-71.7C59.5,-63.98 59.5,-54.71 59.5,-46.11"/>
<polygon fill="black" stroke="black" points="63,-46.1 59.5,-36.1 56,-46.1 63,-46.1"/>
</g>
<!-- judo&#45;meta&#45;liquibase (2) -->
<g id="node23" class="node">
<title>judo&#45;meta&#45;liquibase (2)</title>
<polygon fill="none" stroke="black" points="1445,-108 1300,-108 1300,-72 1445,-72 1445,-108"/>
<text text-anchor="middle" x="1372.5" y="-86.3" font-family="Times,serif" font-size="14.00">judo&#45;meta&#45;liquibase (2)</text>
</g>
<!-- judo&#45;meta&#45;liquibase (2)&#45;&gt;epsilon&#45;runtime (1) -->
<g id="edge28" class="edge">
<title>judo&#45;meta&#45;liquibase (2)&#45;&gt;epsilon&#45;runtime (1)</title>
<path fill="none" stroke="black" d="M1401.61,-71.88C1417.17,-62.72 1436.52,-51.34 1453.28,-41.48"/>
<polygon fill="black" stroke="black" points="1455.43,-44.28 1462.28,-36.19 1451.88,-38.24 1455.43,-44.28"/>
</g>
<!-- judo&#45;meta&#45;liquibase (2)&#45;&gt;epsilon&#45;runtime&#45;eclipse (1) -->
<g id="edge29" class="edge">
<title>judo&#45;meta&#45;liquibase (2)&#45;&gt;epsilon&#45;runtime&#45;eclipse (1)</title>
<path fill="none" stroke="black" d="M1362.12,-71.7C1357.24,-63.56 1351.31,-53.69 1345.92,-44.7"/>
<polygon fill="black" stroke="black" points="1348.91,-42.88 1340.76,-36.1 1342.91,-46.48 1348.91,-42.88"/>
</g>
<!-- judo&#45;meta&#45;liquibase (2)&#45;&gt;emf&#45;genmodel&#45;generator (1) -->
<g id="edge31" class="edge">
<title>judo&#45;meta&#45;liquibase (2)&#45;&gt;emf&#45;genmodel&#45;generator (1)</title>
<path fill="none" stroke="black" d="M1299.71,-73.3C1296.95,-72.84 1294.2,-72.4 1291.5,-72 1118.15,-46.1 1070.13,-59.25 892.59,-36.07"/>
<polygon fill="black" stroke="black" points="893.04,-32.6 882.66,-34.76 892.12,-39.54 893.04,-32.6"/>
</g>
<!-- judo&#45;meta&#45;liquibase (2)&#45;&gt;judo&#45;genmodel&#45;generator (1) -->
<g id="edge32" class="edge">
<title>judo&#45;meta&#45;liquibase (2)&#45;&gt;judo&#45;genmodel&#45;generator (1)</title>
<path fill="none" stroke="black" d="M1299.67,-73.59C1296.91,-73.05 1294.18,-72.51 1291.5,-72 1202.84,-54.99 1178.11,-52.23 1084.63,-36.02"/>
<polygon fill="black" stroke="black" points="1085.2,-32.56 1074.75,-34.3 1084,-39.46 1085.2,-32.56"/>
</g>
<!-- judo&#45;meta&#45;liquibase (2)&#45;&gt;judo&#45;epp&#45;common (1) -->
<g id="edge26" class="edge">
<title>judo&#45;meta&#45;liquibase (2)&#45;&gt;judo&#45;epp&#45;common (1)</title>
<path fill="none" stroke="black" d="M1321.15,-71.97C1291.54,-62.14 1254.13,-49.73 1222.96,-39.39"/>
<polygon fill="black" stroke="black" points="1223.67,-35.94 1213.08,-36.11 1221.47,-42.58 1223.67,-35.94"/>
</g>
<!-- judo&#45;meta&#45;liquibase (2)&#45;&gt;osgi&#45;utils (1) -->
<g id="edge27" class="edge">
<title>judo&#45;meta&#45;liquibase (2)&#45;&gt;osgi&#45;utils (1)</title>
<path fill="none" stroke="black" d="M1299.73,-73.17C1296.96,-72.74 1294.21,-72.35 1291.5,-72 977,-31.39 888.36,-93.01 572.58,-35.88"/>
<polygon fill="black" stroke="black" points="573.16,-32.43 562.69,-34.07 571.89,-39.32 573.16,-32.43"/>
</g>
<!-- judo&#45;meta&#45;liquibase (2)&#45;&gt;karaf&#45;features (1) -->
<g id="edge30" class="edge">
<title>judo&#45;meta&#45;liquibase (2)&#45;&gt;karaf&#45;features (1)</title>
<path fill="none" stroke="black" d="M1299.73,-73.2C1296.96,-72.77 1294.21,-72.36 1291.5,-72 1034.45,-37.37 962.74,-76.42 702.16,-35.88"/>
<polygon fill="black" stroke="black" points="702.44,-32.38 692.02,-34.28 701.35,-39.3 702.44,-32.38"/>
</g>
<!-- judo&#45;meta&#45;measure (2)&#45;&gt;epsilon&#45;runtime (1) -->
<g id="edge35" class="edge">
<title>judo&#45;meta&#45;measure (2)&#45;&gt;epsilon&#45;runtime (1)</title>
<path fill="none" stroke="black" d="M995.53,-73.59C998.89,-73.02 1002.23,-72.48 1005.5,-72 1185.86,-45.37 1236.58,-65.26 1420.16,-36.07"/>
<polygon fill="black" stroke="black" points="1420.83,-39.51 1430.15,-34.46 1419.72,-32.6 1420.83,-39.51"/>
</g>
<!-- judo&#45;meta&#45;measure (2)&#45;&gt;epsilon&#45;runtime&#45;eclipse (1) -->
<g id="edge36" class="edge">
<title>judo&#45;meta&#45;measure (2)&#45;&gt;epsilon&#45;runtime&#45;eclipse (1)</title>
<path fill="none" stroke="black" d="M995.58,-73.86C998.93,-73.21 1002.25,-72.59 1005.5,-72 1105.89,-53.76 1134.08,-53.65 1238.2,-36.19"/>
<polygon fill="black" stroke="black" points="1238.9,-39.62 1248.18,-34.5 1237.74,-32.72 1238.9,-39.62"/>
</g>
<!-- judo&#45;meta&#45;measure (2)&#45;&gt;emf&#45;genmodel&#45;generator (1) -->
<g id="edge38" class="edge">
<title>judo&#45;meta&#45;measure (2)&#45;&gt;emf&#45;genmodel&#45;generator (1)</title>
<path fill="none" stroke="black" d="M893.19,-71.88C876.3,-62.64 855.25,-51.13 837.12,-41.21"/>
<polygon fill="black" stroke="black" points="838.39,-37.92 827.93,-36.19 835.03,-44.06 838.39,-37.92"/>
</g>
<!-- judo&#45;meta&#45;measure (2)&#45;&gt;judo&#45;genmodel&#45;generator (1) -->
<g id="edge39" class="edge">
<title>judo&#45;meta&#45;measure (2)&#45;&gt;judo&#45;genmodel&#45;generator (1)</title>
<path fill="none" stroke="black" d="M940.07,-71.7C947.7,-63.22 957.02,-52.86 965.38,-43.58"/>
<polygon fill="black" stroke="black" points="968.02,-45.88 972.11,-36.1 962.81,-41.2 968.02,-45.88"/>
</g>
<!-- judo&#45;meta&#45;measure (2)&#45;&gt;judo&#45;epp&#45;common (1) -->
<g id="edge33" class="edge">
<title>judo&#45;meta&#45;measure (2)&#45;&gt;judo&#45;epp&#45;common (1)</title>
<path fill="none" stroke="black" d="M982.17,-71.97C1015.86,-62.01 1058.55,-49.41 1093.83,-38.99"/>
<polygon fill="black" stroke="black" points="1094.97,-42.3 1103.57,-36.11 1092.99,-35.59 1094.97,-42.3"/>
</g>
<!-- judo&#45;meta&#45;measure (2)&#45;&gt;osgi&#45;utils (1) -->
<g id="edge34" class="edge">
<title>judo&#45;meta&#45;measure (2)&#45;&gt;osgi&#45;utils (1)</title>
<path fill="none" stroke="black" d="M853.44,-73.77C850.08,-73.15 846.76,-72.56 843.5,-72 726.47,-52 692.2,-62.47 572.65,-36.03"/>
<polygon fill="black" stroke="black" points="573.27,-32.58 562.74,-33.8 571.73,-39.41 573.27,-32.58"/>
</g>
<!-- judo&#45;meta&#45;measure (2)&#45;&gt;karaf&#45;features (1) -->
<g id="edge37" class="edge">
<title>judo&#45;meta&#45;measure (2)&#45;&gt;karaf&#45;features (1)</title>
<path fill="none" stroke="black" d="M853.35,-72.52C811.9,-62.82 758.41,-50.13 701.97,-36.09"/>
<polygon fill="black" stroke="black" points="702.7,-32.67 692.15,-33.64 701,-39.46 702.7,-32.67"/>
</g>
<!-- judo&#45;meta&#45;psm (2)&#45;&gt;epsilon&#45;runtime (1) -->
<g id="edge42" class="edge">
<title>judo&#45;meta&#45;psm (2)&#45;&gt;epsilon&#45;runtime (1)</title>
<path fill="none" stroke="black" d="M1133.25,-73.84C1136.37,-73.19 1139.47,-72.57 1142.5,-72 1262.16,-49.61 1296.75,-58.29 1419.92,-36.18"/>
<polygon fill="black" stroke="black" points="1420.91,-39.55 1430.12,-34.31 1419.66,-32.67 1420.91,-39.55"/>
</g>
<!-- judo&#45;meta&#45;psm (2)&#45;&gt;epsilon&#45;runtime&#45;eclipse (1) -->
<g id="edge43" class="edge">
<title>judo&#45;meta&#45;psm (2)&#45;&gt;epsilon&#45;runtime&#45;eclipse (1)</title>
<path fill="none" stroke="black" d="M1133.11,-72.76C1170.43,-62.6 1218.75,-49.44 1258.24,-38.68"/>
<polygon fill="black" stroke="black" points="1259.35,-42.01 1268.08,-36 1257.51,-35.25 1259.35,-42.01"/>
</g>
<!-- judo&#45;meta&#45;psm (2)&#45;&gt;emf&#45;genmodel&#45;generator (1) -->
<g id="edge45" class="edge">
<title>judo&#45;meta&#45;psm (2)&#45;&gt;emf&#45;genmodel&#45;generator (1)</title>
<path fill="none" stroke="black" d="M1013.74,-73.9C972.78,-63.55 918.07,-49.72 873.79,-38.53"/>
<polygon fill="black" stroke="black" points="874.49,-35.1 863.94,-36.04 872.78,-41.89 874.49,-35.1"/>
</g>
<!-- judo&#45;meta&#45;psm (2)&#45;&gt;judo&#45;genmodel&#45;generator (1) -->
<g id="edge46" class="edge">
<title>judo&#45;meta&#45;psm (2)&#45;&gt;judo&#45;genmodel&#45;generator (1)</title>
<path fill="none" stroke="black" d="M1052.24,-71.7C1041.41,-62.88 1028.08,-52.03 1016.34,-42.47"/>
<polygon fill="black" stroke="black" points="1018.48,-39.7 1008.51,-36.1 1014.06,-45.13 1018.48,-39.7"/>
</g>
<!-- judo&#45;meta&#45;psm (2)&#45;&gt;judo&#45;epp&#45;common (1) -->
<g id="edge40" class="edge">
<title>judo&#45;meta&#45;psm (2)&#45;&gt;judo&#45;epp&#45;common (1)</title>
<path fill="none" stroke="black" d="M1095.25,-71.7C1106.34,-62.88 1119.97,-52.03 1131.99,-42.47"/>
<polygon fill="black" stroke="black" points="1134.35,-45.07 1140,-36.1 1129.99,-39.59 1134.35,-45.07"/>
</g>
<!-- judo&#45;meta&#45;psm (2)&#45;&gt;osgi&#45;utils (1) -->
<g id="edge41" class="edge">
<title>judo&#45;meta&#45;psm (2)&#45;&gt;osgi&#45;utils (1)</title>
<path fill="none" stroke="black" d="M1013.78,-73.67C1010.65,-73.06 1007.54,-72.5 1004.5,-72 817.18,-41.34 762.64,-73.14 572.74,-35.96"/>
<polygon fill="black" stroke="black" points="573.2,-32.49 562.71,-33.96 571.83,-39.35 573.2,-32.49"/>
</g>
<!-- judo&#45;meta&#45;psm (2)&#45;&gt;karaf&#45;features (1) -->
<g id="edge44" class="edge">
<title>judo&#45;meta&#45;psm (2)&#45;&gt;karaf&#45;features (1)</title>
<path fill="none" stroke="black" d="M1013.76,-73.8C1010.63,-73.16 1007.53,-72.55 1004.5,-72 874.2,-48.3 836.5,-60.61 701.92,-35.91"/>
<polygon fill="black" stroke="black" points="702.53,-32.46 692.06,-34.07 701.24,-39.34 702.53,-32.46"/>
</g>
<!-- judo&#45;meta&#45;query (2) -->
<g id="node26" class="node">
<title>judo&#45;meta&#45;query (2)</title>
<polygon fill="none" stroke="black" points="1590,-108 1463,-108 1463,-72 1590,-72 1590,-108"/>
<text text-anchor="middle" x="1526.5" y="-86.3" font-family="Times,serif" font-size="14.00">judo&#45;meta&#45;query (2)</text>
</g>
<!-- judo&#45;meta&#45;query (2)&#45;&gt;epsilon&#45;runtime (1) -->
<g id="edge49" class="edge">
<title>judo&#45;meta&#45;query (2)&#45;&gt;epsilon&#45;runtime (1)</title>
<path fill="none" stroke="black" d="M1517.85,-71.7C1513.86,-63.73 1509.05,-54.1 1504.63,-45.26"/>
<polygon fill="black" stroke="black" points="1507.65,-43.48 1500.05,-36.1 1501.39,-46.61 1507.65,-43.48"/>
</g>
<!-- judo&#45;meta&#45;query (2)&#45;&gt;epsilon&#45;runtime&#45;eclipse (1) -->
<g id="edge50" class="edge">
<title>judo&#45;meta&#45;query (2)&#45;&gt;epsilon&#45;runtime&#45;eclipse (1)</title>
<path fill="none" stroke="black" d="M1478.8,-71.97C1451.42,-62.19 1416.84,-49.84 1387.97,-39.52"/>
<polygon fill="black" stroke="black" points="1389,-36.18 1378.41,-36.11 1386.65,-42.77 1389,-36.18"/>
</g>
<!-- judo&#45;meta&#45;query (2)&#45;&gt;emf&#45;genmodel&#45;generator (1) -->
<g id="edge52" class="edge">
<title>judo&#45;meta&#45;query (2)&#45;&gt;emf&#45;genmodel&#45;generator (1)</title>
<path fill="none" stroke="black" d="M1462.62,-73.33C1459.88,-72.84 1457.17,-72.4 1454.5,-72 1209.77,-35.55 1142.19,-65.32 892.75,-36.06"/>
<polygon fill="black" stroke="black" points="892.99,-32.56 882.65,-34.86 892.16,-39.52 892.99,-32.56"/>
</g>
<!-- judo&#45;meta&#45;query (2)&#45;&gt;judo&#45;genmodel&#45;generator (1) -->
<g id="edge53" class="edge">
<title>judo&#45;meta&#45;query (2)&#45;&gt;judo&#45;genmodel&#45;generator (1)</title>
<path fill="none" stroke="black" d="M1462.99,-73.51C1460.13,-72.97 1457.29,-72.46 1454.5,-72 1294.69,-45.48 1249.95,-57.77 1084.72,-35.95"/>
<polygon fill="black" stroke="black" points="1085.08,-32.47 1074.7,-34.61 1084.15,-39.41 1085.08,-32.47"/>
</g>
<!-- judo&#45;meta&#45;query (2)&#45;&gt;judo&#45;epp&#45;common (1) -->
<g id="edge47" class="edge">
<title>judo&#45;meta&#45;query (2)&#45;&gt;judo&#45;epp&#45;common (1)</title>
<path fill="none" stroke="black" d="M1462.95,-73.75C1460.1,-73.15 1457.27,-72.56 1454.5,-72 1362.58,-53.47 1336.31,-54.25 1240.2,-36.08"/>
<polygon fill="black" stroke="black" points="1240.85,-32.64 1230.37,-34.2 1239.53,-39.51 1240.85,-32.64"/>
</g>
<!-- judo&#45;meta&#45;query (2)&#45;&gt;osgi&#45;utils (1) -->
<g id="edge48" class="edge">
<title>judo&#45;meta&#45;query (2)&#45;&gt;osgi&#45;utils (1)</title>
<path fill="none" stroke="black" d="M1462.63,-73.25C1459.89,-72.79 1457.17,-72.37 1454.5,-72 1068.7,-19.08 959.89,-104.21 572.75,-35.9"/>
<polygon fill="black" stroke="black" points="573.14,-32.42 562.68,-34.1 571.91,-39.31 573.14,-32.42"/>
</g>
<!-- judo&#45;meta&#45;query (2)&#45;&gt;karaf&#45;features (1) -->
<g id="edge51" class="edge">
<title>judo&#45;meta&#45;query (2)&#45;&gt;karaf&#45;features (1)</title>
<path fill="none" stroke="black" d="M1462.63,-73.27C1459.89,-72.8 1457.17,-72.38 1454.5,-72 1125.96,-25.76 1034.48,-85.47 701.92,-35.83"/>
<polygon fill="black" stroke="black" points="702.42,-32.37 692.01,-34.33 701.37,-39.29 702.42,-32.37"/>
</g>
<!-- judo&#45;meta&#45;rdbms (2) -->
<g id="node27" class="node">
<title>judo&#45;meta&#45;rdbms (2)</title>
<polygon fill="none" stroke="black" points="1282,-108 1151,-108 1151,-72 1282,-72 1282,-108"/>
<text text-anchor="middle" x="1216.5" y="-86.3" font-family="Times,serif" font-size="14.00">judo&#45;meta&#45;rdbms (2)</text>
</g>
<!-- judo&#45;meta&#45;rdbms (2)&#45;&gt;epsilon&#45;runtime (1) -->
<g id="edge56" class="edge">
<title>judo&#45;meta&#45;rdbms (2)&#45;&gt;epsilon&#45;runtime (1)</title>
<path fill="none" stroke="black" d="M1282.02,-72.32C1323.73,-61.71 1377.75,-47.96 1420.48,-37.08"/>
<polygon fill="black" stroke="black" points="1421.42,-40.45 1430.25,-34.59 1419.7,-33.67 1421.42,-40.45"/>
</g>
<!-- judo&#45;meta&#45;rdbms (2)&#45;&gt;epsilon&#45;runtime&#45;eclipse (1) -->
<g id="edge57" class="edge">
<title>judo&#45;meta&#45;rdbms (2)&#45;&gt;epsilon&#45;runtime&#45;eclipse (1)</title>
<path fill="none" stroke="black" d="M1244.39,-71.88C1259.29,-62.72 1277.83,-51.34 1293.88,-41.48"/>
<polygon fill="black" stroke="black" points="1295.81,-44.41 1302.51,-36.19 1292.15,-38.44 1295.81,-44.41"/>
</g>
<!-- judo&#45;meta&#45;rdbms (2)&#45;&gt;emf&#45;genmodel&#45;generator (1) -->
<g id="edge59" class="edge">
<title>judo&#45;meta&#45;rdbms (2)&#45;&gt;emf&#45;genmodel&#45;generator (1)</title>
<path fill="none" stroke="black" d="M1150.79,-73.61C1147.99,-73.04 1145.22,-72.51 1142.5,-72 1034.85,-51.95 1004.47,-53.8 892.68,-36.15"/>
<polygon fill="black" stroke="black" points="893.12,-32.68 882.69,-34.56 892.01,-39.59 893.12,-32.68"/>
</g>
<!-- judo&#45;meta&#45;rdbms (2)&#45;&gt;judo&#45;genmodel&#45;generator (1) -->
<g id="edge60" class="edge">
<title>judo&#45;meta&#45;rdbms (2)&#45;&gt;judo&#45;genmodel&#45;generator (1)</title>
<path fill="none" stroke="black" d="M1160.77,-71.97C1128.36,-62.06 1087.32,-49.51 1053.32,-39.12"/>
<polygon fill="black" stroke="black" points="1054.06,-35.69 1043.48,-36.11 1052.02,-42.38 1054.06,-35.69"/>
</g>
<!-- judo&#45;meta&#45;rdbms (2)&#45;&gt;judo&#45;epp&#45;common (1) -->
<g id="edge54" class="edge">
<title>judo&#45;meta&#45;rdbms (2)&#45;&gt;judo&#45;epp&#45;common (1)</title>
<path fill="none" stroke="black" d="M1202.9,-71.7C1196.38,-63.39 1188.43,-53.28 1181.25,-44.14"/>
<polygon fill="black" stroke="black" points="1183.87,-41.81 1174.94,-36.1 1178.37,-46.13 1183.87,-41.81"/>
</g>
<!-- judo&#45;meta&#45;rdbms (2)&#45;&gt;osgi&#45;utils (1) -->
<g id="edge55" class="edge">
<title>judo&#45;meta&#45;rdbms (2)&#45;&gt;osgi&#45;utils (1)</title>
<path fill="none" stroke="black" d="M1150.84,-73.33C1148.03,-72.85 1145.24,-72.4 1142.5,-72 894.18,-35.89 823.1,-82.63 572.82,-35.95"/>
<polygon fill="black" stroke="black" points="573.17,-32.45 562.7,-34.03 571.87,-39.33 573.17,-32.45"/>
</g>
<!-- judo&#45;meta&#45;rdbms (2)&#45;&gt;karaf&#45;features (1) -->
<g id="edge58" class="edge">
<title>judo&#45;meta&#45;rdbms (2)&#45;&gt;karaf&#45;features (1)</title>
<path fill="none" stroke="black" d="M1150.83,-73.4C1148.02,-72.89 1145.24,-72.42 1142.5,-72 951.39,-42.41 897.15,-68.12 702.03,-35.89"/>
<polygon fill="black" stroke="black" points="702.47,-32.41 692.03,-34.2 701.31,-39.31 702.47,-32.41"/>
</g>
<!-- judo&#45;operation&#45;utils (3) -->
<g id="node28" class="node">
<title>judo&#45;operation&#45;utils (3)</title>
<polygon fill="none" stroke="black" points="567,-180 424,-180 424,-144 567,-144 567,-180"/>
<text text-anchor="middle" x="495.5" y="-158.3" font-family="Times,serif" font-size="14.00">judo&#45;operation&#45;utils (3)</text>
</g>
<!-- judo&#45;operation&#45;utils (3)&#45;&gt;judo&#45;dao&#45;api (1) -->
<g id="edge62" class="edge">
<title>judo&#45;operation&#45;utils (3)&#45;&gt;judo&#45;dao&#45;api (1)</title>
<path fill="none" stroke="black" d="M458.32,-143.88C437.63,-134.35 411.7,-122.41 389.72,-112.28"/>
<polygon fill="black" stroke="black" points="391.11,-109.07 380.56,-108.07 388.18,-115.43 391.11,-109.07"/>
</g>
<!-- judo&#45;operation&#45;utils (3)&#45;&gt;judo&#45;dispatcher&#45;api (1) -->
<g id="edge61" class="edge">
<title>judo&#45;operation&#45;utils (3)&#45;&gt;judo&#45;dispatcher&#45;api (1)</title>
<path fill="none" stroke="black" d="M424.2,-143.97C381.52,-133.77 327.16,-120.78 282.95,-110.22"/>
<polygon fill="black" stroke="black" points="283.65,-106.79 273.11,-107.87 282.02,-113.6 283.65,-106.79"/>
</g>
<!-- judo&#45;operation&#45;utils (3)&#45;&gt;judo&#45;meta&#45;asm (2) -->
<g id="edge63" class="edge">
<title>judo&#45;operation&#45;utils (3)&#45;&gt;judo&#45;meta&#45;asm (2)</title>
<path fill="none" stroke="black" d="M521.68,-143.88C535.54,-134.81 552.74,-123.55 567.71,-113.76"/>
<polygon fill="black" stroke="black" points="569.77,-116.59 576.22,-108.19 565.94,-110.74 569.77,-116.59"/>
</g>
<!-- judo&#45;runtime&#45;core (6) -->
<g id="node29" class="node">
<title>judo&#45;runtime&#45;core (6)</title>
<polygon fill="none" stroke="black" points="927,-396 792,-396 792,-360 927,-360 927,-396"/>
<text text-anchor="middle" x="859.5" y="-374.3" font-family="Times,serif" font-size="14.00">judo&#45;runtime&#45;core (6)</text>
</g>
<!-- judo&#45;runtime&#45;core (6)&#45;&gt;mapper (1) -->
<g id="edge64" class="edge">
<title>judo&#45;runtime&#45;core (6)&#45;&gt;mapper (1)</title>
<path fill="none" stroke="black" d="M884.7,-359.88C897.91,-350.89 914.29,-339.76 928.61,-330.03"/>
<polygon fill="black" stroke="black" points="930.9,-332.71 937.21,-324.19 926.97,-326.92 930.9,-332.71"/>
</g>
<!-- judo&#45;runtime&#45;core (6)&#45;&gt;osgi&#45;filestore (1) -->
<g id="edge66" class="edge">
<title>judo&#45;runtime&#45;core (6)&#45;&gt;osgi&#45;filestore (1)</title>
<path fill="none" stroke="black" d="M857.77,-359.7C857,-351.98 856.07,-342.71 855.21,-334.11"/>
<polygon fill="black" stroke="black" points="858.69,-333.71 854.21,-324.1 851.72,-334.4 858.69,-333.71"/>
</g>
<!-- judo&#45;runtime&#45;core (6)&#45;&gt;judo&#45;meta&#45;query (2) -->
<g id="edge67" class="edge">
<title>judo&#45;runtime&#45;core (6)&#45;&gt;judo&#45;meta&#45;query (2)</title>
<path fill="none" stroke="black" d="M911.63,-359.95C940.91,-350.05 978,-337.01 1010.5,-324 1188.12,-252.88 1393.96,-155.2 1482.41,-112.47"/>
<polygon fill="black" stroke="black" points="1484.13,-115.53 1491.61,-108.02 1481.08,-109.23 1484.13,-115.53"/>
</g>
<!-- judo&#45;tatami&#45;base (5) -->
<g id="node32" class="node">
<title>judo&#45;tatami&#45;base (5)</title>
<polygon fill="none" stroke="black" points="776.5,-324 648.5,-324 648.5,-288 776.5,-288 776.5,-324"/>
<text text-anchor="middle" x="712.5" y="-302.3" font-family="Times,serif" font-size="14.00">judo&#45;tatami&#45;base (5)</text>
</g>
<!-- judo&#45;runtime&#45;core (6)&#45;&gt;judo&#45;tatami&#45;base (5) -->
<g id="edge65" class="edge">
<title>judo&#45;runtime&#45;core (6)&#45;&gt;judo&#45;tatami&#45;base (5)</title>
<path fill="none" stroke="black" d="M823.54,-359.88C803.62,-350.39 778.68,-338.51 757.48,-328.42"/>
<polygon fill="black" stroke="black" points="758.88,-325.21 748.34,-324.07 755.87,-331.53 758.88,-325.21"/>
</g>
<!-- judo&#45;runtime&#45;core&#45;jsl (7) -->
<g id="node30" class="node">
<title>judo&#45;runtime&#45;core&#45;jsl (7)</title>
<polygon fill="none" stroke="black" points="762.5,-468 610.5,-468 610.5,-432 762.5,-432 762.5,-468"/>
<text text-anchor="middle" x="686.5" y="-446.3" font-family="Times,serif" font-size="14.00">judo&#45;runtime&#45;core&#45;jsl (7)</text>
</g>
<!-- judo&#45;runtime&#45;core&#45;jsl (7)&#45;&gt;judo&#45;runtime&#45;core (6) -->
<g id="edge68" class="edge">
<title>judo&#45;runtime&#45;core&#45;jsl (7)&#45;&gt;judo&#45;runtime&#45;core (6)</title>
<path fill="none" stroke="black" d="M728.82,-431.88C752.68,-422.22 782.67,-410.09 807.9,-399.88"/>
<polygon fill="black" stroke="black" points="809.36,-403.06 817.32,-396.07 806.73,-396.57 809.36,-403.06"/>
</g>
<!-- judo&#45;tatami&#45;jsl (6) -->
<g id="node34" class="node">
<title>judo&#45;tatami&#45;jsl (6)</title>
<polygon fill="none" stroke="black" points="763.5,-396 647.5,-396 647.5,-360 763.5,-360 763.5,-396"/>
<text text-anchor="middle" x="705.5" y="-374.3" font-family="Times,serif" font-size="14.00">judo&#45;tatami&#45;jsl (6)</text>
</g>
<!-- judo&#45;runtime&#45;core&#45;jsl (7)&#45;&gt;judo&#45;tatami&#45;jsl (6) -->
<g id="edge69" class="edge">
<title>judo&#45;runtime&#45;core&#45;jsl (7)&#45;&gt;judo&#45;tatami&#45;jsl (6)</title>
<path fill="none" stroke="black" d="M691.2,-431.7C693.31,-423.9 695.86,-414.51 698.22,-405.83"/>
<polygon fill="black" stroke="black" points="701.62,-406.67 700.86,-396.1 694.86,-404.84 701.62,-406.67"/>
</g>
<!-- judo&#45;sdk&#45;common (3) -->
<g id="node31" class="node">
<title>judo&#45;sdk&#45;common (3)</title>
<polygon fill="none" stroke="black" points="722,-180 585,-180 585,-144 722,-144 722,-180"/>
<text text-anchor="middle" x="653.5" y="-158.3" font-family="Times,serif" font-size="14.00">judo&#45;sdk&#45;common (3)</text>
</g>
<!-- judo&#45;sdk&#45;common (3)&#45;&gt;structured&#45;map&#45;proxy (1) -->
<g id="edge71" class="edge">
<title>judo&#45;sdk&#45;common (3)&#45;&gt;structured&#45;map&#45;proxy (1)</title>
<path fill="none" stroke="black" d="M678.94,-143.88C692.29,-134.89 708.82,-123.76 723.28,-114.03"/>
<polygon fill="black" stroke="black" points="725.62,-116.68 731.96,-108.19 721.71,-110.87 725.62,-116.68"/>
</g>
<!-- judo&#45;sdk&#45;common (3)&#45;&gt;judo&#45;dao&#45;api (1) -->
<g id="edge70" class="edge">
<title>judo&#45;sdk&#45;common (3)&#45;&gt;judo&#45;dao&#45;api (1)</title>
<path fill="none" stroke="black" d="M584.6,-145.96C581.53,-145.3 578.48,-144.64 575.5,-144 503.09,-128.44 482.24,-126.37 406.27,-108.11"/>
<polygon fill="black" stroke="black" points="406.75,-104.63 396.21,-105.68 405.11,-111.43 406.75,-104.63"/>
</g>
<!-- judo&#45;sdk&#45;common (3)&#45;&gt;judo&#45;meta&#45;asm (2) -->
<g id="edge72" class="edge">
<title>judo&#45;sdk&#45;common (3)&#45;&gt;judo&#45;meta&#45;asm (2)</title>
<path fill="none" stroke="black" d="M640.89,-143.7C634.9,-135.47 627.62,-125.48 621.02,-116.42"/>
<polygon fill="black" stroke="black" points="623.68,-114.13 614.96,-108.1 618.02,-118.25 623.68,-114.13"/>
</g>
<!-- judo&#45;tatami&#45;base (5)&#45;&gt;java&#45;embedded&#45;compiler (1) -->
<g id="edge79" class="edge">
<title>judo&#45;tatami&#45;base (5)&#45;&gt;java&#45;embedded&#45;compiler (1)</title>
<path fill="none" stroke="black" d="M660.91,-287.97C631.03,-278.1 593.24,-265.62 561.84,-255.25"/>
<polygon fill="black" stroke="black" points="562.91,-251.92 552.32,-252.11 560.72,-258.57 562.91,-251.92"/>
</g>
<!-- judo&#45;tatami&#45;base (5)&#45;&gt;judo&#45;meta&#45;expression&#45;asm (4) -->
<g id="edge73" class="edge">
<title>judo&#45;tatami&#45;base (5)&#45;&gt;judo&#45;meta&#45;expression&#45;asm (4)</title>
<path fill="none" stroke="black" d="M727.33,-287.7C734.52,-279.3 743.3,-269.07 751.19,-259.86"/>
<polygon fill="black" stroke="black" points="753.99,-261.97 757.84,-252.1 748.67,-257.42 753.99,-261.97"/>
</g>
<!-- judo&#45;tatami&#45;base (5)&#45;&gt;judo&#45;meta&#45;expression&#45;psm (4) -->
<g id="edge74" class="edge">
<title>judo&#45;tatami&#45;base (5)&#45;&gt;judo&#45;meta&#45;expression&#45;psm (4)</title>
<path fill="none" stroke="black" d="M775.77,-287.97C813.05,-277.93 860.36,-265.19 899.25,-254.72"/>
<polygon fill="black" stroke="black" points="900.2,-258.09 908.95,-252.11 898.38,-251.33 900.2,-258.09"/>
</g>
<!-- judo&#45;tatami&#45;base (5)&#45;&gt;judo&#45;meta&#45;liquibase (2) -->
<g id="edge75" class="edge">
<title>judo&#45;tatami&#45;base (5)&#45;&gt;judo&#45;meta&#45;liquibase (2)</title>
<path fill="none" stroke="black" d="M776.68,-290.3C781.01,-289.47 785.31,-288.69 789.5,-288 931.56,-264.44 975.36,-298.94 1111.5,-252 1204.13,-220.06 1298.47,-150.83 1344.19,-114.44"/>
<polygon fill="black" stroke="black" points="1346.54,-117.03 1352.15,-108.04 1342.16,-111.58 1346.54,-117.03"/>
</g>
<!-- judo&#45;tatami&#45;base (5)&#45;&gt;judo&#45;meta&#45;rdbms (2) -->
<g id="edge77" class="edge">
<title>judo&#45;tatami&#45;base (5)&#45;&gt;judo&#45;meta&#45;rdbms (2)</title>
<path fill="none" stroke="black" d="M776.7,-290.37C781.02,-289.53 785.32,-288.73 789.5,-288 914.42,-266.31 956.76,-303.76 1072.5,-252 1134.51,-224.27 1180.87,-155.17 1202.67,-117.13"/>
<polygon fill="black" stroke="black" points="1205.85,-118.61 1207.68,-108.17 1199.74,-115.19 1205.85,-118.61"/>
</g>
<!-- judo&#45;tatami&#45;base (5)&#45;&gt;judo&#45;operation&#45;utils (3) -->
<g id="edge78" class="edge">
<title>judo&#45;tatami&#45;base (5)&#45;&gt;judo&#45;operation&#45;utils (3)</title>
<path fill="none" stroke="black" d="M692.11,-287.86C669.33,-269.1 630.98,-238.68 595.5,-216 577.88,-204.73 557.62,-193.67 539.97,-184.6"/>
<polygon fill="black" stroke="black" points="541.5,-181.45 531,-180.04 538.33,-187.69 541.5,-181.45"/>
</g>
<!-- judo&#45;tatami&#45;base (5)&#45;&gt;judo&#45;sdk&#45;common (3) -->
<g id="edge80" class="edge">
<title>judo&#45;tatami&#45;base (5)&#45;&gt;judo&#45;sdk&#45;common (3)</title>
<path fill="none" stroke="black" d="M696.3,-287.63C688.01,-277.84 678.44,-265 672.5,-252 663.5,-232.3 658.69,-208.17 656.17,-190.01"/>
<polygon fill="black" stroke="black" points="659.64,-189.58 654.93,-180.09 652.69,-190.45 659.64,-189.58"/>
</g>
<!-- judo&#45;tatami&#45;core (3) -->
<g id="node33" class="node">
<title>judo&#45;tatami&#45;core (3)</title>
<polygon fill="none" stroke="black" points="406,-180 279,-180 279,-144 406,-144 406,-180"/>
<text text-anchor="middle" x="342.5" y="-158.3" font-family="Times,serif" font-size="14.00">judo&#45;tatami&#45;core (3)</text>
</g>
<!-- judo&#45;tatami&#45;base (5)&#45;&gt;judo&#45;tatami&#45;core (3) -->
<g id="edge76" class="edge">
<title>judo&#45;tatami&#45;base (5)&#45;&gt;judo&#45;tatami&#45;core (3)</title>
<path fill="none" stroke="black" d="M648.18,-299.78C570.11,-292.44 443.99,-277.11 404.5,-252 381.04,-237.08 364.02,-209.78 353.81,-189.33"/>
<polygon fill="black" stroke="black" points="356.93,-187.73 349.48,-180.21 350.61,-190.74 356.93,-187.73"/>
</g>
<!-- judo&#45;tatami&#45;core (3)&#45;&gt;judo&#45;dao&#45;api (1) -->
<g id="edge82" class="edge">
<title>judo&#45;tatami&#45;core (3)&#45;&gt;judo&#45;dao&#45;api (1)</title>
<path fill="none" stroke="black" d="M342.75,-143.7C342.86,-135.98 342.99,-126.71 343.11,-118.11"/>
<polygon fill="black" stroke="black" points="346.61,-118.15 343.26,-108.1 339.61,-118.05 346.61,-118.15"/>
</g>
<!-- judo&#45;tatami&#45;core (3)&#45;&gt;judo&#45;dispatcher&#45;api (1) -->
<g id="edge81" class="edge">
<title>judo&#45;tatami&#45;core (3)&#45;&gt;judo&#45;dispatcher&#45;api (1)</title>
<path fill="none" stroke="black" d="M308.25,-143.88C289.44,-134.47 265.92,-122.71 245.83,-112.67"/>
<polygon fill="black" stroke="black" points="247.39,-109.53 236.88,-108.19 244.26,-115.79 247.39,-109.53"/>
</g>
<!-- judo&#45;tatami&#45;core (3)&#45;&gt;judo&#45;meta&#45;asm (2) -->
<g id="edge83" class="edge">
<title>judo&#45;tatami&#45;core (3)&#45;&gt;judo&#45;meta&#45;asm (2)</title>
<path fill="none" stroke="black" d="M405.77,-143.97C444.29,-133.59 493.54,-120.33 533.13,-109.68"/>
<polygon fill="black" stroke="black" points="534.22,-113.01 542.97,-107.03 532.4,-106.25 534.22,-113.01"/>
</g>
<!-- judo&#45;tatami&#45;jsl (6)&#45;&gt;judo&#45;meta&#45;jsl (2) -->
<g id="edge85" class="edge">
<title>judo&#45;tatami&#45;jsl (6)&#45;&gt;judo&#45;meta&#45;jsl (2)</title>
<path fill="none" stroke="black" d="M652.98,-360C585.62,-337.66 465.67,-296.06 366.5,-252 267.05,-207.81 154.92,-145.72 97.64,-113.06"/>
<polygon fill="black" stroke="black" points="99.35,-110.01 88.93,-108.08 95.88,-116.09 99.35,-110.01"/>
</g>
<!-- judo&#45;tatami&#45;jsl (6)&#45;&gt;judo&#45;tatami&#45;base (5) -->
<g id="edge84" class="edge">
<title>judo&#45;tatami&#45;jsl (6)&#45;&gt;judo&#45;tatami&#45;base (5)</title>
<path fill="none" stroke="black" d="M707.23,-359.7C708,-351.98 708.93,-342.71 709.79,-334.11"/>
<polygon fill="black" stroke="black" points="713.28,-334.4 710.79,-324.1 706.31,-333.71 713.28,-334.4"/>
</g>
<!-- judo&#45;jsl&#45;springboot&#45;parent (7) -->
<g id="node35" class="node">
<title>judo&#45;jsl&#45;springboot&#45;parent (7)</title>
<polygon fill="none" stroke="black" points="958.5,-468 780.5,-468 780.5,-432 958.5,-432 958.5,-468"/>
<text text-anchor="middle" x="869.5" y="-446.3" font-family="Times,serif" font-size="14.00">judo&#45;jsl&#45;springboot&#45;parent (7)</text>
</g>
<!-- judo&#45;jsl&#45;springboot&#45;parent (7)&#45;&gt;judo&#45;runtime&#45;core (6) -->
<g id="edge86" class="edge">
<title>judo&#45;jsl&#45;springboot&#45;parent (7)&#45;&gt;judo&#45;runtime&#45;core (6)</title>
<path fill="none" stroke="black" d="M867.03,-431.7C865.93,-423.98 864.6,-414.71 863.37,-406.11"/>
<polygon fill="black" stroke="black" points="866.82,-405.51 861.94,-396.1 859.89,-406.5 866.82,-405.51"/>
</g>
<!-- judo&#45;jsl&#45;springboot&#45;parent (7)&#45;&gt;judo&#45;tatami&#45;jsl (6) -->
<g id="edge87" class="edge">
<title>judo&#45;jsl&#45;springboot&#45;parent (7)&#45;&gt;judo&#45;tatami&#45;jsl (6)</title>
<path fill="none" stroke="black" d="M829.38,-431.88C806.86,-422.26 778.58,-410.19 754.73,-400.01"/>
<polygon fill="black" stroke="black" points="756.06,-396.77 745.49,-396.07 753.31,-403.21 756.06,-396.77"/>
</g>
<!-- judo&#45;jsl&#45;springboot&#45;archetype (8) -->
<g id="node36" class="node">
<title>judo&#45;jsl&#45;springboot&#45;archetype (8)</title>
<polygon fill="none" stroke="black" points="968,-540 771,-540 771,-504 968,-504 968,-540"/>
<text text-anchor="middle" x="869.5" y="-518.3" font-family="Times,serif" font-size="14.00">judo&#45;jsl&#45;springboot&#45;archetype (8)</text>
</g>
<!-- judo&#45;jsl&#45;springboot&#45;archetype (8)&#45;&gt;judo&#45;jsl&#45;springboot&#45;parent (7) -->
<g id="edge88" class="edge">
<title>judo&#45;jsl&#45;springboot&#45;archetype (8)&#45;&gt;judo&#45;jsl&#45;springboot&#45;parent (7)</title>
<path fill="none" stroke="black" d="M869.5,-503.7C869.5,-495.98 869.5,-486.71 869.5,-478.11"/>
<polygon fill="black" stroke="black" points="873,-478.1 869.5,-468.1 866,-478.1 873,-478.1"/>
</g>
<!-- judo&#45;psm&#45;archetype (3) -->
<g id="node37" class="node">
<title>judo&#45;psm&#45;archetype (3)</title>
<polygon fill="none" stroke="black" points="1146,-180 1001,-180 1001,-144 1146,-144 1146,-180"/>
<text text-anchor="middle" x="1073.5" y="-158.3" font-family="Times,serif" font-size="14.00">judo&#45;psm&#45;archetype (3)</text>
</g>
<!-- judo&#45;psm&#45;archetype (3)&#45;&gt;judo&#45;meta&#45;psm (2) -->
<g id="edge89" class="edge">
<title>judo&#45;psm&#45;archetype (3)&#45;&gt;judo&#45;meta&#45;psm (2)</title>
<path fill="none" stroke="black" d="M1073.5,-143.7C1073.5,-135.98 1073.5,-126.71 1073.5,-118.11"/>
<polygon fill="black" stroke="black" points="1077,-118.1 1073.5,-108.1 1070,-118.1 1077,-118.1"/>
</g>
</g>
</svg>
