<?xml version="1.0" encoding="UTF-8" standalone="no"?>
<!DOCTYPE svg PUBLIC "-//W3C//DTD SVG 1.1//EN"
 "http://www.w3.org/Graphics/SVG/1.1/DTD/svg11.dtd">
<!-- Generated by graphviz version 2.49.0 (20210828.1703)
 -->
<!-- Pages: 1 -->
<svg width="962pt" height="476pt"
 viewBox="0.00 0.00 962.00 476.00" xmlns="http://www.w3.org/2000/svg" xmlns:xlink="http://www.w3.org/1999/xlink">
<g id="graph0" class="graph" transform="scale(1 1) rotate(0) translate(4 472)">
<polygon fill="white" stroke="transparent" points="-4,4 -4,-472 958,-472 958,4 -4,4"/>
<!-- judo&#45;dao&#45;api (1) -->
<g id="node1" class="node">
<title>judo&#45;dao&#45;api (1)</title>
<polygon fill="none" stroke="black" points="130,-108 25,-108 25,-72 130,-72 130,-108"/>
<text text-anchor="middle" x="77.5" y="-86.3" font-family="Times,serif" font-size="14.00">judo&#45;dao&#45;api (1)</text>
</g>
<!-- judo&#45;dispatcher&#45;api (1) -->
<g id="node2" class="node">
<title>judo&#45;dispatcher&#45;api (1)</title>
<polygon fill="none" stroke="black" points="289,-108 148,-108 148,-72 289,-72 289,-108"/>
<text text-anchor="middle" x="218.5" y="-86.3" font-family="Times,serif" font-size="14.00">judo&#45;dispatcher&#45;api (1)</text>
</g>
<!-- judo&#45;jsl&#45;vscode (2) -->
<g id="node3" class="node">
<title>judo&#45;jsl&#45;vscode (2)</title>
<polygon fill="none" stroke="black" points="419,-324 300,-324 300,-288 419,-288 419,-324"/>
<text text-anchor="middle" x="359.5" y="-302.3" font-family="Times,serif" font-size="14.00">judo&#45;jsl&#45;vscode (2)</text>
</g>
<!-- judo&#45;meta&#45;jsl (1) -->
<g id="node8" class="node">
<title>judo&#45;meta&#45;jsl (1)</title>
<polygon fill="none" stroke="black" points="414,-252 305,-252 305,-216 414,-216 414,-252"/>
<text text-anchor="middle" x="359.5" y="-230.3" font-family="Times,serif" font-size="14.00">judo&#45;meta&#45;jsl (1)</text>
</g>
<!-- judo&#45;jsl&#45;vscode (2)&#45;&gt;judo&#45;meta&#45;jsl (1) -->
<g id="edge1" class="edge">
<title>judo&#45;jsl&#45;vscode (2)&#45;&gt;judo&#45;meta&#45;jsl (1)</title>
<path fill="none" stroke="black" d="M359.5,-287.7C359.5,-279.98 359.5,-270.71 359.5,-262.11"/>
<polygon fill="black" stroke="black" points="363,-262.1 359.5,-252.1 356,-262.1 363,-262.1"/>
</g>
<!-- judo&#45;meta&#45;asm (1) -->
<g id="node4" class="node">
<title>judo&#45;meta&#45;asm (1)</title>
<polygon fill="none" stroke="black" points="277,-36 158,-36 158,0 277,0 277,-36"/>
<text text-anchor="middle" x="217.5" y="-14.3" font-family="Times,serif" font-size="14.00">judo&#45;meta&#45;asm (1)</text>
</g>
<!-- judo&#45;meta&#45;expression (2) -->
<g id="node5" class="node">
<title>judo&#45;meta&#45;expression (2)</title>
<polygon fill="none" stroke="black" points="499.5,-108 345.5,-108 345.5,-72 499.5,-72 499.5,-108"/>
<text text-anchor="middle" x="422.5" y="-86.3" font-family="Times,serif" font-size="14.00">judo&#45;meta&#45;expression (2)</text>
</g>
<!-- judo&#45;meta&#45;expression (2)&#45;&gt;judo&#45;meta&#45;asm (1) -->
<g id="edge3" class="edge">
<title>judo&#45;meta&#45;expression (2)&#45;&gt;judo&#45;meta&#45;asm (1)</title>
<path fill="none" stroke="black" d="M372.61,-71.97C343.85,-62.14 307.49,-49.73 277.21,-39.39"/>
<polygon fill="black" stroke="black" points="278.2,-36.03 267.61,-36.11 275.94,-42.65 278.2,-36.03"/>
</g>
<!-- judo&#45;meta&#45;jql (1) -->
<g id="node7" class="node">
<title>judo&#45;meta&#45;jql (1)</title>
<polygon fill="none" stroke="black" points="405.5,-36 295.5,-36 295.5,0 405.5,0 405.5,-36"/>
<text text-anchor="middle" x="350.5" y="-14.3" font-family="Times,serif" font-size="14.00">judo&#45;meta&#45;jql (1)</text>
</g>
<!-- judo&#45;meta&#45;expression (2)&#45;&gt;judo&#45;meta&#45;jql (1) -->
<g id="edge5" class="edge">
<title>judo&#45;meta&#45;expression (2)&#45;&gt;judo&#45;meta&#45;jql (1)</title>
<path fill="none" stroke="black" d="M404.7,-71.7C395.9,-63.14 385.12,-52.66 375.5,-43.3"/>
<polygon fill="black" stroke="black" points="377.7,-40.57 368.09,-36.1 372.82,-45.58 377.7,-40.57"/>
</g>
<!-- judo&#45;meta&#45;measure (1) -->
<g id="node10" class="node">
<title>judo&#45;meta&#45;measure (1)</title>
<polygon fill="none" stroke="black" points="565.5,-36 423.5,-36 423.5,0 565.5,0 565.5,-36"/>
<text text-anchor="middle" x="494.5" y="-14.3" font-family="Times,serif" font-size="14.00">judo&#45;meta&#45;measure (1)</text>
</g>
<!-- judo&#45;meta&#45;expression (2)&#45;&gt;judo&#45;meta&#45;measure (1) -->
<g id="edge2" class="edge">
<title>judo&#45;meta&#45;expression (2)&#45;&gt;judo&#45;meta&#45;measure (1)</title>
<path fill="none" stroke="black" d="M440.3,-71.7C449.1,-63.14 459.88,-52.66 469.5,-43.3"/>
<polygon fill="black" stroke="black" points="472.18,-45.58 476.91,-36.1 467.3,-40.57 472.18,-45.58"/>
</g>
<!-- judo&#45;meta&#45;psm (1) -->
<g id="node11" class="node">
<title>judo&#45;meta&#45;psm (1)</title>
<polygon fill="none" stroke="black" points="703,-36 584,-36 584,0 703,0 703,-36"/>
<text text-anchor="middle" x="643.5" y="-14.3" font-family="Times,serif" font-size="14.00">judo&#45;meta&#45;psm (1)</text>
</g>
<!-- judo&#45;meta&#45;expression (2)&#45;&gt;judo&#45;meta&#45;psm (1) -->
<g id="edge4" class="edge">
<title>judo&#45;meta&#45;expression (2)&#45;&gt;judo&#45;meta&#45;psm (1)</title>
<path fill="none" stroke="black" d="M476.28,-71.97C507.43,-62.1 546.82,-49.62 579.55,-39.25"/>
<polygon fill="black" stroke="black" points="581,-42.47 589.48,-36.11 578.89,-35.79 581,-42.47"/>
</g>
<!-- judo&#45;meta&#45;expression&#45;asm (3) -->
<g id="node6" class="node">
<title>judo&#45;meta&#45;expression&#45;asm (3)</title>
<polygon fill="none" stroke="black" points="497,-180 316,-180 316,-144 497,-144 497,-180"/>
<text text-anchor="middle" x="406.5" y="-158.3" font-family="Times,serif" font-size="14.00">judo&#45;meta&#45;expression&#45;asm (3)</text>
</g>
<!-- judo&#45;meta&#45;expression&#45;asm (3)&#45;&gt;judo&#45;meta&#45;expression (2) -->
<g id="edge6" class="edge">
<title>judo&#45;meta&#45;expression&#45;asm (3)&#45;&gt;judo&#45;meta&#45;expression (2)</title>
<path fill="none" stroke="black" d="M410.46,-143.7C412.22,-135.98 414.34,-126.71 416.3,-118.11"/>
<polygon fill="black" stroke="black" points="419.77,-118.63 418.59,-108.1 412.95,-117.07 419.77,-118.63"/>
</g>
<!-- judo&#45;meta&#45;liquibase (1) -->
<g id="node9" class="node">
<title>judo&#45;meta&#45;liquibase (1)</title>
<polygon fill="none" stroke="black" points="660,-180 515,-180 515,-144 660,-144 660,-180"/>
<text text-anchor="middle" x="587.5" y="-158.3" font-family="Times,serif" font-size="14.00">judo&#45;meta&#45;liquibase (1)</text>
</g>
<!-- judo&#45;meta&#45;query (1) -->
<g id="node12" class="node">
<title>judo&#45;meta&#45;query (1)</title>
<polygon fill="none" stroke="black" points="706,-252 579,-252 579,-216 706,-216 706,-252"/>
<text text-anchor="middle" x="642.5" y="-230.3" font-family="Times,serif" font-size="14.00">judo&#45;meta&#45;query (1)</text>
</g>
<!-- judo&#45;meta&#45;rdbms (1) -->
<g id="node13" class="node">
<title>judo&#45;meta&#45;rdbms (1)</title>
<polygon fill="none" stroke="black" points="809,-180 678,-180 678,-144 809,-144 809,-180"/>
<text text-anchor="middle" x="743.5" y="-158.3" font-family="Times,serif" font-size="14.00">judo&#45;meta&#45;rdbms (1)</text>
</g>
<!-- judo&#45;operation&#45;utils (2) -->
<g id="node14" class="node">
<title>judo&#45;operation&#45;utils (2)</title>
<polygon fill="none" stroke="black" points="298,-180 155,-180 155,-144 298,-144 298,-180"/>
<text text-anchor="middle" x="226.5" y="-158.3" font-family="Times,serif" font-size="14.00">judo&#45;operation&#45;utils (2)</text>
</g>
<!-- judo&#45;operation&#45;utils (2)&#45;&gt;judo&#45;dao&#45;api (1) -->
<g id="edge7" class="edge">
<title>judo&#45;operation&#45;utils (2)&#45;&gt;judo&#45;dao&#45;api (1)</title>
<path fill="none" stroke="black" d="M190.05,-143.88C169.86,-134.39 144.58,-122.51 123.09,-112.42"/>
<polygon fill="black" stroke="black" points="124.37,-109.15 113.83,-108.07 121.39,-115.49 124.37,-109.15"/>
</g>
<!-- judo&#45;operation&#45;utils (2)&#45;&gt;judo&#45;dispatcher&#45;api (1) -->
<g id="edge8" class="edge">
<title>judo&#45;operation&#45;utils (2)&#45;&gt;judo&#45;dispatcher&#45;api (1)</title>
<path fill="none" stroke="black" d="M224.52,-143.7C223.64,-135.98 222.58,-126.71 221.6,-118.11"/>
<polygon fill="black" stroke="black" points="225.07,-117.64 220.45,-108.1 218.11,-118.44 225.07,-117.64"/>
</g>
<!-- judo&#45;operation&#45;utils (2)&#45;&gt;judo&#45;meta&#45;asm (1) -->
<g id="edge9" class="edge">
<title>judo&#45;operation&#45;utils (2)&#45;&gt;judo&#45;meta&#45;asm (1)</title>
<path fill="none" stroke="black" d="M261.67,-143.94C275.48,-135.25 289.85,-123.26 297.5,-108 304.67,-93.7 305.07,-86.1 297.5,-72 290.71,-59.36 279.44,-49.23 267.47,-41.35"/>
<polygon fill="black" stroke="black" points="269.05,-38.21 258.68,-36 265.41,-44.19 269.05,-38.21"/>
</g>
<!-- judo&#45;runtime&#45;core (5) -->
<g id="node15" class="node">
<title>judo&#45;runtime&#45;core (5)</title>
<polygon fill="none" stroke="black" points="708,-324 573,-324 573,-288 708,-288 708,-324"/>
<text text-anchor="middle" x="640.5" y="-302.3" font-family="Times,serif" font-size="14.00">judo&#45;runtime&#45;core (5)</text>
</g>
<!-- judo&#45;runtime&#45;core (5)&#45;&gt;judo&#45;meta&#45;query (1) -->
<g id="edge11" class="edge">
<title>judo&#45;runtime&#45;core (5)&#45;&gt;judo&#45;meta&#45;query (1)</title>
<path fill="none" stroke="black" d="M640.99,-287.7C641.21,-279.98 641.48,-270.71 641.73,-262.11"/>
<polygon fill="black" stroke="black" points="645.22,-262.2 642.01,-252.1 638.23,-262 645.22,-262.2"/>
</g>
<!-- judo&#45;tatami&#45;base (4) -->
<g id="node18" class="node">
<title>judo&#45;tatami&#45;base (4)</title>
<polygon fill="none" stroke="black" points="560.5,-252 432.5,-252 432.5,-216 560.5,-216 560.5,-252"/>
<text text-anchor="middle" x="496.5" y="-230.3" font-family="Times,serif" font-size="14.00">judo&#45;tatami&#45;base (4)</text>
</g>
<!-- judo&#45;runtime&#45;core (5)&#45;&gt;judo&#45;tatami&#45;base (4) -->
<g id="edge10" class="edge">
<title>judo&#45;runtime&#45;core (5)&#45;&gt;judo&#45;tatami&#45;base (4)</title>
<path fill="none" stroke="black" d="M605.27,-287.88C585.92,-278.47 561.73,-266.71 541.07,-256.67"/>
<polygon fill="black" stroke="black" points="542.39,-253.41 531.86,-252.19 539.33,-259.71 542.39,-253.41"/>
</g>
<!-- judo&#45;runtime&#45;core&#45;jsl (6) -->
<g id="node16" class="node">
<title>judo&#45;runtime&#45;core&#45;jsl (6)</title>
<polygon fill="none" stroke="black" points="552.5,-396 400.5,-396 400.5,-360 552.5,-360 552.5,-396"/>
<text text-anchor="middle" x="476.5" y="-374.3" font-family="Times,serif" font-size="14.00">judo&#45;runtime&#45;core&#45;jsl (6)</text>
</g>
<!-- judo&#45;runtime&#45;core&#45;jsl (6)&#45;&gt;judo&#45;runtime&#45;core (5) -->
<g id="edge13" class="edge">
<title>judo&#45;runtime&#45;core&#45;jsl (6)&#45;&gt;judo&#45;runtime&#45;core (5)</title>
<path fill="none" stroke="black" d="M516.62,-359.88C539.14,-350.26 567.42,-338.19 591.27,-328.01"/>
<polygon fill="black" stroke="black" points="592.69,-331.21 600.51,-324.07 589.94,-324.77 592.69,-331.21"/>
</g>
<!-- judo&#45;tatami&#45;jsl (5) -->
<g id="node20" class="node">
<title>judo&#45;tatami&#45;jsl (5)</title>
<polygon fill="none" stroke="black" points="553.5,-324 437.5,-324 437.5,-288 553.5,-288 553.5,-324"/>
<text text-anchor="middle" x="495.5" y="-302.3" font-family="Times,serif" font-size="14.00">judo&#45;tatami&#45;jsl (5)</text>
</g>
<!-- judo&#45;runtime&#45;core&#45;jsl (6)&#45;&gt;judo&#45;tatami&#45;jsl (5) -->
<g id="edge12" class="edge">
<title>judo&#45;runtime&#45;core&#45;jsl (6)&#45;&gt;judo&#45;tatami&#45;jsl (5)</title>
<path fill="none" stroke="black" d="M481.2,-359.7C483.31,-351.9 485.86,-342.51 488.22,-333.83"/>
<polygon fill="black" stroke="black" points="491.62,-334.67 490.86,-324.1 484.86,-332.84 491.62,-334.67"/>
</g>
<!-- judo&#45;sdk&#45;common (2) -->
<g id="node17" class="node">
<title>judo&#45;sdk&#45;common (2)</title>
<polygon fill="none" stroke="black" points="137,-180 0,-180 0,-144 137,-144 137,-180"/>
<text text-anchor="middle" x="68.5" y="-158.3" font-family="Times,serif" font-size="14.00">judo&#45;sdk&#45;common (2)</text>
</g>
<!-- judo&#45;sdk&#45;common (2)&#45;&gt;judo&#45;dao&#45;api (1) -->
<g id="edge14" class="edge">
<title>judo&#45;sdk&#45;common (2)&#45;&gt;judo&#45;dao&#45;api (1)</title>
<path fill="none" stroke="black" d="M70.72,-143.7C71.72,-135.98 72.91,-126.71 74.01,-118.11"/>
<polygon fill="black" stroke="black" points="77.5,-118.47 75.3,-108.1 70.55,-117.58 77.5,-118.47"/>
</g>
<!-- judo&#45;sdk&#45;common (2)&#45;&gt;judo&#45;meta&#45;asm (1) -->
<g id="edge15" class="edge">
<title>judo&#45;sdk&#45;common (2)&#45;&gt;judo&#45;meta&#45;asm (1)</title>
<path fill="none" stroke="black" d="M45.9,-143.83C24.3,-125.31 -2.52,-95.35 15.5,-72 31.77,-50.91 95.93,-36.57 147.63,-28.18"/>
<polygon fill="black" stroke="black" points="148.45,-31.59 157.78,-26.58 147.36,-24.67 148.45,-31.59"/>
</g>
<!-- judo&#45;tatami&#45;base (4)&#45;&gt;judo&#45;meta&#45;expression&#45;asm (3) -->
<g id="edge16" class="edge">
<title>judo&#45;tatami&#45;base (4)&#45;&gt;judo&#45;meta&#45;expression&#45;asm (3)</title>
<path fill="none" stroke="black" d="M474.25,-215.7C462.92,-206.88 448.97,-196.03 436.68,-186.47"/>
<polygon fill="black" stroke="black" points="438.53,-183.48 428.49,-180.1 434.24,-189.01 438.53,-183.48"/>
</g>
<!-- judo&#45;tatami&#45;base (4)&#45;&gt;judo&#45;meta&#45;liquibase (1) -->
<g id="edge18" class="edge">
<title>judo&#45;tatami&#45;base (4)&#45;&gt;judo&#45;meta&#45;liquibase (1)</title>
<path fill="none" stroke="black" d="M518.99,-215.7C530.46,-206.88 544.56,-196.03 556.98,-186.47"/>
<polygon fill="black" stroke="black" points="559.47,-188.98 565.26,-180.1 555.2,-183.43 559.47,-188.98"/>
</g>
<!-- judo&#45;tatami&#45;base (4)&#45;&gt;judo&#45;meta&#45;rdbms (1) -->
<g id="edge21" class="edge">
<title>judo&#45;tatami&#45;base (4)&#45;&gt;judo&#45;meta&#45;rdbms (1)</title>
<path fill="none" stroke="black" d="M556.61,-215.97C591.87,-205.97 636.59,-193.3 673.44,-182.85"/>
<polygon fill="black" stroke="black" points="674.46,-186.2 683.12,-180.11 672.55,-179.47 674.46,-186.2"/>
</g>
<!-- judo&#45;tatami&#45;base (4)&#45;&gt;judo&#45;operation&#45;utils (2) -->
<g id="edge20" class="edge">
<title>judo&#45;tatami&#45;base (4)&#45;&gt;judo&#45;operation&#45;utils (2)</title>
<path fill="none" stroke="black" d="M432.17,-216.32C393.12,-206.2 343.08,-193.23 302.14,-182.61"/>
<polygon fill="black" stroke="black" points="302.77,-179.16 292.21,-180.04 301.01,-185.93 302.77,-179.16"/>
</g>
<!-- judo&#45;tatami&#45;base (4)&#45;&gt;judo&#45;sdk&#45;common (2) -->
<g id="edge17" class="edge">
<title>judo&#45;tatami&#45;base (4)&#45;&gt;judo&#45;sdk&#45;common (2)</title>
<path fill="none" stroke="black" d="M432.4,-217.88C429.06,-217.21 425.74,-216.58 422.5,-216 303.53,-194.65 269.56,-201.04 147.41,-180.25"/>
<polygon fill="black" stroke="black" points="147.74,-176.76 137.29,-178.5 146.55,-183.65 147.74,-176.76"/>
</g>
<!-- judo&#45;tatami&#45;core (1) -->
<g id="node19" class="node">
<title>judo&#45;tatami&#45;core (1)</title>
<polygon fill="none" stroke="black" points="954,-180 827,-180 827,-144 954,-144 954,-180"/>
<text text-anchor="middle" x="890.5" y="-158.3" font-family="Times,serif" font-size="14.00">judo&#45;tatami&#45;core (1)</text>
</g>
<!-- judo&#45;tatami&#45;base (4)&#45;&gt;judo&#45;tatami&#45;core (1) -->
<g id="edge19" class="edge">
<title>judo&#45;tatami&#45;base (4)&#45;&gt;judo&#45;tatami&#45;core (1)</title>
<path fill="none" stroke="black" d="M560.61,-217.94C563.95,-217.26 567.26,-216.61 570.5,-216 676.77,-196.11 707.31,-200.53 816.83,-180.23"/>
<polygon fill="black" stroke="black" points="817.78,-183.61 826.96,-178.32 816.49,-176.73 817.78,-183.61"/>
</g>
<!-- judo&#45;tatami&#45;jsl (5)&#45;&gt;judo&#45;meta&#45;jsl (1) -->
<g id="edge23" class="edge">
<title>judo&#45;tatami&#45;jsl (5)&#45;&gt;judo&#45;meta&#45;jsl (1)</title>
<path fill="none" stroke="black" d="M462.23,-287.88C444.04,-278.51 421.31,-266.81 401.86,-256.8"/>
<polygon fill="black" stroke="black" points="403.39,-253.65 392.9,-252.19 400.19,-259.88 403.39,-253.65"/>
</g>
<!-- judo&#45;tatami&#45;jsl (5)&#45;&gt;judo&#45;tatami&#45;base (4) -->
<g id="edge22" class="edge">
<title>judo&#45;tatami&#45;jsl (5)&#45;&gt;judo&#45;tatami&#45;base (4)</title>
<path fill="none" stroke="black" d="M495.75,-287.7C495.86,-279.98 495.99,-270.71 496.11,-262.11"/>
<polygon fill="black" stroke="black" points="499.61,-262.15 496.26,-252.1 492.61,-262.05 499.61,-262.15"/>
</g>
<!-- judo&#45;jsl&#45;springboot&#45;parent (6) -->
<g id="node21" class="node">
<title>judo&#45;jsl&#45;springboot&#45;parent (6)</title>
<polygon fill="none" stroke="black" points="748.5,-396 570.5,-396 570.5,-360 748.5,-360 748.5,-396"/>
<text text-anchor="middle" x="659.5" y="-374.3" font-family="Times,serif" font-size="14.00">judo&#45;jsl&#45;springboot&#45;parent (6)</text>
</g>
<!-- judo&#45;jsl&#45;springboot&#45;parent (6)&#45;&gt;judo&#45;runtime&#45;core (5) -->
<g id="edge25" class="edge">
<title>judo&#45;jsl&#45;springboot&#45;parent (6)&#45;&gt;judo&#45;runtime&#45;core (5)</title>
<path fill="none" stroke="black" d="M654.8,-359.7C652.69,-351.9 650.14,-342.51 647.78,-333.83"/>
<polygon fill="black" stroke="black" points="651.14,-332.84 645.14,-324.1 644.38,-334.67 651.14,-332.84"/>
</g>
<!-- judo&#45;jsl&#45;springboot&#45;parent (6)&#45;&gt;judo&#45;tatami&#45;jsl (5) -->
<g id="edge24" class="edge">
<title>judo&#45;jsl&#45;springboot&#45;parent (6)&#45;&gt;judo&#45;tatami&#45;jsl (5)</title>
<path fill="none" stroke="black" d="M619.38,-359.88C596.86,-350.26 568.58,-338.19 544.73,-328.01"/>
<polygon fill="black" stroke="black" points="546.06,-324.77 535.49,-324.07 543.31,-331.21 546.06,-324.77"/>
</g>
<!-- judo&#45;jsl&#45;springboot&#45;archetype (7) -->
<g id="node22" class="node">
<title>judo&#45;jsl&#45;springboot&#45;archetype (7)</title>
<polygon fill="none" stroke="black" points="758,-468 561,-468 561,-432 758,-432 758,-468"/>
<text text-anchor="middle" x="659.5" y="-446.3" font-family="Times,serif" font-size="14.00">judo&#45;jsl&#45;springboot&#45;archetype (7)</text>
</g>
<!-- judo&#45;jsl&#45;springboot&#45;archetype (7)&#45;&gt;judo&#45;jsl&#45;springboot&#45;parent (6) -->
<g id="edge26" class="edge">
<title>judo&#45;jsl&#45;springboot&#45;archetype (7)&#45;&gt;judo&#45;jsl&#45;springboot&#45;parent (6)</title>
<path fill="none" stroke="black" d="M659.5,-431.7C659.5,-423.98 659.5,-414.71 659.5,-406.11"/>
<polygon fill="black" stroke="black" points="663,-406.1 659.5,-396.1 656,-406.1 663,-406.1"/>
</g>
</g>
</svg>
