<?xml version="1.0" encoding="UTF-8" standalone="no"?>
<!DOCTYPE svg PUBLIC "-//W3C//DTD SVG 1.1//EN"
 "http://www.w3.org/Graphics/SVG/1.1/DTD/svg11.dtd">
<!-- Generated by graphviz version 2.49.0 (20210828.1703)
 -->
<!-- Pages: 1 -->
<svg width="1048pt" height="332pt"
 viewBox="0.00 0.00 1048.00 332.00" xmlns="http://www.w3.org/2000/svg" xmlns:xlink="http://www.w3.org/1999/xlink">
<g id="graph0" class="graph" transform="scale(1 1) rotate(0) translate(4 328)">
<polygon fill="white" stroke="transparent" points="-4,4 -4,-328 1044,-328 1044,4 -4,4"/>
<!-- judo&#45;dao&#45;api (1) -->
<g id="node1" class="node">
<title>judo&#45;dao&#45;api (1)</title>
<polygon fill="none" stroke="black" points="264,-36 159,-36 159,0 264,0 264,-36"/>
<text text-anchor="middle" x="211.5" y="-14.3" font-family="Times,serif" font-size="14.00">judo&#45;dao&#45;api (1)</text>
</g>
<!-- judo&#45;dispatcher&#45;api (1) -->
<g id="node2" class="node">
<title>judo&#45;dispatcher&#45;api (1)</title>
<polygon fill="none" stroke="black" points="141,-36 0,-36 0,0 141,0 141,-36"/>
<text text-anchor="middle" x="70.5" y="-14.3" font-family="Times,serif" font-size="14.00">judo&#45;dispatcher&#45;api (1)</text>
</g>
<!-- judo&#45;jsl&#45;vscode (2) -->
<g id="node3" class="node">
<title>judo&#45;jsl&#45;vscode (2)</title>
<polygon fill="none" stroke="black" points="512,-252 393,-252 393,-216 512,-216 512,-252"/>
<text text-anchor="middle" x="452.5" y="-230.3" font-family="Times,serif" font-size="14.00">judo&#45;jsl&#45;vscode (2)</text>
</g>
<!-- judo&#45;meta&#45;jsl (1) -->
<g id="node7" class="node">
<title>judo&#45;meta&#45;jsl (1)</title>
<polygon fill="none" stroke="black" points="507,-180 398,-180 398,-144 507,-144 507,-180"/>
<text text-anchor="middle" x="452.5" y="-158.3" font-family="Times,serif" font-size="14.00">judo&#45;meta&#45;jsl (1)</text>
</g>
<!-- judo&#45;jsl&#45;vscode (2)&#45;&gt;judo&#45;meta&#45;jsl (1) -->
<g id="edge1" class="edge">
<title>judo&#45;jsl&#45;vscode (2)&#45;&gt;judo&#45;meta&#45;jsl (1)</title>
<path fill="none" stroke="black" d="M452.5,-215.7C452.5,-207.98 452.5,-198.71 452.5,-190.11"/>
<polygon fill="black" stroke="black" points="456,-190.1 452.5,-180.1 449,-190.1 456,-190.1"/>
</g>
<!-- judo&#45;meta&#45;asm (1) -->
<g id="node4" class="node">
<title>judo&#45;meta&#45;asm (1)</title>
<polygon fill="none" stroke="black" points="401,-36 282,-36 282,0 401,0 401,-36"/>
<text text-anchor="middle" x="341.5" y="-14.3" font-family="Times,serif" font-size="14.00">judo&#45;meta&#45;asm (1)</text>
</g>
<!-- judo&#45;meta&#45;expression (2) -->
<g id="node5" class="node">
<title>judo&#45;meta&#45;expression (2)</title>
<polygon fill="none" stroke="black" points="582.5,-108 428.5,-108 428.5,-72 582.5,-72 582.5,-108"/>
<text text-anchor="middle" x="505.5" y="-86.3" font-family="Times,serif" font-size="14.00">judo&#45;meta&#45;expression (2)</text>
</g>
<!-- judo&#45;meta&#45;expression (2)&#45;&gt;judo&#45;meta&#45;asm (1) -->
<g id="edge3" class="edge">
<title>judo&#45;meta&#45;expression (2)&#45;&gt;judo&#45;meta&#45;asm (1)</title>
<path fill="none" stroke="black" d="M465.38,-71.88C442.86,-62.26 414.58,-50.19 390.73,-40.01"/>
<polygon fill="black" stroke="black" points="392.06,-36.77 381.49,-36.07 389.31,-43.21 392.06,-36.77"/>
</g>
<!-- judo&#45;meta&#45;jql (1) -->
<g id="node6" class="node">
<title>judo&#45;meta&#45;jql (1)</title>
<polygon fill="none" stroke="black" points="529.5,-36 419.5,-36 419.5,0 529.5,0 529.5,-36"/>
<text text-anchor="middle" x="474.5" y="-14.3" font-family="Times,serif" font-size="14.00">judo&#45;meta&#45;jql (1)</text>
</g>
<!-- judo&#45;meta&#45;expression (2)&#45;&gt;judo&#45;meta&#45;jql (1) -->
<g id="edge4" class="edge">
<title>judo&#45;meta&#45;expression (2)&#45;&gt;judo&#45;meta&#45;jql (1)</title>
<path fill="none" stroke="black" d="M497.84,-71.7C494.31,-63.73 490.04,-54.1 486.13,-45.26"/>
<polygon fill="black" stroke="black" points="489.32,-43.83 482.07,-36.1 482.92,-46.67 489.32,-43.83"/>
</g>
<!-- judo&#45;meta&#45;measure (1) -->
<g id="node9" class="node">
<title>judo&#45;meta&#45;measure (1)</title>
<polygon fill="none" stroke="black" points="689.5,-36 547.5,-36 547.5,0 689.5,0 689.5,-36"/>
<text text-anchor="middle" x="618.5" y="-14.3" font-family="Times,serif" font-size="14.00">judo&#45;meta&#45;measure (1)</text>
</g>
<!-- judo&#45;meta&#45;expression (2)&#45;&gt;judo&#45;meta&#45;measure (1) -->
<g id="edge2" class="edge">
<title>judo&#45;meta&#45;expression (2)&#45;&gt;judo&#45;meta&#45;measure (1)</title>
<path fill="none" stroke="black" d="M533.14,-71.88C547.92,-62.72 566.29,-51.34 582.2,-41.48"/>
<polygon fill="black" stroke="black" points="584.09,-44.43 590.75,-36.19 580.41,-38.48 584.09,-44.43"/>
</g>
<!-- judo&#45;meta&#45;psm (1) -->
<g id="node10" class="node">
<title>judo&#45;meta&#45;psm (1)</title>
<polygon fill="none" stroke="black" points="827,-36 708,-36 708,0 827,0 827,-36"/>
<text text-anchor="middle" x="767.5" y="-14.3" font-family="Times,serif" font-size="14.00">judo&#45;meta&#45;psm (1)</text>
</g>
<!-- judo&#45;meta&#45;expression (2)&#45;&gt;judo&#45;meta&#45;psm (1) -->
<g id="edge5" class="edge">
<title>judo&#45;meta&#45;expression (2)&#45;&gt;judo&#45;meta&#45;psm (1)</title>
<path fill="none" stroke="black" d="M569.26,-71.97C608.3,-61.53 658.27,-48.18 698.28,-37.49"/>
<polygon fill="black" stroke="black" points="699.2,-40.87 707.96,-34.91 697.39,-34.11 699.2,-40.87"/>
</g>
<!-- judo&#45;meta&#45;liquibase (1) -->
<g id="node8" class="node">
<title>judo&#45;meta&#45;liquibase (1)</title>
<polygon fill="none" stroke="black" points="746,-108 601,-108 601,-72 746,-72 746,-108"/>
<text text-anchor="middle" x="673.5" y="-86.3" font-family="Times,serif" font-size="14.00">judo&#45;meta&#45;liquibase (1)</text>
</g>
<!-- judo&#45;meta&#45;query (1) -->
<g id="node11" class="node">
<title>judo&#45;meta&#45;query (1)</title>
<polygon fill="none" stroke="black" points="799,-180 672,-180 672,-144 799,-144 799,-180"/>
<text text-anchor="middle" x="735.5" y="-158.3" font-family="Times,serif" font-size="14.00">judo&#45;meta&#45;query (1)</text>
</g>
<!-- judo&#45;meta&#45;rdbms (1) -->
<g id="node12" class="node">
<title>judo&#45;meta&#45;rdbms (1)</title>
<polygon fill="none" stroke="black" points="895,-108 764,-108 764,-72 895,-72 895,-108"/>
<text text-anchor="middle" x="829.5" y="-86.3" font-family="Times,serif" font-size="14.00">judo&#45;meta&#45;rdbms (1)</text>
</g>
<!-- judo&#45;operation&#45;utils (2) -->
<g id="node13" class="node">
<title>judo&#45;operation&#45;utils (2)</title>
<polygon fill="none" stroke="black" points="255,-108 112,-108 112,-72 255,-72 255,-108"/>
<text text-anchor="middle" x="183.5" y="-86.3" font-family="Times,serif" font-size="14.00">judo&#45;operation&#45;utils (2)</text>
</g>
<!-- judo&#45;operation&#45;utils (2)&#45;&gt;judo&#45;dao&#45;api (1) -->
<g id="edge8" class="edge">
<title>judo&#45;operation&#45;utils (2)&#45;&gt;judo&#45;dao&#45;api (1)</title>
<path fill="none" stroke="black" d="M190.42,-71.7C193.57,-63.81 197.38,-54.3 200.88,-45.55"/>
<polygon fill="black" stroke="black" points="204.19,-46.69 204.66,-36.1 197.69,-44.09 204.19,-46.69"/>
</g>
<!-- judo&#45;operation&#45;utils (2)&#45;&gt;judo&#45;dispatcher&#45;api (1) -->
<g id="edge7" class="edge">
<title>judo&#45;operation&#45;utils (2)&#45;&gt;judo&#45;dispatcher&#45;api (1)</title>
<path fill="none" stroke="black" d="M155.86,-71.88C141.08,-62.72 122.71,-51.34 106.8,-41.48"/>
<polygon fill="black" stroke="black" points="108.59,-38.48 98.25,-36.19 104.91,-44.43 108.59,-38.48"/>
</g>
<!-- judo&#45;operation&#45;utils (2)&#45;&gt;judo&#45;meta&#45;asm (1) -->
<g id="edge6" class="edge">
<title>judo&#45;operation&#45;utils (2)&#45;&gt;judo&#45;meta&#45;asm (1)</title>
<path fill="none" stroke="black" d="M222.15,-71.88C243.75,-62.31 270.85,-50.3 293.77,-40.15"/>
<polygon fill="black" stroke="black" points="295.25,-43.32 302.97,-36.07 292.41,-36.92 295.25,-43.32"/>
</g>
<!-- judo&#45;runtime&#45;core (4) -->
<g id="node14" class="node">
<title>judo&#45;runtime&#45;core (4)</title>
<polygon fill="none" stroke="black" points="800,-252 665,-252 665,-216 800,-216 800,-252"/>
<text text-anchor="middle" x="732.5" y="-230.3" font-family="Times,serif" font-size="14.00">judo&#45;runtime&#45;core (4)</text>
</g>
<!-- judo&#45;runtime&#45;core (4)&#45;&gt;judo&#45;meta&#45;query (1) -->
<g id="edge10" class="edge">
<title>judo&#45;runtime&#45;core (4)&#45;&gt;judo&#45;meta&#45;query (1)</title>
<path fill="none" stroke="black" d="M733.24,-215.7C733.57,-207.98 733.97,-198.71 734.34,-190.11"/>
<polygon fill="black" stroke="black" points="737.84,-190.25 734.77,-180.1 730.84,-189.95 737.84,-190.25"/>
</g>
<!-- judo&#45;tatami&#45;base (3) -->
<g id="node17" class="node">
<title>judo&#45;tatami&#45;base (3)</title>
<polygon fill="none" stroke="black" points="653.5,-180 525.5,-180 525.5,-144 653.5,-144 653.5,-180"/>
<text text-anchor="middle" x="589.5" y="-158.3" font-family="Times,serif" font-size="14.00">judo&#45;tatami&#45;base (3)</text>
</g>
<!-- judo&#45;runtime&#45;core (4)&#45;&gt;judo&#45;tatami&#45;base (3) -->
<g id="edge9" class="edge">
<title>judo&#45;runtime&#45;core (4)&#45;&gt;judo&#45;tatami&#45;base (3)</title>
<path fill="none" stroke="black" d="M697.52,-215.88C678.3,-206.47 654.27,-194.71 633.76,-184.67"/>
<polygon fill="black" stroke="black" points="635.14,-181.44 624.62,-180.19 632.06,-187.73 635.14,-181.44"/>
</g>
<!-- judo&#45;runtime&#45;core&#45;jsl (5) -->
<g id="node15" class="node">
<title>judo&#45;runtime&#45;core&#45;jsl (5)</title>
<polygon fill="none" stroke="black" points="736.5,-324 584.5,-324 584.5,-288 736.5,-288 736.5,-324"/>
<text text-anchor="middle" x="660.5" y="-302.3" font-family="Times,serif" font-size="14.00">judo&#45;runtime&#45;core&#45;jsl (5)</text>
</g>
<!-- judo&#45;runtime&#45;core&#45;jsl (5)&#45;&gt;judo&#45;runtime&#45;core (4) -->
<g id="edge12" class="edge">
<title>judo&#45;runtime&#45;core&#45;jsl (5)&#45;&gt;judo&#45;runtime&#45;core (4)</title>
<path fill="none" stroke="black" d="M678.3,-287.7C687.1,-279.14 697.88,-268.66 707.5,-259.3"/>
<polygon fill="black" stroke="black" points="710.18,-261.58 714.91,-252.1 705.3,-256.57 710.18,-261.58"/>
</g>
<!-- judo&#45;tatami&#45;jsl (4) -->
<g id="node19" class="node">
<title>judo&#45;tatami&#45;jsl (4)</title>
<polygon fill="none" stroke="black" points="646.5,-252 530.5,-252 530.5,-216 646.5,-216 646.5,-252"/>
<text text-anchor="middle" x="588.5" y="-230.3" font-family="Times,serif" font-size="14.00">judo&#45;tatami&#45;jsl (4)</text>
</g>
<!-- judo&#45;runtime&#45;core&#45;jsl (5)&#45;&gt;judo&#45;tatami&#45;jsl (4) -->
<g id="edge11" class="edge">
<title>judo&#45;runtime&#45;core&#45;jsl (5)&#45;&gt;judo&#45;tatami&#45;jsl (4)</title>
<path fill="none" stroke="black" d="M642.7,-287.7C633.9,-279.14 623.12,-268.66 613.5,-259.3"/>
<polygon fill="black" stroke="black" points="615.7,-256.57 606.09,-252.1 610.82,-261.58 615.7,-256.57"/>
</g>
<!-- judo&#45;sdk&#45;common (2) -->
<g id="node16" class="node">
<title>judo&#45;sdk&#45;common (2)</title>
<polygon fill="none" stroke="black" points="410,-108 273,-108 273,-72 410,-72 410,-108"/>
<text text-anchor="middle" x="341.5" y="-86.3" font-family="Times,serif" font-size="14.00">judo&#45;sdk&#45;common (2)</text>
</g>
<!-- judo&#45;sdk&#45;common (2)&#45;&gt;judo&#45;dao&#45;api (1) -->
<g id="edge14" class="edge">
<title>judo&#45;sdk&#45;common (2)&#45;&gt;judo&#45;dao&#45;api (1)</title>
<path fill="none" stroke="black" d="M309.7,-71.88C292.39,-62.55 270.78,-50.92 252.24,-40.94"/>
<polygon fill="black" stroke="black" points="253.89,-37.85 243.42,-36.19 250.57,-44.01 253.89,-37.85"/>
</g>
<!-- judo&#45;sdk&#45;common (2)&#45;&gt;judo&#45;meta&#45;asm (1) -->
<g id="edge13" class="edge">
<title>judo&#45;sdk&#45;common (2)&#45;&gt;judo&#45;meta&#45;asm (1)</title>
<path fill="none" stroke="black" d="M341.5,-71.7C341.5,-63.98 341.5,-54.71 341.5,-46.11"/>
<polygon fill="black" stroke="black" points="345,-46.1 341.5,-36.1 338,-46.1 345,-46.1"/>
</g>
<!-- judo&#45;tatami&#45;base (3)&#45;&gt;judo&#45;meta&#45;expression (2) -->
<g id="edge19" class="edge">
<title>judo&#45;tatami&#45;base (3)&#45;&gt;judo&#45;meta&#45;expression (2)</title>
<path fill="none" stroke="black" d="M568.74,-143.7C558.26,-134.97 545.39,-124.24 534,-114.75"/>
<polygon fill="black" stroke="black" points="535.95,-111.82 526.03,-108.1 531.47,-117.19 535.95,-111.82"/>
</g>
<!-- judo&#45;tatami&#45;base (3)&#45;&gt;judo&#45;meta&#45;liquibase (1) -->
<g id="edge17" class="edge">
<title>judo&#45;tatami&#45;base (3)&#45;&gt;judo&#45;meta&#45;liquibase (1)</title>
<path fill="none" stroke="black" d="M610.26,-143.7C620.74,-134.97 633.61,-124.24 645,-114.75"/>
<polygon fill="black" stroke="black" points="647.53,-117.19 652.97,-108.1 643.05,-111.82 647.53,-117.19"/>
</g>
<!-- judo&#45;tatami&#45;base (3)&#45;&gt;judo&#45;meta&#45;rdbms (1) -->
<g id="edge16" class="edge">
<title>judo&#45;tatami&#45;base (3)&#45;&gt;judo&#45;meta&#45;rdbms (1)</title>
<path fill="none" stroke="black" d="M647.9,-143.97C682.02,-134.01 725.25,-121.41 760.97,-110.99"/>
<polygon fill="black" stroke="black" points="762.21,-114.27 770.83,-108.11 760.25,-107.55 762.21,-114.27"/>
</g>
<!-- judo&#45;tatami&#45;base (3)&#45;&gt;judo&#45;operation&#45;utils (2) -->
<g id="edge20" class="edge">
<title>judo&#45;tatami&#45;base (3)&#45;&gt;judo&#45;operation&#45;utils (2)</title>
<path fill="none" stroke="black" d="M525.39,-145.93C522.05,-145.25 518.74,-144.6 515.5,-144 407.42,-123.9 376.63,-127.54 265.35,-108.27"/>
<polygon fill="black" stroke="black" points="265.87,-104.8 255.41,-106.52 264.66,-111.7 265.87,-104.8"/>
</g>
<!-- judo&#45;tatami&#45;base (3)&#45;&gt;judo&#45;sdk&#45;common (2) -->
<g id="edge15" class="edge">
<title>judo&#45;tatami&#45;base (3)&#45;&gt;judo&#45;sdk&#45;common (2)</title>
<path fill="none" stroke="black" d="M529.15,-143.97C493.75,-133.97 448.84,-121.3 411.84,-110.85"/>
<polygon fill="black" stroke="black" points="412.7,-107.46 402.12,-108.11 410.79,-114.2 412.7,-107.46"/>
</g>
<!-- judo&#45;tatami&#45;core (1) -->
<g id="node18" class="node">
<title>judo&#45;tatami&#45;core (1)</title>
<polygon fill="none" stroke="black" points="1040,-108 913,-108 913,-72 1040,-72 1040,-108"/>
<text text-anchor="middle" x="976.5" y="-86.3" font-family="Times,serif" font-size="14.00">judo&#45;tatami&#45;core (1)</text>
</g>
<!-- judo&#45;tatami&#45;base (3)&#45;&gt;judo&#45;tatami&#45;core (1) -->
<g id="edge18" class="edge">
<title>judo&#45;tatami&#45;base (3)&#45;&gt;judo&#45;tatami&#45;core (1)</title>
<path fill="none" stroke="black" d="M653.61,-145.95C656.95,-145.27 660.26,-144.61 663.5,-144 766.79,-124.45 796.43,-128.21 903.09,-108.19"/>
<polygon fill="black" stroke="black" points="903.79,-111.62 912.96,-106.31 902.48,-104.74 903.79,-111.62"/>
</g>
<!-- judo&#45;tatami&#45;jsl (4)&#45;&gt;judo&#45;meta&#45;jsl (1) -->
<g id="edge22" class="edge">
<title>judo&#45;tatami&#45;jsl (4)&#45;&gt;judo&#45;meta&#45;jsl (1)</title>
<path fill="none" stroke="black" d="M555.23,-215.88C537.04,-206.51 514.31,-194.81 494.86,-184.8"/>
<polygon fill="black" stroke="black" points="496.39,-181.65 485.9,-180.19 493.19,-187.88 496.39,-181.65"/>
</g>
<!-- judo&#45;tatami&#45;jsl (4)&#45;&gt;judo&#45;tatami&#45;base (3) -->
<g id="edge21" class="edge">
<title>judo&#45;tatami&#45;jsl (4)&#45;&gt;judo&#45;tatami&#45;base (3)</title>
<path fill="none" stroke="black" d="M588.75,-215.7C588.86,-207.98 588.99,-198.71 589.11,-190.11"/>
<polygon fill="black" stroke="black" points="592.61,-190.15 589.26,-180.1 585.61,-190.05 592.61,-190.15"/>
</g>
</g>
</svg>
